G04*
G04 #@! TF.GenerationSoftware,Altium Limited,Altium Designer,21.7.1 (17)*
G04*
G04 Layer_Color=8388736*
%FSLAX42Y42*%
%MOMM*%
G71*
G04*
G04 #@! TF.SameCoordinates,023FFD1A-8B7E-49EE-8FAD-F7FEFAD85E63*
G04*
G04*
G04 #@! TF.FilePolarity,Positive*
G04*
G01*
G75*
%ADD10C,0.20*%
G36*
X6350Y6518D02*
Y6518D01*
Y6518D01*
Y6517D01*
Y6517D01*
X6350Y6516D01*
Y6515D01*
X6350Y6514D01*
X6350Y6513D01*
X6350Y6510D01*
X6349Y6507D01*
X6349Y6505D01*
X6348Y6504D01*
X6348Y6503D01*
Y6503D01*
X6348Y6502D01*
X6348Y6502D01*
X6348Y6502D01*
X6347Y6501D01*
X6346Y6499D01*
X6345Y6498D01*
X6344Y6496D01*
X6342Y6495D01*
X6340Y6494D01*
X6340D01*
X6340Y6493D01*
X6340Y6493D01*
X6339Y6493D01*
X6339Y6493D01*
X6338Y6492D01*
X6337Y6492D01*
X6336Y6492D01*
X6335Y6491D01*
X6334Y6491D01*
X6333Y6491D01*
X6331Y6491D01*
X6330Y6490D01*
X6329Y6490D01*
X6325Y6490D01*
X6324D01*
X6324Y6490D01*
X6323D01*
X6322Y6490D01*
X6321Y6490D01*
X6320Y6490D01*
X6318Y6491D01*
X6315Y6491D01*
X6313Y6492D01*
X6311Y6493D01*
X6310D01*
X6310Y6493D01*
X6310Y6493D01*
X6310Y6494D01*
X6309Y6494D01*
X6307Y6495D01*
X6306Y6497D01*
X6305Y6498D01*
X6303Y6500D01*
X6302Y6502D01*
Y6502D01*
X6302Y6502D01*
X6302Y6503D01*
X6302Y6503D01*
X6302Y6504D01*
X6302Y6504D01*
X6301Y6505D01*
X6301Y6506D01*
X6301Y6507D01*
X6301Y6509D01*
X6301Y6510D01*
X6300Y6511D01*
X6300Y6513D01*
X6300Y6514D01*
X6300Y6516D01*
Y6518D01*
Y6555D01*
X6309D01*
Y6518D01*
Y6518D01*
Y6518D01*
Y6517D01*
Y6517D01*
X6309Y6516D01*
Y6515D01*
X6309Y6513D01*
X6309Y6511D01*
X6309Y6509D01*
X6310Y6507D01*
X6310Y6507D01*
X6310Y6506D01*
X6310Y6506D01*
X6310Y6505D01*
X6311Y6505D01*
X6311Y6504D01*
X6312Y6503D01*
X6313Y6502D01*
X6314Y6501D01*
X6315Y6500D01*
X6315Y6500D01*
X6316Y6499D01*
X6317Y6499D01*
X6318Y6499D01*
X6319Y6498D01*
X6321Y6498D01*
X6323Y6498D01*
X6324Y6498D01*
X6325D01*
X6326Y6498D01*
X6327D01*
X6328Y6498D01*
X6330Y6498D01*
X6332Y6499D01*
X6334Y6499D01*
X6336Y6500D01*
X6337Y6501D01*
X6338Y6502D01*
X6338Y6502D01*
X6338Y6502D01*
X6338Y6502D01*
X6338Y6503D01*
X6339Y6503D01*
X6339Y6504D01*
X6339Y6505D01*
X6340Y6505D01*
X6340Y6506D01*
X6340Y6508D01*
X6341Y6509D01*
X6341Y6511D01*
X6341Y6512D01*
X6342Y6514D01*
X6342Y6516D01*
Y6518D01*
Y6555D01*
X6350D01*
Y6518D01*
D02*
G37*
G36*
X6401Y6547D02*
X6375D01*
X6372Y6529D01*
X6372Y6530D01*
X6372Y6530D01*
X6372Y6530D01*
X6373Y6530D01*
X6373Y6530D01*
X6374Y6531D01*
X6375Y6532D01*
X6377Y6532D01*
X6379Y6533D01*
X6381Y6533D01*
X6382Y6534D01*
X6385D01*
X6385Y6533D01*
X6386Y6533D01*
X6387Y6533D01*
X6388Y6533D01*
X6389Y6533D01*
X6391Y6532D01*
X6392Y6532D01*
X6393Y6531D01*
X6394Y6530D01*
X6396Y6530D01*
X6397Y6529D01*
X6398Y6528D01*
X6398Y6528D01*
X6398Y6527D01*
X6398Y6527D01*
X6399Y6527D01*
X6399Y6526D01*
X6400Y6525D01*
X6400Y6525D01*
X6401Y6524D01*
X6401Y6523D01*
X6402Y6522D01*
X6402Y6520D01*
X6403Y6519D01*
X6403Y6518D01*
X6403Y6516D01*
X6404Y6514D01*
X6404Y6513D01*
Y6513D01*
Y6512D01*
Y6512D01*
X6404Y6511D01*
X6403Y6511D01*
X6403Y6510D01*
X6403Y6509D01*
X6403Y6508D01*
X6402Y6505D01*
X6402Y6503D01*
X6401Y6501D01*
X6400Y6500D01*
X6399Y6499D01*
X6399Y6498D01*
X6398Y6498D01*
X6398Y6497D01*
X6398Y6497D01*
X6397Y6497D01*
X6397Y6496D01*
X6396Y6495D01*
X6395Y6495D01*
X6394Y6494D01*
X6393Y6493D01*
X6392Y6492D01*
X6390Y6492D01*
X6389Y6491D01*
X6387Y6491D01*
X6386Y6490D01*
X6384Y6490D01*
X6382Y6490D01*
X6381D01*
X6380Y6490D01*
X6380Y6490D01*
X6379Y6490D01*
X6378Y6490D01*
X6377Y6491D01*
X6374Y6491D01*
X6372Y6492D01*
X6371Y6493D01*
X6370Y6493D01*
X6369Y6494D01*
X6367Y6495D01*
X6367Y6495D01*
X6367Y6495D01*
X6367Y6495D01*
X6367Y6496D01*
X6366Y6496D01*
X6366Y6497D01*
X6365Y6497D01*
X6365Y6498D01*
X6364Y6499D01*
X6364Y6500D01*
X6362Y6502D01*
X6362Y6505D01*
X6361Y6506D01*
X6361Y6508D01*
X6369Y6508D01*
Y6508D01*
Y6508D01*
X6370Y6508D01*
X6370Y6507D01*
X6370Y6506D01*
X6370Y6505D01*
X6371Y6504D01*
X6372Y6502D01*
X6372Y6501D01*
X6374Y6499D01*
X6374Y6499D01*
X6374Y6499D01*
X6375Y6499D01*
X6376Y6498D01*
X6377Y6497D01*
X6378Y6497D01*
X6380Y6497D01*
X6382Y6496D01*
X6382D01*
X6383Y6497D01*
X6384Y6497D01*
X6385Y6497D01*
X6387Y6497D01*
X6388Y6498D01*
X6390Y6499D01*
X6391Y6500D01*
X6391Y6501D01*
X6391Y6501D01*
X6392Y6501D01*
X6392Y6501D01*
X6392Y6501D01*
X6393Y6502D01*
X6393Y6504D01*
X6394Y6505D01*
X6395Y6507D01*
X6395Y6510D01*
X6395Y6511D01*
Y6512D01*
Y6512D01*
Y6512D01*
Y6513D01*
X6395Y6513D01*
Y6514D01*
X6395Y6514D01*
X6395Y6516D01*
X6394Y6518D01*
X6394Y6519D01*
X6393Y6521D01*
X6392Y6523D01*
Y6523D01*
X6391Y6523D01*
X6391Y6523D01*
X6390Y6524D01*
X6389Y6525D01*
X6387Y6525D01*
X6386Y6526D01*
X6384Y6526D01*
X6383Y6527D01*
X6381D01*
X6380Y6527D01*
X6379Y6526D01*
X6378Y6526D01*
X6377Y6526D01*
X6376Y6525D01*
X6375Y6525D01*
X6375Y6525D01*
X6374Y6525D01*
X6374Y6524D01*
X6373Y6524D01*
X6372Y6523D01*
X6371Y6522D01*
X6371Y6521D01*
X6370Y6520D01*
X6363Y6521D01*
X6369Y6554D01*
X6401D01*
Y6547D01*
D02*
G37*
G36*
X3430Y6331D02*
X3393D01*
X3393D01*
X3393D01*
X3392D01*
X3392D01*
X3391Y6331D01*
X3390D01*
X3388Y6331D01*
X3386Y6331D01*
X3384Y6331D01*
X3382Y6330D01*
X3382Y6330D01*
X3381Y6330D01*
X3381Y6330D01*
X3380Y6330D01*
X3380Y6329D01*
X3379Y6329D01*
X3378Y6328D01*
X3377Y6327D01*
X3376Y6326D01*
X3375Y6325D01*
X3375Y6325D01*
X3374Y6324D01*
X3374Y6323D01*
X3374Y6322D01*
X3373Y6321D01*
X3373Y6319D01*
X3373Y6317D01*
X3373Y6316D01*
Y6315D01*
X3373Y6314D01*
Y6313D01*
X3373Y6312D01*
X3373Y6310D01*
X3374Y6308D01*
X3374Y6306D01*
X3375Y6304D01*
X3376Y6303D01*
X3377Y6302D01*
X3377Y6302D01*
X3377Y6302D01*
X3377Y6302D01*
X3378Y6302D01*
X3378Y6301D01*
X3379Y6301D01*
X3380Y6301D01*
X3380Y6300D01*
X3381Y6300D01*
X3383Y6300D01*
X3384Y6299D01*
X3386Y6299D01*
X3387Y6299D01*
X3389Y6298D01*
X3391Y6298D01*
X3393D01*
X3430D01*
Y6290D01*
X3393D01*
X3393D01*
X3393D01*
X3392D01*
X3392D01*
X3391Y6290D01*
X3390D01*
X3389Y6290D01*
X3388Y6290D01*
X3385Y6290D01*
X3382Y6291D01*
X3380Y6291D01*
X3379Y6292D01*
X3378Y6292D01*
X3378D01*
X3377Y6292D01*
X3377Y6292D01*
X3377Y6292D01*
X3376Y6293D01*
X3374Y6294D01*
X3373Y6295D01*
X3371Y6296D01*
X3370Y6298D01*
X3369Y6300D01*
Y6300D01*
X3368Y6300D01*
X3368Y6300D01*
X3368Y6301D01*
X3368Y6301D01*
X3367Y6302D01*
X3367Y6303D01*
X3367Y6304D01*
X3366Y6305D01*
X3366Y6306D01*
X3366Y6307D01*
X3366Y6309D01*
X3365Y6310D01*
X3365Y6311D01*
X3365Y6315D01*
Y6316D01*
X3365Y6316D01*
Y6317D01*
X3365Y6318D01*
X3365Y6319D01*
X3365Y6320D01*
X3366Y6322D01*
X3366Y6325D01*
X3367Y6327D01*
X3368Y6329D01*
Y6330D01*
X3368Y6330D01*
X3368Y6330D01*
X3369Y6330D01*
X3369Y6331D01*
X3370Y6333D01*
X3372Y6334D01*
X3373Y6335D01*
X3375Y6337D01*
X3377Y6338D01*
X3377D01*
X3377Y6338D01*
X3378Y6338D01*
X3378Y6338D01*
X3379Y6338D01*
X3379Y6338D01*
X3380Y6339D01*
X3381Y6339D01*
X3382Y6339D01*
X3384Y6339D01*
X3385Y6339D01*
X3386Y6340D01*
X3388Y6340D01*
X3389Y6340D01*
X3391Y6340D01*
X3393D01*
X3430D01*
Y6331D01*
D02*
G37*
G36*
X3384Y6271D02*
X3384D01*
X3384Y6271D01*
X3383Y6271D01*
X3383Y6271D01*
X3382Y6270D01*
X3382Y6270D01*
X3380Y6270D01*
X3379Y6269D01*
X3377Y6268D01*
X3376Y6267D01*
X3374Y6266D01*
X3374Y6266D01*
X3374Y6266D01*
X3373Y6265D01*
X3373Y6264D01*
X3372Y6263D01*
X3372Y6262D01*
X3372Y6260D01*
X3371Y6258D01*
Y6258D01*
X3372Y6257D01*
X3372Y6256D01*
X3372Y6255D01*
X3372Y6254D01*
X3373Y6252D01*
X3374Y6251D01*
X3375Y6249D01*
X3375Y6249D01*
X3376Y6248D01*
X3377Y6248D01*
X3378Y6247D01*
X3379Y6246D01*
X3381Y6246D01*
X3383Y6245D01*
X3385Y6245D01*
X3385D01*
X3385D01*
X3385D01*
X3386Y6245D01*
X3387Y6245D01*
X3388Y6246D01*
X3389Y6246D01*
X3391Y6247D01*
X3392Y6248D01*
X3394Y6249D01*
X3394Y6249D01*
X3394Y6249D01*
X3395Y6250D01*
X3396Y6251D01*
X3396Y6252D01*
X3397Y6254D01*
X3397Y6256D01*
X3397Y6258D01*
Y6259D01*
X3397Y6259D01*
X3397Y6260D01*
X3397Y6261D01*
X3397Y6262D01*
X3396Y6263D01*
X3403Y6262D01*
Y6262D01*
X3403Y6262D01*
Y6260D01*
X3403Y6259D01*
X3404Y6258D01*
X3404Y6257D01*
X3404Y6255D01*
X3405Y6254D01*
X3406Y6252D01*
Y6252D01*
X3406Y6252D01*
X3406Y6251D01*
X3407Y6251D01*
X3408Y6250D01*
X3409Y6249D01*
X3410Y6249D01*
X3412Y6248D01*
X3413Y6248D01*
X3414D01*
X3414D01*
X3414D01*
X3415D01*
X3415Y6248D01*
X3416Y6248D01*
X3418Y6249D01*
X3419Y6249D01*
X3420Y6250D01*
X3421Y6251D01*
X3421Y6251D01*
X3421Y6252D01*
X3422Y6252D01*
X3423Y6253D01*
X3423Y6254D01*
X3423Y6255D01*
X3424Y6257D01*
X3424Y6259D01*
Y6259D01*
X3424Y6260D01*
X3424Y6261D01*
X3423Y6262D01*
X3423Y6264D01*
X3422Y6265D01*
X3421Y6266D01*
X3421Y6266D01*
X3420Y6267D01*
X3420Y6267D01*
X3419Y6268D01*
X3418Y6268D01*
X3416Y6269D01*
X3414Y6270D01*
X3412Y6270D01*
X3414Y6278D01*
X3414D01*
X3414Y6278D01*
X3415Y6278D01*
X3415Y6278D01*
X3416Y6277D01*
X3416Y6277D01*
X3418Y6277D01*
X3420Y6276D01*
X3422Y6275D01*
X3424Y6273D01*
X3426Y6271D01*
X3426Y6271D01*
X3426Y6271D01*
X3426Y6271D01*
X3427Y6270D01*
X3427Y6270D01*
X3427Y6269D01*
X3428Y6269D01*
X3428Y6268D01*
X3429Y6266D01*
X3430Y6264D01*
X3430Y6261D01*
X3430Y6260D01*
Y6258D01*
X3430Y6257D01*
X3430Y6256D01*
X3430Y6254D01*
X3429Y6252D01*
X3429Y6251D01*
X3428Y6249D01*
Y6249D01*
X3428Y6249D01*
X3428Y6248D01*
X3427Y6248D01*
X3426Y6247D01*
X3426Y6246D01*
X3425Y6244D01*
X3423Y6243D01*
X3422Y6242D01*
X3422Y6242D01*
X3421Y6242D01*
X3420Y6242D01*
X3419Y6241D01*
X3418Y6241D01*
X3417Y6240D01*
X3415Y6240D01*
X3414Y6240D01*
X3414D01*
X3413D01*
X3412Y6240D01*
X3411Y6240D01*
X3410Y6241D01*
X3409Y6241D01*
X3407Y6242D01*
X3406Y6242D01*
X3406Y6242D01*
X3406Y6243D01*
X3405Y6243D01*
X3404Y6244D01*
X3403Y6245D01*
X3402Y6246D01*
X3402Y6247D01*
X3401Y6249D01*
Y6249D01*
X3401Y6249D01*
X3401Y6248D01*
X3401Y6248D01*
X3400Y6247D01*
X3400Y6246D01*
X3399Y6244D01*
X3398Y6243D01*
X3397Y6241D01*
X3395Y6240D01*
X3395Y6240D01*
X3395Y6240D01*
X3394Y6239D01*
X3392Y6238D01*
X3391Y6238D01*
X3389Y6237D01*
X3387Y6237D01*
X3385Y6237D01*
X3385D01*
X3385D01*
X3384D01*
X3384Y6237D01*
X3383Y6237D01*
X3382Y6237D01*
X3381Y6237D01*
X3380Y6238D01*
X3378Y6238D01*
X3377Y6239D01*
X3376Y6239D01*
X3374Y6240D01*
X3373Y6241D01*
X3372Y6242D01*
X3371Y6243D01*
X3371Y6243D01*
X3371Y6243D01*
X3370Y6244D01*
X3370Y6244D01*
X3369Y6245D01*
X3369Y6245D01*
X3368Y6246D01*
X3368Y6247D01*
X3367Y6248D01*
X3367Y6249D01*
X3366Y6251D01*
X3366Y6252D01*
X3366Y6254D01*
X3365Y6255D01*
X3365Y6257D01*
X3365Y6258D01*
Y6259D01*
X3365Y6260D01*
X3365Y6261D01*
X3365Y6261D01*
X3365Y6262D01*
X3366Y6263D01*
X3366Y6266D01*
X3367Y6268D01*
X3368Y6269D01*
X3368Y6270D01*
X3369Y6271D01*
X3370Y6272D01*
X3370Y6273D01*
X3370Y6273D01*
X3371Y6273D01*
X3371Y6273D01*
X3371Y6274D01*
X3372Y6274D01*
X3373Y6275D01*
X3374Y6275D01*
X3374Y6276D01*
X3375Y6276D01*
X3378Y6277D01*
X3380Y6278D01*
X3382Y6279D01*
X3383Y6279D01*
X3384Y6271D01*
D02*
G37*
G36*
X6156Y4875D02*
X6157D01*
X6158Y4875D01*
X6159Y4875D01*
X6160Y4875D01*
X6162Y4874D01*
X6165Y4874D01*
X6167Y4873D01*
X6169Y4872D01*
X6170D01*
X6170Y4872D01*
X6170Y4872D01*
X6170Y4871D01*
X6171Y4871D01*
X6173Y4870D01*
X6174Y4868D01*
X6175Y4867D01*
X6177Y4865D01*
X6178Y4863D01*
Y4863D01*
X6178Y4863D01*
X6178Y4862D01*
X6178Y4862D01*
X6178Y4861D01*
X6178Y4861D01*
X6179Y4860D01*
X6179Y4859D01*
X6179Y4858D01*
X6179Y4856D01*
X6179Y4855D01*
X6180Y4854D01*
X6180Y4852D01*
X6180Y4851D01*
X6180Y4849D01*
Y4847D01*
Y4810D01*
X6171D01*
Y4847D01*
Y4847D01*
Y4847D01*
Y4848D01*
Y4848D01*
X6171Y4849D01*
Y4850D01*
X6171Y4852D01*
X6171Y4854D01*
X6171Y4856D01*
X6170Y4858D01*
X6170Y4858D01*
X6170Y4859D01*
X6170Y4859D01*
X6170Y4860D01*
X6169Y4860D01*
X6169Y4861D01*
X6168Y4862D01*
X6167Y4863D01*
X6166Y4864D01*
X6165Y4865D01*
X6165Y4865D01*
X6164Y4866D01*
X6163Y4866D01*
X6162Y4866D01*
X6161Y4867D01*
X6159Y4867D01*
X6157Y4867D01*
X6156Y4867D01*
X6155D01*
X6154Y4867D01*
X6153D01*
X6152Y4867D01*
X6150Y4867D01*
X6148Y4866D01*
X6146Y4866D01*
X6144Y4865D01*
X6143Y4864D01*
X6142Y4863D01*
X6142Y4863D01*
X6142Y4863D01*
X6142Y4863D01*
X6142Y4862D01*
X6141Y4862D01*
X6141Y4861D01*
X6141Y4860D01*
X6140Y4860D01*
X6140Y4859D01*
X6140Y4857D01*
X6139Y4856D01*
X6139Y4854D01*
X6139Y4853D01*
X6138Y4851D01*
X6138Y4849D01*
Y4847D01*
Y4810D01*
X6130D01*
Y4847D01*
Y4847D01*
Y4847D01*
Y4848D01*
Y4848D01*
X6130Y4849D01*
Y4850D01*
X6130Y4851D01*
X6130Y4852D01*
X6130Y4855D01*
X6131Y4858D01*
X6131Y4860D01*
X6132Y4861D01*
X6132Y4862D01*
Y4862D01*
X6132Y4863D01*
X6132Y4863D01*
X6132Y4863D01*
X6133Y4864D01*
X6134Y4866D01*
X6135Y4867D01*
X6136Y4869D01*
X6138Y4870D01*
X6140Y4871D01*
X6140D01*
X6140Y4872D01*
X6140Y4872D01*
X6141Y4872D01*
X6141Y4872D01*
X6142Y4873D01*
X6143Y4873D01*
X6144Y4873D01*
X6145Y4874D01*
X6146Y4874D01*
X6147Y4874D01*
X6149Y4874D01*
X6150Y4875D01*
X6151Y4875D01*
X6155Y4875D01*
X6156D01*
X6156Y4875D01*
D02*
G37*
G36*
X6094Y4859D02*
X6121D01*
Y4851D01*
X6092Y4810D01*
X6086D01*
Y4851D01*
X6077D01*
Y4859D01*
X6086D01*
Y4874D01*
X6094D01*
Y4859D01*
D02*
G37*
G36*
X3734Y3945D02*
X3735Y3945D01*
X3736Y3945D01*
X3737Y3945D01*
X3738Y3945D01*
X3740Y3944D01*
X3743Y3943D01*
X3744Y3943D01*
X3745Y3942D01*
X3746Y3941D01*
X3747Y3940D01*
X3747Y3940D01*
X3747Y3940D01*
X3748Y3940D01*
X3748Y3939D01*
X3748Y3939D01*
X3749Y3938D01*
X3749Y3938D01*
X3750Y3937D01*
X3751Y3935D01*
X3752Y3933D01*
X3752Y3932D01*
X3752Y3930D01*
X3752Y3929D01*
X3753Y3928D01*
Y3927D01*
Y3927D01*
X3752Y3926D01*
X3752Y3925D01*
X3752Y3924D01*
X3752Y3923D01*
X3751Y3921D01*
X3751Y3920D01*
X3751Y3920D01*
X3751Y3919D01*
X3750Y3919D01*
X3750Y3918D01*
X3749Y3917D01*
X3748Y3915D01*
X3747Y3914D01*
X3746Y3912D01*
X3745Y3912D01*
X3745Y3912D01*
X3744Y3911D01*
X3744Y3911D01*
X3743Y3910D01*
X3743Y3909D01*
X3742Y3909D01*
X3741Y3908D01*
X3740Y3907D01*
X3739Y3906D01*
X3738Y3905D01*
X3737Y3904D01*
X3735Y3902D01*
X3734Y3901D01*
X3733Y3901D01*
X3733Y3901D01*
X3733Y3900D01*
X3732Y3900D01*
X3732Y3900D01*
X3731Y3899D01*
X3730Y3898D01*
X3728Y3896D01*
X3727Y3895D01*
X3725Y3894D01*
X3725Y3893D01*
X3724Y3893D01*
X3724Y3893D01*
X3724Y3893D01*
X3724Y3892D01*
X3723Y3892D01*
X3723Y3891D01*
X3722Y3890D01*
X3721Y3889D01*
X3753D01*
Y3881D01*
X3710D01*
Y3881D01*
Y3882D01*
Y3882D01*
X3710Y3883D01*
X3710Y3884D01*
X3711Y3885D01*
X3711Y3886D01*
X3711Y3887D01*
Y3887D01*
X3711Y3887D01*
X3711Y3887D01*
X3712Y3888D01*
X3712Y3889D01*
X3713Y3891D01*
X3714Y3892D01*
X3715Y3894D01*
X3716Y3895D01*
Y3895D01*
X3716Y3895D01*
X3717Y3896D01*
X3718Y3897D01*
X3719Y3898D01*
X3720Y3899D01*
X3722Y3901D01*
X3724Y3903D01*
X3727Y3905D01*
X3727Y3905D01*
X3727Y3905D01*
X3728Y3906D01*
X3728Y3906D01*
X3729Y3907D01*
X3730Y3908D01*
X3731Y3909D01*
X3732Y3910D01*
X3735Y3912D01*
X3737Y3914D01*
X3738Y3915D01*
X3739Y3916D01*
X3740Y3917D01*
X3741Y3918D01*
Y3918D01*
X3741Y3919D01*
X3741Y3919D01*
X3741Y3919D01*
X3742Y3920D01*
X3743Y3921D01*
X3743Y3923D01*
X3744Y3924D01*
X3744Y3926D01*
X3744Y3928D01*
Y3928D01*
Y3928D01*
X3744Y3929D01*
X3744Y3930D01*
X3744Y3931D01*
X3744Y3932D01*
X3743Y3933D01*
X3742Y3934D01*
X3741Y3936D01*
X3741Y3936D01*
X3740Y3936D01*
X3740Y3937D01*
X3739Y3937D01*
X3737Y3938D01*
X3736Y3938D01*
X3734Y3939D01*
X3732Y3939D01*
X3732D01*
X3731Y3939D01*
X3730Y3939D01*
X3729Y3938D01*
X3728Y3938D01*
X3726Y3937D01*
X3725Y3937D01*
X3723Y3936D01*
X3723Y3935D01*
X3723Y3935D01*
X3722Y3934D01*
X3721Y3933D01*
X3721Y3932D01*
X3720Y3930D01*
X3720Y3928D01*
X3720Y3926D01*
X3712Y3927D01*
Y3927D01*
X3712Y3927D01*
Y3928D01*
X3712Y3928D01*
X3712Y3929D01*
X3712Y3930D01*
X3712Y3931D01*
X3713Y3932D01*
X3714Y3934D01*
X3715Y3936D01*
X3715Y3938D01*
X3716Y3939D01*
X3717Y3940D01*
X3718Y3941D01*
X3718Y3941D01*
X3718Y3941D01*
X3718Y3941D01*
X3719Y3941D01*
X3719Y3942D01*
X3720Y3942D01*
X3721Y3943D01*
X3722Y3943D01*
X3723Y3943D01*
X3724Y3944D01*
X3725Y3944D01*
X3726Y3945D01*
X3728Y3945D01*
X3729Y3945D01*
X3731Y3945D01*
X3732Y3945D01*
X3733D01*
X3734Y3945D01*
D02*
G37*
G36*
X3676Y3945D02*
X3678Y3945D01*
X3680Y3945D01*
X3682Y3945D01*
X3683Y3944D01*
X3683D01*
X3684Y3944D01*
X3684D01*
X3684Y3944D01*
X3685Y3944D01*
X3687Y3943D01*
X3688Y3943D01*
X3690Y3942D01*
X3691Y3941D01*
X3693Y3940D01*
X3693Y3940D01*
X3693Y3939D01*
X3693Y3939D01*
X3694Y3939D01*
X3694Y3938D01*
X3696Y3937D01*
X3697Y3935D01*
X3698Y3933D01*
X3699Y3931D01*
X3700Y3929D01*
Y3929D01*
X3700Y3928D01*
X3701Y3928D01*
X3701Y3927D01*
X3701Y3927D01*
X3701Y3926D01*
X3701Y3925D01*
X3702Y3924D01*
X3702Y3923D01*
X3702Y3922D01*
X3703Y3919D01*
X3703Y3917D01*
X3703Y3913D01*
Y3913D01*
Y3913D01*
Y3913D01*
Y3912D01*
X3703Y3912D01*
Y3911D01*
X3703Y3909D01*
X3702Y3907D01*
X3702Y3905D01*
X3702Y3903D01*
X3701Y3900D01*
Y3900D01*
X3701Y3900D01*
X3701Y3900D01*
X3701Y3900D01*
X3700Y3899D01*
X3700Y3897D01*
X3699Y3896D01*
X3699Y3894D01*
X3698Y3893D01*
X3697Y3891D01*
X3697Y3891D01*
X3696Y3891D01*
X3696Y3890D01*
X3695Y3889D01*
X3694Y3888D01*
X3693Y3887D01*
X3692Y3886D01*
X3691Y3885D01*
X3691Y3885D01*
X3690Y3885D01*
X3690Y3885D01*
X3689Y3884D01*
X3688Y3884D01*
X3686Y3883D01*
X3685Y3883D01*
X3683Y3882D01*
X3683D01*
X3683Y3882D01*
X3683Y3882D01*
X3682Y3882D01*
X3680Y3882D01*
X3679Y3882D01*
X3677Y3881D01*
X3675Y3881D01*
X3673Y3881D01*
X3650D01*
Y3945D01*
X3675D01*
X3676Y3945D01*
D02*
G37*
G36*
X5260Y4010D02*
X5260Y4010D01*
X5261Y4010D01*
X5262Y4010D01*
X5263Y4009D01*
X5265Y4009D01*
X5268Y4008D01*
X5269Y4007D01*
X5270Y4007D01*
X5271Y4006D01*
X5272Y4005D01*
X5272Y4005D01*
X5273Y4005D01*
X5273Y4004D01*
X5273Y4004D01*
X5274Y4004D01*
X5274Y4003D01*
X5275Y4002D01*
X5275Y4001D01*
X5276Y4001D01*
X5276Y4000D01*
X5277Y3997D01*
X5278Y3995D01*
X5278Y3993D01*
X5279Y3992D01*
X5271Y3991D01*
Y3991D01*
X5271Y3991D01*
X5271Y3992D01*
X5270Y3992D01*
X5270Y3993D01*
X5270Y3993D01*
X5270Y3995D01*
X5269Y3996D01*
X5268Y3998D01*
X5267Y3999D01*
X5266Y4001D01*
X5266Y4001D01*
X5266Y4001D01*
X5265Y4002D01*
X5264Y4002D01*
X5263Y4003D01*
X5262Y4003D01*
X5260Y4003D01*
X5258Y4004D01*
X5258D01*
X5257Y4003D01*
X5256Y4003D01*
X5255Y4003D01*
X5254Y4003D01*
X5252Y4002D01*
X5250Y4001D01*
X5249Y4000D01*
X5249Y4000D01*
X5248Y3999D01*
X5248Y3998D01*
X5247Y3997D01*
X5246Y3996D01*
X5246Y3994D01*
X5245Y3992D01*
X5245Y3990D01*
Y3990D01*
Y3990D01*
Y3990D01*
X5245Y3989D01*
X5245Y3988D01*
X5246Y3987D01*
X5246Y3986D01*
X5247Y3984D01*
X5247Y3983D01*
X5249Y3981D01*
X5249Y3981D01*
X5249Y3981D01*
X5250Y3980D01*
X5251Y3979D01*
X5252Y3979D01*
X5254Y3978D01*
X5256Y3978D01*
X5258Y3978D01*
X5258D01*
X5259Y3978D01*
X5260Y3978D01*
X5261Y3978D01*
X5262Y3978D01*
X5263Y3979D01*
X5262Y3972D01*
X5262D01*
X5261Y3972D01*
X5260D01*
X5259Y3972D01*
X5258Y3971D01*
X5257Y3971D01*
X5255Y3971D01*
X5254Y3970D01*
X5252Y3969D01*
X5252D01*
X5252Y3969D01*
X5251Y3969D01*
X5251Y3968D01*
X5250Y3967D01*
X5249Y3966D01*
X5249Y3965D01*
X5248Y3963D01*
X5248Y3962D01*
Y3961D01*
Y3961D01*
Y3961D01*
Y3960D01*
X5248Y3960D01*
X5248Y3959D01*
X5249Y3957D01*
X5249Y3956D01*
X5250Y3955D01*
X5251Y3954D01*
X5251Y3954D01*
X5251Y3954D01*
X5252Y3953D01*
X5253Y3952D01*
X5254Y3952D01*
X5255Y3952D01*
X5257Y3951D01*
X5258Y3951D01*
X5259D01*
X5260Y3951D01*
X5261Y3951D01*
X5262Y3952D01*
X5264Y3952D01*
X5265Y3953D01*
X5266Y3954D01*
X5266Y3954D01*
X5266Y3955D01*
X5267Y3955D01*
X5268Y3956D01*
X5268Y3957D01*
X5269Y3959D01*
X5270Y3961D01*
X5270Y3963D01*
X5278Y3961D01*
Y3961D01*
X5278Y3961D01*
X5278Y3960D01*
X5278Y3960D01*
X5277Y3959D01*
X5277Y3959D01*
X5276Y3957D01*
X5276Y3955D01*
X5274Y3953D01*
X5273Y3951D01*
X5271Y3949D01*
X5271Y3949D01*
X5271Y3949D01*
X5271Y3949D01*
X5270Y3948D01*
X5270Y3948D01*
X5269Y3948D01*
X5269Y3947D01*
X5268Y3947D01*
X5266Y3946D01*
X5264Y3945D01*
X5261Y3945D01*
X5260Y3945D01*
X5258D01*
X5257Y3945D01*
X5255Y3945D01*
X5254Y3945D01*
X5252Y3946D01*
X5251Y3946D01*
X5249Y3947D01*
X5249D01*
X5249Y3947D01*
X5248Y3947D01*
X5247Y3948D01*
X5247Y3949D01*
X5245Y3949D01*
X5244Y3950D01*
X5243Y3952D01*
X5242Y3953D01*
X5242Y3953D01*
X5242Y3954D01*
X5242Y3955D01*
X5241Y3956D01*
X5241Y3957D01*
X5240Y3958D01*
X5240Y3960D01*
X5240Y3961D01*
Y3961D01*
Y3962D01*
X5240Y3963D01*
X5240Y3964D01*
X5240Y3965D01*
X5241Y3966D01*
X5241Y3968D01*
X5242Y3969D01*
X5242Y3969D01*
X5243Y3969D01*
X5243Y3970D01*
X5244Y3971D01*
X5245Y3972D01*
X5246Y3973D01*
X5247Y3973D01*
X5249Y3974D01*
X5249D01*
X5248Y3974D01*
X5248Y3974D01*
X5248Y3974D01*
X5247Y3975D01*
X5246Y3975D01*
X5244Y3976D01*
X5243Y3977D01*
X5241Y3978D01*
X5240Y3980D01*
X5240Y3980D01*
X5239Y3980D01*
X5239Y3981D01*
X5238Y3983D01*
X5238Y3984D01*
X5237Y3986D01*
X5237Y3988D01*
X5237Y3990D01*
Y3990D01*
Y3990D01*
Y3991D01*
X5237Y3991D01*
X5237Y3992D01*
X5237Y3993D01*
X5237Y3994D01*
X5237Y3995D01*
X5238Y3997D01*
X5239Y3998D01*
X5239Y3999D01*
X5240Y4001D01*
X5241Y4002D01*
X5242Y4003D01*
X5243Y4004D01*
X5243Y4004D01*
X5243Y4004D01*
X5244Y4005D01*
X5244Y4005D01*
X5245Y4006D01*
X5245Y4006D01*
X5246Y4007D01*
X5247Y4007D01*
X5248Y4008D01*
X5249Y4008D01*
X5251Y4009D01*
X5252Y4009D01*
X5253Y4009D01*
X5255Y4010D01*
X5257Y4010D01*
X5258Y4010D01*
X5259D01*
X5260Y4010D01*
D02*
G37*
G36*
X5340Y3945D02*
X5315D01*
X5314Y3945D01*
X5312Y3945D01*
X5310Y3945D01*
X5308Y3946D01*
X5307Y3946D01*
X5307D01*
X5306Y3946D01*
X5306D01*
X5306Y3946D01*
X5305Y3946D01*
X5303Y3947D01*
X5302Y3948D01*
X5300Y3948D01*
X5299Y3949D01*
X5297Y3950D01*
X5297Y3951D01*
X5297Y3951D01*
X5297Y3951D01*
X5296Y3951D01*
X5296Y3952D01*
X5294Y3953D01*
X5293Y3955D01*
X5292Y3957D01*
X5291Y3959D01*
X5290Y3961D01*
Y3961D01*
X5290Y3962D01*
X5289Y3962D01*
X5289Y3963D01*
X5289Y3963D01*
X5289Y3964D01*
X5289Y3965D01*
X5288Y3966D01*
X5288Y3967D01*
X5288Y3968D01*
X5287Y3971D01*
X5287Y3973D01*
X5287Y3977D01*
Y3977D01*
Y3977D01*
Y3977D01*
Y3978D01*
X5287Y3978D01*
Y3979D01*
X5287Y3981D01*
X5288Y3983D01*
X5288Y3985D01*
X5288Y3987D01*
X5289Y3990D01*
Y3990D01*
X5289Y3990D01*
X5289Y3990D01*
X5289Y3990D01*
X5290Y3992D01*
X5290Y3993D01*
X5291Y3994D01*
X5291Y3996D01*
X5292Y3997D01*
X5293Y3999D01*
X5293Y3999D01*
X5294Y3999D01*
X5294Y4000D01*
X5295Y4001D01*
X5296Y4002D01*
X5297Y4003D01*
X5298Y4004D01*
X5299Y4005D01*
X5299Y4005D01*
X5300Y4005D01*
X5300Y4005D01*
X5301Y4006D01*
X5302Y4006D01*
X5304Y4007D01*
X5305Y4007D01*
X5307Y4008D01*
X5307D01*
X5307Y4008D01*
X5307Y4008D01*
X5308Y4008D01*
X5310Y4008D01*
X5311Y4009D01*
X5313Y4009D01*
X5315Y4009D01*
X5317Y4009D01*
X5340D01*
Y3945D01*
D02*
G37*
G36*
X4925Y3395D02*
X4925Y3394D01*
X4925Y3392D01*
X4925Y3390D01*
X4925Y3388D01*
X4924Y3387D01*
Y3387D01*
X4924Y3386D01*
Y3386D01*
X4924Y3386D01*
X4924Y3385D01*
X4923Y3383D01*
X4923Y3382D01*
X4922Y3380D01*
X4921Y3379D01*
X4920Y3377D01*
X4920Y3377D01*
X4919Y3377D01*
X4919Y3377D01*
X4919Y3376D01*
X4918Y3376D01*
X4917Y3374D01*
X4915Y3373D01*
X4913Y3372D01*
X4911Y3371D01*
X4909Y3370D01*
X4909D01*
X4908Y3370D01*
X4908Y3369D01*
X4907Y3369D01*
X4907Y3369D01*
X4906Y3369D01*
X4905Y3369D01*
X4904Y3368D01*
X4903Y3368D01*
X4902Y3368D01*
X4899Y3367D01*
X4897Y3367D01*
X4893Y3367D01*
X4893D01*
X4893D01*
X4893D01*
X4892D01*
X4892Y3367D01*
X4891D01*
X4889Y3367D01*
X4887Y3368D01*
X4885Y3368D01*
X4883Y3368D01*
X4880Y3369D01*
X4880D01*
X4880Y3369D01*
X4880Y3369D01*
X4880Y3369D01*
X4879Y3370D01*
X4877Y3370D01*
X4876Y3371D01*
X4874Y3371D01*
X4873Y3372D01*
X4871Y3373D01*
X4871Y3373D01*
X4871Y3374D01*
X4870Y3374D01*
X4869Y3375D01*
X4868Y3376D01*
X4867Y3377D01*
X4866Y3378D01*
X4865Y3379D01*
X4865Y3379D01*
X4865Y3380D01*
X4865Y3380D01*
X4864Y3381D01*
X4864Y3382D01*
X4863Y3384D01*
X4863Y3385D01*
X4862Y3387D01*
Y3387D01*
X4862Y3387D01*
X4862Y3387D01*
X4862Y3388D01*
X4862Y3390D01*
X4862Y3391D01*
X4861Y3393D01*
X4861Y3395D01*
X4861Y3397D01*
Y3420D01*
X4925D01*
Y3395D01*
D02*
G37*
G36*
X4909Y3353D02*
X4910Y3352D01*
X4910Y3352D01*
X4910Y3352D01*
X4910Y3351D01*
X4911Y3350D01*
X4911Y3349D01*
X4912Y3347D01*
X4914Y3345D01*
X4915Y3343D01*
X4917Y3341D01*
X4917Y3341D01*
X4917Y3341D01*
X4917Y3341D01*
X4918Y3340D01*
X4918Y3340D01*
X4920Y3338D01*
X4921Y3337D01*
X4922Y3336D01*
X4924Y3335D01*
X4925Y3334D01*
Y3329D01*
X4861D01*
Y3337D01*
X4911D01*
X4911Y3337D01*
X4911Y3338D01*
X4910Y3338D01*
X4910Y3339D01*
X4909Y3340D01*
X4908Y3341D01*
X4907Y3343D01*
X4906Y3344D01*
Y3345D01*
X4906Y3345D01*
X4905Y3345D01*
X4905Y3346D01*
X4904Y3347D01*
X4904Y3349D01*
X4903Y3350D01*
X4902Y3351D01*
X4902Y3353D01*
X4909D01*
Y3353D01*
D02*
G37*
G36*
X4044Y3377D02*
X4036D01*
Y3411D01*
X4017D01*
Y3381D01*
X4009D01*
Y3411D01*
X3980D01*
Y3420D01*
X4044D01*
Y3377D01*
D02*
G37*
G36*
Y3341D02*
X4044Y3340D01*
Y3340D01*
X4044Y3338D01*
X4044Y3336D01*
X4043Y3334D01*
X4043Y3332D01*
X4042Y3330D01*
Y3330D01*
X4042Y3330D01*
X4042Y3330D01*
X4041Y3329D01*
X4041Y3328D01*
X4040Y3327D01*
X4039Y3326D01*
X4037Y3324D01*
X4036Y3323D01*
X4036Y3323D01*
X4035Y3323D01*
X4035Y3323D01*
X4033Y3322D01*
X4032Y3322D01*
X4031Y3321D01*
X4029Y3321D01*
X4028Y3321D01*
X4027D01*
X4027D01*
X4026Y3321D01*
X4025Y3321D01*
X4024Y3321D01*
X4023Y3322D01*
X4021Y3322D01*
X4020Y3323D01*
X4020Y3323D01*
X4019Y3324D01*
X4019Y3324D01*
X4018Y3325D01*
X4017Y3326D01*
X4016Y3327D01*
X4015Y3328D01*
X4014Y3330D01*
Y3330D01*
X4014Y3330D01*
X4014Y3329D01*
X4014Y3329D01*
X4013Y3328D01*
X4013Y3327D01*
X4012Y3325D01*
X4011Y3324D01*
X4010Y3322D01*
X4008Y3321D01*
X4008Y3321D01*
X4007Y3320D01*
X4007Y3320D01*
X4006Y3319D01*
X4004Y3319D01*
X4002Y3318D01*
X4001Y3318D01*
X3999Y3318D01*
X3998D01*
X3998D01*
X3998D01*
X3997Y3318D01*
X3996Y3318D01*
X3995Y3318D01*
X3993Y3319D01*
X3992Y3319D01*
X3990Y3320D01*
X3990Y3320D01*
X3990Y3320D01*
X3989Y3320D01*
X3988Y3321D01*
X3987Y3322D01*
X3986Y3322D01*
X3985Y3323D01*
X3984Y3324D01*
X3984Y3324D01*
X3984Y3325D01*
X3983Y3326D01*
X3983Y3326D01*
X3982Y3327D01*
X3982Y3329D01*
X3981Y3330D01*
X3981Y3331D01*
Y3332D01*
X3981Y3332D01*
X3981Y3333D01*
X3981Y3334D01*
X3980Y3336D01*
X3980Y3338D01*
X3980Y3339D01*
X3980Y3342D01*
Y3366D01*
X4044D01*
Y3341D01*
D02*
G37*
G36*
X4028Y3303D02*
X4028Y3303D01*
X4028Y3303D01*
X4029Y3302D01*
X4029Y3302D01*
X4029Y3301D01*
X4030Y3299D01*
X4031Y3298D01*
X4033Y3296D01*
X4034Y3294D01*
X4036Y3292D01*
X4036Y3292D01*
X4036Y3292D01*
X4036Y3291D01*
X4036Y3291D01*
X4037Y3290D01*
X4038Y3289D01*
X4040Y3288D01*
X4041Y3287D01*
X4043Y3286D01*
X4044Y3285D01*
Y3280D01*
X3980D01*
Y3288D01*
X4030D01*
X4030Y3288D01*
X4030Y3288D01*
X4029Y3289D01*
X4028Y3290D01*
X4028Y3291D01*
X4027Y3292D01*
X4026Y3293D01*
X4025Y3295D01*
Y3295D01*
X4024Y3295D01*
X4024Y3296D01*
X4024Y3297D01*
X4023Y3298D01*
X4022Y3299D01*
X4022Y3301D01*
X4021Y3302D01*
X4021Y3303D01*
X4028D01*
Y3303D01*
D02*
G37*
G36*
X4380Y3596D02*
X4337D01*
Y3604D01*
X4371D01*
Y3623D01*
X4341D01*
Y3631D01*
X4371D01*
Y3660D01*
X4380D01*
Y3596D01*
D02*
G37*
G36*
X4307Y3610D02*
X4307Y3610D01*
X4308Y3610D01*
X4308Y3611D01*
X4309Y3612D01*
X4310Y3612D01*
X4312Y3613D01*
X4313Y3614D01*
X4315Y3615D01*
X4315D01*
X4315Y3616D01*
X4315Y3616D01*
X4316Y3616D01*
X4317Y3617D01*
X4319Y3618D01*
X4320Y3618D01*
X4322Y3619D01*
X4323Y3619D01*
Y3612D01*
X4323D01*
X4323Y3612D01*
X4322Y3612D01*
X4322Y3611D01*
X4321Y3611D01*
X4321Y3611D01*
X4319Y3610D01*
X4317Y3609D01*
X4315Y3607D01*
X4313Y3606D01*
X4311Y3604D01*
X4311Y3604D01*
X4311Y3604D01*
X4311Y3604D01*
X4311Y3604D01*
X4310Y3603D01*
X4309Y3602D01*
X4308Y3600D01*
X4306Y3599D01*
X4305Y3597D01*
X4304Y3596D01*
X4299D01*
Y3660D01*
X4307D01*
Y3610D01*
D02*
G37*
G36*
X5708Y5526D02*
X5699D01*
Y5582D01*
X5668D01*
Y5590D01*
X5708D01*
Y5526D01*
D02*
G37*
G36*
X5662Y5590D02*
Y5590D01*
Y5589D01*
X5662Y5588D01*
X5662Y5587D01*
X5661Y5586D01*
X5661Y5586D01*
X5661Y5585D01*
Y5584D01*
X5661Y5584D01*
X5661Y5584D01*
X5660Y5583D01*
X5660Y5582D01*
X5659Y5581D01*
X5658Y5579D01*
X5657Y5578D01*
X5656Y5576D01*
Y5576D01*
X5656Y5576D01*
X5655Y5575D01*
X5654Y5574D01*
X5653Y5573D01*
X5652Y5572D01*
X5650Y5570D01*
X5648Y5568D01*
X5645Y5566D01*
X5645Y5566D01*
X5645Y5566D01*
X5644Y5566D01*
X5644Y5565D01*
X5643Y5564D01*
X5642Y5563D01*
X5641Y5563D01*
X5640Y5562D01*
X5637Y5559D01*
X5635Y5557D01*
X5634Y5556D01*
X5633Y5555D01*
X5632Y5554D01*
X5631Y5553D01*
Y5553D01*
X5631Y5553D01*
X5631Y5552D01*
X5631Y5552D01*
X5630Y5551D01*
X5629Y5550D01*
X5629Y5548D01*
X5628Y5547D01*
X5628Y5545D01*
X5628Y5543D01*
Y5543D01*
Y5543D01*
X5628Y5543D01*
X5628Y5542D01*
X5628Y5541D01*
X5628Y5539D01*
X5629Y5538D01*
X5630Y5537D01*
X5631Y5535D01*
X5631Y5535D01*
X5632Y5535D01*
X5632Y5534D01*
X5633Y5534D01*
X5635Y5533D01*
X5636Y5533D01*
X5638Y5532D01*
X5640Y5532D01*
X5640D01*
X5641Y5532D01*
X5642Y5532D01*
X5643Y5533D01*
X5644Y5533D01*
X5646Y5534D01*
X5647Y5535D01*
X5649Y5536D01*
X5649Y5536D01*
X5649Y5536D01*
X5650Y5537D01*
X5651Y5538D01*
X5651Y5539D01*
X5652Y5541D01*
X5652Y5543D01*
X5652Y5545D01*
X5660Y5544D01*
Y5544D01*
X5660Y5544D01*
Y5543D01*
X5660Y5543D01*
X5660Y5542D01*
X5660Y5541D01*
X5660Y5540D01*
X5659Y5539D01*
X5658Y5537D01*
X5657Y5535D01*
X5657Y5534D01*
X5656Y5532D01*
X5655Y5531D01*
X5654Y5531D01*
X5654Y5530D01*
X5654Y5530D01*
X5654Y5530D01*
X5653Y5530D01*
X5653Y5529D01*
X5652Y5529D01*
X5651Y5529D01*
X5650Y5528D01*
X5649Y5528D01*
X5648Y5527D01*
X5647Y5527D01*
X5646Y5526D01*
X5644Y5526D01*
X5643Y5526D01*
X5641Y5526D01*
X5640Y5526D01*
X5639D01*
X5638Y5526D01*
X5637Y5526D01*
X5636Y5526D01*
X5635Y5526D01*
X5634Y5526D01*
X5632Y5527D01*
X5629Y5528D01*
X5628Y5529D01*
X5627Y5529D01*
X5626Y5530D01*
X5625Y5531D01*
X5625Y5531D01*
X5625Y5531D01*
X5624Y5531D01*
X5624Y5532D01*
X5624Y5532D01*
X5623Y5533D01*
X5623Y5534D01*
X5622Y5534D01*
X5621Y5536D01*
X5620Y5538D01*
X5620Y5540D01*
X5620Y5541D01*
X5620Y5542D01*
X5619Y5543D01*
Y5544D01*
Y5544D01*
X5620Y5545D01*
X5620Y5546D01*
X5620Y5547D01*
X5620Y5548D01*
X5621Y5550D01*
X5621Y5551D01*
X5621Y5551D01*
X5621Y5552D01*
X5622Y5552D01*
X5622Y5553D01*
X5623Y5555D01*
X5624Y5556D01*
X5625Y5557D01*
X5626Y5559D01*
X5627Y5559D01*
X5627Y5560D01*
X5628Y5560D01*
X5628Y5561D01*
X5629Y5561D01*
X5629Y5562D01*
X5630Y5563D01*
X5631Y5563D01*
X5632Y5564D01*
X5633Y5565D01*
X5634Y5566D01*
X5635Y5568D01*
X5637Y5569D01*
X5638Y5570D01*
X5639Y5570D01*
X5639Y5570D01*
X5639Y5571D01*
X5640Y5571D01*
X5640Y5572D01*
X5641Y5572D01*
X5642Y5573D01*
X5644Y5575D01*
X5645Y5576D01*
X5647Y5577D01*
X5647Y5578D01*
X5648Y5578D01*
X5648Y5578D01*
X5648Y5579D01*
X5648Y5579D01*
X5649Y5580D01*
X5649Y5580D01*
X5650Y5581D01*
X5651Y5582D01*
X5619D01*
Y5590D01*
X5662D01*
Y5590D01*
D02*
G37*
%LPC*%
G36*
X6114Y4851D02*
X6094D01*
Y4823D01*
X6114Y4851D01*
D02*
G37*
G36*
X3673Y3938D02*
X3659D01*
Y3889D01*
X3674D01*
X3674Y3889D01*
X3676Y3889D01*
X3677Y3889D01*
X3679Y3889D01*
X3681Y3889D01*
X3682Y3890D01*
X3682Y3890D01*
X3683Y3890D01*
X3683Y3890D01*
X3684Y3891D01*
X3685Y3891D01*
X3686Y3892D01*
X3687Y3892D01*
X3688Y3893D01*
X3688Y3893D01*
X3688Y3894D01*
X3689Y3894D01*
X3689Y3895D01*
X3690Y3897D01*
X3691Y3898D01*
X3692Y3899D01*
X3692Y3901D01*
Y3901D01*
X3693Y3902D01*
X3693Y3902D01*
X3693Y3902D01*
X3693Y3903D01*
X3693Y3903D01*
X3693Y3904D01*
X3693Y3905D01*
X3694Y3907D01*
X3694Y3909D01*
X3694Y3911D01*
X3694Y3914D01*
Y3914D01*
Y3914D01*
Y3915D01*
X3694Y3915D01*
Y3916D01*
X3694Y3917D01*
X3694Y3918D01*
X3694Y3919D01*
X3693Y3922D01*
X3693Y3924D01*
X3692Y3927D01*
X3691Y3928D01*
X3691Y3929D01*
Y3929D01*
X3691Y3929D01*
X3690Y3930D01*
X3690Y3930D01*
X3690Y3931D01*
X3689Y3932D01*
X3687Y3933D01*
X3686Y3934D01*
X3684Y3935D01*
X3683Y3936D01*
X3683Y3936D01*
X3682Y3936D01*
X3681Y3937D01*
X3680Y3937D01*
X3679Y3937D01*
X3677Y3937D01*
X3676Y3937D01*
X3675D01*
X3673Y3938D01*
D02*
G37*
G36*
X5331Y4001D02*
X5316D01*
X5316Y4001D01*
X5314Y4001D01*
X5313Y4001D01*
X5311Y4001D01*
X5309Y4001D01*
X5308Y4000D01*
X5308Y4000D01*
X5307Y4000D01*
X5307Y4000D01*
X5306Y3999D01*
X5305Y3999D01*
X5304Y3998D01*
X5303Y3998D01*
X5302Y3997D01*
X5302Y3997D01*
X5302Y3996D01*
X5301Y3996D01*
X5301Y3995D01*
X5300Y3994D01*
X5299Y3992D01*
X5298Y3991D01*
X5298Y3989D01*
Y3989D01*
X5297Y3989D01*
X5297Y3988D01*
X5297Y3988D01*
X5297Y3987D01*
X5297Y3987D01*
X5297Y3986D01*
X5297Y3985D01*
X5296Y3984D01*
X5296Y3981D01*
X5296Y3979D01*
X5296Y3976D01*
Y3976D01*
Y3976D01*
Y3976D01*
X5296Y3975D01*
Y3974D01*
X5296Y3973D01*
X5296Y3972D01*
X5296Y3971D01*
X5297Y3968D01*
X5297Y3966D01*
X5298Y3963D01*
X5299Y3962D01*
X5299Y3961D01*
Y3961D01*
X5299Y3961D01*
X5300Y3961D01*
X5300Y3960D01*
X5300Y3959D01*
X5301Y3958D01*
X5303Y3957D01*
X5304Y3956D01*
X5306Y3955D01*
X5307Y3954D01*
X5307Y3954D01*
X5308Y3954D01*
X5309Y3953D01*
X5310Y3953D01*
X5311Y3953D01*
X5313Y3953D01*
X5314Y3953D01*
X5315D01*
X5317Y3952D01*
X5331D01*
Y4001D01*
D02*
G37*
G36*
X4918Y3411D02*
X4869D01*
Y3396D01*
X4869Y3396D01*
X4869Y3394D01*
X4869Y3393D01*
X4869Y3391D01*
X4869Y3389D01*
X4870Y3388D01*
X4870Y3388D01*
X4870Y3387D01*
X4870Y3387D01*
X4871Y3386D01*
X4871Y3385D01*
X4872Y3384D01*
X4872Y3383D01*
X4873Y3382D01*
X4873Y3382D01*
X4874Y3382D01*
X4874Y3381D01*
X4875Y3381D01*
X4877Y3380D01*
X4878Y3379D01*
X4879Y3378D01*
X4881Y3378D01*
X4881D01*
X4882Y3377D01*
X4882Y3377D01*
X4882Y3377D01*
X4883Y3377D01*
X4883Y3377D01*
X4884Y3377D01*
X4885Y3377D01*
X4887Y3376D01*
X4889Y3376D01*
X4891Y3376D01*
X4894Y3376D01*
X4894D01*
X4894D01*
X4895D01*
X4895Y3376D01*
X4896D01*
X4897Y3376D01*
X4898Y3376D01*
X4899Y3376D01*
X4902Y3377D01*
X4904Y3377D01*
X4907Y3378D01*
X4908Y3379D01*
X4909Y3379D01*
X4909D01*
X4909Y3379D01*
X4910Y3380D01*
X4910Y3380D01*
X4911Y3380D01*
X4912Y3381D01*
X4913Y3383D01*
X4914Y3384D01*
X4915Y3386D01*
X4916Y3387D01*
X4916Y3387D01*
X4916Y3388D01*
X4917Y3389D01*
X4917Y3390D01*
X4917Y3391D01*
X4917Y3393D01*
X4917Y3394D01*
Y3395D01*
X4918Y3397D01*
Y3411D01*
D02*
G37*
G36*
X4036Y3358D02*
X4017D01*
Y3342D01*
X4017Y3341D01*
X4017Y3339D01*
X4017Y3338D01*
X4018Y3337D01*
X4018Y3336D01*
X4018Y3336D01*
X4018Y3335D01*
X4018Y3335D01*
X4019Y3334D01*
X4019Y3333D01*
X4020Y3332D01*
X4020Y3332D01*
X4021Y3331D01*
X4021Y3331D01*
X4021Y3331D01*
X4022Y3330D01*
X4023Y3330D01*
X4023Y3330D01*
X4024Y3329D01*
X4025Y3329D01*
X4027Y3329D01*
X4027D01*
X4027D01*
X4028Y3329D01*
X4028Y3329D01*
X4029Y3330D01*
X4030Y3330D01*
X4031Y3330D01*
X4032Y3331D01*
X4032Y3331D01*
X4033Y3331D01*
X4033Y3331D01*
X4033Y3332D01*
X4034Y3333D01*
X4035Y3333D01*
X4035Y3334D01*
X4035Y3335D01*
Y3335D01*
X4036Y3336D01*
X4036Y3336D01*
X4036Y3337D01*
X4036Y3339D01*
X4036Y3340D01*
X4036Y3342D01*
Y3358D01*
D02*
G37*
G36*
X4010D02*
X3988D01*
Y3339D01*
X3988Y3337D01*
X3988Y3337D01*
X3988Y3336D01*
Y3336D01*
X3988Y3335D01*
X3988Y3335D01*
X3988Y3334D01*
X3989Y3333D01*
X3990Y3331D01*
X3990Y3331D01*
X3990Y3331D01*
X3990Y3330D01*
X3990Y3330D01*
X3991Y3329D01*
X3992Y3329D01*
X3992Y3328D01*
X3993Y3328D01*
X3993Y3328D01*
X3993Y3328D01*
X3994Y3327D01*
X3995Y3327D01*
X3995Y3327D01*
X3996Y3327D01*
X3997Y3327D01*
X3999Y3326D01*
X3999D01*
X3999D01*
X4000Y3327D01*
X4001Y3327D01*
X4002Y3327D01*
X4003Y3327D01*
X4004Y3328D01*
X4005Y3328D01*
X4005Y3328D01*
X4005Y3329D01*
X4006Y3329D01*
X4006Y3330D01*
X4007Y3330D01*
X4007Y3331D01*
X4008Y3332D01*
X4008Y3334D01*
X4009Y3334D01*
X4009Y3334D01*
X4009Y3335D01*
X4009Y3336D01*
X4009Y3337D01*
X4009Y3339D01*
X4010Y3341D01*
Y3358D01*
D02*
G37*
%LPD*%
D10*
X5865Y6690D02*
X6735D01*
Y6290D02*
Y6690D01*
X5865Y6290D02*
X6735D01*
X5865D02*
Y6690D01*
X3565Y6140D02*
Y6540D01*
X3165Y6140D02*
X3565D01*
X3165D02*
Y6540D01*
X3565D01*
X6025Y4695D02*
X6335D01*
X6025D02*
Y5055D01*
X6335D01*
Y4695D02*
Y5055D01*
X3430Y3800D02*
Y4000D01*
Y3800D02*
X3870D01*
Y4000D01*
X3430D02*
X3870D01*
X5435Y3885D02*
Y4135D01*
X5245D02*
X5435D01*
X5245Y3885D02*
Y4135D01*
Y3885D02*
X5435D01*
X4780Y3640D02*
X4980D01*
X4780Y3200D02*
Y3640D01*
Y3200D02*
X4980D01*
Y3640D01*
X3852Y3635D02*
X4108D01*
X3852Y3205D02*
Y3635D01*
Y3205D02*
X4108D01*
Y3635D01*
X4580Y3560D02*
Y3760D01*
X4180D02*
X4580D01*
X4180Y3560D02*
Y3760D01*
Y3560D02*
X4580D01*
X5878Y5492D02*
Y5688D01*
X5537D02*
X5878D01*
X5537Y5492D02*
Y5688D01*
Y5492D02*
X5878D01*
M02*
