G04*
G04 #@! TF.GenerationSoftware,Altium Limited,Altium Designer,21.7.1 (17)*
G04*
G04 Layer_Color=16711935*
%FSLAX42Y42*%
%MOMM*%
G71*
G04*
G04 #@! TF.SameCoordinates,023FFD1A-8B7E-49EE-8FAD-F7FEFAD85E63*
G04*
G04*
G04 #@! TF.FilePolarity,Positive*
G04*
G01*
G75*
%ADD10C,0.20*%
%ADD15C,0.40*%
%ADD97C,0.10*%
%ADD98C,0.08*%
D10*
X2870Y7500D02*
G03*
X2500Y7130I0J-370D01*
G01*
X7500D02*
G03*
X7130Y7500I-370J0D01*
G01*
Y2500D02*
G03*
X7500Y2870I0J370D01*
G01*
X2500D02*
G03*
X2870Y2500I370J0D01*
G01*
D15*
Y7500D02*
X7130Y7500D01*
X2500Y7130D02*
X2500Y2870D01*
X7500Y7130D02*
X7500Y2870D01*
X2870Y2500D02*
X7130D01*
D97*
X3635Y2555D02*
X4585D01*
D98*
X3953Y2539D02*
Y2509D01*
X3968D01*
X3973Y2514D01*
Y2519D01*
X3968Y2524D01*
X3953D01*
X3968D01*
X3973Y2529D01*
Y2534D01*
X3968Y2539D01*
X3953D01*
X3988Y2509D02*
X3998D01*
X4003Y2514D01*
Y2524D01*
X3998Y2529D01*
X3988D01*
X3983Y2524D01*
Y2514D01*
X3988Y2509D01*
X4018Y2529D02*
X4028D01*
X4033Y2524D01*
Y2509D01*
X4018D01*
X4013Y2514D01*
X4018Y2519D01*
X4033D01*
X4043Y2529D02*
Y2509D01*
Y2519D01*
X4048Y2524D01*
X4053Y2529D01*
X4058D01*
X4093Y2539D02*
Y2509D01*
X4078D01*
X4073Y2514D01*
Y2524D01*
X4078Y2529D01*
X4093D01*
X4153Y2539D02*
X4133D01*
Y2509D01*
X4153D01*
X4133Y2524D02*
X4143D01*
X4183Y2539D02*
Y2509D01*
X4168D01*
X4163Y2514D01*
Y2524D01*
X4168Y2529D01*
X4183D01*
X4203Y2500D02*
X4208D01*
X4213Y2505D01*
Y2529D01*
X4198D01*
X4193Y2524D01*
Y2514D01*
X4198Y2509D01*
X4213D01*
X4238D02*
X4228D01*
X4223Y2514D01*
Y2524D01*
X4228Y2529D01*
X4238D01*
X4243Y2524D01*
Y2519D01*
X4223D01*
M02*
