G04*
G04 #@! TF.GenerationSoftware,Altium Limited,Altium Designer,21.7.1 (17)*
G04*
G04 Layer_Color=128*
%FSLAX42Y42*%
%MOMM*%
G71*
G04*
G04 #@! TF.SameCoordinates,023FFD1A-8B7E-49EE-8FAD-F7FEFAD85E63*
G04*
G04*
G04 #@! TF.FilePolarity,Positive*
G04*
G01*
G75*
%ADD100C,0.05*%
D100*
X2710Y7130D02*
X3030D01*
X2870Y6970D02*
Y7290D01*
X6970Y7130D02*
X7290D01*
X7130Y6970D02*
Y7290D01*
X6970Y2870D02*
X7290D01*
X7130Y2710D02*
Y3030D01*
X2710Y2870D02*
X3030D01*
X2870Y2710D02*
Y3030D01*
X4420Y2700D02*
X4503D01*
X4461Y2659D02*
Y2741D01*
X4320Y3000D02*
X4385D01*
X4353Y2967D02*
Y3033D01*
X3835Y3000D02*
X3900D01*
X3867Y2967D02*
Y3033D01*
X3717Y2700D02*
X3800D01*
X3759Y2659D02*
Y2741D01*
X4289Y7350D02*
X4399D01*
X4344Y7295D02*
Y7405D01*
X4543Y7350D02*
X4653D01*
X4598Y7295D02*
Y7405D01*
X4035Y7350D02*
X4145D01*
X4090Y7295D02*
Y7405D01*
X3781Y7350D02*
X3891D01*
X3836Y7295D02*
Y7405D01*
X5179Y6220D02*
X5249D01*
X5214Y6185D02*
Y6255D01*
X4691Y6220D02*
X4761D01*
X4726Y6185D02*
Y6255D01*
X2595Y5113D02*
X2705D01*
X2650Y5058D02*
Y5168D01*
X2595Y5621D02*
X2705D01*
X2650Y5566D02*
Y5676D01*
X2595Y5875D02*
X2705D01*
X2650Y5820D02*
Y5930D01*
X2595Y5367D02*
X2705D01*
X2650Y5312D02*
Y5422D01*
X2595Y4859D02*
X2705D01*
X2650Y4804D02*
Y4914D01*
X2595Y4605D02*
X2705D01*
X2650Y4550D02*
Y4660D01*
X6975Y6322D02*
X7085D01*
X7030Y6267D02*
Y6377D01*
X6975Y6068D02*
X7085D01*
X7030Y6013D02*
Y6123D01*
X6975Y5560D02*
X7085D01*
X7030Y5505D02*
Y5615D01*
X6975Y5814D02*
X7085D01*
X7030Y5759D02*
Y5869D01*
X7285Y6322D02*
X7395D01*
X7340Y6267D02*
Y6377D01*
X7285Y6068D02*
X7395D01*
X7340Y6013D02*
Y6123D01*
X7285Y5560D02*
X7395D01*
X7340Y5505D02*
Y5615D01*
X7285Y5814D02*
X7395D01*
X7340Y5759D02*
Y5869D01*
X5351Y7350D02*
X5461D01*
X5406Y7295D02*
Y7405D01*
X5605Y7350D02*
X5715D01*
X5660Y7295D02*
Y7405D01*
X6113Y7350D02*
X6223D01*
X6168Y7295D02*
Y7405D01*
X5859Y7350D02*
X5969D01*
X5914Y7295D02*
Y7405D01*
X7285Y4397D02*
X7395D01*
X7340Y4342D02*
Y4452D01*
X7285Y3889D02*
X7395D01*
X7340Y3834D02*
Y3944D01*
X7285Y3635D02*
X7395D01*
X7340Y3580D02*
Y3690D01*
X7285Y4143D02*
X7395D01*
X7340Y4088D02*
Y4198D01*
X7285Y4651D02*
X7395D01*
X7340Y4596D02*
Y4706D01*
X7285Y4905D02*
X7395D01*
X7340Y4850D02*
Y4960D01*
X5076Y2840D02*
X5178D01*
X5127Y2789D02*
Y2891D01*
X4822Y2840D02*
X4924D01*
X4873Y2789D02*
Y2891D01*
X5751Y2673D02*
X5861D01*
X5806Y2618D02*
Y2728D01*
X5751Y2927D02*
X5861D01*
X5806Y2872D02*
Y2982D01*
X6005Y2673D02*
X6115D01*
X6060Y2618D02*
Y2728D01*
X6259Y2673D02*
X6369D01*
X6314Y2618D02*
Y2728D01*
X6005Y2927D02*
X6115D01*
X6060Y2872D02*
Y2982D01*
X6259Y2927D02*
X6369D01*
X6314Y2872D02*
Y2982D01*
X5695Y3930D02*
X5725D01*
X5710Y3915D02*
Y3945D01*
X5445Y3530D02*
X5475D01*
X5460Y3515D02*
Y3545D01*
X3532Y5930D02*
X3563D01*
X3547Y5915D02*
Y5945D01*
X5897Y6140D02*
X5928D01*
X5912Y6125D02*
Y6155D01*
X7195Y6420D02*
X7225D01*
X7210Y6405D02*
Y6435D01*
X6885Y6420D02*
X6915D01*
X6900Y6405D02*
Y6435D01*
X7195Y6180D02*
X7225D01*
X7210Y6165D02*
Y6195D01*
X6885Y5940D02*
X6915D01*
X6900Y5925D02*
Y5955D01*
X6885Y6180D02*
X6915D01*
X6900Y6165D02*
Y6195D01*
X7195Y4760D02*
X7225D01*
X7210Y4745D02*
Y4775D01*
X7195Y4530D02*
X7225D01*
X7210Y4515D02*
Y4545D01*
X7195Y4270D02*
X7225D01*
X7210Y4255D02*
Y4285D01*
X7195Y4010D02*
X7225D01*
X7210Y3995D02*
Y4025D01*
X7195Y3800D02*
X7225D01*
X7210Y3785D02*
Y3815D01*
X6435Y3060D02*
X6465D01*
X6450Y3045D02*
Y3075D01*
X6175Y3060D02*
X6205D01*
X6190Y3045D02*
Y3075D01*
X5915Y3060D02*
X5945D01*
X5930Y3045D02*
Y3075D01*
X5665Y3060D02*
X5695D01*
X5680Y3045D02*
Y3075D01*
X2775Y4750D02*
X2805D01*
X2790Y4735D02*
Y4765D01*
X2775Y4990D02*
X2805D01*
X2790Y4975D02*
Y5005D01*
X2775Y5240D02*
X2805D01*
X2790Y5225D02*
Y5255D01*
X2775Y5500D02*
X2805D01*
X2790Y5485D02*
Y5515D01*
X2775Y5710D02*
X2805D01*
X2790Y5695D02*
Y5725D01*
X3975Y7220D02*
X4005D01*
X3990Y7205D02*
Y7235D01*
X4425Y7220D02*
X4455D01*
X4440Y7205D02*
Y7235D01*
X4195Y7220D02*
X4225D01*
X4210Y7205D02*
Y7235D01*
X5775Y7220D02*
X5805D01*
X5790Y7205D02*
Y7235D01*
X5995Y7220D02*
X6025D01*
X6010Y7205D02*
Y7235D01*
X5545Y7220D02*
X5575D01*
X5560Y7205D02*
Y7235D01*
X6625Y6810D02*
X6655D01*
X6640Y6795D02*
Y6825D01*
X6460Y6810D02*
X6490D01*
X6475Y6795D02*
Y6825D01*
X5725Y6600D02*
X5755D01*
X5740Y6585D02*
Y6615D01*
X6455Y7228D02*
X6485D01*
X6470Y7212D02*
Y7243D01*
X5085Y7228D02*
X5115D01*
X5100Y7212D02*
Y7243D01*
X3665Y6240D02*
X3695D01*
X3680Y6225D02*
Y6255D01*
X3830Y6240D02*
X3860D01*
X3845Y6225D02*
Y6255D01*
X2715Y6610D02*
X2745D01*
X2730Y6595D02*
Y6625D01*
X2715Y6420D02*
X2745D01*
X2730Y6405D02*
Y6435D01*
X2895Y6610D02*
X2925D01*
X2910Y6595D02*
Y6625D01*
X2895Y6420D02*
X2925D01*
X2910Y6405D02*
Y6435D01*
X2955Y6092D02*
X2985D01*
X2970Y6077D02*
Y6108D01*
X2955Y5928D02*
X2985D01*
X2970Y5912D02*
Y5943D01*
X3327Y5472D02*
X3358D01*
X3342Y5457D02*
Y5488D01*
X2745Y4175D02*
X2775D01*
X2760Y4160D02*
Y4190D01*
X2935Y3838D02*
X2965D01*
X2950Y3822D02*
Y3853D01*
X3520Y2880D02*
X3550D01*
X3535Y2865D02*
Y2895D01*
X5442Y2990D02*
X5473D01*
X5458Y2975D02*
Y3005D01*
X6437Y4790D02*
X6468D01*
X6453Y4775D02*
Y4805D01*
X6435Y4958D02*
X6465D01*
X6450Y4942D02*
Y4973D01*
X6845Y5075D02*
X6875D01*
X6860Y5060D02*
Y5090D01*
X7037Y5060D02*
X7068D01*
X7053Y5045D02*
Y5075D01*
X6045Y3650D02*
X6075D01*
X6060Y3635D02*
Y3665D01*
X6045Y3740D02*
X6075D01*
X6060Y3725D02*
Y3755D01*
X6045Y3830D02*
X6075D01*
X6060Y3815D02*
Y3845D01*
X5095Y3510D02*
X5125D01*
X5110Y3495D02*
Y3525D01*
X6195Y6440D02*
X6225D01*
X6210Y6425D02*
Y6455D01*
X4875Y6920D02*
X4905D01*
X4890Y6905D02*
Y6935D01*
X4875Y7080D02*
X4905D01*
X4890Y7065D02*
Y7095D01*
X4715Y6920D02*
X4745D01*
X4730Y6905D02*
Y6935D01*
X4715Y7080D02*
X4745D01*
X4730Y7065D02*
Y7095D01*
X4825Y7400D02*
X4855D01*
X4840Y7385D02*
Y7415D01*
X7325Y3350D02*
X7355D01*
X7340Y3335D02*
Y3365D01*
X3520Y2640D02*
X3550D01*
X3535Y2625D02*
Y2655D01*
X3360Y2640D02*
X3390D01*
X3375Y2625D02*
Y2655D01*
X3200Y2640D02*
X3230D01*
X3215Y2625D02*
Y2655D01*
X3000Y6980D02*
X3040D01*
X3020Y6960D02*
Y7000D01*
X2700Y7280D02*
X2740D01*
X2720Y7260D02*
Y7300D01*
X2640Y7130D02*
X2680D01*
X2660Y7110D02*
Y7150D01*
X2850Y7340D02*
X2890D01*
X2870Y7320D02*
Y7360D01*
X2850Y6920D02*
X2890D01*
X2870Y6900D02*
Y6940D01*
X3060Y7130D02*
X3100D01*
X3080Y7110D02*
Y7150D01*
X3000Y7280D02*
X3040D01*
X3020Y7260D02*
Y7300D01*
X2700Y6980D02*
X2740D01*
X2720Y6960D02*
Y7000D01*
X7260Y6980D02*
X7300D01*
X7280Y6960D02*
Y7000D01*
X6960Y7280D02*
X7000D01*
X6980Y7260D02*
Y7300D01*
X6900Y7130D02*
X6940D01*
X6920Y7110D02*
Y7150D01*
X7110Y7340D02*
X7150D01*
X7130Y7320D02*
Y7360D01*
X7110Y6920D02*
X7150D01*
X7130Y6900D02*
Y6940D01*
X7320Y7130D02*
X7360D01*
X7340Y7110D02*
Y7150D01*
X7260Y7280D02*
X7300D01*
X7280Y7260D02*
Y7300D01*
X6960Y6980D02*
X7000D01*
X6980Y6960D02*
Y7000D01*
X7260Y2720D02*
X7300D01*
X7280Y2700D02*
Y2740D01*
X6960Y3020D02*
X7000D01*
X6980Y3000D02*
Y3040D01*
X6900Y2870D02*
X6940D01*
X6920Y2850D02*
Y2890D01*
X7110Y3080D02*
X7150D01*
X7130Y3060D02*
Y3100D01*
X7110Y2660D02*
X7150D01*
X7130Y2640D02*
Y2680D01*
X7320Y2870D02*
X7360D01*
X7340Y2850D02*
Y2890D01*
X7260Y3020D02*
X7300D01*
X7280Y3000D02*
Y3040D01*
X6960Y2720D02*
X7000D01*
X6980Y2700D02*
Y2740D01*
X3000Y2720D02*
X3040D01*
X3020Y2700D02*
Y2740D01*
X2700Y3020D02*
X2740D01*
X2720Y3000D02*
Y3040D01*
X2640Y2870D02*
X2680D01*
X2660Y2850D02*
Y2890D01*
X2850Y3080D02*
X2890D01*
X2870Y3060D02*
Y3100D01*
X2850Y2660D02*
X2890D01*
X2870Y2640D02*
Y2680D01*
X3060Y2870D02*
X3100D01*
X3080Y2850D02*
Y2890D01*
X3000Y3020D02*
X3040D01*
X3020Y3000D02*
Y3040D01*
X2700Y2720D02*
X2740D01*
X2720Y2700D02*
Y2740D01*
X4385Y4238D02*
X4415D01*
X4400Y4222D02*
Y4253D01*
X4195Y4238D02*
X4225D01*
X4210Y4222D02*
Y4253D01*
X5995Y5750D02*
X6025D01*
X6010Y5735D02*
Y5765D01*
X5995Y5910D02*
X6025D01*
X6010Y5895D02*
Y5925D01*
X3555Y6680D02*
X3585D01*
X3570Y6665D02*
Y6695D01*
X3685Y6599D02*
X3715D01*
X3700Y6584D02*
Y6614D01*
X3685Y6410D02*
X3715D01*
X3700Y6395D02*
Y6425D01*
X4205Y5470D02*
X4235D01*
X4220Y5455D02*
Y5485D01*
X6657Y3208D02*
X6688D01*
X6672Y3192D02*
Y3223D01*
X5365Y4440D02*
X5395D01*
X5380Y4425D02*
Y4455D01*
X7335Y5240D02*
X7365D01*
X7350Y5225D02*
Y5255D01*
X6845Y3350D02*
X6875D01*
X6860Y3335D02*
Y3365D01*
X6845Y3510D02*
X6875D01*
X6860Y3495D02*
Y3525D01*
X7005Y3510D02*
X7035D01*
X7020Y3495D02*
Y3525D01*
X7325Y6670D02*
X7355D01*
X7340Y6655D02*
Y6685D01*
X7165Y6670D02*
X7195D01*
X7180Y6655D02*
Y6685D01*
X7005Y6670D02*
X7035D01*
X7020Y6655D02*
Y6685D01*
X5915Y4700D02*
X5945D01*
X5930Y4685D02*
Y4715D01*
X5615Y3520D02*
X5645D01*
X5630Y3505D02*
Y3535D01*
X5615Y3310D02*
X5645D01*
X5630Y3295D02*
Y3325D01*
X6605Y2990D02*
X6635D01*
X6620Y2975D02*
Y3005D01*
X7005Y3350D02*
X7035D01*
X7020Y3335D02*
Y3365D01*
X7165Y3350D02*
X7195D01*
X7180Y3335D02*
Y3365D01*
X6605Y2670D02*
X6635D01*
X6620Y2655D02*
Y2685D01*
X5445Y2670D02*
X5475D01*
X5460Y2655D02*
Y2685D01*
X4134Y5260D02*
X4164D01*
X4149Y5245D02*
Y5275D01*
X5545Y4092D02*
X5575D01*
X5560Y4077D02*
Y4108D01*
X5545Y3928D02*
X5575D01*
X5560Y3912D02*
Y3943D01*
X6082Y4583D02*
X6113D01*
X6097Y4567D02*
Y4598D01*
X6247Y4583D02*
X6278D01*
X6262Y4567D02*
Y4598D01*
X6765Y6640D02*
X6795D01*
X6780Y6625D02*
Y6655D01*
X4960Y5315D02*
X4990D01*
X4975Y5300D02*
Y5330D01*
X5995Y6340D02*
X6025D01*
X6010Y6325D02*
Y6355D01*
X6395Y7390D02*
X6425D01*
X6410Y7375D02*
Y7405D01*
X6555Y7390D02*
X6585D01*
X6570Y7375D02*
Y7405D01*
X6715Y7390D02*
X6745D01*
X6730Y7375D02*
Y7405D01*
X4827Y6472D02*
X4858D01*
X4842Y6457D02*
Y6488D01*
X4955Y6540D02*
X4985D01*
X4970Y6525D02*
Y6555D01*
X4955Y6620D02*
X4985D01*
X4970Y6605D02*
Y6635D01*
X5082Y6472D02*
X5113D01*
X5097Y6457D02*
Y6488D01*
X4555Y6760D02*
X4585D01*
X4570Y6745D02*
Y6775D01*
X4395Y6280D02*
X4425D01*
X4410Y6265D02*
Y6295D01*
X4395Y6440D02*
X4425D01*
X4410Y6425D02*
Y6455D01*
X4395Y6760D02*
X4425D01*
X4410Y6745D02*
Y6775D01*
X5515Y6440D02*
X5545D01*
X5530Y6425D02*
Y6455D01*
X5515Y5960D02*
X5545D01*
X5530Y5945D02*
Y5975D01*
X5515Y6280D02*
X5545D01*
X5530Y6265D02*
Y6295D01*
X5515Y6760D02*
X5545D01*
X5530Y6745D02*
Y6775D01*
X5515Y6120D02*
X5545D01*
X5530Y6105D02*
Y6135D01*
X5355Y6760D02*
X5385D01*
X5370Y6745D02*
Y6775D01*
X5515Y6600D02*
X5545D01*
X5530Y6585D02*
Y6615D01*
X5355Y5960D02*
X5385D01*
X5370Y5945D02*
Y5975D01*
X5195Y5960D02*
X5225D01*
X5210Y5945D02*
Y5975D01*
X4395Y6120D02*
X4425D01*
X4410Y6105D02*
Y6135D01*
X5195Y6760D02*
X5225D01*
X5210Y6745D02*
Y6775D01*
X4395Y5960D02*
X4425D01*
X4410Y5945D02*
Y5975D01*
X5035Y6760D02*
X5065D01*
X5050Y6745D02*
Y6775D01*
X4875Y6760D02*
X4905D01*
X4890Y6745D02*
Y6775D01*
X3225Y7400D02*
X3255D01*
X3240Y7385D02*
Y7415D01*
X3385Y7400D02*
X3415D01*
X3400Y7385D02*
Y7415D01*
X3545Y7400D02*
X3575D01*
X3560Y7385D02*
Y7415D01*
X4395Y6600D02*
X4425D01*
X4410Y6585D02*
Y6615D01*
X5145Y7400D02*
X5175D01*
X5160Y7385D02*
Y7415D01*
X4985Y7400D02*
X5015D01*
X5000Y7385D02*
Y7415D01*
X3345Y6800D02*
X3375D01*
X3360Y6785D02*
Y6815D01*
X5765Y5590D02*
X5805D01*
X5785Y5570D02*
Y5610D01*
X5772Y5800D02*
X5812D01*
X5792Y5780D02*
Y5820D01*
X5405Y5775D02*
X5445D01*
X5425Y5755D02*
Y5795D01*
X5215Y5775D02*
X5255D01*
X5235Y5755D02*
Y5795D01*
X5025Y5775D02*
X5065D01*
X5045Y5755D02*
Y5795D01*
X2655Y3270D02*
X2685D01*
X2670Y3255D02*
Y3285D01*
X2945Y3390D02*
X2975D01*
X2960Y3375D02*
Y3405D01*
X3285Y3900D02*
X3315D01*
X3300Y3885D02*
Y3915D01*
X3075Y4040D02*
X3105D01*
X3090Y4025D02*
Y4055D01*
X3075Y4200D02*
X3105D01*
X3090Y4185D02*
Y4215D01*
X3075Y4360D02*
X3105D01*
X3090Y4345D02*
Y4375D01*
X2915Y4360D02*
X2945D01*
X2930Y4345D02*
Y4375D01*
X3075Y4520D02*
X3105D01*
X3090Y4505D02*
Y4535D01*
X2915Y4520D02*
X2945D01*
X2930Y4505D02*
Y4535D01*
X3075Y4680D02*
X3105D01*
X3090Y4665D02*
Y4695D01*
X2915Y4680D02*
X2945D01*
X2930Y4665D02*
Y4695D01*
X4315Y3210D02*
X4345D01*
X4330Y3195D02*
Y3225D01*
X4225Y3210D02*
X4255D01*
X4240Y3195D02*
Y3225D01*
X4715Y5690D02*
X4745D01*
X4730Y5675D02*
Y5705D01*
X3385Y7080D02*
X3415D01*
X3400Y7065D02*
Y7095D01*
X4405Y5370D02*
X4435D01*
X4420Y5355D02*
Y5385D01*
X4715Y6760D02*
X4745D01*
X4730Y6745D02*
Y6775D01*
X4065Y6080D02*
X4095D01*
X4080Y6065D02*
Y6095D01*
X4065Y6240D02*
X4095D01*
X4080Y6225D02*
Y6255D01*
X3105Y3390D02*
X3135D01*
X3120Y3375D02*
Y3405D01*
X3105Y3300D02*
X3135D01*
X3120Y3285D02*
Y3315D01*
X3395Y3460D02*
X3425D01*
X3410Y3445D02*
Y3475D01*
X3395Y3320D02*
X3425D01*
X3410Y3305D02*
Y3335D01*
X3105Y3480D02*
X3135D01*
X3120Y3465D02*
Y3495D01*
X3805Y3810D02*
X3835D01*
X3820Y3795D02*
Y3825D01*
X3805Y3990D02*
X3835D01*
X3820Y3975D02*
Y4005D01*
X4095Y4070D02*
X4125D01*
X4110Y4055D02*
Y4085D01*
X4195Y3890D02*
X4225D01*
X4210Y3875D02*
Y3905D01*
X4385Y3890D02*
X4415D01*
X4400Y3875D02*
Y3905D01*
X3725Y3610D02*
X3755D01*
X3740Y3595D02*
Y3625D01*
X3885Y3900D02*
X3915D01*
X3900Y3885D02*
Y3915D01*
X4385Y3980D02*
X4415D01*
X4400Y3965D02*
Y3995D01*
X4195Y3980D02*
X4225D01*
X4210Y3965D02*
Y3995D01*
X3625Y4260D02*
X3655D01*
X3640Y4245D02*
Y4275D01*
X3625Y4540D02*
X3655D01*
X3640Y4525D02*
Y4555D01*
X3625Y4400D02*
X3655D01*
X3640Y4385D02*
Y4415D01*
X3775Y4520D02*
X3805D01*
X3790Y4505D02*
Y4535D01*
X3935Y4440D02*
X3965D01*
X3950Y4425D02*
Y4455D01*
X3775Y4360D02*
X3805D01*
X3790Y4345D02*
Y4375D01*
X3775Y4280D02*
X3805D01*
X3790Y4265D02*
Y4295D01*
X4015Y4440D02*
X4045D01*
X4030Y4425D02*
Y4455D01*
X3855Y4440D02*
X3885D01*
X3870Y4425D02*
Y4455D01*
X3855Y4280D02*
X3885D01*
X3870Y4265D02*
Y4295D01*
X3935Y4280D02*
X3965D01*
X3950Y4265D02*
Y4295D01*
X3855Y4520D02*
X3885D01*
X3870Y4505D02*
Y4535D01*
X4015Y4280D02*
X4045D01*
X4030Y4265D02*
Y4295D01*
X3935Y4520D02*
X3965D01*
X3950Y4505D02*
Y4535D01*
X3775Y4440D02*
X3805D01*
X3790Y4425D02*
Y4455D01*
X4015Y4520D02*
X4045D01*
X4030Y4505D02*
Y4535D01*
X3935Y4360D02*
X3965D01*
X3950Y4345D02*
Y4375D01*
X4015Y4360D02*
X4045D01*
X4030Y4345D02*
Y4375D01*
X3855Y4360D02*
X3885D01*
X3870Y4345D02*
Y4375D01*
X4285Y5370D02*
X4315D01*
X4300Y5355D02*
Y5385D01*
X4095Y5060D02*
X4125D01*
X4110Y5045D02*
Y5075D01*
X4072Y5742D02*
X4103D01*
X4088Y5727D02*
Y5758D01*
X4067Y5907D02*
X4098D01*
X4083Y5892D02*
Y5923D01*
X3685Y7150D02*
X3715D01*
X3700Y7135D02*
Y7165D01*
X3685Y6990D02*
X3715D01*
X3700Y6975D02*
Y7005D01*
X3685Y6830D02*
X3715D01*
X3700Y6815D02*
Y6845D01*
X3105Y6800D02*
X3135D01*
X3120Y6785D02*
Y6815D01*
X3195Y6800D02*
X3225D01*
X3210Y6785D02*
Y6815D01*
X3435Y6800D02*
X3465D01*
X3450Y6785D02*
Y6815D01*
X3262Y5680D02*
X3293D01*
X3278Y5665D02*
Y5695D01*
X3806Y5752D02*
X3837D01*
X3822Y5736D02*
Y5767D01*
X3605Y5750D02*
X3635D01*
X3620Y5735D02*
Y5765D01*
X3327Y5308D02*
X3358D01*
X3342Y5292D02*
Y5323D01*
X5165Y4250D02*
X5195D01*
X5180Y4235D02*
Y4265D01*
X3605Y5620D02*
X3635D01*
X3620Y5605D02*
Y5635D01*
X5055Y5130D02*
X5085D01*
X5070Y5115D02*
Y5145D01*
X4805Y5290D02*
X4835D01*
X4820Y5275D02*
Y5305D01*
X5195Y5130D02*
X5225D01*
X5210Y5115D02*
Y5145D01*
X5115Y4920D02*
X5145D01*
X5130Y4905D02*
Y4935D01*
X5245Y4970D02*
X5275D01*
X5260Y4955D02*
Y4985D01*
X3595Y5060D02*
X3625D01*
X3610Y5045D02*
Y5075D01*
X3845Y6830D02*
X3875D01*
X3860Y6815D02*
Y6845D01*
X4035Y6710D02*
X4065D01*
X4050Y6695D02*
Y6725D01*
X3385Y7240D02*
X3415D01*
X3400Y7225D02*
Y7255D01*
X3225Y7240D02*
X3255D01*
X3240Y7225D02*
Y7255D01*
X3545Y7240D02*
X3575D01*
X3560Y7225D02*
Y7255D01*
X3225Y6120D02*
X3255D01*
X3240Y6105D02*
Y6135D01*
X3325Y6120D02*
X3355D01*
X3340Y6105D02*
Y6135D01*
X3880Y5440D02*
X3900D01*
X3890Y5430D02*
Y5450D01*
X3770Y5440D02*
X3790D01*
X3780Y5430D02*
Y5450D01*
X3770Y5330D02*
X3790D01*
X3780Y5320D02*
Y5340D01*
X3880Y5330D02*
X3900D01*
X3890Y5320D02*
Y5340D01*
X3345Y6340D02*
X3375D01*
X3360Y6325D02*
Y6355D01*
X3425Y5680D02*
X3455D01*
X3440Y5665D02*
Y5695D01*
X3285Y4680D02*
X3315D01*
X3300Y4665D02*
Y4695D01*
X3455Y4680D02*
X3485D01*
X3470Y4665D02*
Y4695D01*
X3625Y4680D02*
X3655D01*
X3640Y4665D02*
Y4695D01*
X3965Y4680D02*
X3995D01*
X3980Y4665D02*
Y4695D01*
X3795Y4680D02*
X3825D01*
X3810Y4665D02*
Y4695D01*
X4215Y4450D02*
X4245D01*
X4230Y4435D02*
Y4465D01*
X5825Y4610D02*
X5855D01*
X5840Y4595D02*
Y4625D01*
X5645Y4610D02*
X5675D01*
X5660Y4595D02*
Y4625D01*
X6765Y6520D02*
X6795D01*
X6780Y6505D02*
Y6535D01*
X4955Y4920D02*
X4985D01*
X4970Y4905D02*
Y4935D01*
X4855Y4840D02*
X4885D01*
X4870Y4825D02*
Y4855D01*
X4225Y3130D02*
X4255D01*
X4240Y3115D02*
Y3145D01*
X4405Y5230D02*
X4435D01*
X4420Y5215D02*
Y5245D01*
X4405Y5070D02*
X4435D01*
X4420Y5055D02*
Y5085D01*
X4765Y4750D02*
X4795D01*
X4780Y4735D02*
Y4765D01*
X5465Y4610D02*
X5495D01*
X5480Y4595D02*
Y4625D01*
X5515Y4440D02*
X5545D01*
X5530Y4425D02*
Y4455D01*
X5625Y4829D02*
X5655D01*
X5640Y4814D02*
Y4844D01*
X5785Y4900D02*
X5815D01*
X5800Y4885D02*
Y4915D01*
X6055Y5280D02*
X6085D01*
X6070Y5265D02*
Y5295D01*
X6055Y5400D02*
X6085D01*
X6070Y5385D02*
Y5415D01*
X6155Y6280D02*
X6185D01*
X6170Y6265D02*
Y6295D01*
M02*
