M48
;Layer_Color=9474304
;FILE_FORMAT=4:2
METRIC,LZ
;TYPE=PLATED
T1F00S00C0.20
T2F00S00C0.31
T3F00S00C0.40
T5F00S00C0.70
T7F00S00C1.02
T8F00S00C1.10
T9F00S00C3.20
%
T01
X00378Y00533
Y00544
X00389
Y00533
T02
X003215Y00264
X003375
X003535
Y00288
X00341Y00332
Y00346
X00312Y00348
Y00339
Y0033
X00296Y00339
X00267Y00327
X00295Y003838
X0033Y0039
X0039
X00382Y00381
X00374Y00361
X00421Y00389
X0044
X00433Y00321
X00424
Y00313
X00511Y00351
X00546Y00353
X00563Y00352
Y00331
X00568Y00306
X00593
X00619
X00645
X00662Y00299
X006672Y003208
X00686Y00335
Y00351
X00702
X00702Y00335
X00718
X00734
X00721Y0038
X00606Y00383
X00606Y00374
X00606Y00365
X00571Y00393
X00556Y003928
X005458Y00299
X00546Y00267
X00662
X00721Y00401
Y00427
Y00453
Y00476
X007053Y00506
X00686Y005075
X00645Y004958
X006453Y00479
X006262Y004583
X006097
X00593Y0047
X00584Y00461
X00566
X00548
X00553Y00444
X00538
X00518Y00425
X00556Y004092
X00564Y004829
X0058Y0049
X00526Y00497
X00513Y00492
X00497
X00487Y00484
X00478Y00475
X00482Y00529
X004975Y005315
X00507Y00513
X00521
Y00596
X00537
X00553
Y00612
Y00628
Y00644
Y0066
Y00676
X00537
X00521
X00505
X00489
Y00692
Y00708
X00473
Y00692
X00473Y00676
X00457
X00441
Y0066
Y00644
Y00628
Y00612
Y00596
X004083Y005907
X004088Y005742
X00408Y00608
Y00624
X00405Y00671
X00399Y00722
X00421
X00444
X00484Y0074
X005
X00516
X0051Y007228
X00556Y00722
X00579
X00601
X00647Y007228
X00641Y00739
X00657
X00673
X00664Y00681
X006475
X00678Y00664
Y00652
X0069Y00642
Y00618
Y00594
X00721Y00618
Y00642
X00718Y00667
X00734
X00702
X00621Y00644
X00617Y00628
X00601Y00634
X005912Y00614
X00601Y00591
Y00575
X00607Y0054
Y00528
X00735Y00524
X00442Y00523
Y00537
X0043
X00422Y00547
X004149Y00526
X00411Y00506
X00442Y00507
X00423Y00445
X00403Y00444
Y00452
Y00436
Y00428
X00421Y004238
X0044
X0044Y00398
X00421
X00411Y00407
X00398Y00468
X00473Y00569
X004842Y006472
X00497Y00654
Y00662
X005097Y006472
X00574Y0066
X0037Y006599
Y00641
X00368Y00624
X003845
X003822Y005752
X00362Y00575
Y00562
X00344Y00568
X003278
X003342Y005472
X003342Y005308
X00361Y00506
X00364Y00468
Y00454
Y0044
Y00426
X00379Y00428
Y00436
X00387
Y00428
X00395
Y00436
Y00444
X00387
X00379
Y00452
X00387
X00395
X00381Y00468
X00347
X0033
X00309
Y00452
X00293
Y00468
X00279Y00475
Y00499
Y00524
Y0055
Y00571
X00297Y005928
Y006092
X00324Y00612
X00334
X00336Y00634
X00336Y0068
X00345
X00357Y00668
X0037Y00683
Y00699
Y00715
X00356Y00724
Y0074
X0034
X00324
Y00724
X0034
Y00708
X00321Y0068
X00312
X00291Y00661
X00273
Y00642
X00291
X003547Y00593
X00386Y00683
X00382Y00399
X00309Y00404
Y0042
Y00436
X00293
X00276Y004175
T03
X00272Y00272
X00266Y00287
X00272Y00302
X00287Y00308
X00302Y00302
X00308Y00287
X00302Y00272
X00287Y00266
X00698Y00272
X00692Y00287
X00698Y00302
X00713Y00308
X00728Y00302
X00734Y00287
X00728Y00272
X00713Y00266
Y00692
X00728Y00698
X00734Y00713
X00728Y00728
X00713Y00734
X00698Y00728
X00692Y00713
X00698Y00698
X005792Y0058
X005785Y00559
X005425Y005775
X005235
X005045
X00302Y00698
X00287Y00692
X00272Y00698
X00266Y00713
X00272Y00728
X00287Y00734
X00302Y00728
X00308Y00713
T05
X004726Y00622
X005214
T07
X004873Y00284
X005127
T08
X005806Y002673
Y002927
X00606
Y002673
X006314
Y002927
X00734Y003635
Y003889
Y004143
Y004397
Y004651
Y004905
Y00556
Y005814
Y006068
Y006322
X00703
Y006068
Y005814
Y00556
X006168Y00735
X005914
X00566
X005406
X004598
X004344
X00409
X003836
X00265Y005875
Y005621
Y005367
Y005113
Y004859
Y004605
T09
X00287Y00287
X00713
Y00713
X00287
M30
