G04*
G04 #@! TF.GenerationSoftware,Altium Limited,Altium Designer,21.7.1 (17)*
G04*
G04 Layer_Color=65535*
%FSLAX42Y42*%
%MOMM*%
G71*
G04*
G04 #@! TF.SameCoordinates,023FFD1A-8B7E-49EE-8FAD-F7FEFAD85E63*
G04*
G04*
G04 #@! TF.FilePolarity,Positive*
G04*
G01*
G75*
%ADD10C,0.20*%
%ADD11C,0.03*%
%ADD12C,0.25*%
%ADD13C,0.50*%
%ADD14C,0.30*%
%ADD15C,0.40*%
G36*
X5310Y5310D02*
Y5250D01*
X5280D01*
X5250Y5280D01*
Y5310D01*
X5310D01*
D02*
G37*
G36*
X6091Y4418D02*
X6085D01*
Y4418D01*
X6085Y4419D01*
X6084Y4420D01*
X6084Y4422D01*
X6083Y4424D01*
X6082Y4427D01*
X6079Y4432D01*
X6076Y4438D01*
X6073Y4445D01*
X6068Y4451D01*
X6064Y4456D01*
X6063Y4456D01*
X6063Y4457D01*
X6062Y4458D01*
X6060Y4459D01*
X6058Y4460D01*
X6056Y4462D01*
X6053Y4464D01*
X6050Y4465D01*
X6047Y4467D01*
X6043Y4469D01*
X6035Y4472D01*
X6025Y4474D01*
X6020Y4474D01*
X6014Y4475D01*
X6013D01*
X6010Y4474D01*
X6008D01*
X6004Y4474D01*
X6000Y4473D01*
X5996Y4472D01*
X5991Y4471D01*
X5986Y4469D01*
X5981Y4467D01*
X5976Y4464D01*
X5971Y4461D01*
X5966Y4457D01*
X5961Y4453D01*
X5956Y4448D01*
X5952Y4442D01*
X5952Y4442D01*
X5951Y4441D01*
X5950Y4439D01*
X5949Y4437D01*
X5948Y4434D01*
X5946Y4431D01*
X5945Y4428D01*
X5943Y4423D01*
X5942Y4419D01*
X5940Y4414D01*
X5938Y4408D01*
X5937Y4403D01*
X5936Y4397D01*
X5935Y4390D01*
X5935Y4383D01*
X5934Y4376D01*
Y4376D01*
Y4375D01*
Y4373D01*
X5935Y4371D01*
Y4368D01*
X5935Y4365D01*
X5935Y4362D01*
X5936Y4358D01*
X5937Y4349D01*
X5939Y4340D01*
X5942Y4330D01*
X5946Y4320D01*
Y4320D01*
X5947Y4319D01*
X5947Y4318D01*
X5948Y4316D01*
X5949Y4314D01*
X5951Y4312D01*
X5954Y4306D01*
X5959Y4300D01*
X5964Y4294D01*
X5970Y4288D01*
X5977Y4283D01*
X5977D01*
X5978Y4283D01*
X5979Y4282D01*
X5980Y4281D01*
X5982Y4280D01*
X5984Y4279D01*
X5989Y4277D01*
X5995Y4275D01*
X6002Y4273D01*
X6009Y4272D01*
X6017Y4271D01*
X6019D01*
X6021Y4272D01*
X6024D01*
X6028Y4272D01*
X6031Y4273D01*
X6040Y4274D01*
X6040D01*
X6042Y4275D01*
X6044Y4276D01*
X6047Y4277D01*
X6050Y4278D01*
X6054Y4279D01*
X6061Y4283D01*
Y4346D01*
Y4346D01*
Y4347D01*
Y4349D01*
Y4351D01*
X6061Y4355D01*
X6061Y4358D01*
X6060Y4362D01*
X6060Y4365D01*
X6059Y4367D01*
Y4367D01*
X6058Y4368D01*
X6057Y4370D01*
X6054Y4372D01*
X6051Y4375D01*
X6051D01*
X6050Y4375D01*
X6049Y4376D01*
X6047Y4376D01*
X6044Y4377D01*
X6041Y4377D01*
X6038Y4377D01*
X6033D01*
Y4383D01*
X6116D01*
Y4377D01*
X6110D01*
X6108Y4377D01*
X6106Y4376D01*
X6103Y4375D01*
X6100Y4374D01*
X6097Y4372D01*
X6095Y4369D01*
Y4369D01*
X6095Y4368D01*
X6094Y4366D01*
X6094Y4364D01*
X6093Y4361D01*
X6093Y4357D01*
X6092Y4352D01*
Y4346D01*
Y4280D01*
X6092D01*
X6092Y4279D01*
X6091Y4279D01*
X6089Y4278D01*
X6086Y4276D01*
X6081Y4274D01*
X6075Y4272D01*
X6069Y4269D01*
X6063Y4267D01*
X6056Y4265D01*
X6056D01*
X6055Y4265D01*
X6054D01*
X6053Y4265D01*
X6051Y4264D01*
X6049Y4264D01*
X6044Y4263D01*
X6039Y4262D01*
X6032Y4261D01*
X6025Y4261D01*
X6017Y4261D01*
X6014D01*
X6011Y4261D01*
X6006Y4261D01*
X6001Y4262D01*
X5995Y4263D01*
X5989Y4264D01*
X5981Y4266D01*
X5974Y4268D01*
X5966Y4270D01*
X5958Y4274D01*
X5950Y4278D01*
X5943Y4282D01*
X5935Y4287D01*
X5928Y4294D01*
X5922Y4301D01*
X5922Y4301D01*
X5921Y4302D01*
X5920Y4304D01*
X5918Y4306D01*
X5916Y4309D01*
X5914Y4312D01*
X5912Y4316D01*
X5910Y4321D01*
X5908Y4325D01*
X5906Y4331D01*
X5904Y4336D01*
X5902Y4342D01*
X5900Y4349D01*
X5899Y4356D01*
X5898Y4362D01*
X5898Y4370D01*
Y4370D01*
Y4371D01*
Y4372D01*
X5898Y4375D01*
Y4377D01*
X5899Y4380D01*
X5899Y4384D01*
X5900Y4387D01*
X5901Y4396D01*
X5904Y4405D01*
X5907Y4415D01*
X5911Y4424D01*
X5912Y4425D01*
X5912Y4426D01*
X5913Y4427D01*
X5914Y4429D01*
X5916Y4432D01*
X5918Y4435D01*
X5920Y4438D01*
X5923Y4442D01*
X5929Y4450D01*
X5937Y4458D01*
X5946Y4465D01*
X5951Y4469D01*
X5956Y4472D01*
X5956Y4472D01*
X5957Y4473D01*
X5958Y4473D01*
X5960Y4474D01*
X5962Y4475D01*
X5965Y4476D01*
X5968Y4478D01*
X5972Y4479D01*
X5975Y4480D01*
X5980Y4482D01*
X5989Y4484D01*
X6000Y4485D01*
X6011Y4486D01*
X6016D01*
X6019Y4486D01*
X6022D01*
X6025Y4485D01*
X6033Y4484D01*
X6033D01*
X6034Y4484D01*
X6037Y4483D01*
X6040Y4482D01*
X6044Y4481D01*
X6048Y4480D01*
X6054Y4478D01*
X6060Y4476D01*
X6060D01*
X6061Y4475D01*
X6063Y4475D01*
X6065Y4474D01*
X6069Y4473D01*
X6070Y4472D01*
X6072D01*
X6073Y4473D01*
X6075Y4473D01*
X6077Y4475D01*
X6077Y4476D01*
X6077Y4476D01*
X6078Y4477D01*
X6078Y4479D01*
X6079Y4481D01*
X6079Y4483D01*
X6080Y4486D01*
X6086D01*
X6091Y4418D01*
D02*
G37*
G36*
X6722Y4434D02*
X6716D01*
Y4434D01*
X6716Y4434D01*
X6716Y4436D01*
X6715Y4439D01*
X6714Y4442D01*
X6710Y4449D01*
X6709Y4453D01*
X6707Y4456D01*
X6706Y4456D01*
X6706Y4457D01*
X6705Y4458D01*
X6703Y4460D01*
X6701Y4461D01*
X6699Y4463D01*
X6696Y4465D01*
X6693Y4466D01*
X6693D01*
X6692Y4467D01*
X6690Y4467D01*
X6687Y4468D01*
X6684Y4468D01*
X6679Y4469D01*
X6674Y4469D01*
X6621D01*
Y4385D01*
X6662D01*
X6665Y4385D01*
X6667Y4385D01*
X6671Y4386D01*
X6674Y4387D01*
X6677Y4388D01*
X6679Y4390D01*
X6680Y4391D01*
X6680Y4392D01*
X6681Y4393D01*
X6683Y4396D01*
X6684Y4399D01*
X6686Y4403D01*
X6687Y4408D01*
X6688Y4414D01*
X6694D01*
Y4341D01*
X6688D01*
Y4342D01*
Y4343D01*
X6688Y4346D01*
X6687Y4348D01*
X6686Y4354D01*
X6686Y4357D01*
X6685Y4359D01*
Y4360D01*
X6684Y4360D01*
X6683Y4361D01*
X6682Y4363D01*
X6680Y4366D01*
X6676Y4368D01*
X6676D01*
X6675Y4369D01*
X6674Y4369D01*
X6672Y4370D01*
X6670Y4370D01*
X6667Y4371D01*
X6664Y4371D01*
X6621D01*
Y4304D01*
Y4303D01*
Y4303D01*
Y4301D01*
Y4298D01*
X6621Y4295D01*
Y4291D01*
X6622Y4288D01*
X6622Y4284D01*
X6623Y4282D01*
X6623Y4281D01*
X6624Y4280D01*
X6626Y4278D01*
X6628Y4276D01*
X6629Y4275D01*
X6630D01*
X6631Y4275D01*
X6632Y4274D01*
X6634Y4274D01*
X6636Y4273D01*
X6638Y4272D01*
X6641Y4272D01*
X6644Y4272D01*
X6652D01*
Y4266D01*
X6560D01*
Y4272D01*
X6570D01*
X6572Y4272D01*
X6575Y4273D01*
X6578Y4274D01*
X6581Y4275D01*
X6584Y4277D01*
X6587Y4279D01*
X6587Y4280D01*
X6587Y4280D01*
X6588Y4282D01*
X6589Y4284D01*
X6589Y4287D01*
X6590Y4292D01*
X6591Y4297D01*
Y4300D01*
Y4304D01*
Y4443D01*
Y4443D01*
Y4444D01*
Y4446D01*
Y4448D01*
X6590Y4452D01*
X6590Y4455D01*
X6590Y4459D01*
X6589Y4462D01*
X6588Y4464D01*
Y4465D01*
X6588Y4465D01*
X6587Y4467D01*
X6585Y4469D01*
X6584Y4470D01*
X6582Y4471D01*
X6582Y4471D01*
X6581Y4472D01*
X6579Y4472D01*
X6578Y4473D01*
X6576Y4474D01*
X6573Y4474D01*
X6570Y4475D01*
X6560D01*
Y4481D01*
X6720D01*
X6722Y4434D01*
D02*
G37*
G36*
X6460Y4475D02*
X6454D01*
X6450Y4475D01*
X6442Y4474D01*
X6438Y4473D01*
X6435Y4472D01*
X6435D01*
X6434Y4471D01*
X6433Y4470D01*
X6432Y4469D01*
X6429Y4467D01*
X6427Y4465D01*
X6426Y4463D01*
Y4463D01*
X6426Y4462D01*
X6425Y4461D01*
X6425Y4459D01*
X6424Y4455D01*
X6424Y4451D01*
X6424Y4446D01*
Y4440D01*
Y4304D01*
Y4303D01*
Y4302D01*
Y4300D01*
X6424Y4297D01*
X6425Y4291D01*
X6425Y4288D01*
X6426Y4286D01*
X6426Y4285D01*
X6428Y4284D01*
X6429Y4282D01*
X6432Y4281D01*
X6432D01*
X6433Y4280D01*
X6434D01*
X6437Y4280D01*
X6440Y4280D01*
X6444D01*
X6447Y4279D01*
X6478D01*
X6481Y4280D01*
X6486D01*
X6492Y4280D01*
X6497Y4281D01*
X6503Y4282D01*
X6505Y4282D01*
X6507Y4283D01*
X6507Y4283D01*
X6509Y4283D01*
X6511Y4284D01*
X6513Y4286D01*
X6516Y4287D01*
X6519Y4290D01*
X6522Y4292D01*
X6525Y4296D01*
X6526Y4296D01*
X6527Y4297D01*
X6528Y4300D01*
X6531Y4303D01*
X6533Y4307D01*
X6536Y4312D01*
X6539Y4318D01*
X6542Y4325D01*
X6547Y4324D01*
X6529Y4266D01*
X6363D01*
Y4272D01*
X6373D01*
X6375Y4272D01*
X6378Y4273D01*
X6381Y4274D01*
X6384Y4275D01*
X6387Y4277D01*
X6390Y4280D01*
Y4281D01*
X6391Y4281D01*
X6391Y4283D01*
X6392Y4285D01*
X6392Y4288D01*
X6393Y4292D01*
X6393Y4297D01*
Y4304D01*
Y4443D01*
Y4443D01*
Y4444D01*
Y4445D01*
Y4446D01*
X6393Y4450D01*
X6393Y4454D01*
X6392Y4458D01*
X6391Y4462D01*
X6390Y4466D01*
X6389Y4467D01*
X6389Y4468D01*
X6388Y4468D01*
X6388Y4469D01*
X6386Y4470D01*
X6384Y4472D01*
X6382Y4473D01*
X6379Y4474D01*
X6375Y4475D01*
X6371Y4475D01*
X6363D01*
Y4481D01*
X6460D01*
Y4475D01*
D02*
G37*
G36*
X6244Y4486D02*
X6247D01*
X6251Y4485D01*
X6255Y4484D01*
X6260Y4483D01*
X6265Y4482D01*
X6270Y4480D01*
X6276Y4478D01*
X6282Y4476D01*
X6288Y4473D01*
X6294Y4469D01*
X6300Y4465D01*
X6306Y4460D01*
X6312Y4454D01*
X6313Y4454D01*
X6314Y4453D01*
X6315Y4451D01*
X6317Y4448D01*
X6320Y4445D01*
X6322Y4441D01*
X6325Y4437D01*
X6328Y4432D01*
X6331Y4427D01*
X6334Y4420D01*
X6336Y4414D01*
X6339Y4407D01*
X6340Y4399D01*
X6342Y4391D01*
X6343Y4383D01*
X6343Y4374D01*
Y4374D01*
Y4372D01*
X6343Y4370D01*
Y4366D01*
X6342Y4362D01*
X6342Y4357D01*
X6341Y4352D01*
X6339Y4346D01*
X6338Y4340D01*
X6336Y4333D01*
X6333Y4326D01*
X6330Y4319D01*
X6327Y4313D01*
X6323Y4306D01*
X6318Y4299D01*
X6312Y4293D01*
X6312Y4293D01*
X6311Y4292D01*
X6309Y4290D01*
X6307Y4288D01*
X6304Y4286D01*
X6300Y4283D01*
X6296Y4280D01*
X6291Y4277D01*
X6286Y4274D01*
X6280Y4271D01*
X6274Y4268D01*
X6268Y4266D01*
X6261Y4264D01*
X6253Y4262D01*
X6245Y4261D01*
X6237Y4261D01*
X6235D01*
X6233Y4261D01*
X6230Y4261D01*
X6226Y4262D01*
X6222Y4262D01*
X6217Y4263D01*
X6211Y4265D01*
X6206Y4266D01*
X6200Y4268D01*
X6193Y4271D01*
X6187Y4274D01*
X6181Y4277D01*
X6175Y4282D01*
X6169Y4286D01*
X6163Y4292D01*
X6162Y4292D01*
X6161Y4293D01*
X6160Y4295D01*
X6158Y4298D01*
X6156Y4301D01*
X6153Y4305D01*
X6150Y4309D01*
X6148Y4314D01*
X6145Y4320D01*
X6142Y4326D01*
X6140Y4333D01*
X6137Y4340D01*
X6135Y4348D01*
X6134Y4356D01*
X6133Y4365D01*
X6133Y4374D01*
Y4375D01*
Y4376D01*
X6133Y4379D01*
X6133Y4383D01*
X6134Y4387D01*
X6135Y4392D01*
X6136Y4398D01*
X6137Y4404D01*
X6139Y4410D01*
X6141Y4417D01*
X6144Y4424D01*
X6147Y4431D01*
X6151Y4438D01*
X6156Y4445D01*
X6161Y4451D01*
X6167Y4458D01*
X6168Y4458D01*
X6169Y4459D01*
X6170Y4460D01*
X6173Y4462D01*
X6176Y4464D01*
X6179Y4467D01*
X6183Y4469D01*
X6188Y4472D01*
X6193Y4474D01*
X6198Y4477D01*
X6204Y4479D01*
X6211Y4482D01*
X6218Y4483D01*
X6225Y4485D01*
X6232Y4486D01*
X6240Y4486D01*
X6242D01*
X6244Y4486D01*
D02*
G37*
G36*
X6264Y4165D02*
X6257D01*
Y4166D01*
Y4166D01*
X6257Y4168D01*
X6256Y4171D01*
X6255Y4175D01*
X6254Y4179D01*
X6253Y4182D01*
X6251Y4186D01*
X6250Y4189D01*
X6249Y4189D01*
X6249Y4190D01*
X6248Y4191D01*
X6247Y4192D01*
X6245Y4194D01*
X6243Y4195D01*
X6240Y4197D01*
X6238Y4198D01*
X6237D01*
X6236Y4199D01*
X6235Y4199D01*
X6233Y4200D01*
X6229Y4200D01*
X6226Y4201D01*
X6221Y4201D01*
X6156D01*
Y4116D01*
X6207D01*
X6210Y4116D01*
X6214Y4117D01*
X6218Y4117D01*
X6222Y4118D01*
X6226Y4120D01*
X6228Y4121D01*
X6229Y4122D01*
X6230Y4123D01*
X6231Y4125D01*
X6233Y4127D01*
X6234Y4131D01*
X6236Y4135D01*
X6237Y4141D01*
X6238Y4147D01*
X6244D01*
Y4072D01*
X6238D01*
Y4073D01*
Y4073D01*
X6237Y4075D01*
X6237Y4078D01*
X6236Y4081D01*
X6236Y4084D01*
X6235Y4087D01*
X6234Y4090D01*
X6233Y4092D01*
Y4093D01*
X6232Y4093D01*
X6231Y4095D01*
X6230Y4097D01*
X6228Y4098D01*
X6226Y4100D01*
X6224Y4101D01*
X6223D01*
X6222Y4102D01*
X6221Y4102D01*
X6219Y4103D01*
X6216Y4103D01*
X6213Y4104D01*
X6209Y4104D01*
X6156D01*
Y4033D01*
Y4032D01*
Y4031D01*
Y4028D01*
Y4025D01*
X6157Y4022D01*
Y4020D01*
X6157Y4017D01*
X6157Y4015D01*
X6158Y4015D01*
X6158Y4014D01*
X6160Y4012D01*
X6162Y4011D01*
X6162D01*
X6162Y4010D01*
X6163Y4010D01*
X6164D01*
X6166Y4010D01*
X6168Y4009D01*
X6171Y4009D01*
X6217D01*
X6221Y4009D01*
X6225Y4010D01*
X6230Y4010D01*
X6234Y4011D01*
X6237Y4011D01*
X6238D01*
X6239Y4012D01*
X6240Y4013D01*
X6242Y4014D01*
X6245Y4015D01*
X6248Y4017D01*
X6250Y4019D01*
X6253Y4021D01*
X6254Y4022D01*
X6255Y4023D01*
X6257Y4026D01*
X6260Y4029D01*
X6263Y4033D01*
X6266Y4038D01*
X6270Y4044D01*
X6274Y4051D01*
X6280D01*
X6261Y3997D01*
X6095D01*
Y4003D01*
X6104D01*
X6105Y4004D01*
X6107D01*
X6112Y4005D01*
X6117Y4007D01*
X6117D01*
X6118Y4007D01*
X6120Y4009D01*
X6122Y4011D01*
X6123Y4013D01*
X6124Y4014D01*
Y4015D01*
X6124Y4015D01*
X6125Y4017D01*
X6125Y4019D01*
X6125Y4022D01*
X6126Y4025D01*
X6126Y4030D01*
Y4035D01*
Y4175D01*
Y4176D01*
Y4176D01*
Y4177D01*
Y4179D01*
X6126Y4182D01*
X6125Y4186D01*
X6125Y4190D01*
X6124Y4194D01*
X6123Y4198D01*
X6122Y4199D01*
X6122Y4200D01*
X6121Y4201D01*
X6121Y4201D01*
X6119Y4202D01*
X6117Y4204D01*
X6115Y4205D01*
X6111Y4206D01*
X6107Y4206D01*
X6103Y4207D01*
X6095D01*
Y4213D01*
X6261D01*
X6264Y4165D01*
D02*
G37*
G36*
X6383Y4212D02*
X6387D01*
X6390Y4212D01*
X6399Y4211D01*
X6407Y4210D01*
X6415Y4209D01*
X6418Y4208D01*
X6422Y4207D01*
X6422D01*
X6422Y4207D01*
X6424Y4206D01*
X6427Y4205D01*
X6431Y4203D01*
X6436Y4201D01*
X6440Y4198D01*
X6445Y4194D01*
X6449Y4189D01*
X6450Y4188D01*
X6451Y4187D01*
X6453Y4184D01*
X6455Y4180D01*
X6457Y4175D01*
X6459Y4170D01*
X6460Y4164D01*
X6461Y4157D01*
Y4157D01*
Y4156D01*
Y4155D01*
X6460Y4154D01*
X6460Y4150D01*
X6459Y4145D01*
X6458Y4140D01*
X6455Y4134D01*
X6452Y4128D01*
X6448Y4123D01*
X6447Y4122D01*
X6445Y4120D01*
X6442Y4118D01*
X6438Y4115D01*
X6432Y4111D01*
X6425Y4108D01*
X6417Y4105D01*
X6408Y4102D01*
X6452Y4040D01*
X6453Y4040D01*
X6453Y4039D01*
X6454Y4038D01*
X6455Y4037D01*
X6458Y4033D01*
X6461Y4029D01*
X6465Y4024D01*
X6470Y4019D01*
X6474Y4015D01*
X6476Y4013D01*
X6478Y4012D01*
X6479Y4012D01*
X6480Y4011D01*
X6483Y4010D01*
X6486Y4008D01*
X6490Y4007D01*
X6495Y4005D01*
X6501Y4004D01*
X6507Y4003D01*
Y3997D01*
X6449D01*
X6376Y4098D01*
X6372D01*
X6367Y4098D01*
X6356D01*
X6354Y4098D01*
Y4035D01*
Y4035D01*
Y4034D01*
Y4033D01*
Y4032D01*
X6355Y4029D01*
X6355Y4025D01*
X6355Y4020D01*
X6356Y4016D01*
X6357Y4013D01*
X6358Y4011D01*
X6359Y4010D01*
X6359Y4010D01*
X6360Y4009D01*
X6361Y4008D01*
X6363Y4007D01*
X6366Y4005D01*
X6369Y4004D01*
X6372Y4004D01*
X6377Y4003D01*
X6385D01*
Y3997D01*
X6293D01*
Y4003D01*
X6304D01*
X6306Y4004D01*
X6309Y4004D01*
X6312Y4005D01*
X6315Y4007D01*
X6318Y4009D01*
X6321Y4012D01*
Y4012D01*
X6321Y4013D01*
X6322Y4015D01*
X6322Y4017D01*
X6323Y4020D01*
X6323Y4024D01*
X6324Y4029D01*
Y4035D01*
Y4175D01*
Y4175D01*
Y4176D01*
Y4177D01*
Y4178D01*
X6324Y4181D01*
X6323Y4185D01*
X6323Y4190D01*
X6322Y4194D01*
X6321Y4197D01*
X6320Y4199D01*
X6319Y4200D01*
X6319Y4200D01*
X6318Y4201D01*
X6317Y4202D01*
X6315Y4203D01*
X6312Y4204D01*
X6309Y4206D01*
X6306Y4206D01*
X6301Y4207D01*
X6293D01*
Y4213D01*
X6380D01*
X6383Y4212D01*
D02*
G37*
G36*
X5935Y4010D02*
X6027D01*
X6031Y4011D01*
X6035Y4011D01*
X6040Y4012D01*
X6045Y4014D01*
X6051Y4016D01*
X6055Y4019D01*
X6055Y4019D01*
X6057Y4021D01*
X6059Y4023D01*
X6062Y4027D01*
X6063Y4029D01*
X6065Y4032D01*
X6066Y4035D01*
X6068Y4038D01*
X6069Y4042D01*
X6071Y4046D01*
X6073Y4050D01*
X6074Y4055D01*
X6080Y4054D01*
X6069Y3997D01*
X5894D01*
Y4003D01*
X6032Y4200D01*
X5961D01*
X5957Y4199D01*
X5954D01*
X5950Y4199D01*
X5945Y4198D01*
X5942Y4197D01*
X5938Y4196D01*
X5938D01*
X5937Y4195D01*
X5936Y4194D01*
X5934Y4193D01*
X5930Y4190D01*
X5928Y4187D01*
X5927Y4185D01*
X5926Y4185D01*
X5926Y4184D01*
X5925Y4182D01*
X5924Y4179D01*
X5923Y4176D01*
X5922Y4171D01*
X5921Y4165D01*
X5919Y4159D01*
X5913D01*
X5918Y4213D01*
X6077D01*
X5935Y4010D01*
D02*
G37*
G36*
X6627Y4217D02*
X6630D01*
X6633Y4217D01*
X6637Y4216D01*
X6642Y4215D01*
X6647Y4214D01*
X6653Y4212D01*
X6659Y4210D01*
X6665Y4207D01*
X6671Y4204D01*
X6677Y4201D01*
X6683Y4196D01*
X6689Y4191D01*
X6695Y4186D01*
X6695Y4185D01*
X6696Y4184D01*
X6698Y4182D01*
X6700Y4180D01*
X6702Y4177D01*
X6705Y4173D01*
X6708Y4169D01*
X6711Y4164D01*
X6713Y4158D01*
X6716Y4152D01*
X6719Y4146D01*
X6721Y4139D01*
X6723Y4131D01*
X6725Y4123D01*
X6726Y4115D01*
X6726Y4106D01*
Y4105D01*
Y4104D01*
X6726Y4101D01*
Y4098D01*
X6725Y4094D01*
X6724Y4089D01*
X6723Y4083D01*
X6722Y4077D01*
X6720Y4071D01*
X6718Y4065D01*
X6716Y4058D01*
X6713Y4051D01*
X6709Y4044D01*
X6705Y4037D01*
X6700Y4031D01*
X6695Y4025D01*
X6695Y4024D01*
X6694Y4023D01*
X6692Y4022D01*
X6689Y4020D01*
X6686Y4017D01*
X6683Y4014D01*
X6679Y4012D01*
X6674Y4009D01*
X6669Y4005D01*
X6663Y4003D01*
X6657Y4000D01*
X6650Y3997D01*
X6643Y3995D01*
X6636Y3994D01*
X6628Y3993D01*
X6620Y3992D01*
X6618D01*
X6616Y3993D01*
X6613Y3993D01*
X6609Y3994D01*
X6604Y3994D01*
X6599Y3995D01*
X6594Y3996D01*
X6588Y3998D01*
X6582Y4000D01*
X6576Y4003D01*
X6570Y4006D01*
X6563Y4009D01*
X6557Y4013D01*
X6551Y4018D01*
X6545Y4024D01*
X6545Y4024D01*
X6544Y4025D01*
X6543Y4027D01*
X6541Y4029D01*
X6538Y4033D01*
X6536Y4036D01*
X6533Y4041D01*
X6530Y4046D01*
X6528Y4051D01*
X6525Y4058D01*
X6522Y4064D01*
X6520Y4072D01*
X6518Y4079D01*
X6517Y4088D01*
X6516Y4096D01*
X6515Y4106D01*
Y4106D01*
Y4108D01*
X6516Y4111D01*
X6516Y4114D01*
X6516Y4119D01*
X6517Y4124D01*
X6518Y4129D01*
X6520Y4135D01*
X6522Y4142D01*
X6524Y4149D01*
X6527Y4156D01*
X6530Y4163D01*
X6534Y4170D01*
X6539Y4176D01*
X6544Y4183D01*
X6550Y4189D01*
X6550Y4190D01*
X6551Y4191D01*
X6553Y4192D01*
X6555Y4194D01*
X6558Y4196D01*
X6562Y4198D01*
X6566Y4201D01*
X6570Y4204D01*
X6576Y4206D01*
X6581Y4209D01*
X6587Y4211D01*
X6593Y4213D01*
X6600Y4215D01*
X6607Y4216D01*
X6615Y4217D01*
X6623Y4218D01*
X6625D01*
X6627Y4217D01*
D02*
G37*
%LPC*%
G36*
X6237Y4475D02*
X6234D01*
X6232Y4474D01*
X6230Y4474D01*
X6227Y4474D01*
X6220Y4472D01*
X6213Y4469D01*
X6209Y4468D01*
X6205Y4466D01*
X6201Y4463D01*
X6198Y4460D01*
X6194Y4457D01*
X6191Y4453D01*
X6190Y4453D01*
X6190Y4452D01*
X6189Y4450D01*
X6187Y4448D01*
X6186Y4445D01*
X6184Y4442D01*
X6182Y4438D01*
X6180Y4433D01*
X6178Y4428D01*
X6176Y4422D01*
X6174Y4416D01*
X6172Y4409D01*
X6171Y4401D01*
X6170Y4393D01*
X6169Y4384D01*
X6169Y4375D01*
Y4374D01*
Y4372D01*
Y4370D01*
X6169Y4366D01*
X6170Y4362D01*
X6170Y4357D01*
X6171Y4351D01*
X6172Y4345D01*
X6173Y4338D01*
X6174Y4332D01*
X6176Y4325D01*
X6178Y4318D01*
X6181Y4311D01*
X6184Y4305D01*
X6187Y4299D01*
X6191Y4293D01*
X6192Y4293D01*
X6192Y4292D01*
X6193Y4291D01*
X6194Y4290D01*
X6196Y4288D01*
X6198Y4287D01*
X6201Y4285D01*
X6204Y4283D01*
X6210Y4279D01*
X6218Y4275D01*
X6222Y4274D01*
X6227Y4273D01*
X6232Y4272D01*
X6237Y4272D01*
X6240D01*
X6242Y4272D01*
X6245Y4273D01*
X6248Y4273D01*
X6251Y4274D01*
X6255Y4275D01*
X6259Y4276D01*
X6263Y4278D01*
X6267Y4280D01*
X6271Y4282D01*
X6275Y4285D01*
X6279Y4288D01*
X6283Y4292D01*
X6287Y4296D01*
X6287Y4296D01*
X6288Y4297D01*
X6289Y4298D01*
X6290Y4300D01*
X6292Y4303D01*
X6293Y4306D01*
X6295Y4310D01*
X6297Y4314D01*
X6299Y4319D01*
X6301Y4324D01*
X6302Y4330D01*
X6304Y4337D01*
X6305Y4345D01*
X6306Y4352D01*
X6307Y4361D01*
X6307Y4370D01*
Y4371D01*
Y4373D01*
Y4376D01*
X6307Y4379D01*
X6306Y4384D01*
X6306Y4389D01*
X6305Y4395D01*
X6304Y4401D01*
X6302Y4415D01*
X6300Y4422D01*
X6298Y4429D01*
X6295Y4435D01*
X6292Y4442D01*
X6289Y4448D01*
X6285Y4453D01*
X6285Y4453D01*
X6284Y4454D01*
X6283Y4455D01*
X6282Y4456D01*
X6280Y4458D01*
X6278Y4460D01*
X6275Y4462D01*
X6273Y4464D01*
X6269Y4466D01*
X6266Y4468D01*
X6262Y4470D01*
X6257Y4471D01*
X6253Y4473D01*
X6248Y4474D01*
X6243Y4474D01*
X6237Y4475D01*
D02*
G37*
G36*
X6379Y4201D02*
X6375D01*
X6372Y4200D01*
X6369Y4200D01*
X6365Y4199D01*
X6360Y4199D01*
X6354Y4198D01*
Y4108D01*
X6358D01*
X6359Y4108D01*
X6366D01*
X6368Y4108D01*
X6371D01*
X6373Y4108D01*
X6380Y4109D01*
X6387Y4111D01*
X6395Y4113D01*
X6402Y4117D01*
X6406Y4119D01*
X6409Y4121D01*
X6409D01*
X6409Y4122D01*
X6411Y4123D01*
X6414Y4126D01*
X6417Y4130D01*
X6419Y4135D01*
X6422Y4141D01*
X6424Y4148D01*
X6424Y4151D01*
Y4155D01*
Y4155D01*
Y4156D01*
Y4157D01*
X6424Y4158D01*
X6424Y4162D01*
X6423Y4167D01*
X6421Y4172D01*
X6419Y4178D01*
X6416Y4183D01*
X6412Y4188D01*
X6411Y4189D01*
X6409Y4190D01*
X6407Y4192D01*
X6403Y4194D01*
X6398Y4197D01*
X6393Y4199D01*
X6386Y4200D01*
X6379Y4201D01*
D02*
G37*
G36*
X6620Y4206D02*
X6617D01*
X6615Y4206D01*
X6612Y4206D01*
X6610Y4205D01*
X6603Y4204D01*
X6596Y4201D01*
X6592Y4199D01*
X6588Y4197D01*
X6584Y4195D01*
X6580Y4192D01*
X6577Y4188D01*
X6573Y4185D01*
X6573Y4184D01*
X6572Y4183D01*
X6571Y4182D01*
X6570Y4180D01*
X6568Y4177D01*
X6566Y4174D01*
X6565Y4170D01*
X6563Y4165D01*
X6560Y4160D01*
X6559Y4154D01*
X6557Y4147D01*
X6555Y4140D01*
X6554Y4133D01*
X6553Y4125D01*
X6552Y4116D01*
X6552Y4106D01*
Y4106D01*
Y4104D01*
Y4101D01*
X6552Y4098D01*
X6552Y4093D01*
X6553Y4088D01*
X6554Y4083D01*
X6554Y4076D01*
X6556Y4070D01*
X6557Y4063D01*
X6559Y4057D01*
X6561Y4050D01*
X6564Y4043D01*
X6567Y4037D01*
X6570Y4031D01*
X6574Y4025D01*
X6574Y4025D01*
X6575Y4024D01*
X6576Y4023D01*
X6577Y4022D01*
X6579Y4020D01*
X6581Y4018D01*
X6583Y4016D01*
X6586Y4014D01*
X6593Y4010D01*
X6601Y4007D01*
X6605Y4006D01*
X6610Y4005D01*
X6614Y4004D01*
X6620Y4004D01*
X6623D01*
X6625Y4004D01*
X6627Y4004D01*
X6630Y4005D01*
X6634Y4006D01*
X6637Y4007D01*
X6641Y4008D01*
X6645Y4009D01*
X6649Y4011D01*
X6654Y4014D01*
X6658Y4016D01*
X6662Y4020D01*
X6666Y4023D01*
X6670Y4027D01*
X6670Y4028D01*
X6671Y4028D01*
X6672Y4030D01*
X6673Y4032D01*
X6674Y4034D01*
X6676Y4038D01*
X6678Y4041D01*
X6680Y4046D01*
X6682Y4050D01*
X6683Y4056D01*
X6685Y4062D01*
X6687Y4069D01*
X6688Y4076D01*
X6689Y4084D01*
X6689Y4093D01*
X6690Y4102D01*
Y4103D01*
Y4104D01*
Y4107D01*
X6689Y4111D01*
X6689Y4116D01*
X6689Y4121D01*
X6688Y4127D01*
X6687Y4133D01*
X6684Y4147D01*
X6683Y4153D01*
X6680Y4160D01*
X6678Y4167D01*
X6675Y4173D01*
X6672Y4179D01*
X6668Y4185D01*
X6667Y4185D01*
X6667Y4186D01*
X6666Y4187D01*
X6664Y4188D01*
X6663Y4190D01*
X6661Y4192D01*
X6658Y4193D01*
X6655Y4196D01*
X6652Y4198D01*
X6648Y4199D01*
X6644Y4201D01*
X6640Y4203D01*
X6635Y4204D01*
X6631Y4205D01*
X6625Y4206D01*
X6620Y4206D01*
D02*
G37*
%LPD*%
D10*
X4240Y4920D02*
G03*
X4334Y5012I92J-0D01*
G01*
X2259Y4259D02*
G03*
X2300Y4358I41J41D01*
G01*
X4403Y6070D02*
G03*
X4485Y5988I82J0D01*
G01*
X4485Y6453D02*
G03*
X4403Y6370I-0J-82D01*
G01*
X5538Y6370D02*
G03*
X5455Y6453I-82J0D01*
G01*
Y5988D02*
G03*
X5538Y6070I0J82D01*
G01*
X5250Y5310D02*
G03*
X5310Y5250I60J0D01*
G01*
X3530Y6870D02*
X3560Y6900D01*
X3250Y7150D02*
X3280Y7120D01*
X3250Y7150D02*
X3530D01*
X3530Y6870D02*
Y7150D01*
X3500Y6900D02*
X3530Y6870D01*
X3250Y7150D02*
X3280Y7180D01*
X4052Y4920D02*
X4082Y4950D01*
X4302Y4670D02*
X4332Y4640D01*
Y4920D01*
X4052D02*
X4332D01*
X4052D02*
X4082Y4890D01*
X4334Y5012D02*
X4362Y4984D01*
X4332Y4640D02*
X4362Y4670D01*
X4334Y5012D02*
X4362Y5040D01*
X2300Y4358D02*
X2302D01*
X2300D02*
Y4360D01*
X2320Y4380D01*
X2300Y4358D02*
X2302D01*
X2301D02*
X2302D01*
X2320Y4340D01*
X3735Y2837D02*
Y2985D01*
X3775D01*
X4445D02*
X4485D01*
Y2837D02*
Y2985D01*
Y2425D02*
Y2563D01*
X3735Y2425D02*
X4485D01*
X3735D02*
Y2563D01*
X6003Y3280D02*
Y3300D01*
X6117Y3280D02*
Y3300D01*
X6160Y6640D02*
X6440D01*
Y6340D02*
Y6640D01*
X6160Y6340D02*
X6440D01*
X6160D02*
Y6640D01*
X3694Y7485D02*
X4740D01*
Y7215D02*
Y7485D01*
X3694Y7215D02*
X4740D01*
X3694D02*
Y7485D01*
X4420Y7118D02*
X4440D01*
X4420Y7003D02*
X4440D01*
X4000Y7003D02*
X4020D01*
X4000Y7118D02*
X4020D01*
X4290Y3195D02*
X4420D01*
X4290D02*
Y3270D01*
Y3505D02*
X4420D01*
X4290Y3430D02*
Y3505D01*
X5538Y6370D02*
X5538Y6370D01*
X5538Y6070D02*
Y6370D01*
X4403Y6070D02*
Y6370D01*
X4485Y5988D02*
X5455D01*
X4485Y6453D02*
X5455D01*
X2810Y6478D02*
X2830D01*
X2810Y6362D02*
X2830D01*
X2810Y6668D02*
X2830D01*
X2810Y6553D02*
X2830D01*
X4050Y5170D02*
Y5203D01*
X4017Y5170D02*
X4050D01*
Y5567D02*
Y5600D01*
X4017D02*
X4050D01*
X3620D02*
X3653D01*
X3620Y5567D02*
Y5600D01*
Y5170D02*
Y5203D01*
Y5170D02*
X3653D01*
X3515Y6470D02*
Y6490D01*
Y6190D02*
Y6210D01*
X3495Y6190D02*
X3515D01*
X3215D02*
X3235D01*
X3215D02*
Y6210D01*
Y6470D02*
Y6490D01*
X3235D01*
X3495D02*
X3515D01*
X6075Y4717D02*
X6285D01*
X6075Y5033D02*
X6285D01*
X2515Y4463D02*
Y6017D01*
X2784D01*
Y4463D02*
Y6017D01*
X2515Y4463D02*
X2784D01*
X4010Y4055D02*
Y4205D01*
X3270Y4055D02*
Y4205D01*
X4010Y4595D02*
Y4745D01*
X3270Y4595D02*
Y4745D01*
Y4055D02*
X4010D01*
X3270Y4745D02*
X4010D01*
X3569Y3810D02*
X3731D01*
X3569Y3990D02*
X3731D01*
X5400Y3070D02*
Y3090D01*
X5515Y3070D02*
Y3090D01*
X5408Y3410D02*
X5508D01*
Y3440D01*
X5408Y3410D02*
Y3440D01*
X5453Y3930D02*
Y4090D01*
X5228Y3930D02*
Y4090D01*
X6970Y4708D02*
X6990D01*
X6970Y4592D02*
X6990D01*
X6970Y3947D02*
X6990D01*
X6970Y3833D02*
X6990D01*
X6970Y4197D02*
X6990D01*
X6970Y4083D02*
X6990D01*
X6970Y4458D02*
X6990D01*
X6970Y4342D02*
X6990D01*
X6570Y5905D02*
X6590D01*
X6570Y5790D02*
X6590D01*
X6570Y6095D02*
X6590D01*
X6570Y5980D02*
X6590D01*
X6570Y5365D02*
X6590D01*
X6570Y5250D02*
X6590D01*
X3000Y4792D02*
X3020D01*
X3000Y4908D02*
X3020D01*
X3000Y5053D02*
X3020D01*
X3000Y5167D02*
X3020D01*
X4790Y3339D02*
Y3501D01*
X4970Y3339D02*
Y3501D01*
X4690Y5310D02*
X5310D01*
X4690Y4690D02*
X5310D01*
Y5310D01*
X4690Y4690D02*
Y5310D01*
X6810Y4955D02*
X6910D01*
Y4985D01*
X6810Y4955D02*
Y4985D01*
X6896Y6464D02*
X7164D01*
X6896Y5418D02*
Y6464D01*
Y5418D02*
X7164D01*
Y6464D01*
X7206D02*
X7475D01*
X7206Y5418D02*
Y6464D01*
Y5418D02*
X7475D01*
Y6464D01*
X5264Y7215D02*
Y7485D01*
Y7215D02*
X6310D01*
Y7485D01*
X5264D02*
X6310D01*
X7475Y3493D02*
Y5047D01*
X7206Y3493D02*
X7475D01*
X7206D02*
Y5047D01*
X7475D01*
X3365Y3540D02*
X3455D01*
X3365Y3240D02*
X3455D01*
X3365D02*
Y3540D01*
X3455Y3240D02*
Y3540D01*
X4098Y3255D02*
Y3585D01*
X3862Y3255D02*
Y3585D01*
X5247Y2515D02*
Y3150D01*
X4753Y2515D02*
X5247D01*
X4753D02*
Y3150D01*
X5247D01*
X4328Y3750D02*
X4433D01*
X4328Y3570D02*
X4433D01*
X5167Y3410D02*
Y3430D01*
X5053Y3410D02*
Y3430D01*
X5562Y5477D02*
X5853D01*
X5562Y5703D02*
X5853D01*
X4720Y5812D02*
X4740D01*
X4720Y5928D02*
X4740D01*
X6570Y5555D02*
X6590D01*
X6570Y5440D02*
X6590D01*
X6456Y2539D02*
Y3061D01*
X5664D02*
X6456D01*
X5664Y2539D02*
X6456D01*
X5664D02*
Y3061D01*
X5867Y3280D02*
Y3300D01*
X5753Y3280D02*
Y3300D01*
X6367Y3280D02*
Y3300D01*
X6253Y3280D02*
Y3300D01*
X6000Y7003D02*
X6020D01*
X6000Y7118D02*
X6020D01*
X5560D02*
X5580D01*
X5560Y7003D02*
X5580D01*
X3000Y5562D02*
X3020D01*
X3000Y5678D02*
X3020D01*
X3000Y5312D02*
X3020D01*
X3000Y5428D02*
X3020D01*
X2613Y6145D02*
X2598Y6160D01*
X2568D01*
X2553Y6145D01*
Y6130D01*
X2568Y6115D01*
X2598D01*
X2613Y6100D01*
Y6085D01*
X2598Y6070D01*
X2568D01*
X2553Y6085D01*
X2643Y6070D02*
Y6160D01*
X2688D01*
X2703Y6145D01*
Y6115D01*
X2688Y6100D01*
X2643D01*
X2732Y6160D02*
X2762D01*
X2747D01*
Y6070D01*
X2732D01*
X2762D01*
X2867D02*
X2807D01*
X2867Y6130D01*
Y6145D01*
X2852Y6160D01*
X2822D01*
X2807Y6145D01*
X6570Y2855D02*
X6555Y2870D01*
X6525D01*
X6510Y2855D01*
Y2840D01*
X6525Y2825D01*
X6555D01*
X6570Y2810D01*
Y2795D01*
X6555Y2780D01*
X6525D01*
X6510Y2795D01*
X6600Y2870D02*
Y2780D01*
X6630Y2810D01*
X6660Y2780D01*
Y2870D01*
X6690D02*
Y2780D01*
X6735D01*
X6750Y2795D01*
Y2855D01*
X6735Y2870D01*
X6690D01*
X4110Y6860D02*
Y6920D01*
X4140Y6950D01*
X4170Y6920D01*
Y6860D01*
Y6905D01*
X4110D01*
X4200Y6950D02*
Y6860D01*
X4245D01*
X4260Y6875D01*
Y6935D01*
X4245Y6950D01*
X4200D01*
X4350Y6935D02*
X4335Y6950D01*
X4305D01*
X4290Y6935D01*
Y6875D01*
X4305Y6860D01*
X4335D01*
X4350Y6875D01*
X6695Y5750D02*
X6755D01*
X6725D01*
Y5660D01*
X6785Y5750D02*
X6845Y5660D01*
Y5750D02*
X6785Y5660D01*
X6695Y6140D02*
Y6230D01*
X6740D01*
X6755Y6215D01*
Y6185D01*
X6740Y6170D01*
X6695D01*
X6725D02*
X6755Y6140D01*
X6785Y6230D02*
X6845Y6140D01*
Y6230D02*
X6785Y6140D01*
X5355Y3695D02*
X5340Y3710D01*
X5310D01*
X5295Y3695D01*
Y3680D01*
X5310Y3665D01*
X5340D01*
X5355Y3650D01*
Y3635D01*
X5340Y3620D01*
X5310D01*
X5295Y3635D01*
X5385Y3710D02*
X5445D01*
X5415D01*
Y3620D01*
X5475D02*
Y3680D01*
X5505Y3710D01*
X5535Y3680D01*
Y3620D01*
Y3665D01*
X5475D01*
X5565Y3710D02*
X5625D01*
X5595D01*
Y3620D01*
X6835Y3745D02*
X6895D01*
X6865D01*
Y3655D01*
X6925Y3745D02*
X6955D01*
X6940D01*
Y3655D01*
X6925D01*
X6955D01*
X7000D02*
Y3745D01*
X7030Y3715D01*
X7060Y3745D01*
Y3655D01*
X7090Y3730D02*
X7105Y3745D01*
X7135D01*
X7150Y3730D01*
Y3715D01*
X7135Y3700D01*
X7120D01*
X7135D01*
X7150Y3685D01*
Y3670D01*
X7135Y3655D01*
X7105D01*
X7090Y3670D01*
X6805Y5372D02*
Y5297D01*
X6820Y5283D01*
X6850D01*
X6865Y5297D01*
Y5372D01*
X6895Y5283D02*
Y5342D01*
X6925Y5372D01*
X6955Y5342D01*
Y5283D01*
Y5327D01*
X6895D01*
X6985Y5283D02*
Y5372D01*
X7030D01*
X7045Y5357D01*
Y5327D01*
X7030Y5312D01*
X6985D01*
X7015D02*
X7045Y5283D01*
X7075Y5372D02*
X7135D01*
X7105D01*
Y5283D01*
X7225D02*
X7165D01*
X7225Y5342D01*
Y5357D01*
X7210Y5372D01*
X7180D01*
X7165Y5357D01*
X4480Y3030D02*
Y3120D01*
X4525D01*
X4540Y3105D01*
Y3075D01*
X4525Y3060D01*
X4480D01*
X4570Y3120D02*
Y3030D01*
X4600Y3060D01*
X4630Y3030D01*
Y3120D01*
X4660Y3030D02*
Y3120D01*
X4705D01*
X4720Y3105D01*
Y3075D01*
X4705Y3060D01*
X4660D01*
X4690D02*
X4720Y3030D01*
X7055Y6600D02*
Y6525D01*
X7070Y6510D01*
X7100D01*
X7115Y6525D01*
Y6600D01*
X7145Y6510D02*
Y6570D01*
X7175Y6600D01*
X7205Y6570D01*
Y6510D01*
Y6555D01*
X7145D01*
X7235Y6510D02*
Y6600D01*
X7280D01*
X7295Y6585D01*
Y6555D01*
X7280Y6540D01*
X7235D01*
X7265D02*
X7295Y6510D01*
X7325Y6600D02*
X7385D01*
X7355D01*
Y6510D01*
X7415D02*
X7445D01*
X7430D01*
Y6600D01*
X7415Y6585D01*
X3240Y6940D02*
Y7030D01*
X3270Y7000D01*
X3300Y7030D01*
Y6940D01*
X3330D02*
Y7000D01*
X3360Y7030D01*
X3390Y7000D01*
Y6940D01*
Y6985D01*
X3330D01*
X3480Y7015D02*
X3465Y7030D01*
X3435D01*
X3420Y7015D01*
Y6955D01*
X3435Y6940D01*
X3465D01*
X3480Y6955D01*
Y6985D01*
X3450D01*
X4058Y4790D02*
X4088D01*
X4073D01*
Y4700D01*
X4058D01*
X4088D01*
X4133D02*
Y4790D01*
X4163Y4760D01*
X4192Y4790D01*
Y4700D01*
X4222Y4790D02*
Y4715D01*
X4237Y4700D01*
X4267D01*
X4282Y4715D01*
Y4790D01*
X2150Y4150D02*
Y4135D01*
X2180Y4105D01*
X2210Y4135D01*
Y4150D01*
X2180Y4105D02*
Y4060D01*
X5648Y6950D02*
X5678D01*
X5663D01*
Y6860D01*
X5648D01*
X5678D01*
X5783D02*
X5723D01*
X5783Y6920D01*
Y6935D01*
X5768Y6950D01*
X5738D01*
X5723Y6935D01*
X5872D02*
X5857Y6950D01*
X5827D01*
X5812Y6935D01*
Y6875D01*
X5827Y6860D01*
X5857D01*
X5872Y6875D01*
X5902Y6860D02*
X5932D01*
X5917D01*
Y6950D01*
X5902Y6935D01*
X4495Y6410D02*
X4465D01*
X4480D01*
Y6335D01*
X4465Y6320D01*
X4450D01*
X4435Y6335D01*
X4525Y6410D02*
Y6320D01*
X4585D01*
X4675Y6395D02*
X4660Y6410D01*
X4630D01*
X4615Y6395D01*
Y6335D01*
X4630Y6320D01*
X4660D01*
X4675Y6335D01*
X4765Y6410D02*
X4735D01*
X4750D01*
Y6335D01*
X4735Y6320D01*
X4720D01*
X4705Y6335D01*
X4795Y6410D02*
Y6320D01*
X4855D01*
X4945Y6395D02*
X4930Y6410D01*
X4900D01*
X4885Y6395D01*
Y6335D01*
X4900Y6320D01*
X4930D01*
X4945Y6335D01*
X5035Y6410D02*
X5005D01*
X5020D01*
Y6335D01*
X5005Y6320D01*
X4990D01*
X4975Y6335D01*
X5065Y6410D02*
Y6320D01*
X5125D01*
X5215Y6395D02*
X5200Y6410D01*
X5170D01*
X5155Y6395D01*
Y6335D01*
X5170Y6320D01*
X5200D01*
X5215Y6335D01*
X5305Y6410D02*
X5275D01*
X5290D01*
Y6335D01*
X5275Y6320D01*
X5260D01*
X5245Y6335D01*
X5335Y6410D02*
Y6320D01*
X5395D01*
X5485Y6395D02*
X5470Y6410D01*
X5440D01*
X5425Y6395D01*
Y6335D01*
X5440Y6320D01*
X5470D01*
X5485Y6335D01*
X1970Y4340D02*
X2030Y4250D01*
Y4340D02*
X1970Y4250D01*
X6500Y5070D02*
Y5160D01*
X6545D01*
X6560Y5145D01*
Y5115D01*
X6545Y5100D01*
X6500D01*
X6590Y5160D02*
Y5070D01*
X6620Y5100D01*
X6650Y5070D01*
Y5160D01*
X6680Y5070D02*
Y5160D01*
X6725D01*
X6740Y5145D01*
Y5115D01*
X6725Y5100D01*
X6680D01*
X6710D02*
X6740Y5070D01*
X3600Y6950D02*
Y6937D01*
X3627Y6910D01*
X3653Y6937D01*
Y6950D01*
X3627Y6910D02*
Y6870D01*
X3220Y7110D02*
X3167Y7190D01*
Y7110D02*
X3220Y7190D01*
X2130Y3690D02*
X2157D01*
X2143D01*
Y3610D01*
X2130D01*
X2157D01*
X2197D02*
Y3690D01*
X2223Y3663D01*
X2250Y3690D01*
Y3610D01*
X2277Y3690D02*
Y3623D01*
X2290Y3610D01*
X2317D01*
X2330Y3623D01*
Y3690D01*
X4022Y4880D02*
X3969Y4960D01*
Y4880D02*
X4022Y4960D01*
X4242Y5040D02*
X4296D01*
Y5027D01*
X4242Y4973D01*
Y4960D01*
X4296D01*
X4402Y4720D02*
Y4707D01*
X4429Y4680D01*
X4456Y4707D01*
Y4720D01*
X4429Y4680D02*
Y4640D01*
D11*
X3022Y7130D02*
G03*
X3022Y7130I-152J0D01*
G01*
X7282D02*
G03*
X7282Y7130I-152J0D01*
G01*
Y2870D02*
G03*
X7282Y2870I-152J0D01*
G01*
X3022D02*
G03*
X3022Y2870I-152J0D01*
G01*
D12*
X3992Y3090D02*
G03*
X3992Y3090I-12J0D01*
G01*
X5865Y6587D02*
G03*
X5865Y6587I-12J0D01*
G01*
X4512Y3160D02*
G03*
X4512Y3160I-12J0D01*
G01*
X5615Y6220D02*
G03*
X5615Y6220I-12J0D01*
G01*
X4142Y5260D02*
G03*
X4142Y5260I-12J0D01*
G01*
X3458Y6573D02*
G03*
X3458Y6573I-12J0D01*
G01*
X6030Y4778D02*
G03*
X6030Y4778I-12J0D01*
G01*
X3395Y3900D02*
G03*
X3395Y3900I-12J0D01*
G01*
X5525Y3920D02*
G03*
X5525Y3920I-12J0D01*
G01*
X4892Y3688D02*
G03*
X4892Y3688I-12J0D01*
G01*
X5358Y5425D02*
G03*
X5358Y5425I-12J0D01*
G01*
X3288Y3570D02*
G03*
X3288Y3570I-12J0D01*
G01*
X4706Y2840D02*
G03*
X4706Y2840I-12J0D01*
G01*
D13*
X6260Y6565D02*
G03*
X6260Y6565I-25J0D01*
G01*
X5910Y3940D02*
X6710D01*
X5910Y3540D02*
X6710D01*
D14*
X2070Y4300D02*
X2110Y4340D01*
X2070Y4300D02*
X2070D01*
X2070D02*
X2300D01*
X2070D02*
X2070D01*
X2110Y4260D01*
X2300Y4070D02*
X2340Y4110D01*
X2300Y4070D02*
Y4070D01*
X2260Y4110D02*
X2300Y4070D01*
Y4070D02*
Y4070D01*
Y4070D02*
Y4300D01*
X4910Y2680D02*
X4830D01*
X4870Y2640D02*
Y2720D01*
X5300Y2830D02*
X5380D01*
X5090Y2680D02*
X5170D01*
D15*
X5910Y3540D02*
Y3940D01*
X6710Y3540D02*
Y3940D01*
M02*
