G04*
G04 #@! TF.GenerationSoftware,Altium Limited,Altium Designer,21.7.1 (17)*
G04*
G04 Layer_Physical_Order=3*
G04 Layer_Color=16440176*
%FSLAX42Y42*%
%MOMM*%
G71*
G04*
G04 #@! TF.SameCoordinates,023FFD1A-8B7E-49EE-8FAD-F7FEFAD85E63*
G04*
G04*
G04 #@! TF.FilePolarity,Positive*
G04*
G01*
G75*
%ADD85R,1.60X1.60*%
%ADD88R,1.60X1.60*%
%ADD91R,1.65X1.65*%
%ADD93C,0.61*%
%ADD95C,0.80*%
G36*
X7202Y7494D02*
X7249Y7481D01*
X7294Y7463D01*
X7336Y7438D01*
X7374Y7409D01*
X7409Y7374D01*
X7438Y7336D01*
X7463Y7294D01*
X7481Y7249D01*
X7494Y7202D01*
X7500Y7154D01*
X7500Y7130D01*
X7500D01*
X7500Y2870D01*
Y2846D01*
X7494Y2798D01*
X7481Y2751D01*
X7463Y2706D01*
X7438Y2664D01*
X7409Y2626D01*
X7374Y2591D01*
X7336Y2562D01*
X7294Y2537D01*
X7249Y2519D01*
X7202Y2506D01*
X7154Y2500D01*
X7130D01*
X2870Y2500D01*
X2846D01*
X2798Y2506D01*
X2751Y2519D01*
X2706Y2537D01*
X2664Y2562D01*
X2626Y2591D01*
X2591Y2626D01*
X2562Y2664D01*
X2537Y2706D01*
X2519Y2751D01*
X2506Y2798D01*
X2500Y2846D01*
Y2870D01*
X2500Y7130D01*
Y7154D01*
X2506Y7202D01*
X2519Y7249D01*
X2537Y7294D01*
X2562Y7336D01*
X2591Y7374D01*
X2626Y7409D01*
X2664Y7438D01*
X2706Y7463D01*
X2751Y7481D01*
X2798Y7494D01*
X2846Y7500D01*
X2870Y7500D01*
X2870Y7500D01*
X7154D01*
X7202Y7494D01*
D02*
G37*
%LPC*%
G36*
X5160Y7457D02*
X5138Y7453D01*
X5120Y7440D01*
X5107Y7422D01*
X5103Y7400D01*
X5107Y7378D01*
X5120Y7360D01*
X5138Y7347D01*
X5160Y7343D01*
X5182Y7347D01*
X5200Y7360D01*
X5213Y7378D01*
X5217Y7400D01*
X5213Y7422D01*
X5200Y7440D01*
X5182Y7453D01*
X5160Y7457D01*
D02*
G37*
G36*
X5000D02*
X4978Y7453D01*
X4960Y7440D01*
X4947Y7422D01*
X4943Y7400D01*
X4947Y7378D01*
X4960Y7360D01*
X4978Y7347D01*
X5000Y7343D01*
X5022Y7347D01*
X5040Y7360D01*
X5053Y7378D01*
X5057Y7400D01*
X5053Y7422D01*
X5040Y7440D01*
X5022Y7453D01*
X5000Y7457D01*
D02*
G37*
G36*
X4840D02*
X4818Y7453D01*
X4800Y7440D01*
X4787Y7422D01*
X4783Y7400D01*
X4787Y7378D01*
X4800Y7360D01*
X4818Y7347D01*
X4840Y7343D01*
X4862Y7347D01*
X4880Y7360D01*
X4893Y7378D01*
X4897Y7400D01*
X4893Y7422D01*
X4880Y7440D01*
X4862Y7453D01*
X4840Y7457D01*
D02*
G37*
G36*
X3560D02*
X3538Y7453D01*
X3520Y7440D01*
X3507Y7422D01*
X3503Y7400D01*
X3507Y7378D01*
X3520Y7360D01*
X3538Y7347D01*
X3560Y7343D01*
X3582Y7347D01*
X3600Y7360D01*
X3613Y7378D01*
X3617Y7400D01*
X3613Y7422D01*
X3600Y7440D01*
X3582Y7453D01*
X3560Y7457D01*
D02*
G37*
G36*
X3400D02*
X3378Y7453D01*
X3360Y7440D01*
X3347Y7422D01*
X3343Y7400D01*
X3347Y7378D01*
X3360Y7360D01*
X3378Y7347D01*
X3400Y7343D01*
X3422Y7347D01*
X3440Y7360D01*
X3453Y7378D01*
X3457Y7400D01*
X3453Y7422D01*
X3440Y7440D01*
X3422Y7453D01*
X3400Y7457D01*
D02*
G37*
G36*
X3240D02*
X3218Y7453D01*
X3200Y7440D01*
X3187Y7422D01*
X3183Y7400D01*
X3187Y7378D01*
X3200Y7360D01*
X3218Y7347D01*
X3240Y7343D01*
X3262Y7347D01*
X3280Y7360D01*
X3293Y7378D01*
X3297Y7400D01*
X3293Y7422D01*
X3280Y7440D01*
X3262Y7453D01*
X3240Y7457D01*
D02*
G37*
G36*
X6730Y7447D02*
X6708Y7443D01*
X6690Y7430D01*
X6677Y7412D01*
X6673Y7390D01*
X6677Y7368D01*
X6690Y7350D01*
X6708Y7337D01*
X6730Y7333D01*
X6752Y7337D01*
X6770Y7350D01*
X6783Y7368D01*
X6787Y7390D01*
X6783Y7412D01*
X6770Y7430D01*
X6752Y7443D01*
X6730Y7447D01*
D02*
G37*
G36*
X6570D02*
X6548Y7443D01*
X6530Y7430D01*
X6517Y7412D01*
X6513Y7390D01*
X6517Y7368D01*
X6530Y7350D01*
X6548Y7337D01*
X6570Y7333D01*
X6592Y7337D01*
X6610Y7350D01*
X6623Y7368D01*
X6627Y7390D01*
X6623Y7412D01*
X6610Y7430D01*
X6592Y7443D01*
X6570Y7447D01*
D02*
G37*
G36*
X6410D02*
X6388Y7443D01*
X6370Y7430D01*
X6357Y7412D01*
X6353Y7390D01*
X6357Y7368D01*
X6370Y7350D01*
X6388Y7337D01*
X6410Y7333D01*
X6432Y7337D01*
X6450Y7350D01*
X6463Y7368D01*
X6467Y7390D01*
X6463Y7412D01*
X6450Y7430D01*
X6432Y7443D01*
X6410Y7447D01*
D02*
G37*
G36*
X5660Y7456D02*
X5632Y7453D01*
X5607Y7442D01*
X5585Y7425D01*
X5568Y7403D01*
X5557Y7378D01*
X5554Y7350D01*
X5557Y7322D01*
X5568Y7297D01*
X5576Y7287D01*
X5568Y7275D01*
X5560Y7277D01*
X5538Y7273D01*
X5520Y7260D01*
X5507Y7242D01*
X5503Y7220D01*
X5507Y7198D01*
X5520Y7180D01*
X5538Y7167D01*
X5560Y7163D01*
X5582Y7167D01*
X5600Y7180D01*
X5613Y7198D01*
X5617Y7220D01*
X5613Y7242D01*
X5621Y7252D01*
X5632Y7247D01*
X5660Y7244D01*
X5688Y7247D01*
X5713Y7258D01*
X5735Y7275D01*
X5752Y7297D01*
X5763Y7322D01*
X5766Y7350D01*
X5763Y7378D01*
X5752Y7403D01*
X5735Y7425D01*
X5713Y7442D01*
X5688Y7453D01*
X5660Y7456D01*
D02*
G37*
G36*
X4090D02*
X4062Y7453D01*
X4037Y7442D01*
X4015Y7425D01*
X3998Y7403D01*
X3987Y7378D01*
X3984Y7350D01*
X3987Y7322D01*
X3998Y7297D01*
X4006Y7287D01*
X3998Y7275D01*
X3990Y7277D01*
X3968Y7273D01*
X3950Y7260D01*
X3937Y7242D01*
X3933Y7220D01*
X3937Y7198D01*
X3950Y7180D01*
X3968Y7167D01*
X3990Y7163D01*
X4012Y7167D01*
X4030Y7180D01*
X4043Y7198D01*
X4047Y7220D01*
X4043Y7242D01*
X4051Y7252D01*
X4062Y7247D01*
X4090Y7244D01*
X4118Y7247D01*
X4143Y7258D01*
X4165Y7275D01*
X4182Y7297D01*
X4193Y7322D01*
X4196Y7350D01*
X4193Y7378D01*
X4182Y7403D01*
X4165Y7425D01*
X4143Y7442D01*
X4118Y7453D01*
X4090Y7456D01*
D02*
G37*
G36*
X5406D02*
X5378Y7453D01*
X5353Y7442D01*
X5331Y7425D01*
X5314Y7403D01*
X5303Y7378D01*
X5300Y7350D01*
X5303Y7322D01*
X5314Y7297D01*
X5331Y7275D01*
X5353Y7258D01*
X5378Y7247D01*
X5406Y7244D01*
X5434Y7247D01*
X5459Y7258D01*
X5481Y7275D01*
X5498Y7297D01*
X5509Y7322D01*
X5512Y7350D01*
X5509Y7378D01*
X5498Y7403D01*
X5481Y7425D01*
X5459Y7442D01*
X5434Y7453D01*
X5406Y7456D01*
D02*
G37*
G36*
X3836D02*
X3808Y7453D01*
X3783Y7442D01*
X3761Y7425D01*
X3744Y7403D01*
X3733Y7378D01*
X3730Y7350D01*
X3733Y7322D01*
X3744Y7297D01*
X3761Y7275D01*
X3783Y7258D01*
X3808Y7247D01*
X3836Y7244D01*
X3864Y7247D01*
X3889Y7258D01*
X3911Y7275D01*
X3928Y7297D01*
X3939Y7322D01*
X3942Y7350D01*
X3939Y7378D01*
X3928Y7403D01*
X3911Y7425D01*
X3889Y7442D01*
X3864Y7453D01*
X3836Y7456D01*
D02*
G37*
G36*
X3560Y7297D02*
X3538Y7293D01*
X3520Y7280D01*
X3507Y7262D01*
X3503Y7240D01*
X3507Y7218D01*
X3520Y7200D01*
X3538Y7187D01*
X3560Y7183D01*
X3582Y7187D01*
X3600Y7200D01*
X3613Y7218D01*
X3617Y7240D01*
X3613Y7262D01*
X3600Y7280D01*
X3582Y7293D01*
X3560Y7297D01*
D02*
G37*
G36*
X3400D02*
X3378Y7293D01*
X3360Y7280D01*
X3347Y7262D01*
X3343Y7240D01*
X3347Y7218D01*
X3360Y7200D01*
X3378Y7187D01*
X3400Y7183D01*
X3422Y7187D01*
X3440Y7200D01*
X3453Y7218D01*
X3457Y7240D01*
X3453Y7262D01*
X3440Y7280D01*
X3422Y7293D01*
X3400Y7297D01*
D02*
G37*
G36*
X3240D02*
X3218Y7293D01*
X3200Y7280D01*
X3187Y7262D01*
X3183Y7240D01*
X3187Y7218D01*
X3200Y7200D01*
X3218Y7187D01*
X3240Y7183D01*
X3262Y7187D01*
X3280Y7200D01*
X3293Y7218D01*
X3297Y7240D01*
X3293Y7262D01*
X3280Y7280D01*
X3262Y7293D01*
X3240Y7297D01*
D02*
G37*
G36*
X5914Y7456D02*
X5886Y7453D01*
X5861Y7442D01*
X5839Y7425D01*
X5822Y7403D01*
X5811Y7378D01*
X5808Y7350D01*
X5811Y7322D01*
X5822Y7297D01*
X5839Y7275D01*
X5861Y7258D01*
X5886Y7247D01*
X5914Y7244D01*
X5942Y7247D01*
X5947Y7250D01*
X5953Y7245D01*
X5957Y7240D01*
X5953Y7220D01*
X5957Y7198D01*
X5970Y7180D01*
X5988Y7167D01*
X6010Y7163D01*
X6032Y7167D01*
X6050Y7180D01*
X6063Y7198D01*
X6067Y7220D01*
X6063Y7242D01*
X6050Y7260D01*
X6032Y7273D01*
X6010Y7277D01*
X6006Y7276D01*
X5999Y7288D01*
X6006Y7297D01*
X6017Y7322D01*
X6020Y7350D01*
X6017Y7378D01*
X6006Y7403D01*
X5989Y7425D01*
X5967Y7442D01*
X5942Y7453D01*
X5914Y7456D01*
D02*
G37*
G36*
X5790Y7277D02*
X5768Y7273D01*
X5750Y7260D01*
X5737Y7242D01*
X5733Y7220D01*
X5737Y7198D01*
X5750Y7180D01*
X5768Y7167D01*
X5790Y7163D01*
X5812Y7167D01*
X5830Y7180D01*
X5843Y7198D01*
X5847Y7220D01*
X5843Y7242D01*
X5830Y7260D01*
X5812Y7273D01*
X5790Y7277D01*
D02*
G37*
G36*
X4344Y7456D02*
X4316Y7453D01*
X4291Y7442D01*
X4269Y7425D01*
X4252Y7403D01*
X4241Y7378D01*
X4238Y7350D01*
X4241Y7322D01*
X4252Y7297D01*
X4269Y7275D01*
X4291Y7258D01*
X4316Y7247D01*
X4344Y7244D01*
X4372Y7247D01*
X4377Y7250D01*
X4383Y7245D01*
X4387Y7240D01*
X4383Y7220D01*
X4387Y7198D01*
X4400Y7180D01*
X4418Y7167D01*
X4440Y7163D01*
X4462Y7167D01*
X4480Y7180D01*
X4493Y7198D01*
X4497Y7220D01*
X4493Y7242D01*
X4480Y7260D01*
X4462Y7273D01*
X4440Y7277D01*
X4436Y7276D01*
X4429Y7288D01*
X4436Y7297D01*
X4447Y7322D01*
X4450Y7350D01*
X4447Y7378D01*
X4436Y7403D01*
X4419Y7425D01*
X4397Y7442D01*
X4372Y7453D01*
X4344Y7456D01*
D02*
G37*
G36*
X4210Y7277D02*
X4188Y7273D01*
X4170Y7260D01*
X4157Y7242D01*
X4153Y7220D01*
X4157Y7198D01*
X4170Y7180D01*
X4188Y7167D01*
X4210Y7163D01*
X4232Y7167D01*
X4250Y7180D01*
X4263Y7198D01*
X4267Y7220D01*
X4263Y7242D01*
X4250Y7260D01*
X4232Y7273D01*
X4210Y7277D01*
D02*
G37*
G36*
X3700Y7207D02*
X3678Y7203D01*
X3660Y7190D01*
X3647Y7172D01*
X3643Y7150D01*
X3647Y7128D01*
X3660Y7110D01*
X3678Y7097D01*
X3700Y7093D01*
X3722Y7097D01*
X3740Y7110D01*
X3753Y7128D01*
X3757Y7150D01*
X3753Y7172D01*
X3740Y7190D01*
X3722Y7203D01*
X3700Y7207D01*
D02*
G37*
G36*
X4890Y7137D02*
X4868Y7133D01*
X4850Y7120D01*
X4837Y7102D01*
X4833Y7080D01*
X4837Y7058D01*
X4850Y7040D01*
X4868Y7027D01*
X4890Y7023D01*
X4912Y7027D01*
X4930Y7040D01*
X4943Y7058D01*
X4947Y7080D01*
X4943Y7102D01*
X4930Y7120D01*
X4912Y7133D01*
X4890Y7137D01*
D02*
G37*
G36*
X4730D02*
X4708Y7133D01*
X4690Y7120D01*
X4677Y7102D01*
X4673Y7080D01*
X4677Y7058D01*
X4690Y7040D01*
X4708Y7027D01*
X4730Y7023D01*
X4752Y7027D01*
X4770Y7040D01*
X4783Y7058D01*
X4787Y7080D01*
X4783Y7102D01*
X4770Y7120D01*
X4752Y7133D01*
X4730Y7137D01*
D02*
G37*
G36*
X3400D02*
X3378Y7133D01*
X3360Y7120D01*
X3347Y7102D01*
X3343Y7080D01*
X3347Y7058D01*
X3360Y7040D01*
X3378Y7027D01*
X3400Y7023D01*
X3422Y7027D01*
X3440Y7040D01*
X3453Y7058D01*
X3457Y7080D01*
X3453Y7102D01*
X3440Y7120D01*
X3422Y7133D01*
X3400Y7137D01*
D02*
G37*
G36*
X3700Y7047D02*
X3678Y7043D01*
X3660Y7030D01*
X3647Y7012D01*
X3643Y6990D01*
X3647Y6968D01*
X3660Y6950D01*
X3678Y6937D01*
X3700Y6933D01*
X3722Y6937D01*
X3740Y6950D01*
X3753Y6968D01*
X3757Y6990D01*
X3753Y7012D01*
X3740Y7030D01*
X3722Y7043D01*
X3700Y7047D01*
D02*
G37*
G36*
X4890Y6977D02*
X4868Y6973D01*
X4850Y6960D01*
X4837Y6942D01*
X4833Y6920D01*
X4837Y6898D01*
X4850Y6880D01*
X4868Y6867D01*
X4890Y6863D01*
X4912Y6867D01*
X4930Y6880D01*
X4943Y6898D01*
X4947Y6920D01*
X4943Y6942D01*
X4930Y6960D01*
X4912Y6973D01*
X4890Y6977D01*
D02*
G37*
G36*
X4730D02*
X4708Y6973D01*
X4690Y6960D01*
X4677Y6942D01*
X4673Y6920D01*
X4677Y6898D01*
X4690Y6880D01*
X4708Y6867D01*
X4730Y6863D01*
X4752Y6867D01*
X4770Y6880D01*
X4783Y6898D01*
X4787Y6920D01*
X4783Y6942D01*
X4770Y6960D01*
X4752Y6973D01*
X4730Y6977D01*
D02*
G37*
G36*
X7130Y7410D02*
X7086Y7407D01*
X7043Y7397D01*
X7003Y7380D01*
X6965Y7357D01*
X6932Y7328D01*
X6903Y7295D01*
X6880Y7257D01*
X6863Y7217D01*
X6853Y7174D01*
X6850Y7130D01*
X6853Y7086D01*
X6863Y7043D01*
X6880Y7003D01*
X6903Y6965D01*
X6932Y6932D01*
X6965Y6903D01*
X7003Y6880D01*
X7043Y6863D01*
X7086Y6853D01*
X7130Y6850D01*
X7174Y6853D01*
X7217Y6863D01*
X7257Y6880D01*
X7295Y6903D01*
X7328Y6932D01*
X7357Y6965D01*
X7380Y7003D01*
X7397Y7043D01*
X7407Y7086D01*
X7410Y7130D01*
X7407Y7174D01*
X7397Y7217D01*
X7380Y7257D01*
X7357Y7295D01*
X7328Y7328D01*
X7295Y7357D01*
X7257Y7380D01*
X7217Y7397D01*
X7174Y7407D01*
X7130Y7410D01*
D02*
G37*
G36*
X2870D02*
X2826Y7407D01*
X2783Y7397D01*
X2743Y7380D01*
X2705Y7357D01*
X2672Y7328D01*
X2643Y7295D01*
X2620Y7257D01*
X2603Y7217D01*
X2593Y7174D01*
X2590Y7130D01*
X2593Y7086D01*
X2603Y7043D01*
X2620Y7003D01*
X2643Y6965D01*
X2672Y6932D01*
X2705Y6903D01*
X2743Y6880D01*
X2783Y6863D01*
X2826Y6853D01*
X2870Y6850D01*
X2914Y6853D01*
X2957Y6863D01*
X2997Y6880D01*
X3035Y6903D01*
X3068Y6932D01*
X3097Y6965D01*
X3120Y7003D01*
X3137Y7043D01*
X3147Y7086D01*
X3150Y7130D01*
X3147Y7174D01*
X3137Y7217D01*
X3120Y7257D01*
X3097Y7295D01*
X3068Y7328D01*
X3035Y7357D01*
X2997Y7380D01*
X2957Y7397D01*
X2914Y7407D01*
X2870Y7410D01*
D02*
G37*
G36*
X3210Y6857D02*
X3188Y6853D01*
X3170Y6840D01*
X3160D01*
X3142Y6853D01*
X3120Y6857D01*
X3098Y6853D01*
X3080Y6840D01*
X3067Y6822D01*
X3063Y6800D01*
X3067Y6778D01*
X3080Y6760D01*
X3098Y6747D01*
X3120Y6743D01*
X3142Y6747D01*
X3160Y6760D01*
X3170D01*
X3188Y6747D01*
X3210Y6743D01*
X3232Y6747D01*
X3250Y6760D01*
X3263Y6778D01*
X3267Y6800D01*
X3263Y6822D01*
X3250Y6840D01*
X3232Y6853D01*
X3210Y6857D01*
D02*
G37*
G36*
X3860Y6887D02*
X3838Y6883D01*
X3820Y6870D01*
X3807Y6852D01*
X3803Y6830D01*
X3807Y6808D01*
X3820Y6790D01*
X3838Y6777D01*
X3860Y6773D01*
X3882Y6777D01*
X3900Y6790D01*
X3913Y6808D01*
X3917Y6830D01*
X3913Y6852D01*
X3900Y6870D01*
X3882Y6883D01*
X3860Y6887D01*
D02*
G37*
G36*
X3700D02*
X3678Y6883D01*
X3660Y6870D01*
X3647Y6852D01*
X3643Y6830D01*
X3647Y6808D01*
X3660Y6790D01*
X3678Y6777D01*
X3700Y6773D01*
X3722Y6777D01*
X3740Y6790D01*
X3753Y6808D01*
X3757Y6830D01*
X3753Y6852D01*
X3740Y6870D01*
X3722Y6883D01*
X3700Y6887D01*
D02*
G37*
G36*
X6475Y6867D02*
X6453Y6863D01*
X6435Y6850D01*
X6422Y6832D01*
X6418Y6810D01*
X6422Y6788D01*
X6435Y6770D01*
X6453Y6757D01*
X6475Y6753D01*
X6497Y6757D01*
X6515Y6770D01*
X6528Y6788D01*
X6532Y6810D01*
X6528Y6832D01*
X6515Y6850D01*
X6497Y6863D01*
X6475Y6867D01*
D02*
G37*
G36*
X5530Y6817D02*
X5508Y6813D01*
X5490Y6800D01*
X5477Y6782D01*
X5473Y6760D01*
X5477Y6738D01*
X5490Y6720D01*
X5508Y6707D01*
X5530Y6703D01*
X5552Y6707D01*
X5570Y6720D01*
X5583Y6738D01*
X5587Y6760D01*
X5583Y6782D01*
X5570Y6800D01*
X5552Y6813D01*
X5530Y6817D01*
D02*
G37*
G36*
X5370D02*
X5348Y6813D01*
X5330Y6800D01*
X5317Y6782D01*
X5313Y6760D01*
X5317Y6738D01*
X5330Y6720D01*
X5348Y6707D01*
X5370Y6703D01*
X5392Y6707D01*
X5410Y6720D01*
X5423Y6738D01*
X5427Y6760D01*
X5423Y6782D01*
X5410Y6800D01*
X5392Y6813D01*
X5370Y6817D01*
D02*
G37*
G36*
X5210D02*
X5188Y6813D01*
X5170Y6800D01*
X5157Y6782D01*
X5153Y6760D01*
X5157Y6738D01*
X5170Y6720D01*
X5188Y6707D01*
X5210Y6703D01*
X5232Y6707D01*
X5250Y6720D01*
X5263Y6738D01*
X5267Y6760D01*
X5263Y6782D01*
X5250Y6800D01*
X5232Y6813D01*
X5210Y6817D01*
D02*
G37*
G36*
X5050D02*
X5028Y6813D01*
X5010Y6800D01*
X4997Y6782D01*
X4993Y6760D01*
X4997Y6738D01*
X5010Y6720D01*
X5028Y6707D01*
X5050Y6703D01*
X5072Y6707D01*
X5090Y6720D01*
X5103Y6738D01*
X5107Y6760D01*
X5103Y6782D01*
X5090Y6800D01*
X5072Y6813D01*
X5050Y6817D01*
D02*
G37*
G36*
X4890D02*
X4868Y6813D01*
X4850Y6800D01*
X4837Y6782D01*
X4833Y6760D01*
X4837Y6738D01*
X4850Y6720D01*
X4868Y6707D01*
X4890Y6703D01*
X4912Y6707D01*
X4930Y6720D01*
X4943Y6738D01*
X4947Y6760D01*
X4943Y6782D01*
X4930Y6800D01*
X4912Y6813D01*
X4890Y6817D01*
D02*
G37*
G36*
X4730D02*
X4708Y6813D01*
X4690Y6800D01*
X4677Y6782D01*
X4673Y6760D01*
X4677Y6738D01*
X4690Y6720D01*
X4708Y6707D01*
X4730Y6703D01*
X4752Y6707D01*
X4770Y6720D01*
X4783Y6738D01*
X4787Y6760D01*
X4783Y6782D01*
X4770Y6800D01*
X4752Y6813D01*
X4730Y6817D01*
D02*
G37*
G36*
X4570D02*
X4548Y6813D01*
X4530Y6800D01*
X4517Y6782D01*
X4513Y6760D01*
X4517Y6738D01*
X4530Y6720D01*
X4548Y6707D01*
X4570Y6703D01*
X4592Y6707D01*
X4610Y6720D01*
X4623Y6738D01*
X4627Y6760D01*
X4623Y6782D01*
X4610Y6800D01*
X4592Y6813D01*
X4570Y6817D01*
D02*
G37*
G36*
X4410D02*
X4388Y6813D01*
X4370Y6800D01*
X4357Y6782D01*
X4353Y6760D01*
X4357Y6738D01*
X4370Y6720D01*
X4388Y6707D01*
X4410Y6703D01*
X4432Y6707D01*
X4450Y6720D01*
X4463Y6738D01*
X4467Y6760D01*
X4463Y6782D01*
X4450Y6800D01*
X4432Y6813D01*
X4410Y6817D01*
D02*
G37*
G36*
X4050Y6767D02*
X4028Y6763D01*
X4010Y6750D01*
X3997Y6732D01*
X3993Y6710D01*
X3997Y6688D01*
X4010Y6670D01*
X4028Y6657D01*
X4050Y6653D01*
X4072Y6657D01*
X4090Y6670D01*
X4103Y6688D01*
X4107Y6710D01*
X4103Y6732D01*
X4090Y6750D01*
X4072Y6763D01*
X4050Y6767D01*
D02*
G37*
G36*
X3570Y6737D02*
X3548Y6733D01*
X3530Y6720D01*
X3517Y6702D01*
X3513Y6680D01*
X3517Y6658D01*
X3530Y6640D01*
X3548Y6627D01*
X3570Y6623D01*
X3592Y6627D01*
X3610Y6640D01*
X3623Y6658D01*
X3627Y6680D01*
X3623Y6702D01*
X3610Y6720D01*
X3592Y6733D01*
X3570Y6737D01*
D02*
G37*
G36*
X7340Y6727D02*
X7318Y6723D01*
X7300Y6710D01*
X7287Y6692D01*
X7283Y6670D01*
X7287Y6648D01*
X7300Y6630D01*
X7318Y6617D01*
X7340Y6613D01*
X7362Y6617D01*
X7380Y6630D01*
X7393Y6648D01*
X7397Y6670D01*
X7393Y6692D01*
X7380Y6710D01*
X7362Y6723D01*
X7340Y6727D01*
D02*
G37*
G36*
X7180D02*
X7158Y6723D01*
X7140Y6710D01*
X7127Y6692D01*
X7123Y6670D01*
X7127Y6648D01*
X7140Y6630D01*
X7158Y6617D01*
X7180Y6613D01*
X7202Y6617D01*
X7220Y6630D01*
X7233Y6648D01*
X7237Y6670D01*
X7233Y6692D01*
X7220Y6710D01*
X7202Y6723D01*
X7180Y6727D01*
D02*
G37*
G36*
X7020D02*
X6998Y6723D01*
X6980Y6710D01*
X6967Y6692D01*
X6963Y6670D01*
X6967Y6648D01*
X6980Y6630D01*
X6998Y6617D01*
X7020Y6613D01*
X7042Y6617D01*
X7060Y6630D01*
X7073Y6648D01*
X7077Y6670D01*
X7073Y6692D01*
X7060Y6710D01*
X7042Y6723D01*
X7020Y6727D01*
D02*
G37*
G36*
X2910Y6667D02*
X2888Y6663D01*
X2870Y6650D01*
X2857Y6632D01*
X2853Y6610D01*
X2857Y6588D01*
X2870Y6570D01*
X2888Y6557D01*
X2910Y6553D01*
X2932Y6557D01*
X2950Y6570D01*
X2963Y6588D01*
X2967Y6610D01*
X2963Y6632D01*
X2950Y6650D01*
X2932Y6663D01*
X2910Y6667D01*
D02*
G37*
G36*
X5530Y6657D02*
X5508Y6653D01*
X5490Y6640D01*
X5477Y6622D01*
X5473Y6600D01*
X5477Y6578D01*
X5490Y6560D01*
X5508Y6547D01*
X5530Y6543D01*
X5552Y6547D01*
X5570Y6560D01*
X5583Y6578D01*
X5587Y6600D01*
X5583Y6622D01*
X5570Y6640D01*
X5552Y6653D01*
X5530Y6657D01*
D02*
G37*
G36*
X4410D02*
X4388Y6653D01*
X4370Y6640D01*
X4357Y6622D01*
X4353Y6600D01*
X4357Y6578D01*
X4370Y6560D01*
X4388Y6547D01*
X4410Y6543D01*
X4432Y6547D01*
X4450Y6560D01*
X4463Y6578D01*
X4467Y6600D01*
X4463Y6622D01*
X4450Y6640D01*
X4432Y6653D01*
X4410Y6657D01*
D02*
G37*
G36*
X3700Y6656D02*
X3678Y6652D01*
X3660Y6639D01*
X3647Y6621D01*
X3643Y6599D01*
X3647Y6577D01*
X3660Y6559D01*
X3678Y6546D01*
X3700Y6542D01*
X3722Y6546D01*
X3740Y6559D01*
X3753Y6577D01*
X3757Y6599D01*
X3753Y6621D01*
X3740Y6639D01*
X3722Y6652D01*
X3700Y6656D01*
D02*
G37*
G36*
X4970Y6677D02*
X4948Y6673D01*
X4930Y6660D01*
X4917Y6642D01*
X4913Y6620D01*
X4917Y6598D01*
X4929Y6580D01*
X4917Y6562D01*
X4913Y6540D01*
X4917Y6518D01*
X4930Y6500D01*
X4948Y6487D01*
X4970Y6483D01*
X4992Y6487D01*
X5010Y6500D01*
X5023Y6518D01*
X5027Y6540D01*
X5023Y6562D01*
X5011Y6580D01*
X5023Y6598D01*
X5027Y6620D01*
X5023Y6642D01*
X5010Y6660D01*
X4992Y6673D01*
X4970Y6677D01*
D02*
G37*
G36*
X6780Y6697D02*
X6758Y6693D01*
X6740Y6680D01*
X6727Y6662D01*
X6723Y6640D01*
X6727Y6618D01*
X6740Y6600D01*
X6758Y6587D01*
X6763Y6586D01*
Y6574D01*
X6758Y6573D01*
X6740Y6560D01*
X6727Y6542D01*
X6723Y6520D01*
X6727Y6498D01*
X6740Y6480D01*
X6758Y6467D01*
X6780Y6463D01*
X6802Y6467D01*
X6820Y6480D01*
X6833Y6498D01*
X6837Y6520D01*
X6833Y6542D01*
X6820Y6560D01*
X6802Y6573D01*
X6797Y6574D01*
Y6586D01*
X6802Y6587D01*
X6820Y6600D01*
X6833Y6618D01*
X6837Y6640D01*
X6833Y6662D01*
X6820Y6680D01*
X6802Y6693D01*
X6780Y6697D01*
D02*
G37*
G36*
X5097Y6529D02*
X5076Y6525D01*
X5057Y6513D01*
X5045Y6494D01*
X5041Y6472D01*
X5045Y6451D01*
X5057Y6432D01*
X5076Y6420D01*
X5097Y6416D01*
X5119Y6420D01*
X5138Y6432D01*
X5150Y6451D01*
X5154Y6472D01*
X5150Y6494D01*
X5138Y6513D01*
X5119Y6525D01*
X5097Y6529D01*
D02*
G37*
G36*
X4842D02*
X4821Y6525D01*
X4802Y6513D01*
X4790Y6494D01*
X4786Y6472D01*
X4790Y6451D01*
X4802Y6432D01*
X4821Y6420D01*
X4842Y6416D01*
X4864Y6420D01*
X4883Y6432D01*
X4895Y6451D01*
X4899Y6472D01*
X4895Y6494D01*
X4883Y6513D01*
X4864Y6525D01*
X4842Y6529D01*
D02*
G37*
G36*
X6210Y6497D02*
X6188Y6493D01*
X6170Y6480D01*
X6157Y6462D01*
X6153Y6440D01*
X6157Y6418D01*
X6170Y6400D01*
X6188Y6387D01*
X6210Y6383D01*
X6232Y6387D01*
X6250Y6400D01*
X6263Y6418D01*
X6267Y6440D01*
X6263Y6462D01*
X6250Y6480D01*
X6232Y6493D01*
X6210Y6497D01*
D02*
G37*
G36*
X5530D02*
X5508Y6493D01*
X5490Y6480D01*
X5477Y6462D01*
X5473Y6440D01*
X5477Y6418D01*
X5490Y6400D01*
X5508Y6387D01*
X5530Y6383D01*
X5552Y6387D01*
X5570Y6400D01*
X5583Y6418D01*
X5587Y6440D01*
X5583Y6462D01*
X5570Y6480D01*
X5552Y6493D01*
X5530Y6497D01*
D02*
G37*
G36*
X4410D02*
X4388Y6493D01*
X4370Y6480D01*
X4357Y6462D01*
X4353Y6440D01*
X4357Y6418D01*
X4370Y6400D01*
X4388Y6387D01*
X4410Y6383D01*
X4432Y6387D01*
X4450Y6400D01*
X4463Y6418D01*
X4467Y6440D01*
X4463Y6462D01*
X4450Y6480D01*
X4432Y6493D01*
X4410Y6497D01*
D02*
G37*
G36*
X2910Y6477D02*
X2888Y6473D01*
X2870Y6460D01*
X2857Y6442D01*
X2853Y6420D01*
X2857Y6398D01*
X2870Y6380D01*
X2888Y6367D01*
X2910Y6363D01*
X2932Y6367D01*
X2950Y6380D01*
X2963Y6398D01*
X2967Y6420D01*
X2963Y6442D01*
X2950Y6460D01*
X2932Y6473D01*
X2910Y6477D01*
D02*
G37*
G36*
X3700Y6467D02*
X3678Y6463D01*
X3660Y6450D01*
X3647Y6432D01*
X3643Y6410D01*
X3647Y6388D01*
X3660Y6370D01*
X3678Y6357D01*
X3700Y6353D01*
X3722Y6357D01*
X3740Y6370D01*
X3753Y6388D01*
X3757Y6410D01*
X3753Y6432D01*
X3740Y6450D01*
X3722Y6463D01*
X3700Y6467D01*
D02*
G37*
G36*
X3360Y6397D02*
X3338Y6393D01*
X3320Y6380D01*
X3307Y6362D01*
X3303Y6340D01*
X3307Y6318D01*
X3320Y6300D01*
X3338Y6287D01*
X3360Y6283D01*
X3382Y6287D01*
X3400Y6300D01*
X3413Y6318D01*
X3417Y6340D01*
X3413Y6362D01*
X3400Y6380D01*
X3382Y6393D01*
X3360Y6397D01*
D02*
G37*
G36*
X6010Y6397D02*
X5988Y6393D01*
X5970Y6380D01*
X5957Y6362D01*
X5953Y6340D01*
X5957Y6318D01*
X5970Y6300D01*
X5988Y6287D01*
X6010Y6283D01*
X6032Y6287D01*
X6050Y6300D01*
X6063Y6318D01*
X6067Y6340D01*
X6063Y6362D01*
X6050Y6380D01*
X6032Y6393D01*
X6010Y6397D01*
D02*
G37*
G36*
X6170Y6337D02*
X6148Y6333D01*
X6130Y6320D01*
X6117Y6302D01*
X6113Y6280D01*
X6117Y6258D01*
X6130Y6240D01*
X6148Y6227D01*
X6170Y6223D01*
X6192Y6227D01*
X6210Y6240D01*
X6223Y6258D01*
X6227Y6280D01*
X6223Y6302D01*
X6210Y6320D01*
X6192Y6333D01*
X6170Y6337D01*
D02*
G37*
G36*
X5530D02*
X5508Y6333D01*
X5490Y6320D01*
X5477Y6302D01*
X5473Y6280D01*
X5477Y6258D01*
X5490Y6240D01*
X5508Y6227D01*
X5530Y6223D01*
X5552Y6227D01*
X5570Y6240D01*
X5583Y6258D01*
X5587Y6280D01*
X5583Y6302D01*
X5570Y6320D01*
X5552Y6333D01*
X5530Y6337D01*
D02*
G37*
G36*
X4410D02*
X4388Y6333D01*
X4370Y6320D01*
X4357Y6302D01*
X4353Y6280D01*
X4357Y6258D01*
X4370Y6240D01*
X4388Y6227D01*
X4410Y6223D01*
X4432Y6227D01*
X4450Y6240D01*
X4463Y6258D01*
X4467Y6280D01*
X4463Y6302D01*
X4450Y6320D01*
X4432Y6333D01*
X4410Y6337D01*
D02*
G37*
G36*
X7210Y6477D02*
X7188Y6473D01*
X7170Y6460D01*
X7157Y6442D01*
X7153Y6420D01*
X7157Y6398D01*
X7170Y6380D01*
X7188Y6367D01*
X7210Y6363D01*
X7231Y6367D01*
X7234Y6365D01*
X7241Y6358D01*
X7237Y6350D01*
X7234Y6322D01*
X7237Y6294D01*
X7248Y6269D01*
X7265Y6247D01*
X7287Y6230D01*
X7312Y6219D01*
X7340Y6216D01*
X7368Y6219D01*
X7393Y6230D01*
X7415Y6247D01*
X7432Y6269D01*
X7443Y6294D01*
X7446Y6322D01*
X7443Y6350D01*
X7432Y6375D01*
X7415Y6397D01*
X7393Y6414D01*
X7368Y6425D01*
X7340Y6428D01*
X7312Y6425D01*
X7287Y6414D01*
X7277Y6407D01*
X7266Y6414D01*
X7267Y6420D01*
X7263Y6442D01*
X7250Y6460D01*
X7232Y6473D01*
X7210Y6477D01*
D02*
G37*
G36*
X6900D02*
X6878Y6473D01*
X6860Y6460D01*
X6847Y6442D01*
X6843Y6420D01*
X6847Y6398D01*
X6860Y6380D01*
X6878Y6367D01*
X6900Y6363D01*
X6921Y6367D01*
X6924Y6365D01*
X6931Y6358D01*
X6927Y6350D01*
X6924Y6322D01*
X6927Y6294D01*
X6938Y6269D01*
X6955Y6247D01*
X6977Y6230D01*
X7002Y6219D01*
X7030Y6216D01*
X7058Y6219D01*
X7083Y6230D01*
X7105Y6247D01*
X7122Y6269D01*
X7133Y6294D01*
X7136Y6322D01*
X7133Y6350D01*
X7122Y6375D01*
X7105Y6397D01*
X7083Y6414D01*
X7058Y6425D01*
X7030Y6428D01*
X7002Y6425D01*
X6977Y6414D01*
X6967Y6407D01*
X6956Y6414D01*
X6957Y6420D01*
X6953Y6442D01*
X6940Y6460D01*
X6922Y6473D01*
X6900Y6477D01*
D02*
G37*
G36*
X3845Y6297D02*
X3823Y6293D01*
X3805Y6280D01*
X3792Y6262D01*
X3788Y6240D01*
X3792Y6218D01*
X3805Y6200D01*
X3823Y6187D01*
X3845Y6183D01*
X3867Y6187D01*
X3885Y6200D01*
X3898Y6218D01*
X3902Y6240D01*
X3898Y6262D01*
X3885Y6280D01*
X3867Y6293D01*
X3845Y6297D01*
D02*
G37*
G36*
X4080Y6297D02*
X4058Y6293D01*
X4040Y6280D01*
X4027Y6262D01*
X4023Y6240D01*
X4027Y6218D01*
X4040Y6200D01*
X4058Y6187D01*
X4080Y6183D01*
X4102Y6187D01*
X4120Y6200D01*
X4133Y6218D01*
X4137Y6240D01*
X4133Y6262D01*
X4120Y6280D01*
X4102Y6293D01*
X4080Y6297D01*
D02*
G37*
G36*
X3340Y6177D02*
X3318Y6173D01*
X3300Y6160D01*
X3296Y6155D01*
X3284D01*
X3280Y6160D01*
X3262Y6173D01*
X3240Y6177D01*
X3218Y6173D01*
X3200Y6160D01*
X3187Y6142D01*
X3183Y6120D01*
X3187Y6098D01*
X3200Y6080D01*
X3218Y6067D01*
X3240Y6063D01*
X3262Y6067D01*
X3280Y6080D01*
X3284Y6085D01*
X3296D01*
X3300Y6080D01*
X3318Y6067D01*
X3340Y6063D01*
X3362Y6067D01*
X3380Y6080D01*
X3393Y6098D01*
X3397Y6120D01*
X3393Y6142D01*
X3380Y6160D01*
X3362Y6173D01*
X3340Y6177D01*
D02*
G37*
G36*
X5299Y6305D02*
X5129D01*
Y6135D01*
X5299D01*
Y6305D01*
D02*
G37*
G36*
X4726Y6306D02*
X4704Y6303D01*
X4683Y6295D01*
X4665Y6281D01*
X4651Y6263D01*
X4643Y6242D01*
X4640Y6220D01*
X4643Y6198D01*
X4651Y6177D01*
X4665Y6159D01*
X4683Y6145D01*
X4704Y6137D01*
X4726Y6134D01*
X4748Y6137D01*
X4769Y6145D01*
X4787Y6159D01*
X4801Y6177D01*
X4809Y6198D01*
X4812Y6220D01*
X4809Y6242D01*
X4801Y6263D01*
X4787Y6281D01*
X4769Y6295D01*
X4748Y6303D01*
X4726Y6306D01*
D02*
G37*
G36*
X5530Y6177D02*
X5508Y6173D01*
X5490Y6160D01*
X5477Y6142D01*
X5473Y6120D01*
X5477Y6098D01*
X5490Y6080D01*
X5508Y6067D01*
X5530Y6063D01*
X5552Y6067D01*
X5570Y6080D01*
X5583Y6098D01*
X5587Y6120D01*
X5583Y6142D01*
X5570Y6160D01*
X5552Y6173D01*
X5530Y6177D01*
D02*
G37*
G36*
X4410D02*
X4388Y6173D01*
X4370Y6160D01*
X4357Y6142D01*
X4353Y6120D01*
X4357Y6098D01*
X4370Y6080D01*
X4388Y6067D01*
X4410Y6063D01*
X4432Y6067D01*
X4450Y6080D01*
X4463Y6098D01*
X4467Y6120D01*
X4463Y6142D01*
X4450Y6160D01*
X4432Y6173D01*
X4410Y6177D01*
D02*
G37*
G36*
X2970Y6149D02*
X2948Y6145D01*
X2930Y6133D01*
X2917Y6114D01*
X2913Y6092D01*
X2917Y6071D01*
X2930Y6052D01*
X2948Y6040D01*
X2970Y6036D01*
X2992Y6040D01*
X3010Y6052D01*
X3023Y6071D01*
X3027Y6092D01*
X3023Y6114D01*
X3010Y6133D01*
X2992Y6145D01*
X2970Y6149D01*
D02*
G37*
G36*
X4080Y6137D02*
X4058Y6133D01*
X4040Y6120D01*
X4027Y6102D01*
X4023Y6080D01*
X4027Y6058D01*
X4040Y6040D01*
X4058Y6027D01*
X4080Y6023D01*
X4102Y6027D01*
X4120Y6040D01*
X4133Y6058D01*
X4137Y6080D01*
X4133Y6102D01*
X4120Y6120D01*
X4102Y6133D01*
X4080Y6137D01*
D02*
G37*
G36*
X7210Y6237D02*
X7188Y6233D01*
X7170Y6220D01*
X7157Y6202D01*
X7153Y6180D01*
X7157Y6158D01*
X7170Y6140D01*
X7188Y6127D01*
X7210Y6123D01*
X7232Y6127D01*
X7242Y6134D01*
X7251Y6125D01*
X7248Y6121D01*
X7237Y6096D01*
X7234Y6068D01*
X7237Y6040D01*
X7248Y6015D01*
X7265Y5993D01*
X7287Y5976D01*
X7312Y5965D01*
X7340Y5962D01*
X7368Y5965D01*
X7393Y5976D01*
X7415Y5993D01*
X7432Y6015D01*
X7443Y6040D01*
X7446Y6068D01*
X7443Y6096D01*
X7432Y6121D01*
X7415Y6143D01*
X7393Y6160D01*
X7368Y6171D01*
X7340Y6174D01*
X7312Y6171D01*
X7287Y6160D01*
X7271Y6148D01*
X7262Y6157D01*
X7263Y6158D01*
X7267Y6180D01*
X7263Y6202D01*
X7250Y6220D01*
X7232Y6233D01*
X7210Y6237D01*
D02*
G37*
G36*
X6900D02*
X6878Y6233D01*
X6860Y6220D01*
X6847Y6202D01*
X6843Y6180D01*
X6847Y6158D01*
X6860Y6140D01*
X6878Y6127D01*
X6900Y6123D01*
X6922Y6127D01*
X6932Y6134D01*
X6941Y6125D01*
X6938Y6121D01*
X6927Y6096D01*
X6924Y6068D01*
X6927Y6040D01*
X6938Y6015D01*
X6955Y5993D01*
X6977Y5976D01*
X7002Y5965D01*
X7030Y5962D01*
X7058Y5965D01*
X7083Y5976D01*
X7105Y5993D01*
X7122Y6015D01*
X7133Y6040D01*
X7136Y6068D01*
X7133Y6096D01*
X7122Y6121D01*
X7105Y6143D01*
X7083Y6160D01*
X7058Y6171D01*
X7030Y6174D01*
X7002Y6171D01*
X6977Y6160D01*
X6961Y6148D01*
X6952Y6157D01*
X6953Y6158D01*
X6957Y6180D01*
X6953Y6202D01*
X6940Y6220D01*
X6922Y6233D01*
X6900Y6237D01*
D02*
G37*
G36*
X5530Y6017D02*
X5508Y6013D01*
X5490Y6000D01*
X5477Y5982D01*
X5473Y5960D01*
X5477Y5938D01*
X5490Y5920D01*
X5508Y5907D01*
X5530Y5903D01*
X5552Y5907D01*
X5570Y5920D01*
X5583Y5938D01*
X5587Y5960D01*
X5583Y5982D01*
X5570Y6000D01*
X5552Y6013D01*
X5530Y6017D01*
D02*
G37*
G36*
X5370D02*
X5348Y6013D01*
X5330Y6000D01*
X5317Y5982D01*
X5313Y5960D01*
X5317Y5938D01*
X5330Y5920D01*
X5348Y5907D01*
X5370Y5903D01*
X5392Y5907D01*
X5410Y5920D01*
X5423Y5938D01*
X5427Y5960D01*
X5423Y5982D01*
X5410Y6000D01*
X5392Y6013D01*
X5370Y6017D01*
D02*
G37*
G36*
X5210D02*
X5188Y6013D01*
X5170Y6000D01*
X5157Y5982D01*
X5153Y5960D01*
X5157Y5938D01*
X5170Y5920D01*
X5188Y5907D01*
X5210Y5903D01*
X5232Y5907D01*
X5250Y5920D01*
X5263Y5938D01*
X5267Y5960D01*
X5263Y5982D01*
X5250Y6000D01*
X5232Y6013D01*
X5210Y6017D01*
D02*
G37*
G36*
X4410D02*
X4388Y6013D01*
X4370Y6000D01*
X4357Y5982D01*
X4353Y5960D01*
X4357Y5938D01*
X4370Y5920D01*
X4388Y5907D01*
X4410Y5903D01*
X4432Y5907D01*
X4450Y5920D01*
X4463Y5938D01*
X4467Y5960D01*
X4463Y5982D01*
X4450Y6000D01*
X4432Y6013D01*
X4410Y6017D01*
D02*
G37*
G36*
X6900Y5997D02*
X6878Y5993D01*
X6860Y5980D01*
X6847Y5962D01*
X6843Y5940D01*
X6847Y5918D01*
X6860Y5900D01*
X6878Y5887D01*
X6900Y5883D01*
X6922Y5887D01*
X6940Y5900D01*
X6953Y5918D01*
X6957Y5940D01*
X6953Y5962D01*
X6940Y5980D01*
X6922Y5993D01*
X6900Y5997D01*
D02*
G37*
G36*
X3547Y5987D02*
X3526Y5983D01*
X3507Y5970D01*
X3495Y5952D01*
X3491Y5930D01*
X3495Y5908D01*
X3507Y5890D01*
X3526Y5877D01*
X3547Y5873D01*
X3569Y5877D01*
X3588Y5890D01*
X3600Y5908D01*
X3604Y5930D01*
X3600Y5952D01*
X3588Y5970D01*
X3569Y5983D01*
X3547Y5987D01*
D02*
G37*
G36*
X2970Y5984D02*
X2948Y5980D01*
X2930Y5968D01*
X2917Y5949D01*
X2913Y5928D01*
X2917Y5906D01*
X2930Y5887D01*
X2948Y5875D01*
X2970Y5871D01*
X2992Y5875D01*
X3010Y5887D01*
X3023Y5906D01*
X3027Y5928D01*
X3023Y5949D01*
X3010Y5968D01*
X2992Y5980D01*
X2970Y5984D01*
D02*
G37*
G36*
X6010Y5967D02*
X5988Y5963D01*
X5970Y5950D01*
X5957Y5932D01*
X5953Y5910D01*
X5957Y5888D01*
X5970Y5870D01*
X5988Y5857D01*
X6010Y5853D01*
X6032Y5857D01*
X6050Y5870D01*
X6063Y5888D01*
X6067Y5910D01*
X6063Y5932D01*
X6050Y5950D01*
X6032Y5963D01*
X6010Y5967D01*
D02*
G37*
G36*
X4083Y5964D02*
X4061Y5960D01*
X4042Y5948D01*
X4030Y5929D01*
X4026Y5907D01*
X4030Y5886D01*
X4042Y5867D01*
X4061Y5855D01*
X4083Y5851D01*
X4104Y5855D01*
X4123Y5867D01*
X4135Y5886D01*
X4139Y5907D01*
X4135Y5929D01*
X4123Y5948D01*
X4104Y5960D01*
X4083Y5964D01*
D02*
G37*
G36*
X5792Y5866D02*
X5775Y5864D01*
X5760Y5857D01*
X5746Y5847D01*
X5735Y5833D01*
X5729Y5817D01*
X5727Y5800D01*
X5729Y5783D01*
X5735Y5767D01*
X5746Y5753D01*
X5760Y5743D01*
X5775Y5736D01*
X5792Y5734D01*
X5810Y5736D01*
X5825Y5743D01*
X5839Y5753D01*
X5850Y5767D01*
X5856Y5783D01*
X5858Y5800D01*
X5856Y5817D01*
X5850Y5833D01*
X5839Y5847D01*
X5825Y5857D01*
X5810Y5864D01*
X5792Y5866D01*
D02*
G37*
G36*
X5425Y5841D02*
X5408Y5839D01*
X5392Y5832D01*
X5378Y5822D01*
X5368Y5808D01*
X5361Y5792D01*
X5359Y5775D01*
X5361Y5758D01*
X5368Y5742D01*
X5378Y5728D01*
X5392Y5718D01*
X5408Y5711D01*
X5425Y5709D01*
X5442Y5711D01*
X5458Y5718D01*
X5472Y5728D01*
X5482Y5742D01*
X5489Y5758D01*
X5491Y5775D01*
X5489Y5792D01*
X5482Y5808D01*
X5472Y5822D01*
X5458Y5832D01*
X5442Y5839D01*
X5425Y5841D01*
D02*
G37*
G36*
X5235D02*
X5218Y5839D01*
X5202Y5832D01*
X5188Y5822D01*
X5178Y5808D01*
X5171Y5792D01*
X5169Y5775D01*
X5171Y5758D01*
X5178Y5742D01*
X5188Y5728D01*
X5202Y5718D01*
X5218Y5711D01*
X5235Y5709D01*
X5252Y5711D01*
X5268Y5718D01*
X5282Y5728D01*
X5292Y5742D01*
X5299Y5758D01*
X5301Y5775D01*
X5299Y5792D01*
X5292Y5808D01*
X5282Y5822D01*
X5268Y5832D01*
X5252Y5839D01*
X5235Y5841D01*
D02*
G37*
G36*
X5045D02*
X5028Y5839D01*
X5012Y5832D01*
X4998Y5822D01*
X4988Y5808D01*
X4981Y5792D01*
X4979Y5775D01*
X4981Y5758D01*
X4988Y5742D01*
X4998Y5728D01*
X5012Y5718D01*
X5028Y5711D01*
X5045Y5709D01*
X5062Y5711D01*
X5078Y5718D01*
X5092Y5728D01*
X5102Y5742D01*
X5109Y5758D01*
X5111Y5775D01*
X5109Y5792D01*
X5102Y5808D01*
X5092Y5822D01*
X5078Y5832D01*
X5062Y5839D01*
X5045Y5841D01*
D02*
G37*
G36*
X7340Y5920D02*
X7312Y5917D01*
X7287Y5906D01*
X7265Y5889D01*
X7248Y5867D01*
X7237Y5842D01*
X7234Y5814D01*
X7237Y5786D01*
X7248Y5761D01*
X7265Y5739D01*
X7287Y5722D01*
X7312Y5711D01*
X7340Y5708D01*
X7368Y5711D01*
X7393Y5722D01*
X7415Y5739D01*
X7432Y5761D01*
X7443Y5786D01*
X7446Y5814D01*
X7443Y5842D01*
X7432Y5867D01*
X7415Y5889D01*
X7393Y5906D01*
X7368Y5917D01*
X7340Y5920D01*
D02*
G37*
G36*
X7030D02*
X7002Y5917D01*
X6977Y5906D01*
X6955Y5889D01*
X6938Y5867D01*
X6927Y5842D01*
X6924Y5814D01*
X6927Y5786D01*
X6938Y5761D01*
X6955Y5739D01*
X6977Y5722D01*
X7002Y5711D01*
X7030Y5708D01*
X7058Y5711D01*
X7083Y5722D01*
X7105Y5739D01*
X7122Y5761D01*
X7133Y5786D01*
X7136Y5814D01*
X7133Y5842D01*
X7122Y5867D01*
X7105Y5889D01*
X7083Y5906D01*
X7058Y5917D01*
X7030Y5920D01*
D02*
G37*
G36*
X2790Y5767D02*
X2768Y5763D01*
X2750Y5750D01*
X2737Y5732D01*
X2733Y5710D01*
X2734Y5704D01*
X2732Y5703D01*
X2722Y5698D01*
X2703Y5713D01*
X2677Y5724D01*
X2650Y5727D01*
X2622Y5724D01*
X2597Y5713D01*
X2575Y5696D01*
X2558Y5674D01*
X2547Y5649D01*
X2544Y5621D01*
X2547Y5593D01*
X2558Y5568D01*
X2575Y5546D01*
X2597Y5529D01*
X2622Y5518D01*
X2650Y5515D01*
X2677Y5518D01*
X2703Y5529D01*
X2725Y5546D01*
X2742Y5568D01*
X2753Y5593D01*
X2756Y5621D01*
X2753Y5649D01*
X2750Y5654D01*
X2761Y5662D01*
X2768Y5657D01*
X2790Y5653D01*
X2812Y5657D01*
X2830Y5670D01*
X2843Y5688D01*
X2847Y5710D01*
X2843Y5732D01*
X2830Y5750D01*
X2812Y5763D01*
X2790Y5767D01*
D02*
G37*
G36*
X3822Y5809D02*
X3800Y5804D01*
X3781Y5792D01*
X3769Y5773D01*
X3765Y5752D01*
X3769Y5730D01*
X3781Y5711D01*
X3800Y5699D01*
X3822Y5695D01*
X3843Y5699D01*
X3862Y5711D01*
X3874Y5730D01*
X3879Y5752D01*
X3874Y5773D01*
X3862Y5792D01*
X3843Y5804D01*
X3822Y5809D01*
D02*
G37*
G36*
X6010Y5807D02*
X5988Y5803D01*
X5970Y5790D01*
X5957Y5772D01*
X5953Y5750D01*
X5957Y5728D01*
X5970Y5710D01*
X5988Y5697D01*
X6010Y5693D01*
X6032Y5697D01*
X6050Y5710D01*
X6063Y5728D01*
X6067Y5750D01*
X6063Y5772D01*
X6050Y5790D01*
X6032Y5803D01*
X6010Y5807D01*
D02*
G37*
G36*
X3620D02*
X3598Y5803D01*
X3580Y5790D01*
X3567Y5772D01*
X3563Y5750D01*
X3567Y5728D01*
X3580Y5710D01*
X3598Y5697D01*
X3620Y5693D01*
X3642Y5697D01*
X3660Y5710D01*
X3673Y5728D01*
X3677Y5750D01*
X3673Y5772D01*
X3660Y5790D01*
X3642Y5803D01*
X3620Y5807D01*
D02*
G37*
G36*
X4730Y5747D02*
X4708Y5743D01*
X4690Y5730D01*
X4677Y5712D01*
X4673Y5690D01*
X4677Y5668D01*
X4690Y5650D01*
X4708Y5637D01*
X4730Y5633D01*
X4752Y5637D01*
X4770Y5650D01*
X4783Y5668D01*
X4787Y5690D01*
X4783Y5712D01*
X4770Y5730D01*
X4752Y5743D01*
X4730Y5747D01*
D02*
G37*
G36*
X3440Y5737D02*
X3418Y5733D01*
X3400Y5720D01*
X3387Y5702D01*
X3383Y5680D01*
X3387Y5658D01*
X3400Y5640D01*
X3418Y5627D01*
X3440Y5623D01*
X3462Y5627D01*
X3480Y5640D01*
X3493Y5658D01*
X3497Y5680D01*
X3493Y5702D01*
X3480Y5720D01*
X3462Y5733D01*
X3440Y5737D01*
D02*
G37*
G36*
X3278D02*
X3256Y5733D01*
X3237Y5720D01*
X3225Y5702D01*
X3221Y5680D01*
X3225Y5658D01*
X3237Y5640D01*
X3256Y5627D01*
X3278Y5623D01*
X3299Y5627D01*
X3318Y5640D01*
X3330Y5658D01*
X3334Y5680D01*
X3330Y5702D01*
X3318Y5720D01*
X3299Y5733D01*
X3278Y5737D01*
D02*
G37*
G36*
X3620Y5677D02*
X3598Y5673D01*
X3580Y5660D01*
X3567Y5642D01*
X3563Y5620D01*
X3567Y5598D01*
X3580Y5580D01*
X3598Y5567D01*
X3620Y5563D01*
X3642Y5567D01*
X3660Y5580D01*
X3673Y5598D01*
X3677Y5620D01*
X3673Y5642D01*
X3660Y5660D01*
X3642Y5673D01*
X3620Y5677D01*
D02*
G37*
G36*
X3890Y5491D02*
X3870Y5487D01*
X3854Y5476D01*
X3843Y5460D01*
X3841Y5454D01*
X3829D01*
X3827Y5460D01*
X3816Y5476D01*
X3800Y5487D01*
X3780Y5491D01*
X3760Y5487D01*
X3744Y5476D01*
X3733Y5460D01*
X3729Y5440D01*
X3733Y5420D01*
X3744Y5404D01*
X3760Y5393D01*
X3766Y5391D01*
Y5379D01*
X3760Y5377D01*
X3744Y5366D01*
X3733Y5350D01*
X3729Y5330D01*
X3733Y5310D01*
X3744Y5294D01*
X3760Y5283D01*
X3780Y5279D01*
X3800Y5283D01*
X3816Y5294D01*
X3827Y5310D01*
X3829Y5316D01*
X3841D01*
X3843Y5310D01*
X3854Y5294D01*
X3870Y5283D01*
X3890Y5279D01*
X3910Y5283D01*
X3926Y5294D01*
X3937Y5310D01*
X3941Y5330D01*
X3937Y5350D01*
X3926Y5366D01*
X3910Y5377D01*
X3904Y5379D01*
Y5391D01*
X3910Y5393D01*
X3926Y5404D01*
X3937Y5420D01*
X3941Y5440D01*
X3937Y5460D01*
X3926Y5476D01*
X3910Y5487D01*
X3890Y5491D01*
D02*
G37*
G36*
X2790Y5557D02*
X2768Y5553D01*
X2750Y5540D01*
X2737Y5522D01*
X2733Y5500D01*
X2737Y5478D01*
X2750Y5460D01*
X2768Y5447D01*
X2790Y5443D01*
X2812Y5447D01*
X2830Y5460D01*
X2843Y5478D01*
X2847Y5500D01*
X2843Y5522D01*
X2830Y5540D01*
X2812Y5553D01*
X2790Y5557D01*
D02*
G37*
G36*
X4220Y5527D02*
X4198Y5523D01*
X4180Y5510D01*
X4167Y5492D01*
X4163Y5470D01*
X4167Y5448D01*
X4180Y5430D01*
X4198Y5417D01*
X4220Y5413D01*
X4242Y5417D01*
X4260Y5430D01*
X4273Y5448D01*
X4277Y5470D01*
X4273Y5492D01*
X4260Y5510D01*
X4242Y5523D01*
X4220Y5527D01*
D02*
G37*
G36*
X4420Y5427D02*
X4398Y5423D01*
X4380Y5410D01*
X4367Y5392D01*
X4366Y5387D01*
X4354D01*
X4353Y5392D01*
X4340Y5410D01*
X4322Y5423D01*
X4300Y5427D01*
X4278Y5423D01*
X4260Y5410D01*
X4247Y5392D01*
X4243Y5370D01*
X4247Y5348D01*
X4260Y5330D01*
X4278Y5317D01*
X4300Y5313D01*
X4322Y5317D01*
X4340Y5330D01*
X4353Y5348D01*
X4354Y5353D01*
X4366D01*
X4367Y5348D01*
X4380Y5330D01*
X4398Y5317D01*
X4420Y5313D01*
X4442Y5317D01*
X4460Y5330D01*
X4473Y5348D01*
X4477Y5370D01*
X4473Y5392D01*
X4460Y5410D01*
X4442Y5423D01*
X4420Y5427D01*
D02*
G37*
G36*
X2650Y5473D02*
X2622Y5470D01*
X2597Y5459D01*
X2575Y5442D01*
X2558Y5420D01*
X2547Y5395D01*
X2544Y5367D01*
X2547Y5339D01*
X2558Y5314D01*
X2575Y5292D01*
X2597Y5275D01*
X2622Y5264D01*
X2650Y5261D01*
X2677Y5264D01*
X2703Y5275D01*
X2725Y5292D01*
X2742Y5314D01*
X2753Y5339D01*
X2756Y5367D01*
X2753Y5395D01*
X2742Y5420D01*
X2725Y5442D01*
X2703Y5459D01*
X2677Y5470D01*
X2650Y5473D01*
D02*
G37*
G36*
X4975Y5372D02*
X4953Y5368D01*
X4935Y5355D01*
X4922Y5337D01*
X4918Y5315D01*
X4922Y5293D01*
X4935Y5275D01*
X4953Y5262D01*
X4975Y5258D01*
X4997Y5262D01*
X5015Y5275D01*
X5028Y5293D01*
X5032Y5315D01*
X5028Y5337D01*
X5015Y5355D01*
X4997Y5368D01*
X4975Y5372D01*
D02*
G37*
G36*
X3342Y5364D02*
X3321Y5360D01*
X3302Y5348D01*
X3290Y5329D01*
X3286Y5308D01*
X3290Y5286D01*
X3302Y5267D01*
X3321Y5255D01*
X3342Y5251D01*
X3364Y5255D01*
X3383Y5267D01*
X3395Y5286D01*
X3399Y5308D01*
X3395Y5329D01*
X3383Y5348D01*
X3364Y5360D01*
X3342Y5364D01*
D02*
G37*
G36*
X4820Y5347D02*
X4798Y5343D01*
X4780Y5330D01*
X4767Y5312D01*
X4763Y5290D01*
X4767Y5268D01*
X4780Y5250D01*
X4798Y5237D01*
X4820Y5233D01*
X4842Y5237D01*
X4860Y5250D01*
X4873Y5268D01*
X4877Y5290D01*
X4873Y5312D01*
X4860Y5330D01*
X4842Y5343D01*
X4820Y5347D01*
D02*
G37*
G36*
X6070Y5457D02*
X6048Y5453D01*
X6030Y5440D01*
X6017Y5422D01*
X6013Y5400D01*
X6017Y5378D01*
X6030Y5360D01*
X6048Y5347D01*
X6053Y5346D01*
Y5334D01*
X6048Y5333D01*
X6030Y5320D01*
X6017Y5302D01*
X6013Y5280D01*
X6017Y5258D01*
X6030Y5240D01*
X6048Y5227D01*
X6070Y5223D01*
X6092Y5227D01*
X6110Y5240D01*
X6123Y5258D01*
X6127Y5280D01*
X6123Y5302D01*
X6110Y5320D01*
X6092Y5333D01*
X6087Y5334D01*
Y5346D01*
X6092Y5347D01*
X6110Y5360D01*
X6123Y5378D01*
X6127Y5400D01*
X6123Y5422D01*
X6110Y5440D01*
X6092Y5453D01*
X6070Y5457D01*
D02*
G37*
G36*
X4149Y5317D02*
X4127Y5313D01*
X4109Y5300D01*
X4096Y5282D01*
X4092Y5260D01*
X4096Y5238D01*
X4109Y5220D01*
X4127Y5207D01*
X4149Y5203D01*
X4171Y5207D01*
X4189Y5220D01*
X4202Y5238D01*
X4206Y5260D01*
X4202Y5282D01*
X4189Y5300D01*
X4171Y5313D01*
X4149Y5317D01*
D02*
G37*
G36*
X7350Y5297D02*
X7328Y5293D01*
X7310Y5280D01*
X7297Y5262D01*
X7293Y5240D01*
X7297Y5218D01*
X7310Y5200D01*
X7328Y5187D01*
X7350Y5183D01*
X7372Y5187D01*
X7390Y5200D01*
X7403Y5218D01*
X7407Y5240D01*
X7403Y5262D01*
X7390Y5280D01*
X7372Y5293D01*
X7350Y5297D01*
D02*
G37*
G36*
X2790D02*
X2768Y5293D01*
X2750Y5280D01*
X2737Y5262D01*
X2733Y5240D01*
X2737Y5218D01*
X2750Y5200D01*
X2768Y5187D01*
X2790Y5183D01*
X2812Y5187D01*
X2830Y5200D01*
X2843Y5218D01*
X2847Y5240D01*
X2843Y5262D01*
X2830Y5280D01*
X2812Y5293D01*
X2790Y5297D01*
D02*
G37*
G36*
X4420Y5287D02*
X4398Y5283D01*
X4380Y5270D01*
X4367Y5252D01*
X4363Y5230D01*
X4367Y5208D01*
X4380Y5190D01*
X4398Y5177D01*
X4420Y5173D01*
X4442Y5177D01*
X4460Y5190D01*
X4473Y5208D01*
X4477Y5230D01*
X4473Y5252D01*
X4460Y5270D01*
X4442Y5283D01*
X4420Y5287D01*
D02*
G37*
G36*
X5210Y5187D02*
X5188Y5183D01*
X5170Y5170D01*
X5157Y5152D01*
X5153Y5130D01*
X5157Y5108D01*
X5170Y5090D01*
X5188Y5077D01*
X5210Y5073D01*
X5232Y5077D01*
X5250Y5090D01*
X5263Y5108D01*
X5267Y5130D01*
X5263Y5152D01*
X5250Y5170D01*
X5232Y5183D01*
X5210Y5187D01*
D02*
G37*
G36*
X5070D02*
X5048Y5183D01*
X5030Y5170D01*
X5017Y5152D01*
X5013Y5130D01*
X5017Y5108D01*
X5030Y5090D01*
X5048Y5077D01*
X5070Y5073D01*
X5092Y5077D01*
X5110Y5090D01*
X5123Y5108D01*
X5127Y5130D01*
X5123Y5152D01*
X5110Y5170D01*
X5092Y5183D01*
X5070Y5187D01*
D02*
G37*
G36*
X4420Y5127D02*
X4398Y5123D01*
X4380Y5110D01*
X4367Y5092D01*
X4363Y5070D01*
X4367Y5048D01*
X4380Y5030D01*
X4398Y5017D01*
X4420Y5013D01*
X4442Y5017D01*
X4460Y5030D01*
X4473Y5048D01*
X4477Y5070D01*
X4473Y5092D01*
X4460Y5110D01*
X4442Y5123D01*
X4420Y5127D01*
D02*
G37*
G36*
X2650Y5219D02*
X2622Y5216D01*
X2597Y5205D01*
X2575Y5188D01*
X2558Y5166D01*
X2547Y5141D01*
X2544Y5113D01*
X2547Y5085D01*
X2558Y5060D01*
X2575Y5038D01*
X2597Y5021D01*
X2622Y5010D01*
X2650Y5007D01*
X2677Y5010D01*
X2703Y5021D01*
X2725Y5038D01*
X2742Y5060D01*
X2753Y5085D01*
X2756Y5113D01*
X2753Y5141D01*
X2742Y5166D01*
X2725Y5188D01*
X2703Y5205D01*
X2677Y5216D01*
X2650Y5219D01*
D02*
G37*
G36*
X7053Y5117D02*
X7031Y5113D01*
X7012Y5100D01*
X7000Y5082D01*
X6996Y5060D01*
X7000Y5038D01*
X7012Y5020D01*
X7031Y5007D01*
X7053Y5003D01*
X7074Y5007D01*
X7093Y5020D01*
X7105Y5038D01*
X7109Y5060D01*
X7105Y5082D01*
X7093Y5100D01*
X7074Y5113D01*
X7053Y5117D01*
D02*
G37*
G36*
X4110D02*
X4088Y5113D01*
X4070Y5100D01*
X4057Y5082D01*
X4053Y5060D01*
X4057Y5038D01*
X4070Y5020D01*
X4088Y5007D01*
X4110Y5003D01*
X4132Y5007D01*
X4150Y5020D01*
X4163Y5038D01*
X4167Y5060D01*
X4163Y5082D01*
X4150Y5100D01*
X4132Y5113D01*
X4110Y5117D01*
D02*
G37*
G36*
X3610D02*
X3588Y5113D01*
X3570Y5100D01*
X3557Y5082D01*
X3553Y5060D01*
X3557Y5038D01*
X3570Y5020D01*
X3588Y5007D01*
X3610Y5003D01*
X3632Y5007D01*
X3650Y5020D01*
X3663Y5038D01*
X3667Y5060D01*
X3663Y5082D01*
X3650Y5100D01*
X3632Y5113D01*
X3610Y5117D01*
D02*
G37*
G36*
X2790Y5047D02*
X2768Y5043D01*
X2750Y5030D01*
X2737Y5012D01*
X2733Y4990D01*
X2737Y4968D01*
X2750Y4950D01*
X2768Y4937D01*
X2790Y4933D01*
X2812Y4937D01*
X2830Y4950D01*
X2843Y4968D01*
X2847Y4990D01*
X2843Y5012D01*
X2830Y5030D01*
X2812Y5043D01*
X2790Y5047D01*
D02*
G37*
G36*
X5260Y5027D02*
X5238Y5023D01*
X5220Y5010D01*
X5207Y4992D01*
X5203Y4970D01*
X5207Y4948D01*
X5220Y4930D01*
X5238Y4917D01*
X5260Y4913D01*
X5282Y4917D01*
X5300Y4930D01*
X5313Y4948D01*
X5317Y4970D01*
X5313Y4992D01*
X5300Y5010D01*
X5282Y5023D01*
X5260Y5027D01*
D02*
G37*
G36*
X5130Y4977D02*
X5108Y4973D01*
X5090Y4960D01*
X5077Y4942D01*
X5073Y4920D01*
X5077Y4898D01*
X5090Y4880D01*
X5108Y4867D01*
X5130Y4863D01*
X5152Y4867D01*
X5170Y4880D01*
X5183Y4898D01*
X5187Y4920D01*
X5183Y4942D01*
X5170Y4960D01*
X5152Y4973D01*
X5130Y4977D01*
D02*
G37*
G36*
X4970D02*
X4948Y4973D01*
X4930Y4960D01*
X4917Y4942D01*
X4913Y4920D01*
X4917Y4898D01*
X4930Y4880D01*
X4948Y4867D01*
X4970Y4863D01*
X4992Y4867D01*
X5010Y4880D01*
X5023Y4898D01*
X5027Y4920D01*
X5023Y4942D01*
X5010Y4960D01*
X4992Y4973D01*
X4970Y4977D01*
D02*
G37*
G36*
X5800Y4957D02*
X5778Y4953D01*
X5760Y4940D01*
X5747Y4922D01*
X5743Y4900D01*
X5747Y4878D01*
X5760Y4860D01*
X5778Y4847D01*
X5800Y4843D01*
X5822Y4847D01*
X5840Y4860D01*
X5853Y4878D01*
X5857Y4900D01*
X5853Y4922D01*
X5840Y4940D01*
X5822Y4953D01*
X5800Y4957D01*
D02*
G37*
G36*
X7340Y5011D02*
X7312Y5008D01*
X7287Y4997D01*
X7265Y4980D01*
X7248Y4958D01*
X7237Y4933D01*
X7234Y4905D01*
X7237Y4877D01*
X7248Y4852D01*
X7265Y4830D01*
X7287Y4813D01*
X7312Y4802D01*
X7340Y4799D01*
X7368Y4802D01*
X7393Y4813D01*
X7415Y4830D01*
X7432Y4852D01*
X7443Y4877D01*
X7446Y4905D01*
X7443Y4933D01*
X7432Y4958D01*
X7415Y4980D01*
X7393Y4997D01*
X7368Y5008D01*
X7340Y5011D01*
D02*
G37*
G36*
X4870Y4897D02*
X4848Y4893D01*
X4830Y4880D01*
X4817Y4862D01*
X4813Y4840D01*
X4817Y4818D01*
X4830Y4800D01*
X4848Y4787D01*
X4870Y4783D01*
X4892Y4787D01*
X4910Y4800D01*
X4923Y4818D01*
X4927Y4840D01*
X4923Y4862D01*
X4910Y4880D01*
X4892Y4893D01*
X4870Y4897D01*
D02*
G37*
G36*
X5640Y4886D02*
X5618Y4882D01*
X5600Y4869D01*
X5587Y4851D01*
X5583Y4829D01*
X5587Y4807D01*
X5600Y4789D01*
X5618Y4776D01*
X5640Y4772D01*
X5662Y4776D01*
X5680Y4789D01*
X5693Y4807D01*
X5697Y4829D01*
X5693Y4851D01*
X5680Y4869D01*
X5662Y4882D01*
X5640Y4886D01*
D02*
G37*
G36*
X2650Y4965D02*
X2622Y4962D01*
X2597Y4951D01*
X2575Y4934D01*
X2558Y4912D01*
X2547Y4887D01*
X2544Y4859D01*
X2547Y4831D01*
X2558Y4806D01*
X2575Y4784D01*
X2597Y4767D01*
X2622Y4756D01*
X2650Y4753D01*
X2677Y4756D01*
X2703Y4767D01*
X2725Y4784D01*
X2742Y4806D01*
X2753Y4831D01*
X2756Y4859D01*
X2753Y4887D01*
X2742Y4912D01*
X2725Y4934D01*
X2703Y4951D01*
X2677Y4962D01*
X2650Y4965D01*
D02*
G37*
G36*
X6453Y4847D02*
X6431Y4843D01*
X6412Y4830D01*
X6400Y4812D01*
X6396Y4790D01*
X6400Y4768D01*
X6412Y4750D01*
X6431Y4737D01*
X6453Y4733D01*
X6474Y4737D01*
X6493Y4750D01*
X6505Y4768D01*
X6509Y4790D01*
X6505Y4812D01*
X6493Y4830D01*
X6474Y4843D01*
X6453Y4847D01*
D02*
G37*
G36*
X4780Y4807D02*
X4758Y4803D01*
X4740Y4790D01*
X4727Y4772D01*
X4723Y4750D01*
X4727Y4728D01*
X4740Y4710D01*
X4758Y4697D01*
X4780Y4693D01*
X4802Y4697D01*
X4820Y4710D01*
X4833Y4728D01*
X4837Y4750D01*
X4833Y4772D01*
X4820Y4790D01*
X4802Y4803D01*
X4780Y4807D01*
D02*
G37*
G36*
X2790D02*
X2768Y4803D01*
X2750Y4790D01*
X2737Y4772D01*
X2733Y4750D01*
X2737Y4728D01*
X2750Y4710D01*
X2768Y4697D01*
X2790Y4693D01*
X2812Y4697D01*
X2830Y4710D01*
X2843Y4728D01*
X2847Y4750D01*
X2843Y4772D01*
X2830Y4790D01*
X2812Y4803D01*
X2790Y4807D01*
D02*
G37*
G36*
X5930Y4757D02*
X5908Y4753D01*
X5890Y4740D01*
X5877Y4722D01*
X5873Y4700D01*
X5877Y4678D01*
X5890Y4660D01*
X5908Y4647D01*
X5930Y4643D01*
X5952Y4647D01*
X5970Y4660D01*
X5983Y4678D01*
X5987Y4700D01*
X5983Y4722D01*
X5970Y4740D01*
X5952Y4753D01*
X5930Y4757D01*
D02*
G37*
G36*
X3980Y4737D02*
X3958Y4733D01*
X3940Y4720D01*
X3927Y4702D01*
X3923Y4680D01*
X3927Y4658D01*
X3940Y4640D01*
X3958Y4627D01*
X3980Y4623D01*
X4002Y4627D01*
X4020Y4640D01*
X4033Y4658D01*
X4037Y4680D01*
X4033Y4702D01*
X4020Y4720D01*
X4002Y4733D01*
X3980Y4737D01*
D02*
G37*
G36*
X3810D02*
X3788Y4733D01*
X3770Y4720D01*
X3757Y4702D01*
X3753Y4680D01*
X3757Y4658D01*
X3770Y4640D01*
X3788Y4627D01*
X3810Y4623D01*
X3832Y4627D01*
X3850Y4640D01*
X3863Y4658D01*
X3867Y4680D01*
X3863Y4702D01*
X3850Y4720D01*
X3832Y4733D01*
X3810Y4737D01*
D02*
G37*
G36*
X3640D02*
X3618Y4733D01*
X3600Y4720D01*
X3587Y4702D01*
X3583Y4680D01*
X3587Y4658D01*
X3600Y4640D01*
X3618Y4627D01*
X3640Y4623D01*
X3662Y4627D01*
X3680Y4640D01*
X3693Y4658D01*
X3697Y4680D01*
X3693Y4702D01*
X3680Y4720D01*
X3662Y4733D01*
X3640Y4737D01*
D02*
G37*
G36*
X3470D02*
X3448Y4733D01*
X3430Y4720D01*
X3417Y4702D01*
X3413Y4680D01*
X3417Y4658D01*
X3430Y4640D01*
X3448Y4627D01*
X3470Y4623D01*
X3492Y4627D01*
X3510Y4640D01*
X3523Y4658D01*
X3527Y4680D01*
X3523Y4702D01*
X3510Y4720D01*
X3492Y4733D01*
X3470Y4737D01*
D02*
G37*
G36*
X3300D02*
X3278Y4733D01*
X3260Y4720D01*
X3247Y4702D01*
X3243Y4680D01*
X3247Y4658D01*
X3260Y4640D01*
X3278Y4627D01*
X3300Y4623D01*
X3322Y4627D01*
X3340Y4640D01*
X3353Y4658D01*
X3357Y4680D01*
X3353Y4702D01*
X3340Y4720D01*
X3322Y4733D01*
X3300Y4737D01*
D02*
G37*
G36*
X3090D02*
X3068Y4733D01*
X3050Y4720D01*
X3037Y4702D01*
X3033Y4680D01*
X3037Y4658D01*
X3050Y4640D01*
X3068Y4627D01*
X3090Y4623D01*
X3112Y4627D01*
X3130Y4640D01*
X3143Y4658D01*
X3147Y4680D01*
X3143Y4702D01*
X3130Y4720D01*
X3112Y4733D01*
X3090Y4737D01*
D02*
G37*
G36*
X2930D02*
X2908Y4733D01*
X2890Y4720D01*
X2877Y4702D01*
X2873Y4680D01*
X2877Y4658D01*
X2890Y4640D01*
X2908Y4627D01*
X2930Y4623D01*
X2952Y4627D01*
X2970Y4640D01*
X2983Y4658D01*
X2987Y4680D01*
X2983Y4702D01*
X2970Y4720D01*
X2952Y4733D01*
X2930Y4737D01*
D02*
G37*
G36*
X5840Y4667D02*
X5818Y4663D01*
X5800Y4650D01*
X5787Y4632D01*
X5783Y4610D01*
X5787Y4588D01*
X5800Y4570D01*
X5818Y4557D01*
X5840Y4553D01*
X5862Y4557D01*
X5880Y4570D01*
X5893Y4588D01*
X5897Y4610D01*
X5893Y4632D01*
X5880Y4650D01*
X5862Y4663D01*
X5840Y4667D01*
D02*
G37*
G36*
X5660D02*
X5638Y4663D01*
X5620Y4650D01*
X5607Y4632D01*
X5603Y4610D01*
X5607Y4588D01*
X5620Y4570D01*
X5638Y4557D01*
X5660Y4553D01*
X5682Y4557D01*
X5700Y4570D01*
X5713Y4588D01*
X5717Y4610D01*
X5713Y4632D01*
X5700Y4650D01*
X5682Y4663D01*
X5660Y4667D01*
D02*
G37*
G36*
X5480D02*
X5458Y4663D01*
X5440Y4650D01*
X5427Y4632D01*
X5423Y4610D01*
X5427Y4588D01*
X5440Y4570D01*
X5458Y4557D01*
X5480Y4553D01*
X5502Y4557D01*
X5520Y4570D01*
X5533Y4588D01*
X5537Y4610D01*
X5533Y4632D01*
X5520Y4650D01*
X5502Y4663D01*
X5480Y4667D01*
D02*
G37*
G36*
X7210Y4817D02*
X7188Y4813D01*
X7170Y4800D01*
X7157Y4782D01*
X7153Y4760D01*
X7157Y4738D01*
X7170Y4720D01*
X7188Y4707D01*
X7210Y4703D01*
X7232Y4707D01*
X7238Y4711D01*
X7244Y4707D01*
X7247Y4702D01*
X7237Y4679D01*
X7234Y4651D01*
X7237Y4623D01*
X7248Y4598D01*
X7265Y4576D01*
X7287Y4559D01*
X7312Y4548D01*
X7340Y4545D01*
X7368Y4548D01*
X7393Y4559D01*
X7415Y4576D01*
X7432Y4598D01*
X7443Y4623D01*
X7446Y4651D01*
X7443Y4679D01*
X7432Y4704D01*
X7415Y4726D01*
X7393Y4743D01*
X7368Y4754D01*
X7340Y4757D01*
X7312Y4754D01*
X7287Y4743D01*
X7274Y4733D01*
X7271Y4734D01*
X7263Y4741D01*
X7267Y4760D01*
X7263Y4782D01*
X7250Y4800D01*
X7232Y4813D01*
X7210Y4817D01*
D02*
G37*
G36*
X6097Y4639D02*
X6076Y4635D01*
X6057Y4623D01*
X6045Y4604D01*
X6041Y4583D01*
X6045Y4561D01*
X6057Y4542D01*
X6076Y4530D01*
X6097Y4526D01*
X6119Y4530D01*
X6138Y4542D01*
X6150Y4561D01*
X6154Y4583D01*
X6150Y4604D01*
X6138Y4623D01*
X6119Y4635D01*
X6097Y4639D01*
D02*
G37*
G36*
X2650Y4711D02*
X2622Y4708D01*
X2597Y4697D01*
X2575Y4680D01*
X2558Y4658D01*
X2547Y4633D01*
X2544Y4605D01*
X2547Y4577D01*
X2558Y4552D01*
X2575Y4530D01*
X2597Y4513D01*
X2622Y4502D01*
X2650Y4499D01*
X2677Y4502D01*
X2703Y4513D01*
X2725Y4530D01*
X2742Y4552D01*
X2753Y4577D01*
X2756Y4605D01*
X2753Y4633D01*
X2742Y4658D01*
X2725Y4680D01*
X2703Y4697D01*
X2677Y4708D01*
X2650Y4711D01*
D02*
G37*
G36*
X3640Y4597D02*
X3618Y4593D01*
X3600Y4580D01*
X3587Y4562D01*
X3583Y4540D01*
X3587Y4518D01*
X3600Y4500D01*
X3618Y4487D01*
X3640Y4483D01*
X3662Y4487D01*
X3680Y4500D01*
X3693Y4518D01*
X3697Y4540D01*
X3693Y4562D01*
X3680Y4580D01*
X3662Y4593D01*
X3640Y4597D01*
D02*
G37*
G36*
X7210Y4587D02*
X7188Y4583D01*
X7170Y4570D01*
X7157Y4552D01*
X7153Y4530D01*
X7157Y4508D01*
X7170Y4490D01*
X7188Y4477D01*
X7210Y4473D01*
X7232Y4477D01*
X7250Y4490D01*
X7263Y4508D01*
X7267Y4530D01*
X7263Y4552D01*
X7250Y4570D01*
X7232Y4583D01*
X7210Y4587D01*
D02*
G37*
G36*
X3090Y4577D02*
X3068Y4573D01*
X3050Y4560D01*
X3037Y4542D01*
X3033Y4520D01*
X3037Y4498D01*
X3050Y4480D01*
X3068Y4467D01*
X3090Y4463D01*
X3112Y4467D01*
X3130Y4480D01*
X3143Y4498D01*
X3147Y4520D01*
X3143Y4542D01*
X3130Y4560D01*
X3112Y4573D01*
X3090Y4577D01*
D02*
G37*
G36*
X2930D02*
X2908Y4573D01*
X2890Y4560D01*
X2877Y4542D01*
X2873Y4520D01*
X2877Y4498D01*
X2890Y4480D01*
X2908Y4467D01*
X2930Y4463D01*
X2952Y4467D01*
X2970Y4480D01*
X2983Y4498D01*
X2987Y4520D01*
X2983Y4542D01*
X2970Y4560D01*
X2952Y4573D01*
X2930Y4577D01*
D02*
G37*
G36*
X4230Y4507D02*
X4208Y4503D01*
X4190Y4490D01*
X4177Y4472D01*
X4173Y4450D01*
X4177Y4428D01*
X4190Y4410D01*
X4208Y4397D01*
X4230Y4393D01*
X4252Y4397D01*
X4270Y4410D01*
X4283Y4428D01*
X4287Y4450D01*
X4283Y4472D01*
X4270Y4490D01*
X4252Y4503D01*
X4230Y4507D01*
D02*
G37*
G36*
X5530Y4497D02*
X5508Y4493D01*
X5490Y4480D01*
X5477Y4462D01*
X5473Y4440D01*
X5477Y4418D01*
X5490Y4400D01*
X5508Y4387D01*
X5530Y4383D01*
X5552Y4387D01*
X5570Y4400D01*
X5583Y4418D01*
X5587Y4440D01*
X5583Y4462D01*
X5570Y4480D01*
X5552Y4493D01*
X5530Y4497D01*
D02*
G37*
G36*
X5380D02*
X5358Y4493D01*
X5340Y4480D01*
X5327Y4462D01*
X5323Y4440D01*
X5327Y4418D01*
X5340Y4400D01*
X5358Y4387D01*
X5380Y4383D01*
X5402Y4387D01*
X5420Y4400D01*
X5433Y4418D01*
X5437Y4440D01*
X5433Y4462D01*
X5420Y4480D01*
X5402Y4493D01*
X5380Y4497D01*
D02*
G37*
G36*
X3640Y4457D02*
X3618Y4453D01*
X3600Y4440D01*
X3587Y4422D01*
X3583Y4400D01*
X3587Y4378D01*
X3600Y4360D01*
X3618Y4347D01*
X3640Y4343D01*
X3662Y4347D01*
X3680Y4360D01*
X3693Y4378D01*
X3697Y4400D01*
X3693Y4422D01*
X3680Y4440D01*
X3662Y4453D01*
X3640Y4457D01*
D02*
G37*
G36*
X3090Y4417D02*
X3068Y4413D01*
X3050Y4400D01*
X3037Y4382D01*
X3033Y4360D01*
X3037Y4338D01*
X3050Y4320D01*
X3068Y4307D01*
X3090Y4303D01*
X3112Y4307D01*
X3130Y4320D01*
X3143Y4338D01*
X3147Y4360D01*
X3143Y4382D01*
X3130Y4400D01*
X3112Y4413D01*
X3090Y4417D01*
D02*
G37*
G36*
X2930D02*
X2908Y4413D01*
X2890Y4400D01*
X2877Y4382D01*
X2873Y4360D01*
X2877Y4338D01*
X2890Y4320D01*
X2908Y4307D01*
X2930Y4303D01*
X2952Y4307D01*
X2970Y4320D01*
X2983Y4338D01*
X2987Y4360D01*
X2983Y4382D01*
X2970Y4400D01*
X2952Y4413D01*
X2930Y4417D01*
D02*
G37*
G36*
X7340Y4503D02*
X7312Y4500D01*
X7287Y4489D01*
X7265Y4472D01*
X7248Y4450D01*
X7237Y4425D01*
X7234Y4397D01*
X7237Y4369D01*
X7248Y4344D01*
X7265Y4322D01*
X7287Y4305D01*
X7312Y4294D01*
X7340Y4291D01*
X7368Y4294D01*
X7393Y4305D01*
X7415Y4322D01*
X7432Y4344D01*
X7443Y4369D01*
X7446Y4397D01*
X7443Y4425D01*
X7432Y4450D01*
X7415Y4472D01*
X7393Y4489D01*
X7368Y4500D01*
X7340Y4503D01*
D02*
G37*
G36*
X7210Y4327D02*
X7188Y4323D01*
X7170Y4310D01*
X7157Y4292D01*
X7153Y4270D01*
X7157Y4248D01*
X7170Y4230D01*
X7188Y4217D01*
X7210Y4213D01*
X7232Y4217D01*
X7250Y4230D01*
X7263Y4248D01*
X7267Y4270D01*
X7263Y4292D01*
X7250Y4310D01*
X7232Y4323D01*
X7210Y4327D01*
D02*
G37*
G36*
X3640Y4317D02*
X3618Y4313D01*
X3600Y4300D01*
X3587Y4282D01*
X3583Y4260D01*
X3587Y4238D01*
X3600Y4220D01*
X3618Y4207D01*
X3640Y4203D01*
X3662Y4207D01*
X3680Y4220D01*
X3693Y4238D01*
X3697Y4260D01*
X3693Y4282D01*
X3680Y4300D01*
X3662Y4313D01*
X3640Y4317D01*
D02*
G37*
G36*
X5180Y4307D02*
X5158Y4303D01*
X5140Y4290D01*
X5127Y4272D01*
X5123Y4250D01*
X5127Y4228D01*
X5140Y4210D01*
X5158Y4197D01*
X5180Y4193D01*
X5202Y4197D01*
X5220Y4210D01*
X5233Y4228D01*
X5237Y4250D01*
X5233Y4272D01*
X5220Y4290D01*
X5202Y4303D01*
X5180Y4307D01*
D02*
G37*
G36*
X3090Y4257D02*
X3068Y4253D01*
X3050Y4240D01*
X3037Y4222D01*
X3033Y4200D01*
X3037Y4178D01*
X3050Y4160D01*
X3068Y4147D01*
X3090Y4143D01*
X3112Y4147D01*
X3130Y4160D01*
X3143Y4178D01*
X3147Y4200D01*
X3143Y4222D01*
X3130Y4240D01*
X3112Y4253D01*
X3090Y4257D01*
D02*
G37*
G36*
X7340Y4249D02*
X7312Y4246D01*
X7287Y4235D01*
X7265Y4218D01*
X7248Y4196D01*
X7237Y4171D01*
X7234Y4143D01*
X7237Y4115D01*
X7248Y4090D01*
X7265Y4068D01*
X7287Y4051D01*
X7312Y4040D01*
X7340Y4037D01*
X7368Y4040D01*
X7393Y4051D01*
X7415Y4068D01*
X7432Y4090D01*
X7443Y4115D01*
X7446Y4143D01*
X7443Y4171D01*
X7432Y4196D01*
X7415Y4218D01*
X7393Y4235D01*
X7368Y4246D01*
X7340Y4249D01*
D02*
G37*
G36*
X4110Y4127D02*
X4088Y4123D01*
X4070Y4110D01*
X4057Y4092D01*
X4053Y4070D01*
X4057Y4048D01*
X4070Y4030D01*
X4088Y4017D01*
X4110Y4013D01*
X4132Y4017D01*
X4150Y4030D01*
X4163Y4048D01*
X4167Y4070D01*
X4163Y4092D01*
X4150Y4110D01*
X4132Y4123D01*
X4110Y4127D01*
D02*
G37*
G36*
X3090Y4097D02*
X3068Y4093D01*
X3050Y4080D01*
X3037Y4062D01*
X3033Y4040D01*
X3037Y4018D01*
X3050Y4000D01*
X3068Y3987D01*
X3090Y3983D01*
X3112Y3987D01*
X3130Y4000D01*
X3143Y4018D01*
X3147Y4040D01*
X3143Y4062D01*
X3130Y4080D01*
X3112Y4093D01*
X3090Y4097D01*
D02*
G37*
G36*
X7210Y4067D02*
X7188Y4063D01*
X7170Y4050D01*
X7157Y4032D01*
X7153Y4010D01*
X7157Y3988D01*
X7170Y3970D01*
X7188Y3957D01*
X7210Y3953D01*
X7232Y3957D01*
X7250Y3970D01*
X7263Y3988D01*
X7267Y4010D01*
X7263Y4032D01*
X7250Y4050D01*
X7232Y4063D01*
X7210Y4067D01*
D02*
G37*
G36*
X5710Y3987D02*
X5688Y3983D01*
X5670Y3970D01*
X5657Y3952D01*
X5653Y3930D01*
X5657Y3908D01*
X5670Y3890D01*
X5688Y3877D01*
X5710Y3873D01*
X5732Y3877D01*
X5750Y3890D01*
X5763Y3908D01*
X5767Y3930D01*
X5763Y3952D01*
X5750Y3970D01*
X5732Y3983D01*
X5710Y3987D01*
D02*
G37*
G36*
X5560Y3984D02*
X5538Y3980D01*
X5520Y3968D01*
X5507Y3949D01*
X5503Y3928D01*
X5507Y3906D01*
X5520Y3887D01*
X5538Y3875D01*
X5560Y3871D01*
X5582Y3875D01*
X5600Y3887D01*
X5613Y3906D01*
X5617Y3928D01*
X5613Y3949D01*
X5600Y3968D01*
X5582Y3980D01*
X5560Y3984D01*
D02*
G37*
G36*
X3820Y4047D02*
X3798Y4043D01*
X3780Y4030D01*
X3767Y4012D01*
X3763Y3990D01*
X3767Y3968D01*
X3780Y3950D01*
X3798Y3937D01*
X3820Y3933D01*
X3842Y3937D01*
X3843Y3938D01*
X3852Y3929D01*
X3847Y3922D01*
X3843Y3900D01*
X3847Y3878D01*
X3852Y3871D01*
X3843Y3862D01*
X3842Y3863D01*
X3820Y3867D01*
X3798Y3863D01*
X3780Y3850D01*
X3767Y3832D01*
X3763Y3810D01*
X3767Y3788D01*
X3780Y3770D01*
X3798Y3757D01*
X3820Y3753D01*
X3842Y3757D01*
X3860Y3770D01*
X3873Y3788D01*
X3877Y3810D01*
X3873Y3832D01*
X3868Y3839D01*
X3877Y3848D01*
X3878Y3847D01*
X3900Y3843D01*
X3922Y3847D01*
X3940Y3860D01*
X3953Y3878D01*
X3957Y3900D01*
X3953Y3922D01*
X3940Y3940D01*
X3922Y3953D01*
X3900Y3957D01*
X3878Y3953D01*
X3877Y3952D01*
X3868Y3961D01*
X3873Y3968D01*
X3877Y3990D01*
X3873Y4012D01*
X3860Y4030D01*
X3842Y4043D01*
X3820Y4047D01*
D02*
G37*
G36*
X7340Y3995D02*
X7312Y3992D01*
X7287Y3981D01*
X7265Y3964D01*
X7248Y3942D01*
X7237Y3917D01*
X7234Y3889D01*
X7237Y3864D01*
X7237Y3863D01*
X7232Y3858D01*
X7227Y3854D01*
X7210Y3857D01*
X7188Y3853D01*
X7170Y3840D01*
X7157Y3822D01*
X7153Y3800D01*
X7157Y3778D01*
X7170Y3760D01*
X7188Y3747D01*
X7210Y3743D01*
X7232Y3747D01*
X7250Y3760D01*
X7263Y3778D01*
X7266Y3797D01*
X7275Y3802D01*
X7279Y3803D01*
X7287Y3797D01*
X7312Y3786D01*
X7340Y3783D01*
X7368Y3786D01*
X7393Y3797D01*
X7415Y3814D01*
X7432Y3836D01*
X7443Y3861D01*
X7446Y3889D01*
X7443Y3917D01*
X7432Y3942D01*
X7415Y3964D01*
X7393Y3981D01*
X7368Y3992D01*
X7340Y3995D01*
D02*
G37*
G36*
X3300Y3957D02*
X3278Y3953D01*
X3260Y3940D01*
X3247Y3922D01*
X3243Y3900D01*
X3247Y3878D01*
X3260Y3860D01*
X3278Y3847D01*
X3300Y3843D01*
X3322Y3847D01*
X3340Y3860D01*
X3353Y3878D01*
X3357Y3900D01*
X3353Y3922D01*
X3340Y3940D01*
X3322Y3953D01*
X3300Y3957D01*
D02*
G37*
G36*
X4400Y4037D02*
X4378Y4033D01*
X4360Y4020D01*
X4347Y4002D01*
X4343Y3980D01*
X4347Y3958D01*
X4360Y3940D01*
Y3930D01*
X4347Y3912D01*
X4343Y3890D01*
X4347Y3868D01*
X4360Y3850D01*
X4378Y3837D01*
X4400Y3833D01*
X4422Y3837D01*
X4440Y3850D01*
X4453Y3868D01*
X4457Y3890D01*
X4453Y3912D01*
X4440Y3930D01*
Y3940D01*
X4453Y3958D01*
X4457Y3980D01*
X4453Y4002D01*
X4440Y4020D01*
X4422Y4033D01*
X4400Y4037D01*
D02*
G37*
G36*
X4210D02*
X4188Y4033D01*
X4170Y4020D01*
X4157Y4002D01*
X4153Y3980D01*
X4157Y3958D01*
X4170Y3940D01*
Y3930D01*
X4157Y3912D01*
X4153Y3890D01*
X4157Y3868D01*
X4170Y3850D01*
X4188Y3837D01*
X4210Y3833D01*
X4232Y3837D01*
X4250Y3850D01*
X4263Y3868D01*
X4267Y3890D01*
X4263Y3912D01*
X4250Y3930D01*
Y3940D01*
X4263Y3958D01*
X4267Y3980D01*
X4263Y4002D01*
X4250Y4020D01*
X4232Y4033D01*
X4210Y4037D01*
D02*
G37*
G36*
X2950Y3894D02*
X2928Y3890D01*
X2910Y3878D01*
X2897Y3859D01*
X2893Y3838D01*
X2897Y3816D01*
X2910Y3797D01*
X2928Y3785D01*
X2950Y3781D01*
X2972Y3785D01*
X2990Y3797D01*
X3003Y3816D01*
X3007Y3838D01*
X3003Y3859D01*
X2990Y3878D01*
X2972Y3890D01*
X2950Y3894D01*
D02*
G37*
G36*
X6060Y3887D02*
X6038Y3883D01*
X6020Y3870D01*
X6007Y3852D01*
X6003Y3830D01*
X6007Y3808D01*
X6020Y3790D01*
X6017Y3776D01*
X6007Y3762D01*
X6003Y3740D01*
X6007Y3718D01*
X6020Y3700D01*
X6017Y3686D01*
X6007Y3672D01*
X6003Y3650D01*
X6007Y3628D01*
X6020Y3610D01*
X6038Y3597D01*
X6060Y3593D01*
X6082Y3597D01*
X6100Y3610D01*
X6113Y3628D01*
X6117Y3650D01*
X6113Y3672D01*
X6100Y3690D01*
X6103Y3704D01*
X6113Y3718D01*
X6117Y3740D01*
X6113Y3762D01*
X6103Y3776D01*
X6100Y3790D01*
X6113Y3808D01*
X6117Y3830D01*
X6113Y3852D01*
X6100Y3870D01*
X6082Y3883D01*
X6060Y3887D01*
D02*
G37*
G36*
X3740Y3667D02*
X3718Y3663D01*
X3700Y3650D01*
X3687Y3632D01*
X3683Y3610D01*
X3687Y3588D01*
X3700Y3570D01*
X3718Y3557D01*
X3740Y3553D01*
X3762Y3557D01*
X3780Y3570D01*
X3793Y3588D01*
X3797Y3610D01*
X3793Y3632D01*
X3780Y3650D01*
X3762Y3663D01*
X3740Y3667D01*
D02*
G37*
G36*
X5460Y3587D02*
X5438Y3583D01*
X5420Y3570D01*
X5407Y3552D01*
X5403Y3530D01*
X5407Y3508D01*
X5420Y3490D01*
X5438Y3477D01*
X5460Y3473D01*
X5482Y3477D01*
X5500Y3490D01*
X5513Y3508D01*
X5517Y3530D01*
X5513Y3552D01*
X5500Y3570D01*
X5482Y3583D01*
X5460Y3587D01*
D02*
G37*
G36*
X5630Y3577D02*
X5608Y3573D01*
X5590Y3560D01*
X5577Y3542D01*
X5573Y3520D01*
X5577Y3498D01*
X5590Y3480D01*
X5608Y3467D01*
X5630Y3463D01*
X5652Y3467D01*
X5670Y3480D01*
X5683Y3498D01*
X5687Y3520D01*
X5683Y3542D01*
X5670Y3560D01*
X5652Y3573D01*
X5630Y3577D01*
D02*
G37*
G36*
X7020Y3567D02*
X6998Y3563D01*
X6980Y3550D01*
X6967Y3532D01*
X6963Y3510D01*
X6967Y3488D01*
X6980Y3470D01*
X6998Y3457D01*
X7020Y3453D01*
X7042Y3457D01*
X7060Y3470D01*
X7073Y3488D01*
X7077Y3510D01*
X7073Y3532D01*
X7060Y3550D01*
X7042Y3563D01*
X7020Y3567D01*
D02*
G37*
G36*
X6860D02*
X6838Y3563D01*
X6820Y3550D01*
X6807Y3532D01*
X6803Y3510D01*
X6807Y3488D01*
X6820Y3470D01*
X6838Y3457D01*
X6860Y3453D01*
X6882Y3457D01*
X6900Y3470D01*
X6913Y3488D01*
X6917Y3510D01*
X6913Y3532D01*
X6900Y3550D01*
X6882Y3563D01*
X6860Y3567D01*
D02*
G37*
G36*
X5110D02*
X5088Y3563D01*
X5070Y3550D01*
X5057Y3532D01*
X5053Y3510D01*
X5057Y3488D01*
X5070Y3470D01*
X5088Y3457D01*
X5110Y3453D01*
X5132Y3457D01*
X5150Y3470D01*
X5163Y3488D01*
X5167Y3510D01*
X5163Y3532D01*
X5150Y3550D01*
X5132Y3563D01*
X5110Y3567D01*
D02*
G37*
G36*
X3410Y3517D02*
X3388Y3513D01*
X3370Y3500D01*
X3357Y3482D01*
X3353Y3460D01*
X3357Y3438D01*
X3370Y3420D01*
X3388Y3407D01*
X3410Y3403D01*
X3432Y3407D01*
X3450Y3420D01*
X3463Y3438D01*
X3467Y3460D01*
X3463Y3482D01*
X3450Y3500D01*
X3432Y3513D01*
X3410Y3517D01*
D02*
G37*
G36*
X2960Y3447D02*
X2938Y3443D01*
X2920Y3430D01*
X2907Y3412D01*
X2903Y3390D01*
X2907Y3368D01*
X2920Y3350D01*
X2938Y3337D01*
X2960Y3333D01*
X2982Y3337D01*
X3000Y3350D01*
X3013Y3368D01*
X3017Y3390D01*
X3013Y3412D01*
X3000Y3430D01*
X2982Y3443D01*
X2960Y3447D01*
D02*
G37*
G36*
X7340Y3407D02*
X7318Y3403D01*
X7300Y3390D01*
X7287Y3372D01*
X7283Y3350D01*
X7287Y3328D01*
X7300Y3310D01*
X7318Y3297D01*
X7340Y3293D01*
X7362Y3297D01*
X7380Y3310D01*
X7393Y3328D01*
X7397Y3350D01*
X7393Y3372D01*
X7380Y3390D01*
X7362Y3403D01*
X7340Y3407D01*
D02*
G37*
G36*
X7180D02*
X7158Y3403D01*
X7140Y3390D01*
X7127Y3372D01*
X7123Y3350D01*
X7127Y3328D01*
X7140Y3310D01*
X7158Y3297D01*
X7180Y3293D01*
X7202Y3297D01*
X7220Y3310D01*
X7233Y3328D01*
X7237Y3350D01*
X7233Y3372D01*
X7220Y3390D01*
X7202Y3403D01*
X7180Y3407D01*
D02*
G37*
G36*
X7020D02*
X6998Y3403D01*
X6980Y3390D01*
X6967Y3372D01*
X6963Y3350D01*
X6967Y3328D01*
X6980Y3310D01*
X6998Y3297D01*
X7020Y3293D01*
X7042Y3297D01*
X7060Y3310D01*
X7073Y3328D01*
X7077Y3350D01*
X7073Y3372D01*
X7060Y3390D01*
X7042Y3403D01*
X7020Y3407D01*
D02*
G37*
G36*
X6860D02*
X6838Y3403D01*
X6820Y3390D01*
X6807Y3372D01*
X6803Y3350D01*
X6807Y3328D01*
X6820Y3310D01*
X6838Y3297D01*
X6860Y3293D01*
X6882Y3297D01*
X6900Y3310D01*
X6913Y3328D01*
X6917Y3350D01*
X6913Y3372D01*
X6900Y3390D01*
X6882Y3403D01*
X6860Y3407D01*
D02*
G37*
G36*
X3410Y3377D02*
X3388Y3373D01*
X3370Y3360D01*
X3357Y3342D01*
X3353Y3320D01*
X3357Y3298D01*
X3370Y3280D01*
X3388Y3267D01*
X3410Y3263D01*
X3432Y3267D01*
X3450Y3280D01*
X3463Y3298D01*
X3467Y3320D01*
X3463Y3342D01*
X3450Y3360D01*
X3432Y3373D01*
X3410Y3377D01*
D02*
G37*
G36*
X5630Y3367D02*
X5608Y3363D01*
X5590Y3350D01*
X5577Y3332D01*
X5573Y3310D01*
X5577Y3288D01*
X5590Y3270D01*
X5608Y3257D01*
X5630Y3253D01*
X5652Y3257D01*
X5670Y3270D01*
X5683Y3288D01*
X5687Y3310D01*
X5683Y3332D01*
X5670Y3350D01*
X5652Y3363D01*
X5630Y3367D01*
D02*
G37*
G36*
X4330Y3267D02*
X4308Y3263D01*
X4290Y3250D01*
X4280D01*
X4262Y3263D01*
X4240Y3267D01*
X4218Y3263D01*
X4200Y3250D01*
X4187Y3232D01*
X4183Y3210D01*
X4187Y3188D01*
X4199Y3170D01*
X4187Y3152D01*
X4183Y3130D01*
X4187Y3108D01*
X4200Y3090D01*
X4218Y3077D01*
X4240Y3073D01*
X4262Y3077D01*
X4280Y3090D01*
X4293Y3108D01*
X4297Y3130D01*
X4293Y3152D01*
X4292Y3153D01*
X4301Y3162D01*
X4308Y3157D01*
X4330Y3153D01*
X4352Y3157D01*
X4370Y3170D01*
X4383Y3188D01*
X4387Y3210D01*
X4383Y3232D01*
X4370Y3250D01*
X4352Y3263D01*
X4330Y3267D01*
D02*
G37*
G36*
X3120Y3537D02*
X3098Y3533D01*
X3080Y3520D01*
X3067Y3502D01*
X3063Y3480D01*
X3067Y3458D01*
X3080Y3440D01*
Y3430D01*
X3067Y3412D01*
X3063Y3390D01*
X3067Y3368D01*
X3077Y3354D01*
X3079Y3345D01*
X3077Y3336D01*
X3067Y3322D01*
X3063Y3300D01*
X3067Y3278D01*
X3080Y3260D01*
X3098Y3247D01*
X3120Y3243D01*
X3142Y3247D01*
X3160Y3260D01*
X3173Y3278D01*
X3177Y3300D01*
X3173Y3322D01*
X3163Y3336D01*
X3161Y3345D01*
X3163Y3354D01*
X3173Y3368D01*
X3177Y3390D01*
X3173Y3412D01*
X3160Y3430D01*
Y3440D01*
X3173Y3458D01*
X3177Y3480D01*
X3173Y3502D01*
X3160Y3520D01*
X3142Y3533D01*
X3120Y3537D01*
D02*
G37*
G36*
X2670Y3327D02*
X2648Y3323D01*
X2630Y3310D01*
X2617Y3292D01*
X2613Y3270D01*
X2617Y3248D01*
X2630Y3230D01*
X2648Y3217D01*
X2670Y3213D01*
X2692Y3217D01*
X2710Y3230D01*
X2723Y3248D01*
X2727Y3270D01*
X2723Y3292D01*
X2710Y3310D01*
X2692Y3323D01*
X2670Y3327D01*
D02*
G37*
G36*
X6672Y3264D02*
X6651Y3260D01*
X6632Y3248D01*
X6620Y3229D01*
X6616Y3208D01*
X6620Y3186D01*
X6632Y3167D01*
X6651Y3155D01*
X6672Y3151D01*
X6694Y3155D01*
X6713Y3167D01*
X6725Y3186D01*
X6729Y3208D01*
X6725Y3229D01*
X6713Y3248D01*
X6694Y3260D01*
X6672Y3264D01*
D02*
G37*
G36*
X6450Y3117D02*
X6428Y3113D01*
X6410Y3100D01*
X6397Y3082D01*
X6393Y3060D01*
X6397Y3038D01*
X6410Y3020D01*
X6428Y3007D01*
X6450Y3003D01*
X6472Y3007D01*
X6490Y3020D01*
X6503Y3038D01*
X6507Y3060D01*
X6503Y3082D01*
X6490Y3100D01*
X6472Y3113D01*
X6450Y3117D01*
D02*
G37*
G36*
X6190D02*
X6168Y3113D01*
X6150Y3100D01*
X6137Y3082D01*
X6133Y3060D01*
X6137Y3038D01*
X6150Y3020D01*
X6168Y3007D01*
X6190Y3003D01*
X6212Y3007D01*
X6230Y3020D01*
X6243Y3038D01*
X6247Y3060D01*
X6243Y3082D01*
X6230Y3100D01*
X6212Y3113D01*
X6190Y3117D01*
D02*
G37*
G36*
X5930D02*
X5908Y3113D01*
X5890Y3100D01*
X5877Y3082D01*
X5873Y3060D01*
X5877Y3038D01*
X5890Y3020D01*
X5908Y3007D01*
X5930Y3003D01*
X5952Y3007D01*
X5970Y3020D01*
X5983Y3038D01*
X5987Y3060D01*
X5983Y3082D01*
X5970Y3100D01*
X5952Y3113D01*
X5930Y3117D01*
D02*
G37*
G36*
X5680D02*
X5658Y3113D01*
X5640Y3100D01*
X5627Y3082D01*
X5623Y3060D01*
X5627Y3038D01*
X5640Y3020D01*
X5658Y3007D01*
X5680Y3003D01*
X5702Y3007D01*
X5720Y3020D01*
X5733Y3038D01*
X5737Y3060D01*
X5733Y3082D01*
X5720Y3100D01*
X5702Y3113D01*
X5680Y3117D01*
D02*
G37*
G36*
X6620Y3047D02*
X6598Y3043D01*
X6580Y3030D01*
X6567Y3012D01*
X6563Y2990D01*
X6567Y2968D01*
X6580Y2950D01*
X6598Y2937D01*
X6620Y2933D01*
X6642Y2937D01*
X6660Y2950D01*
X6673Y2968D01*
X6677Y2990D01*
X6673Y3012D01*
X6660Y3030D01*
X6642Y3043D01*
X6620Y3047D01*
D02*
G37*
G36*
X5458D02*
X5436Y3043D01*
X5417Y3030D01*
X5405Y3012D01*
X5401Y2990D01*
X5405Y2968D01*
X5417Y2950D01*
X5436Y2937D01*
X5458Y2933D01*
X5479Y2937D01*
X5498Y2950D01*
X5510Y2968D01*
X5514Y2990D01*
X5510Y3012D01*
X5498Y3030D01*
X5479Y3043D01*
X5458Y3047D01*
D02*
G37*
G36*
X4353Y3089D02*
X4332Y3086D01*
X4313Y3078D01*
X4297Y3066D01*
X4284Y3049D01*
X4277Y3030D01*
X4274Y3010D01*
Y2990D01*
X4277Y2970D01*
X4284Y2951D01*
X4297Y2934D01*
X4313Y2922D01*
X4332Y2914D01*
X4353Y2911D01*
X4373Y2914D01*
X4392Y2922D01*
X4408Y2934D01*
X4421Y2951D01*
X4428Y2970D01*
X4431Y2990D01*
Y3010D01*
X4428Y3030D01*
X4421Y3049D01*
X4408Y3066D01*
X4392Y3078D01*
X4373Y3086D01*
X4353Y3089D01*
D02*
G37*
G36*
X3867D02*
X3847Y3086D01*
X3828Y3078D01*
X3812Y3066D01*
X3799Y3049D01*
X3792Y3030D01*
X3789Y3010D01*
Y2990D01*
X3792Y2970D01*
X3799Y2951D01*
X3812Y2934D01*
X3828Y2922D01*
X3847Y2914D01*
X3867Y2911D01*
X3888Y2914D01*
X3907Y2922D01*
X3923Y2934D01*
X3936Y2951D01*
X3943Y2970D01*
X3946Y2990D01*
Y3010D01*
X3943Y3030D01*
X3936Y3049D01*
X3923Y3066D01*
X3907Y3078D01*
X3888Y3086D01*
X3867Y3089D01*
D02*
G37*
G36*
X3535Y2937D02*
X3513Y2933D01*
X3495Y2920D01*
X3482Y2902D01*
X3478Y2880D01*
X3482Y2858D01*
X3495Y2840D01*
X3513Y2827D01*
X3535Y2823D01*
X3557Y2827D01*
X3575Y2840D01*
X3588Y2858D01*
X3592Y2880D01*
X3588Y2902D01*
X3575Y2920D01*
X3557Y2933D01*
X3535Y2937D01*
D02*
G37*
G36*
X6314Y3036D02*
X6286Y3032D01*
X6260Y3021D01*
X6237Y3004D01*
X6220Y2981D01*
X6209Y2955D01*
X6205Y2927D01*
X6209Y2899D01*
X6220Y2873D01*
X6237Y2850D01*
X6260Y2833D01*
X6286Y2822D01*
X6314Y2818D01*
X6342Y2822D01*
X6368Y2833D01*
X6391Y2850D01*
X6408Y2873D01*
X6419Y2899D01*
X6423Y2927D01*
X6419Y2955D01*
X6408Y2981D01*
X6391Y3004D01*
X6368Y3021D01*
X6342Y3032D01*
X6314Y3036D01*
D02*
G37*
G36*
X6060D02*
X6032Y3032D01*
X6006Y3021D01*
X5983Y3004D01*
X5966Y2981D01*
X5955Y2955D01*
X5951Y2927D01*
X5955Y2899D01*
X5966Y2873D01*
X5983Y2850D01*
X6006Y2833D01*
X6032Y2822D01*
X6060Y2818D01*
X6088Y2822D01*
X6114Y2833D01*
X6137Y2850D01*
X6154Y2873D01*
X6165Y2899D01*
X6169Y2927D01*
X6165Y2955D01*
X6154Y2981D01*
X6137Y3004D01*
X6114Y3021D01*
X6088Y3032D01*
X6060Y3036D01*
D02*
G37*
G36*
X5806D02*
X5778Y3032D01*
X5752Y3021D01*
X5729Y3004D01*
X5712Y2981D01*
X5701Y2955D01*
X5697Y2927D01*
X5701Y2899D01*
X5712Y2873D01*
X5729Y2850D01*
X5752Y2833D01*
X5778Y2822D01*
X5806Y2818D01*
X5834Y2822D01*
X5860Y2833D01*
X5883Y2850D01*
X5900Y2873D01*
X5911Y2899D01*
X5915Y2927D01*
X5911Y2955D01*
X5900Y2981D01*
X5883Y3004D01*
X5860Y3021D01*
X5834Y3032D01*
X5806Y3036D01*
D02*
G37*
G36*
X4976Y2943D02*
X4770D01*
Y2737D01*
X4976D01*
Y2943D01*
D02*
G37*
G36*
X5127Y2944D02*
X5100Y2940D01*
X5075Y2930D01*
X5054Y2913D01*
X5037Y2892D01*
X5027Y2867D01*
X5023Y2840D01*
X5027Y2813D01*
X5037Y2788D01*
X5054Y2767D01*
X5075Y2750D01*
X5100Y2740D01*
X5127Y2736D01*
X5154Y2740D01*
X5179Y2750D01*
X5200Y2767D01*
X5217Y2788D01*
X5227Y2813D01*
X5231Y2840D01*
X5227Y2867D01*
X5217Y2892D01*
X5200Y2913D01*
X5179Y2930D01*
X5154Y2940D01*
X5127Y2944D01*
D02*
G37*
G36*
X6620Y2727D02*
X6598Y2723D01*
X6580Y2710D01*
X6567Y2692D01*
X6563Y2670D01*
X6567Y2648D01*
X6580Y2630D01*
X6598Y2617D01*
X6620Y2613D01*
X6642Y2617D01*
X6660Y2630D01*
X6673Y2648D01*
X6677Y2670D01*
X6673Y2692D01*
X6660Y2710D01*
X6642Y2723D01*
X6620Y2727D01*
D02*
G37*
G36*
X5460D02*
X5438Y2723D01*
X5420Y2710D01*
X5407Y2692D01*
X5403Y2670D01*
X5407Y2648D01*
X5420Y2630D01*
X5438Y2617D01*
X5460Y2613D01*
X5482Y2617D01*
X5500Y2630D01*
X5513Y2648D01*
X5517Y2670D01*
X5513Y2692D01*
X5500Y2710D01*
X5482Y2723D01*
X5460Y2727D01*
D02*
G37*
G36*
X7130Y3150D02*
X7086Y3147D01*
X7043Y3137D01*
X7003Y3120D01*
X6965Y3097D01*
X6932Y3068D01*
X6903Y3035D01*
X6880Y2997D01*
X6863Y2957D01*
X6853Y2914D01*
X6850Y2870D01*
X6853Y2826D01*
X6863Y2783D01*
X6880Y2743D01*
X6903Y2705D01*
X6932Y2672D01*
X6965Y2643D01*
X7003Y2620D01*
X7043Y2603D01*
X7086Y2593D01*
X7130Y2590D01*
X7174Y2593D01*
X7217Y2603D01*
X7257Y2620D01*
X7295Y2643D01*
X7328Y2672D01*
X7357Y2705D01*
X7380Y2743D01*
X7397Y2783D01*
X7407Y2826D01*
X7410Y2870D01*
X7407Y2914D01*
X7397Y2957D01*
X7380Y2997D01*
X7357Y3035D01*
X7328Y3068D01*
X7295Y3097D01*
X7257Y3120D01*
X7217Y3137D01*
X7174Y3147D01*
X7130Y3150D01*
D02*
G37*
G36*
X2870D02*
X2826Y3147D01*
X2783Y3137D01*
X2743Y3120D01*
X2705Y3097D01*
X2672Y3068D01*
X2643Y3035D01*
X2620Y2997D01*
X2603Y2957D01*
X2593Y2914D01*
X2590Y2870D01*
X2593Y2826D01*
X2603Y2783D01*
X2620Y2743D01*
X2643Y2705D01*
X2672Y2672D01*
X2705Y2643D01*
X2743Y2620D01*
X2783Y2603D01*
X2826Y2593D01*
X2870Y2590D01*
X2914Y2593D01*
X2957Y2603D01*
X2997Y2620D01*
X3035Y2643D01*
X3068Y2672D01*
X3097Y2705D01*
X3120Y2743D01*
X3137Y2783D01*
X3147Y2826D01*
X3150Y2870D01*
X3147Y2914D01*
X3137Y2957D01*
X3120Y2997D01*
X3097Y3035D01*
X3068Y3068D01*
X3035Y3097D01*
X2997Y3120D01*
X2957Y3137D01*
X2914Y3147D01*
X2870Y3150D01*
D02*
G37*
G36*
X3535Y2697D02*
X3513Y2693D01*
X3495Y2680D01*
X3482Y2662D01*
X3478Y2640D01*
X3482Y2618D01*
X3495Y2600D01*
X3513Y2587D01*
X3535Y2583D01*
X3557Y2587D01*
X3575Y2600D01*
X3588Y2618D01*
X3592Y2640D01*
X3588Y2662D01*
X3575Y2680D01*
X3557Y2693D01*
X3535Y2697D01*
D02*
G37*
G36*
X3375D02*
X3353Y2693D01*
X3335Y2680D01*
X3322Y2662D01*
X3318Y2640D01*
X3322Y2618D01*
X3335Y2600D01*
X3353Y2587D01*
X3375Y2583D01*
X3397Y2587D01*
X3415Y2600D01*
X3428Y2618D01*
X3432Y2640D01*
X3428Y2662D01*
X3415Y2680D01*
X3397Y2693D01*
X3375Y2697D01*
D02*
G37*
G36*
X3215D02*
X3193Y2693D01*
X3175Y2680D01*
X3162Y2662D01*
X3158Y2640D01*
X3162Y2618D01*
X3175Y2600D01*
X3193Y2587D01*
X3215Y2583D01*
X3237Y2587D01*
X3255Y2600D01*
X3268Y2618D01*
X3272Y2640D01*
X3268Y2662D01*
X3255Y2680D01*
X3237Y2693D01*
X3215Y2697D01*
D02*
G37*
G36*
X4461Y2826D02*
X4437Y2823D01*
X4414Y2814D01*
X4395Y2799D01*
X4380Y2779D01*
X4371Y2757D01*
X4368Y2733D01*
Y2667D01*
X4371Y2643D01*
X4380Y2621D01*
X4395Y2601D01*
X4414Y2586D01*
X4437Y2577D01*
X4461Y2574D01*
X4486Y2577D01*
X4508Y2586D01*
X4528Y2601D01*
X4542Y2621D01*
X4552Y2643D01*
X4555Y2667D01*
Y2733D01*
X4552Y2757D01*
X4542Y2779D01*
X4528Y2799D01*
X4508Y2814D01*
X4486Y2823D01*
X4461Y2826D01*
D02*
G37*
G36*
X3759D02*
X3734Y2823D01*
X3712Y2814D01*
X3692Y2799D01*
X3678Y2779D01*
X3668Y2757D01*
X3665Y2733D01*
Y2667D01*
X3668Y2643D01*
X3678Y2621D01*
X3692Y2601D01*
X3712Y2586D01*
X3734Y2577D01*
X3759Y2574D01*
X3783Y2577D01*
X3806Y2586D01*
X3825Y2601D01*
X3840Y2621D01*
X3849Y2643D01*
X3852Y2667D01*
Y2733D01*
X3849Y2757D01*
X3840Y2779D01*
X3825Y2799D01*
X3806Y2814D01*
X3783Y2823D01*
X3759Y2826D01*
D02*
G37*
G36*
X6314Y2782D02*
X6286Y2778D01*
X6260Y2767D01*
X6237Y2750D01*
X6220Y2727D01*
X6209Y2701D01*
X6205Y2673D01*
X6209Y2645D01*
X6220Y2619D01*
X6237Y2596D01*
X6260Y2579D01*
X6286Y2568D01*
X6314Y2564D01*
X6342Y2568D01*
X6368Y2579D01*
X6391Y2596D01*
X6408Y2619D01*
X6419Y2645D01*
X6423Y2673D01*
X6419Y2701D01*
X6408Y2727D01*
X6391Y2750D01*
X6368Y2767D01*
X6342Y2778D01*
X6314Y2782D01*
D02*
G37*
G36*
X6060D02*
X6032Y2778D01*
X6006Y2767D01*
X5983Y2750D01*
X5966Y2727D01*
X5955Y2701D01*
X5951Y2673D01*
X5955Y2645D01*
X5966Y2619D01*
X5983Y2596D01*
X6006Y2579D01*
X6032Y2568D01*
X6060Y2564D01*
X6088Y2568D01*
X6114Y2579D01*
X6137Y2596D01*
X6154Y2619D01*
X6165Y2645D01*
X6169Y2673D01*
X6165Y2701D01*
X6154Y2727D01*
X6137Y2750D01*
X6114Y2767D01*
X6088Y2778D01*
X6060Y2782D01*
D02*
G37*
%LPD*%
D85*
X4598Y7350D02*
D03*
X6168D02*
D03*
D88*
X2650Y5875D02*
D03*
X7030Y5560D02*
D03*
X7340D02*
D03*
Y3635D02*
D03*
D91*
X5806Y2673D02*
D03*
D93*
X5912Y6140D02*
D03*
X6640Y6810D02*
D03*
X5740Y6600D02*
D03*
X6470Y7228D02*
D03*
X5100D02*
D03*
X3680Y6240D02*
D03*
X2730Y6610D02*
D03*
Y6420D02*
D03*
X3342Y5472D02*
D03*
X2760Y4175D02*
D03*
X6450Y4958D02*
D03*
X6860Y5075D02*
D03*
X4400Y4238D02*
D03*
X4210D02*
D03*
X5560Y4092D02*
D03*
X6262Y4583D02*
D03*
X3360Y6800D02*
D03*
X3790Y4520D02*
D03*
X3950Y4440D02*
D03*
X3790Y4360D02*
D03*
Y4280D02*
D03*
X4030Y4440D02*
D03*
X3870D02*
D03*
Y4280D02*
D03*
X3950D02*
D03*
X3870Y4520D02*
D03*
X4030Y4280D02*
D03*
X3950Y4520D02*
D03*
X3790Y4440D02*
D03*
X4030Y4520D02*
D03*
X3950Y4360D02*
D03*
X4030D02*
D03*
X3870D02*
D03*
X4088Y5742D02*
D03*
X3450Y6800D02*
D03*
D95*
X5785Y5590D02*
D03*
M02*
