G04*
G04 #@! TF.GenerationSoftware,Altium Limited,Altium Designer,21.7.1 (17)*
G04*
G04 Layer_Color=32896*
%FSLAX42Y42*%
%MOMM*%
G71*
G04*
G04 #@! TF.SameCoordinates,023FFD1A-8B7E-49EE-8FAD-F7FEFAD85E63*
G04*
G04*
G04 #@! TF.FilePolarity,Positive*
G04*
G01*
G75*
%ADD10C,0.20*%
D10*
X5865Y6690D02*
X6735D01*
Y6290D02*
Y6690D01*
X5865Y6290D02*
X6735D01*
X5865D02*
Y6690D01*
X3565Y6140D02*
Y6540D01*
X3165Y6140D02*
X3565D01*
X3165D02*
Y6540D01*
X3565D01*
X6025Y4695D02*
X6335D01*
X6025D02*
Y5055D01*
X6335D01*
Y4695D02*
Y5055D01*
X3430Y3800D02*
Y4000D01*
Y3800D02*
X3870D01*
Y4000D01*
X3430D02*
X3870D01*
X5435Y3885D02*
Y4135D01*
X5245D02*
X5435D01*
X5245Y3885D02*
Y4135D01*
Y3885D02*
X5435D01*
X4780Y3640D02*
X4980D01*
X4780Y3200D02*
Y3640D01*
Y3200D02*
X4980D01*
Y3640D01*
X3852Y3635D02*
X4108D01*
X3852Y3205D02*
Y3635D01*
Y3205D02*
X4108D01*
Y3635D01*
X4580Y3560D02*
Y3760D01*
X4180D02*
X4580D01*
X4180Y3560D02*
Y3760D01*
Y3560D02*
X4580D01*
X5878Y5492D02*
Y5688D01*
X5537D02*
X5878D01*
X5537Y5492D02*
Y5688D01*
Y5492D02*
X5878D01*
M02*
