G04*
G04 #@! TF.GenerationSoftware,Altium Limited,Altium Designer,21.7.1 (17)*
G04*
G04 Layer_Physical_Order=2*
G04 Layer_Color=36540*
%FSLAX42Y42*%
%MOMM*%
G71*
G04*
G04 #@! TF.SameCoordinates,023FFD1A-8B7E-49EE-8FAD-F7FEFAD85E63*
G04*
G04*
G04 #@! TF.FilePolarity,Positive*
G04*
G01*
G75*
%ADD81C,5.08*%
%ADD84C,1.60*%
%ADD89C,1.55*%
%ADD92C,1.65*%
%ADD93C,0.61*%
%ADD94C,0.40*%
%ADD95C,0.80*%
G36*
X7202Y7494D02*
X7249Y7481D01*
X7294Y7463D01*
X7336Y7438D01*
X7374Y7409D01*
X7409Y7374D01*
X7438Y7336D01*
X7463Y7294D01*
X7481Y7249D01*
X7494Y7202D01*
X7500Y7154D01*
X7500Y7130D01*
X7500D01*
X7500Y2870D01*
Y2846D01*
X7494Y2798D01*
X7481Y2751D01*
X7463Y2706D01*
X7438Y2664D01*
X7409Y2626D01*
X7374Y2591D01*
X7336Y2562D01*
X7294Y2537D01*
X7249Y2519D01*
X7202Y2506D01*
X7154Y2500D01*
X7130D01*
X2870Y2500D01*
X2846D01*
X2798Y2506D01*
X2751Y2519D01*
X2706Y2537D01*
X2664Y2562D01*
X2626Y2591D01*
X2591Y2626D01*
X2562Y2664D01*
X2537Y2706D01*
X2519Y2751D01*
X2506Y2798D01*
X2500Y2846D01*
Y2870D01*
X2500Y7130D01*
Y7154D01*
X2506Y7202D01*
X2519Y7249D01*
X2537Y7294D01*
X2562Y7336D01*
X2591Y7374D01*
X2626Y7409D01*
X2664Y7438D01*
X2706Y7463D01*
X2751Y7481D01*
X2798Y7494D01*
X2846Y7500D01*
X2870Y7500D01*
X2870Y7500D01*
X7154D01*
X7202Y7494D01*
D02*
G37*
%LPC*%
G36*
X6273Y7455D02*
X6063D01*
Y7245D01*
X6273D01*
Y7455D01*
D02*
G37*
G36*
X4703D02*
X4493D01*
Y7245D01*
X4703D01*
Y7455D01*
D02*
G37*
G36*
X5914Y7456D02*
X5886Y7453D01*
X5861Y7442D01*
X5839Y7425D01*
X5822Y7403D01*
X5811Y7378D01*
X5808Y7350D01*
X5811Y7322D01*
X5822Y7297D01*
X5839Y7275D01*
X5861Y7258D01*
X5886Y7247D01*
X5914Y7244D01*
X5942Y7247D01*
X5967Y7258D01*
X5989Y7275D01*
X6006Y7297D01*
X6017Y7322D01*
X6020Y7350D01*
X6017Y7378D01*
X6006Y7403D01*
X5989Y7425D01*
X5967Y7442D01*
X5942Y7453D01*
X5914Y7456D01*
D02*
G37*
G36*
X5660D02*
X5632Y7453D01*
X5607Y7442D01*
X5585Y7425D01*
X5568Y7403D01*
X5557Y7378D01*
X5554Y7350D01*
X5557Y7322D01*
X5568Y7297D01*
X5585Y7275D01*
X5607Y7258D01*
X5632Y7247D01*
X5660Y7244D01*
X5688Y7247D01*
X5713Y7258D01*
X5735Y7275D01*
X5752Y7297D01*
X5763Y7322D01*
X5766Y7350D01*
X5763Y7378D01*
X5752Y7403D01*
X5735Y7425D01*
X5713Y7442D01*
X5688Y7453D01*
X5660Y7456D01*
D02*
G37*
G36*
X4344D02*
X4316Y7453D01*
X4291Y7442D01*
X4269Y7425D01*
X4252Y7403D01*
X4241Y7378D01*
X4238Y7350D01*
X4241Y7322D01*
X4252Y7297D01*
X4269Y7275D01*
X4291Y7258D01*
X4316Y7247D01*
X4344Y7244D01*
X4372Y7247D01*
X4397Y7258D01*
X4419Y7275D01*
X4436Y7297D01*
X4447Y7322D01*
X4450Y7350D01*
X4447Y7378D01*
X4436Y7403D01*
X4419Y7425D01*
X4397Y7442D01*
X4372Y7453D01*
X4344Y7456D01*
D02*
G37*
G36*
X4090D02*
X4062Y7453D01*
X4037Y7442D01*
X4015Y7425D01*
X3998Y7403D01*
X3987Y7378D01*
X3984Y7350D01*
X3987Y7322D01*
X3998Y7297D01*
X4015Y7275D01*
X4037Y7258D01*
X4062Y7247D01*
X4090Y7244D01*
X4118Y7247D01*
X4143Y7258D01*
X4165Y7275D01*
X4182Y7297D01*
X4193Y7322D01*
X4196Y7350D01*
X4193Y7378D01*
X4182Y7403D01*
X4165Y7425D01*
X4143Y7442D01*
X4118Y7453D01*
X4090Y7456D01*
D02*
G37*
G36*
X6470Y7284D02*
X6448Y7280D01*
X6430Y7268D01*
X6417Y7249D01*
X6413Y7228D01*
X6417Y7206D01*
X6430Y7187D01*
X6448Y7175D01*
X6470Y7171D01*
X6492Y7175D01*
X6510Y7187D01*
X6523Y7206D01*
X6527Y7228D01*
X6523Y7249D01*
X6510Y7268D01*
X6492Y7280D01*
X6470Y7284D01*
D02*
G37*
G36*
X5100D02*
X5078Y7280D01*
X5060Y7268D01*
X5047Y7249D01*
X5043Y7228D01*
X5047Y7206D01*
X5060Y7187D01*
X5078Y7175D01*
X5100Y7171D01*
X5122Y7175D01*
X5140Y7187D01*
X5153Y7206D01*
X5157Y7228D01*
X5153Y7249D01*
X5140Y7268D01*
X5122Y7280D01*
X5100Y7284D01*
D02*
G37*
G36*
X3450Y6857D02*
X3428Y6853D01*
X3414Y6843D01*
X3405Y6841D01*
X3396Y6843D01*
X3382Y6853D01*
X3360Y6857D01*
X3338Y6853D01*
X3320Y6840D01*
X3307Y6822D01*
X3303Y6800D01*
X3307Y6778D01*
X3320Y6760D01*
X3338Y6747D01*
X3360Y6743D01*
X3382Y6747D01*
X3396Y6757D01*
X3405Y6759D01*
X3414Y6757D01*
X3428Y6747D01*
X3450Y6743D01*
X3472Y6747D01*
X3490Y6760D01*
X3503Y6778D01*
X3507Y6800D01*
X3503Y6822D01*
X3490Y6840D01*
X3472Y6853D01*
X3450Y6857D01*
D02*
G37*
G36*
X6640Y6867D02*
X6618Y6863D01*
X6600Y6850D01*
X6587Y6832D01*
X6583Y6810D01*
X6587Y6788D01*
X6600Y6770D01*
X6618Y6757D01*
X6640Y6753D01*
X6662Y6757D01*
X6680Y6770D01*
X6693Y6788D01*
X6697Y6810D01*
X6693Y6832D01*
X6680Y6850D01*
X6662Y6863D01*
X6640Y6867D01*
D02*
G37*
G36*
X3570Y6737D02*
X3548Y6733D01*
X3530Y6720D01*
X3517Y6702D01*
X3513Y6680D01*
X3517Y6658D01*
X3530Y6640D01*
X3548Y6627D01*
X3570Y6623D01*
X3592Y6627D01*
X3610Y6640D01*
X3623Y6658D01*
X3627Y6680D01*
X3623Y6702D01*
X3610Y6720D01*
X3592Y6733D01*
X3570Y6737D01*
D02*
G37*
G36*
X2910Y6667D02*
X2888Y6663D01*
X2870Y6650D01*
X2857Y6632D01*
X2853Y6610D01*
X2857Y6588D01*
X2870Y6570D01*
X2888Y6557D01*
X2910Y6553D01*
X2932Y6557D01*
X2950Y6570D01*
X2963Y6588D01*
X2967Y6610D01*
X2963Y6632D01*
X2950Y6650D01*
X2932Y6663D01*
X2910Y6667D01*
D02*
G37*
G36*
X2730D02*
X2708Y6663D01*
X2690Y6650D01*
X2677Y6632D01*
X2673Y6610D01*
X2677Y6588D01*
X2690Y6570D01*
X2708Y6557D01*
X2730Y6553D01*
X2752Y6557D01*
X2770Y6570D01*
X2783Y6588D01*
X2787Y6610D01*
X2783Y6632D01*
X2770Y6650D01*
X2752Y6663D01*
X2730Y6667D01*
D02*
G37*
G36*
X5740Y6657D02*
X5718Y6653D01*
X5700Y6640D01*
X5687Y6622D01*
X5683Y6600D01*
X5687Y6578D01*
X5700Y6560D01*
X5718Y6547D01*
X5740Y6543D01*
X5762Y6547D01*
X5780Y6560D01*
X5793Y6578D01*
X5797Y6600D01*
X5793Y6622D01*
X5780Y6640D01*
X5762Y6653D01*
X5740Y6657D01*
D02*
G37*
G36*
X3700Y6656D02*
X3678Y6652D01*
X3660Y6639D01*
X3647Y6621D01*
X3643Y6599D01*
X3647Y6577D01*
X3660Y6559D01*
X3678Y6546D01*
X3700Y6542D01*
X3722Y6546D01*
X3740Y6559D01*
X3753Y6577D01*
X3757Y6599D01*
X3753Y6621D01*
X3740Y6639D01*
X3722Y6652D01*
X3700Y6656D01*
D02*
G37*
G36*
X6780Y6577D02*
X6758Y6573D01*
X6740Y6560D01*
X6727Y6542D01*
X6723Y6520D01*
X6727Y6498D01*
X6740Y6480D01*
X6758Y6467D01*
X6780Y6463D01*
X6802Y6467D01*
X6820Y6480D01*
X6833Y6498D01*
X6837Y6520D01*
X6833Y6542D01*
X6820Y6560D01*
X6802Y6573D01*
X6780Y6577D01*
D02*
G37*
G36*
X2910Y6477D02*
X2888Y6473D01*
X2870Y6460D01*
X2857Y6442D01*
X2853Y6420D01*
X2857Y6398D01*
X2870Y6380D01*
X2888Y6367D01*
X2910Y6363D01*
X2932Y6367D01*
X2950Y6380D01*
X2963Y6398D01*
X2967Y6420D01*
X2963Y6442D01*
X2950Y6460D01*
X2932Y6473D01*
X2910Y6477D01*
D02*
G37*
G36*
X2730D02*
X2708Y6473D01*
X2690Y6460D01*
X2677Y6442D01*
X2673Y6420D01*
X2677Y6398D01*
X2690Y6380D01*
X2708Y6367D01*
X2730Y6363D01*
X2752Y6367D01*
X2770Y6380D01*
X2783Y6398D01*
X2787Y6420D01*
X2783Y6442D01*
X2770Y6460D01*
X2752Y6473D01*
X2730Y6477D01*
D02*
G37*
G36*
X3700Y6467D02*
X3678Y6463D01*
X3660Y6450D01*
X3647Y6432D01*
X3643Y6410D01*
X3647Y6388D01*
X3660Y6370D01*
X3678Y6357D01*
X3700Y6353D01*
X3722Y6357D01*
X3740Y6370D01*
X3753Y6388D01*
X3757Y6410D01*
X3753Y6432D01*
X3740Y6450D01*
X3722Y6463D01*
X3700Y6467D01*
D02*
G37*
G36*
X3360Y6397D02*
X3338Y6393D01*
X3320Y6380D01*
X3307Y6362D01*
X3303Y6340D01*
X3307Y6318D01*
X3320Y6300D01*
X3338Y6287D01*
X3360Y6283D01*
X3382Y6287D01*
X3400Y6300D01*
X3413Y6318D01*
X3417Y6340D01*
X3413Y6362D01*
X3400Y6380D01*
X3382Y6393D01*
X3360Y6397D01*
D02*
G37*
G36*
X6170Y6337D02*
X6148Y6333D01*
X6130Y6320D01*
X6117Y6302D01*
X6113Y6280D01*
X6117Y6258D01*
X6130Y6240D01*
X6148Y6227D01*
X6170Y6223D01*
X6192Y6227D01*
X6210Y6240D01*
X6223Y6258D01*
X6227Y6280D01*
X6223Y6302D01*
X6210Y6320D01*
X6192Y6333D01*
X6170Y6337D01*
D02*
G37*
G36*
X3680Y6297D02*
X3658Y6293D01*
X3640Y6280D01*
X3627Y6262D01*
X3623Y6240D01*
X3627Y6218D01*
X3640Y6200D01*
X3658Y6187D01*
X3680Y6183D01*
X3702Y6187D01*
X3720Y6200D01*
X3733Y6218D01*
X3737Y6240D01*
X3733Y6262D01*
X3720Y6280D01*
X3702Y6293D01*
X3680Y6297D01*
D02*
G37*
G36*
X5299Y6305D02*
X5129D01*
Y6135D01*
X5299D01*
Y6305D01*
D02*
G37*
G36*
X4726Y6306D02*
X4704Y6303D01*
X4683Y6295D01*
X4665Y6281D01*
X4651Y6263D01*
X4643Y6242D01*
X4640Y6220D01*
X4643Y6198D01*
X4651Y6177D01*
X4665Y6159D01*
X4683Y6145D01*
X4704Y6137D01*
X4726Y6134D01*
X4748Y6137D01*
X4769Y6145D01*
X4787Y6159D01*
X4801Y6177D01*
X4809Y6198D01*
X4812Y6220D01*
X4809Y6242D01*
X4801Y6263D01*
X4787Y6281D01*
X4769Y6295D01*
X4748Y6303D01*
X4726Y6306D01*
D02*
G37*
G36*
X5912Y6197D02*
X5891Y6193D01*
X5872Y6180D01*
X5860Y6162D01*
X5856Y6140D01*
X5860Y6118D01*
X5872Y6100D01*
X5891Y6087D01*
X5912Y6083D01*
X5934Y6087D01*
X5953Y6100D01*
X5965Y6118D01*
X5969Y6140D01*
X5965Y6162D01*
X5953Y6180D01*
X5934Y6193D01*
X5912Y6197D01*
D02*
G37*
G36*
X2970Y6149D02*
X2948Y6145D01*
X2930Y6133D01*
X2917Y6114D01*
X2913Y6092D01*
X2917Y6071D01*
X2930Y6052D01*
X2948Y6040D01*
X2970Y6036D01*
X2992Y6040D01*
X3010Y6052D01*
X3023Y6071D01*
X3027Y6092D01*
X3023Y6114D01*
X3010Y6133D01*
X2992Y6145D01*
X2970Y6149D01*
D02*
G37*
G36*
X7340Y6174D02*
X7312Y6171D01*
X7287Y6160D01*
X7265Y6143D01*
X7248Y6121D01*
X7237Y6096D01*
X7234Y6068D01*
X7237Y6040D01*
X7248Y6015D01*
X7265Y5993D01*
X7287Y5976D01*
X7312Y5965D01*
X7340Y5962D01*
X7368Y5965D01*
X7393Y5976D01*
X7415Y5993D01*
X7432Y6015D01*
X7443Y6040D01*
X7446Y6068D01*
X7443Y6096D01*
X7432Y6121D01*
X7415Y6143D01*
X7393Y6160D01*
X7368Y6171D01*
X7340Y6174D01*
D02*
G37*
G36*
X7030D02*
X7002Y6171D01*
X6977Y6160D01*
X6955Y6143D01*
X6938Y6121D01*
X6927Y6096D01*
X6924Y6068D01*
X6927Y6040D01*
X6938Y6015D01*
X6955Y5993D01*
X6977Y5976D01*
X7002Y5965D01*
X7030Y5962D01*
X7058Y5965D01*
X7083Y5976D01*
X7105Y5993D01*
X7122Y6015D01*
X7133Y6040D01*
X7136Y6068D01*
X7133Y6096D01*
X7122Y6121D01*
X7105Y6143D01*
X7083Y6160D01*
X7058Y6171D01*
X7030Y6174D01*
D02*
G37*
G36*
X2755Y5980D02*
X2544D01*
Y5770D01*
X2755D01*
Y5980D01*
D02*
G37*
G36*
X7340Y5920D02*
X7312Y5917D01*
X7287Y5906D01*
X7265Y5889D01*
X7248Y5867D01*
X7237Y5842D01*
X7234Y5814D01*
X7237Y5786D01*
X7248Y5761D01*
X7265Y5739D01*
X7287Y5722D01*
X7312Y5711D01*
X7340Y5708D01*
X7368Y5711D01*
X7393Y5722D01*
X7415Y5739D01*
X7432Y5761D01*
X7443Y5786D01*
X7446Y5814D01*
X7443Y5842D01*
X7432Y5867D01*
X7415Y5889D01*
X7393Y5906D01*
X7368Y5917D01*
X7340Y5920D01*
D02*
G37*
G36*
X7030D02*
X7002Y5917D01*
X6977Y5906D01*
X6955Y5889D01*
X6938Y5867D01*
X6927Y5842D01*
X6924Y5814D01*
X6927Y5786D01*
X6938Y5761D01*
X6955Y5739D01*
X6977Y5722D01*
X7002Y5711D01*
X7030Y5708D01*
X7058Y5711D01*
X7083Y5722D01*
X7105Y5739D01*
X7122Y5761D01*
X7133Y5786D01*
X7136Y5814D01*
X7133Y5842D01*
X7122Y5867D01*
X7105Y5889D01*
X7083Y5906D01*
X7058Y5917D01*
X7030Y5920D01*
D02*
G37*
G36*
X4088Y5799D02*
X4066Y5795D01*
X4047Y5783D01*
X4035Y5764D01*
X4031Y5742D01*
X4035Y5721D01*
X4047Y5702D01*
X4066Y5690D01*
X4088Y5686D01*
X4109Y5690D01*
X4128Y5702D01*
X4140Y5721D01*
X4144Y5742D01*
X4140Y5764D01*
X4128Y5783D01*
X4109Y5795D01*
X4088Y5799D01*
D02*
G37*
G36*
X3440Y5737D02*
X3418Y5733D01*
X3400Y5720D01*
X3387Y5702D01*
X3383Y5680D01*
X3387Y5658D01*
X3400Y5640D01*
X3418Y5627D01*
X3440Y5623D01*
X3462Y5627D01*
X3480Y5640D01*
X3493Y5658D01*
X3497Y5680D01*
X3493Y5702D01*
X3480Y5720D01*
X3462Y5733D01*
X3440Y5737D01*
D02*
G37*
G36*
X3620Y5677D02*
X3598Y5673D01*
X3580Y5660D01*
X3567Y5642D01*
X3563Y5620D01*
X3567Y5598D01*
X3580Y5580D01*
X3598Y5567D01*
X3620Y5563D01*
X3642Y5567D01*
X3660Y5580D01*
X3673Y5598D01*
X3677Y5620D01*
X3673Y5642D01*
X3660Y5660D01*
X3642Y5673D01*
X3620Y5677D01*
D02*
G37*
G36*
X5785Y5656D02*
X5768Y5654D01*
X5752Y5647D01*
X5739Y5637D01*
X5728Y5623D01*
X5721Y5607D01*
X5719Y5590D01*
X5721Y5573D01*
X5728Y5557D01*
X5739Y5543D01*
X5752Y5533D01*
X5768Y5526D01*
X5785Y5524D01*
X5802Y5526D01*
X5818Y5533D01*
X5832Y5543D01*
X5842Y5557D01*
X5849Y5573D01*
X5851Y5590D01*
X5849Y5607D01*
X5842Y5623D01*
X5832Y5637D01*
X5818Y5647D01*
X5802Y5654D01*
X5785Y5656D01*
D02*
G37*
G36*
X2650Y5727D02*
X2622Y5724D01*
X2597Y5713D01*
X2575Y5696D01*
X2558Y5674D01*
X2547Y5649D01*
X2544Y5621D01*
X2547Y5593D01*
X2558Y5568D01*
X2575Y5546D01*
X2597Y5529D01*
X2622Y5518D01*
X2650Y5515D01*
X2677Y5518D01*
X2703Y5529D01*
X2725Y5546D01*
X2742Y5568D01*
X2753Y5593D01*
X2756Y5621D01*
X2753Y5649D01*
X2742Y5674D01*
X2725Y5696D01*
X2703Y5713D01*
X2677Y5724D01*
X2650Y5727D01*
D02*
G37*
G36*
X7445Y5665D02*
X7235D01*
Y5455D01*
X7445D01*
Y5665D01*
D02*
G37*
G36*
X7135D02*
X6925D01*
Y5455D01*
X7135D01*
Y5665D01*
D02*
G37*
G36*
X3890Y5491D02*
X3870Y5487D01*
X3854Y5476D01*
X3843Y5460D01*
X3841Y5454D01*
X3829D01*
X3827Y5460D01*
X3816Y5476D01*
X3800Y5487D01*
X3780Y5491D01*
X3760Y5487D01*
X3744Y5476D01*
X3733Y5460D01*
X3729Y5440D01*
X3733Y5420D01*
X3744Y5404D01*
X3760Y5393D01*
X3766Y5391D01*
Y5379D01*
X3760Y5377D01*
X3744Y5366D01*
X3733Y5350D01*
X3729Y5330D01*
X3733Y5310D01*
X3744Y5294D01*
X3760Y5283D01*
X3780Y5279D01*
X3800Y5283D01*
X3816Y5294D01*
X3827Y5310D01*
X3829Y5316D01*
X3841D01*
X3843Y5310D01*
X3854Y5294D01*
X3870Y5283D01*
X3890Y5279D01*
X3910Y5283D01*
X3926Y5294D01*
X3937Y5310D01*
X3941Y5330D01*
X3937Y5350D01*
X3926Y5366D01*
X3910Y5377D01*
X3904Y5379D01*
Y5391D01*
X3910Y5393D01*
X3926Y5404D01*
X3937Y5420D01*
X3941Y5440D01*
X3937Y5460D01*
X3926Y5476D01*
X3910Y5487D01*
X3890Y5491D01*
D02*
G37*
G36*
X3342Y5529D02*
X3321Y5525D01*
X3302Y5513D01*
X3290Y5494D01*
X3286Y5472D01*
X3290Y5451D01*
X3302Y5432D01*
X3321Y5420D01*
X3342Y5416D01*
X3364Y5420D01*
X3383Y5432D01*
X3395Y5451D01*
X3399Y5472D01*
X3395Y5494D01*
X3383Y5513D01*
X3364Y5525D01*
X3342Y5529D01*
D02*
G37*
G36*
X4220Y5527D02*
X4198Y5523D01*
X4180Y5510D01*
X4167Y5492D01*
X4163Y5470D01*
X4167Y5448D01*
X4180Y5430D01*
X4198Y5417D01*
X4220Y5413D01*
X4242Y5417D01*
X4260Y5430D01*
X4273Y5448D01*
X4277Y5470D01*
X4273Y5492D01*
X4260Y5510D01*
X4242Y5523D01*
X4220Y5527D01*
D02*
G37*
G36*
X4300Y5427D02*
X4278Y5423D01*
X4260Y5410D01*
X4247Y5392D01*
X4243Y5370D01*
X4247Y5348D01*
X4260Y5330D01*
X4278Y5317D01*
X4300Y5313D01*
X4322Y5317D01*
X4340Y5330D01*
X4353Y5348D01*
X4357Y5370D01*
X4353Y5392D01*
X4340Y5410D01*
X4322Y5423D01*
X4300Y5427D01*
D02*
G37*
G36*
X2650Y5473D02*
X2622Y5470D01*
X2597Y5459D01*
X2575Y5442D01*
X2558Y5420D01*
X2547Y5395D01*
X2544Y5367D01*
X2547Y5339D01*
X2558Y5314D01*
X2575Y5292D01*
X2597Y5275D01*
X2622Y5264D01*
X2650Y5261D01*
X2677Y5264D01*
X2703Y5275D01*
X2725Y5292D01*
X2742Y5314D01*
X2753Y5339D01*
X2756Y5367D01*
X2753Y5395D01*
X2742Y5420D01*
X2725Y5442D01*
X2703Y5459D01*
X2677Y5470D01*
X2650Y5473D01*
D02*
G37*
G36*
X4820Y5347D02*
X4798Y5343D01*
X4780Y5330D01*
X4767Y5312D01*
X4763Y5290D01*
X4767Y5268D01*
X4780Y5250D01*
X4798Y5237D01*
X4820Y5233D01*
X4842Y5237D01*
X4860Y5250D01*
X4873Y5268D01*
X4877Y5290D01*
X4873Y5312D01*
X4860Y5330D01*
X4842Y5343D01*
X4820Y5347D01*
D02*
G37*
G36*
X6070Y5457D02*
X6048Y5453D01*
X6030Y5440D01*
X6017Y5422D01*
X6013Y5400D01*
X6017Y5378D01*
X6030Y5360D01*
X6048Y5347D01*
X6053Y5346D01*
Y5334D01*
X6048Y5333D01*
X6030Y5320D01*
X6017Y5302D01*
X6013Y5280D01*
X6017Y5258D01*
X6030Y5240D01*
X6048Y5227D01*
X6070Y5223D01*
X6092Y5227D01*
X6110Y5240D01*
X6123Y5258D01*
X6127Y5280D01*
X6123Y5302D01*
X6110Y5320D01*
X6092Y5333D01*
X6087Y5334D01*
Y5346D01*
X6092Y5347D01*
X6110Y5360D01*
X6123Y5378D01*
X6127Y5400D01*
X6123Y5422D01*
X6110Y5440D01*
X6092Y5453D01*
X6070Y5457D01*
D02*
G37*
G36*
X4420Y5287D02*
X4398Y5283D01*
X4380Y5270D01*
X4367Y5252D01*
X4363Y5230D01*
X4367Y5208D01*
X4380Y5190D01*
X4398Y5177D01*
X4420Y5173D01*
X4442Y5177D01*
X4460Y5190D01*
X4473Y5208D01*
X4477Y5230D01*
X4473Y5252D01*
X4460Y5270D01*
X4442Y5283D01*
X4420Y5287D01*
D02*
G37*
G36*
X5210Y5187D02*
X5188Y5183D01*
X5170Y5170D01*
X5157Y5152D01*
X5153Y5130D01*
X5157Y5108D01*
X5170Y5090D01*
X5188Y5077D01*
X5210Y5073D01*
X5232Y5077D01*
X5250Y5090D01*
X5263Y5108D01*
X5267Y5130D01*
X5263Y5152D01*
X5250Y5170D01*
X5232Y5183D01*
X5210Y5187D01*
D02*
G37*
G36*
X5070D02*
X5048Y5183D01*
X5030Y5170D01*
X5017Y5152D01*
X5013Y5130D01*
X5017Y5108D01*
X5030Y5090D01*
X5048Y5077D01*
X5070Y5073D01*
X5092Y5077D01*
X5110Y5090D01*
X5123Y5108D01*
X5127Y5130D01*
X5123Y5152D01*
X5110Y5170D01*
X5092Y5183D01*
X5070Y5187D01*
D02*
G37*
G36*
X6860Y5132D02*
X6838Y5128D01*
X6820Y5115D01*
X6807Y5097D01*
X6803Y5075D01*
X6807Y5053D01*
X6820Y5035D01*
X6838Y5022D01*
X6860Y5018D01*
X6882Y5022D01*
X6900Y5035D01*
X6913Y5053D01*
X6917Y5075D01*
X6913Y5097D01*
X6900Y5115D01*
X6882Y5128D01*
X6860Y5132D01*
D02*
G37*
G36*
X4420Y5127D02*
X4398Y5123D01*
X4380Y5110D01*
X4367Y5092D01*
X4363Y5070D01*
X4367Y5048D01*
X4380Y5030D01*
X4398Y5017D01*
X4420Y5013D01*
X4442Y5017D01*
X4460Y5030D01*
X4473Y5048D01*
X4477Y5070D01*
X4473Y5092D01*
X4460Y5110D01*
X4442Y5123D01*
X4420Y5127D01*
D02*
G37*
G36*
X2650Y5219D02*
X2622Y5216D01*
X2597Y5205D01*
X2575Y5188D01*
X2558Y5166D01*
X2547Y5141D01*
X2544Y5113D01*
X2547Y5085D01*
X2558Y5060D01*
X2575Y5038D01*
X2597Y5021D01*
X2622Y5010D01*
X2650Y5007D01*
X2677Y5010D01*
X2703Y5021D01*
X2725Y5038D01*
X2742Y5060D01*
X2753Y5085D01*
X2756Y5113D01*
X2753Y5141D01*
X2742Y5166D01*
X2725Y5188D01*
X2703Y5205D01*
X2677Y5216D01*
X2650Y5219D01*
D02*
G37*
G36*
X4110Y5117D02*
X4088Y5113D01*
X4070Y5100D01*
X4057Y5082D01*
X4053Y5060D01*
X4057Y5038D01*
X4070Y5020D01*
X4088Y5007D01*
X4110Y5003D01*
X4132Y5007D01*
X4150Y5020D01*
X4163Y5038D01*
X4167Y5060D01*
X4163Y5082D01*
X4150Y5100D01*
X4132Y5113D01*
X4110Y5117D01*
D02*
G37*
G36*
X3610D02*
X3588Y5113D01*
X3570Y5100D01*
X3557Y5082D01*
X3553Y5060D01*
X3557Y5038D01*
X3570Y5020D01*
X3588Y5007D01*
X3610Y5003D01*
X3632Y5007D01*
X3650Y5020D01*
X3663Y5038D01*
X3667Y5060D01*
X3663Y5082D01*
X3650Y5100D01*
X3632Y5113D01*
X3610Y5117D01*
D02*
G37*
G36*
X5260Y5027D02*
X5238Y5023D01*
X5220Y5010D01*
X5207Y4992D01*
X5203Y4970D01*
X5207Y4948D01*
X5220Y4930D01*
X5238Y4917D01*
X5260Y4913D01*
X5282Y4917D01*
X5300Y4930D01*
X5313Y4948D01*
X5317Y4970D01*
X5313Y4992D01*
X5300Y5010D01*
X5282Y5023D01*
X5260Y5027D01*
D02*
G37*
G36*
X6450Y5014D02*
X6428Y5010D01*
X6410Y4998D01*
X6397Y4979D01*
X6393Y4958D01*
X6397Y4936D01*
X6410Y4917D01*
X6428Y4905D01*
X6450Y4901D01*
X6472Y4905D01*
X6490Y4917D01*
X6503Y4936D01*
X6507Y4958D01*
X6503Y4979D01*
X6490Y4998D01*
X6472Y5010D01*
X6450Y5014D01*
D02*
G37*
G36*
X5130Y4977D02*
X5108Y4973D01*
X5090Y4960D01*
X5077Y4942D01*
X5073Y4920D01*
X5077Y4898D01*
X5090Y4880D01*
X5108Y4867D01*
X5130Y4863D01*
X5152Y4867D01*
X5170Y4880D01*
X5183Y4898D01*
X5187Y4920D01*
X5183Y4942D01*
X5170Y4960D01*
X5152Y4973D01*
X5130Y4977D01*
D02*
G37*
G36*
X4970D02*
X4948Y4973D01*
X4930Y4960D01*
X4917Y4942D01*
X4913Y4920D01*
X4917Y4898D01*
X4930Y4880D01*
X4948Y4867D01*
X4970Y4863D01*
X4992Y4867D01*
X5010Y4880D01*
X5023Y4898D01*
X5027Y4920D01*
X5023Y4942D01*
X5010Y4960D01*
X4992Y4973D01*
X4970Y4977D01*
D02*
G37*
G36*
X5800Y4957D02*
X5778Y4953D01*
X5760Y4940D01*
X5747Y4922D01*
X5743Y4900D01*
X5747Y4878D01*
X5760Y4860D01*
X5778Y4847D01*
X5800Y4843D01*
X5822Y4847D01*
X5840Y4860D01*
X5853Y4878D01*
X5857Y4900D01*
X5853Y4922D01*
X5840Y4940D01*
X5822Y4953D01*
X5800Y4957D01*
D02*
G37*
G36*
X4870Y4897D02*
X4848Y4893D01*
X4830Y4880D01*
X4817Y4862D01*
X4813Y4840D01*
X4817Y4818D01*
X4830Y4800D01*
X4848Y4787D01*
X4870Y4783D01*
X4892Y4787D01*
X4910Y4800D01*
X4923Y4818D01*
X4927Y4840D01*
X4923Y4862D01*
X4910Y4880D01*
X4892Y4893D01*
X4870Y4897D01*
D02*
G37*
G36*
X5640Y4886D02*
X5618Y4882D01*
X5600Y4869D01*
X5587Y4851D01*
X5583Y4829D01*
X5587Y4807D01*
X5600Y4789D01*
X5618Y4776D01*
X5640Y4772D01*
X5662Y4776D01*
X5680Y4789D01*
X5693Y4807D01*
X5697Y4829D01*
X5693Y4851D01*
X5680Y4869D01*
X5662Y4882D01*
X5640Y4886D01*
D02*
G37*
G36*
X2650Y4965D02*
X2622Y4962D01*
X2597Y4951D01*
X2575Y4934D01*
X2558Y4912D01*
X2547Y4887D01*
X2544Y4859D01*
X2547Y4831D01*
X2558Y4806D01*
X2575Y4784D01*
X2597Y4767D01*
X2622Y4756D01*
X2650Y4753D01*
X2677Y4756D01*
X2703Y4767D01*
X2725Y4784D01*
X2742Y4806D01*
X2753Y4831D01*
X2756Y4859D01*
X2753Y4887D01*
X2742Y4912D01*
X2725Y4934D01*
X2703Y4951D01*
X2677Y4962D01*
X2650Y4965D01*
D02*
G37*
G36*
X4780Y4807D02*
X4758Y4803D01*
X4740Y4790D01*
X4727Y4772D01*
X4723Y4750D01*
X4727Y4728D01*
X4740Y4710D01*
X4758Y4697D01*
X4780Y4693D01*
X4802Y4697D01*
X4820Y4710D01*
X4833Y4728D01*
X4837Y4750D01*
X4833Y4772D01*
X4820Y4790D01*
X4802Y4803D01*
X4780Y4807D01*
D02*
G37*
G36*
X4030Y4577D02*
X4008Y4573D01*
X3990Y4561D01*
X3972Y4573D01*
X3950Y4577D01*
X3928Y4573D01*
X3910Y4561D01*
X3892Y4573D01*
X3870Y4577D01*
X3848Y4573D01*
X3830Y4561D01*
X3812Y4573D01*
X3790Y4577D01*
X3768Y4573D01*
X3750Y4560D01*
X3737Y4542D01*
X3733Y4520D01*
X3737Y4498D01*
X3749Y4480D01*
X3737Y4462D01*
X3733Y4440D01*
X3737Y4418D01*
X3749Y4400D01*
X3737Y4382D01*
X3733Y4360D01*
X3737Y4338D01*
X3749Y4320D01*
X3737Y4302D01*
X3733Y4280D01*
X3737Y4258D01*
X3750Y4240D01*
X3768Y4227D01*
X3790Y4223D01*
X3812Y4227D01*
X3830Y4239D01*
X3848Y4227D01*
X3870Y4223D01*
X3892Y4227D01*
X3910Y4239D01*
X3928Y4227D01*
X3950Y4223D01*
X3972Y4227D01*
X3990Y4239D01*
X4008Y4227D01*
X4030Y4223D01*
X4052Y4227D01*
X4070Y4240D01*
X4083Y4258D01*
X4087Y4280D01*
X4083Y4302D01*
X4071Y4320D01*
X4083Y4338D01*
X4087Y4360D01*
X4083Y4382D01*
X4071Y4400D01*
X4083Y4418D01*
X4087Y4440D01*
X4083Y4462D01*
X4071Y4480D01*
X4083Y4498D01*
X4087Y4520D01*
X4083Y4542D01*
X4070Y4560D01*
X4052Y4573D01*
X4030Y4577D01*
D02*
G37*
G36*
X5840Y4667D02*
X5818Y4663D01*
X5800Y4650D01*
X5787Y4632D01*
X5783Y4610D01*
X5787Y4588D01*
X5800Y4570D01*
X5818Y4557D01*
X5840Y4553D01*
X5862Y4557D01*
X5880Y4570D01*
X5893Y4588D01*
X5897Y4610D01*
X5893Y4632D01*
X5880Y4650D01*
X5862Y4663D01*
X5840Y4667D01*
D02*
G37*
G36*
X5660D02*
X5638Y4663D01*
X5620Y4650D01*
X5607Y4632D01*
X5603Y4610D01*
X5607Y4588D01*
X5620Y4570D01*
X5638Y4557D01*
X5660Y4553D01*
X5682Y4557D01*
X5700Y4570D01*
X5713Y4588D01*
X5717Y4610D01*
X5713Y4632D01*
X5700Y4650D01*
X5682Y4663D01*
X5660Y4667D01*
D02*
G37*
G36*
X5480D02*
X5458Y4663D01*
X5440Y4650D01*
X5427Y4632D01*
X5423Y4610D01*
X5427Y4588D01*
X5440Y4570D01*
X5458Y4557D01*
X5480Y4553D01*
X5502Y4557D01*
X5520Y4570D01*
X5533Y4588D01*
X5537Y4610D01*
X5533Y4632D01*
X5520Y4650D01*
X5502Y4663D01*
X5480Y4667D01*
D02*
G37*
G36*
X7340Y4757D02*
X7312Y4754D01*
X7287Y4743D01*
X7265Y4726D01*
X7248Y4704D01*
X7237Y4679D01*
X7234Y4651D01*
X7237Y4623D01*
X7248Y4598D01*
X7265Y4576D01*
X7287Y4559D01*
X7312Y4548D01*
X7340Y4545D01*
X7368Y4548D01*
X7393Y4559D01*
X7415Y4576D01*
X7432Y4598D01*
X7443Y4623D01*
X7446Y4651D01*
X7443Y4679D01*
X7432Y4704D01*
X7415Y4726D01*
X7393Y4743D01*
X7368Y4754D01*
X7340Y4757D01*
D02*
G37*
G36*
X6262Y4639D02*
X6241Y4635D01*
X6222Y4623D01*
X6210Y4604D01*
X6206Y4583D01*
X6210Y4561D01*
X6222Y4542D01*
X6241Y4530D01*
X6262Y4526D01*
X6284Y4530D01*
X6303Y4542D01*
X6315Y4561D01*
X6319Y4583D01*
X6315Y4604D01*
X6303Y4623D01*
X6284Y4635D01*
X6262Y4639D01*
D02*
G37*
G36*
X5530Y4497D02*
X5508Y4493D01*
X5490Y4480D01*
X5477Y4462D01*
X5473Y4440D01*
X5477Y4418D01*
X5490Y4400D01*
X5508Y4387D01*
X5530Y4383D01*
X5552Y4387D01*
X5570Y4400D01*
X5583Y4418D01*
X5587Y4440D01*
X5583Y4462D01*
X5570Y4480D01*
X5552Y4493D01*
X5530Y4497D01*
D02*
G37*
G36*
X5380D02*
X5358Y4493D01*
X5340Y4480D01*
X5327Y4462D01*
X5323Y4440D01*
X5327Y4418D01*
X5340Y4400D01*
X5358Y4387D01*
X5380Y4383D01*
X5402Y4387D01*
X5420Y4400D01*
X5433Y4418D01*
X5437Y4440D01*
X5433Y4462D01*
X5420Y4480D01*
X5402Y4493D01*
X5380Y4497D01*
D02*
G37*
G36*
X7340Y4503D02*
X7312Y4500D01*
X7287Y4489D01*
X7265Y4472D01*
X7248Y4450D01*
X7237Y4425D01*
X7234Y4397D01*
X7237Y4369D01*
X7248Y4344D01*
X7265Y4322D01*
X7287Y4305D01*
X7312Y4294D01*
X7340Y4291D01*
X7368Y4294D01*
X7393Y4305D01*
X7415Y4322D01*
X7432Y4344D01*
X7443Y4369D01*
X7446Y4397D01*
X7443Y4425D01*
X7432Y4450D01*
X7415Y4472D01*
X7393Y4489D01*
X7368Y4500D01*
X7340Y4503D01*
D02*
G37*
G36*
X5180Y4307D02*
X5158Y4303D01*
X5140Y4290D01*
X5127Y4272D01*
X5123Y4250D01*
X5127Y4228D01*
X5140Y4210D01*
X5158Y4197D01*
X5180Y4193D01*
X5202Y4197D01*
X5220Y4210D01*
X5233Y4228D01*
X5237Y4250D01*
X5233Y4272D01*
X5220Y4290D01*
X5202Y4303D01*
X5180Y4307D01*
D02*
G37*
G36*
X4400Y4294D02*
X4378Y4290D01*
X4360Y4278D01*
X4347Y4259D01*
X4343Y4238D01*
X4347Y4216D01*
X4360Y4197D01*
X4378Y4185D01*
X4400Y4181D01*
X4422Y4185D01*
X4440Y4197D01*
X4453Y4216D01*
X4457Y4238D01*
X4453Y4259D01*
X4440Y4278D01*
X4422Y4290D01*
X4400Y4294D01*
D02*
G37*
G36*
X4210D02*
X4188Y4290D01*
X4170Y4278D01*
X4157Y4259D01*
X4153Y4238D01*
X4157Y4216D01*
X4170Y4197D01*
X4188Y4185D01*
X4210Y4181D01*
X4232Y4185D01*
X4250Y4197D01*
X4263Y4216D01*
X4267Y4238D01*
X4263Y4259D01*
X4250Y4278D01*
X4232Y4290D01*
X4210Y4294D01*
D02*
G37*
G36*
X2760Y4232D02*
X2738Y4228D01*
X2720Y4215D01*
X2707Y4197D01*
X2703Y4175D01*
X2707Y4153D01*
X2720Y4135D01*
X2738Y4122D01*
X2760Y4118D01*
X2782Y4122D01*
X2800Y4135D01*
X2813Y4153D01*
X2817Y4175D01*
X2813Y4197D01*
X2800Y4215D01*
X2782Y4228D01*
X2760Y4232D01*
D02*
G37*
G36*
X7340Y4249D02*
X7312Y4246D01*
X7287Y4235D01*
X7265Y4218D01*
X7248Y4196D01*
X7237Y4171D01*
X7234Y4143D01*
X7237Y4115D01*
X7248Y4090D01*
X7265Y4068D01*
X7287Y4051D01*
X7312Y4040D01*
X7340Y4037D01*
X7368Y4040D01*
X7393Y4051D01*
X7415Y4068D01*
X7432Y4090D01*
X7443Y4115D01*
X7446Y4143D01*
X7443Y4171D01*
X7432Y4196D01*
X7415Y4218D01*
X7393Y4235D01*
X7368Y4246D01*
X7340Y4249D01*
D02*
G37*
G36*
X5560Y4149D02*
X5538Y4145D01*
X5520Y4133D01*
X5507Y4114D01*
X5503Y4092D01*
X5507Y4071D01*
X5520Y4052D01*
X5538Y4040D01*
X5560Y4036D01*
X5582Y4040D01*
X5600Y4052D01*
X5613Y4071D01*
X5617Y4092D01*
X5613Y4114D01*
X5600Y4133D01*
X5582Y4145D01*
X5560Y4149D01*
D02*
G37*
G36*
X7340Y3995D02*
X7312Y3992D01*
X7287Y3981D01*
X7265Y3964D01*
X7248Y3942D01*
X7237Y3917D01*
X7234Y3889D01*
X7237Y3861D01*
X7248Y3836D01*
X7265Y3814D01*
X7287Y3797D01*
X7312Y3786D01*
X7340Y3783D01*
X7368Y3786D01*
X7393Y3797D01*
X7415Y3814D01*
X7432Y3836D01*
X7443Y3861D01*
X7446Y3889D01*
X7443Y3917D01*
X7432Y3942D01*
X7415Y3964D01*
X7393Y3981D01*
X7368Y3992D01*
X7340Y3995D01*
D02*
G37*
G36*
X7445Y3740D02*
X7235D01*
Y3530D01*
X7445D01*
Y3740D01*
D02*
G37*
G36*
X5460Y3587D02*
X5438Y3583D01*
X5420Y3570D01*
X5407Y3552D01*
X5403Y3530D01*
X5407Y3508D01*
X5420Y3490D01*
X5438Y3477D01*
X5460Y3473D01*
X5482Y3477D01*
X5500Y3490D01*
X5513Y3508D01*
X5517Y3530D01*
X5513Y3552D01*
X5500Y3570D01*
X5482Y3583D01*
X5460Y3587D01*
D02*
G37*
G36*
X4353Y3089D02*
X4332Y3086D01*
X4313Y3078D01*
X4297Y3066D01*
X4284Y3049D01*
X4277Y3030D01*
X4274Y3010D01*
Y2990D01*
X4277Y2970D01*
X4284Y2951D01*
X4297Y2934D01*
X4313Y2922D01*
X4332Y2914D01*
X4353Y2911D01*
X4373Y2914D01*
X4392Y2922D01*
X4408Y2934D01*
X4421Y2951D01*
X4428Y2970D01*
X4431Y2990D01*
Y3010D01*
X4428Y3030D01*
X4421Y3049D01*
X4408Y3066D01*
X4392Y3078D01*
X4373Y3086D01*
X4353Y3089D01*
D02*
G37*
G36*
X3867D02*
X3847Y3086D01*
X3828Y3078D01*
X3812Y3066D01*
X3799Y3049D01*
X3792Y3030D01*
X3789Y3010D01*
Y2990D01*
X3792Y2970D01*
X3799Y2951D01*
X3812Y2934D01*
X3828Y2922D01*
X3847Y2914D01*
X3867Y2911D01*
X3888Y2914D01*
X3907Y2922D01*
X3923Y2934D01*
X3936Y2951D01*
X3943Y2970D01*
X3946Y2990D01*
Y3010D01*
X3943Y3030D01*
X3936Y3049D01*
X3923Y3066D01*
X3907Y3078D01*
X3888Y3086D01*
X3867Y3089D01*
D02*
G37*
G36*
X6314Y3036D02*
X6286Y3032D01*
X6260Y3021D01*
X6237Y3004D01*
X6220Y2981D01*
X6209Y2955D01*
X6205Y2927D01*
X6209Y2899D01*
X6220Y2873D01*
X6237Y2850D01*
X6260Y2833D01*
X6286Y2822D01*
X6314Y2818D01*
X6342Y2822D01*
X6368Y2833D01*
X6391Y2850D01*
X6408Y2873D01*
X6419Y2899D01*
X6423Y2927D01*
X6419Y2955D01*
X6408Y2981D01*
X6391Y3004D01*
X6368Y3021D01*
X6342Y3032D01*
X6314Y3036D01*
D02*
G37*
G36*
X6060D02*
X6032Y3032D01*
X6006Y3021D01*
X5983Y3004D01*
X5966Y2981D01*
X5955Y2955D01*
X5951Y2927D01*
X5955Y2899D01*
X5966Y2873D01*
X5983Y2850D01*
X6006Y2833D01*
X6032Y2822D01*
X6060Y2818D01*
X6088Y2822D01*
X6114Y2833D01*
X6137Y2850D01*
X6154Y2873D01*
X6165Y2899D01*
X6169Y2927D01*
X6165Y2955D01*
X6154Y2981D01*
X6137Y3004D01*
X6114Y3021D01*
X6088Y3032D01*
X6060Y3036D01*
D02*
G37*
G36*
X5806D02*
X5778Y3032D01*
X5752Y3021D01*
X5729Y3004D01*
X5712Y2981D01*
X5701Y2955D01*
X5697Y2927D01*
X5701Y2899D01*
X5712Y2873D01*
X5729Y2850D01*
X5752Y2833D01*
X5778Y2822D01*
X5806Y2818D01*
X5834Y2822D01*
X5860Y2833D01*
X5883Y2850D01*
X5900Y2873D01*
X5911Y2899D01*
X5915Y2927D01*
X5911Y2955D01*
X5900Y2981D01*
X5883Y3004D01*
X5860Y3021D01*
X5834Y3032D01*
X5806Y3036D01*
D02*
G37*
G36*
X4976Y2943D02*
X4770D01*
Y2737D01*
X4976D01*
Y2943D01*
D02*
G37*
G36*
X4461Y2826D02*
X4437Y2823D01*
X4414Y2814D01*
X4395Y2799D01*
X4380Y2779D01*
X4371Y2757D01*
X4368Y2733D01*
Y2667D01*
X4371Y2643D01*
X4380Y2621D01*
X4395Y2601D01*
X4414Y2586D01*
X4437Y2577D01*
X4461Y2574D01*
X4486Y2577D01*
X4508Y2586D01*
X4528Y2601D01*
X4542Y2621D01*
X4552Y2643D01*
X4555Y2667D01*
Y2733D01*
X4552Y2757D01*
X4542Y2779D01*
X4528Y2799D01*
X4508Y2814D01*
X4486Y2823D01*
X4461Y2826D01*
D02*
G37*
G36*
X3759D02*
X3734Y2823D01*
X3712Y2814D01*
X3692Y2799D01*
X3678Y2779D01*
X3668Y2757D01*
X3665Y2733D01*
Y2667D01*
X3668Y2643D01*
X3678Y2621D01*
X3692Y2601D01*
X3712Y2586D01*
X3734Y2577D01*
X3759Y2574D01*
X3783Y2577D01*
X3806Y2586D01*
X3825Y2601D01*
X3840Y2621D01*
X3849Y2643D01*
X3852Y2667D01*
Y2733D01*
X3849Y2757D01*
X3840Y2779D01*
X3825Y2799D01*
X3806Y2814D01*
X3783Y2823D01*
X3759Y2826D01*
D02*
G37*
G36*
X5914Y2781D02*
X5698D01*
Y2565D01*
X5914D01*
Y2781D01*
D02*
G37*
G36*
X6060Y2782D02*
X6032Y2778D01*
X6006Y2767D01*
X5983Y2750D01*
X5966Y2727D01*
X5955Y2701D01*
X5951Y2673D01*
X5955Y2645D01*
X5966Y2619D01*
X5983Y2596D01*
X6006Y2579D01*
X6032Y2568D01*
X6060Y2564D01*
X6088Y2568D01*
X6114Y2579D01*
X6137Y2596D01*
X6154Y2619D01*
X6165Y2645D01*
X6169Y2673D01*
X6165Y2701D01*
X6154Y2727D01*
X6137Y2750D01*
X6114Y2767D01*
X6088Y2778D01*
X6060Y2782D01*
D02*
G37*
%LPD*%
D81*
X2870Y7130D02*
D03*
X7130D02*
D03*
Y2870D02*
D03*
X2870D02*
D03*
D84*
X3836Y7350D02*
D03*
X2650Y4605D02*
D03*
X7030Y6322D02*
D03*
X7340D02*
D03*
X5406Y7350D02*
D03*
X7340Y4905D02*
D03*
D89*
X5127Y2840D02*
D03*
D92*
X6314Y2673D02*
D03*
D93*
X5710Y3930D02*
D03*
X3547Y5930D02*
D03*
X7210Y6420D02*
D03*
X6900D02*
D03*
X7210Y6180D02*
D03*
X6900Y5940D02*
D03*
Y6180D02*
D03*
X7210Y4760D02*
D03*
Y4530D02*
D03*
Y4270D02*
D03*
Y4010D02*
D03*
Y3800D02*
D03*
X6450Y3060D02*
D03*
X6190D02*
D03*
X5930D02*
D03*
X5680D02*
D03*
X2790Y4750D02*
D03*
Y4990D02*
D03*
Y5240D02*
D03*
Y5500D02*
D03*
Y5710D02*
D03*
X3990Y7220D02*
D03*
X4440D02*
D03*
X4210D02*
D03*
X5790D02*
D03*
X6010D02*
D03*
X5560D02*
D03*
X6475Y6810D02*
D03*
X3845Y6240D02*
D03*
X2970Y5928D02*
D03*
X2950Y3838D02*
D03*
X3535Y2880D02*
D03*
X5458Y2990D02*
D03*
X6453Y4790D02*
D03*
X7053Y5060D02*
D03*
X6060Y3650D02*
D03*
X6060Y3740D02*
D03*
X6060Y3830D02*
D03*
X5110Y3510D02*
D03*
X6210Y6440D02*
D03*
X4890Y6920D02*
D03*
Y7080D02*
D03*
X4730Y6920D02*
D03*
Y7080D02*
D03*
X4840Y7400D02*
D03*
X7340Y3350D02*
D03*
X3535Y2640D02*
D03*
X3375D02*
D03*
X3215D02*
D03*
X6010Y5750D02*
D03*
Y5910D02*
D03*
X6672Y3208D02*
D03*
X7350Y5240D02*
D03*
X6860Y3350D02*
D03*
Y3510D02*
D03*
X7020D02*
D03*
X7340Y6670D02*
D03*
X7180D02*
D03*
X7020D02*
D03*
X5930Y4700D02*
D03*
X5630Y3520D02*
D03*
Y3310D02*
D03*
X6620Y2990D02*
D03*
X7020Y3350D02*
D03*
X7180D02*
D03*
X6620Y2670D02*
D03*
X5460D02*
D03*
X4149Y5260D02*
D03*
X5560Y3928D02*
D03*
X6097Y4583D02*
D03*
X6780Y6640D02*
D03*
X4975Y5315D02*
D03*
X6010Y6340D02*
D03*
X6410Y7390D02*
D03*
X6570D02*
D03*
X6730D02*
D03*
X4842Y6472D02*
D03*
X4970Y6540D02*
D03*
Y6620D02*
D03*
X5097Y6472D02*
D03*
X4570Y6760D02*
D03*
X4410Y6280D02*
D03*
Y6440D02*
D03*
Y6760D02*
D03*
X5530Y6440D02*
D03*
Y5960D02*
D03*
Y6280D02*
D03*
Y6760D02*
D03*
Y6120D02*
D03*
X5370Y6760D02*
D03*
X5530Y6600D02*
D03*
X5370Y5960D02*
D03*
X5210D02*
D03*
X4410Y6120D02*
D03*
X5210Y6760D02*
D03*
X4410Y5960D02*
D03*
X5050Y6760D02*
D03*
X4890D02*
D03*
X3240Y7400D02*
D03*
X3400D02*
D03*
X3560D02*
D03*
X4410Y6600D02*
D03*
X5160Y7400D02*
D03*
X5000D02*
D03*
X2670Y3270D02*
D03*
X2960Y3390D02*
D03*
X3300Y3900D02*
D03*
X3090Y4040D02*
D03*
Y4200D02*
D03*
Y4360D02*
D03*
X2930D02*
D03*
X3090Y4520D02*
D03*
X2930D02*
D03*
X3090Y4680D02*
D03*
X2930D02*
D03*
X4330Y3210D02*
D03*
X4240D02*
D03*
X4730Y5690D02*
D03*
X3400Y7080D02*
D03*
X4420Y5370D02*
D03*
X4730Y6760D02*
D03*
X4080Y6080D02*
D03*
Y6240D02*
D03*
X3120Y3390D02*
D03*
Y3300D02*
D03*
X3410Y3460D02*
D03*
Y3320D02*
D03*
X3120Y3480D02*
D03*
X3820Y3810D02*
D03*
Y3990D02*
D03*
X4110Y4070D02*
D03*
X4210Y3890D02*
D03*
X4400D02*
D03*
X3740Y3610D02*
D03*
X3900Y3900D02*
D03*
X4400Y3980D02*
D03*
X4210D02*
D03*
X3640Y4260D02*
D03*
Y4540D02*
D03*
Y4400D02*
D03*
X4083Y5907D02*
D03*
X3700Y7150D02*
D03*
Y6990D02*
D03*
Y6830D02*
D03*
X3120Y6800D02*
D03*
X3210D02*
D03*
X3278Y5680D02*
D03*
X3822Y5752D02*
D03*
X3620Y5750D02*
D03*
X3342Y5308D02*
D03*
X3860Y6830D02*
D03*
X4050Y6710D02*
D03*
X3400Y7240D02*
D03*
X3240D02*
D03*
X3560D02*
D03*
X3240Y6120D02*
D03*
X3340D02*
D03*
X3300Y4680D02*
D03*
X3470D02*
D03*
X3640D02*
D03*
X3980D02*
D03*
X3810D02*
D03*
X4230Y4450D02*
D03*
X4240Y3130D02*
D03*
D94*
X3020Y6980D02*
D03*
X2720Y7280D02*
D03*
X2660Y7130D02*
D03*
X2870Y7340D02*
D03*
Y6920D02*
D03*
X3080Y7130D02*
D03*
X3020Y7280D02*
D03*
X2720Y6980D02*
D03*
X7280D02*
D03*
X6980Y7280D02*
D03*
X6920Y7130D02*
D03*
X7130Y7340D02*
D03*
Y6920D02*
D03*
X7340Y7130D02*
D03*
X7280Y7280D02*
D03*
X6980Y6980D02*
D03*
X7280Y2720D02*
D03*
X6980Y3020D02*
D03*
X6920Y2870D02*
D03*
X7130Y3080D02*
D03*
Y2660D02*
D03*
X7340Y2870D02*
D03*
X7280Y3020D02*
D03*
X6980Y2720D02*
D03*
X3020D02*
D03*
X2720Y3020D02*
D03*
X2660Y2870D02*
D03*
X2870Y3080D02*
D03*
Y2660D02*
D03*
X3080Y2870D02*
D03*
X3020Y3020D02*
D03*
X2720Y2720D02*
D03*
D95*
X5792Y5800D02*
D03*
X5425Y5775D02*
D03*
X5235D02*
D03*
X5045D02*
D03*
M02*
