G04*
G04 #@! TF.GenerationSoftware,Altium Limited,Altium Designer,21.7.1 (17)*
G04*
G04 Layer_Color=255*
%FSLAX42Y42*%
%MOMM*%
G71*
G04*
G04 #@! TF.SameCoordinates,023FFD1A-8B7E-49EE-8FAD-F7FEFAD85E63*
G04*
G04*
G04 #@! TF.FilePolarity,Positive*
G04*
G01*
G75*
%ADD81C,5.08*%
%ADD82O,1.35X2.00*%
%ADD83O,1.05X1.25*%
%ADD84C,1.60*%
%ADD85R,1.60X1.60*%
%ADD86R,1.20X1.20*%
%ADD87C,1.20*%
%ADD88R,1.60X1.60*%
%ADD89C,1.55*%
%ADD90R,1.55X1.55*%
%ADD91R,1.65X1.65*%
%ADD92C,1.65*%
D81*
X2870Y7130D02*
D03*
X7130D02*
D03*
Y2870D02*
D03*
X2870D02*
D03*
D82*
X4461Y2700D02*
D03*
X3759D02*
D03*
D83*
X4353Y3000D02*
D03*
X3867D02*
D03*
D84*
X4344Y7350D02*
D03*
X4090D02*
D03*
X3836D02*
D03*
X2650Y5113D02*
D03*
Y5621D02*
D03*
Y5367D02*
D03*
Y4859D02*
D03*
Y4605D02*
D03*
X7030Y6322D02*
D03*
Y6068D02*
D03*
Y5814D02*
D03*
X7340Y6322D02*
D03*
Y6068D02*
D03*
Y5814D02*
D03*
X5406Y7350D02*
D03*
X5660D02*
D03*
X5914D02*
D03*
X7340Y4397D02*
D03*
Y3889D02*
D03*
Y4143D02*
D03*
Y4651D02*
D03*
Y4905D02*
D03*
D85*
X4598Y7350D02*
D03*
X6168D02*
D03*
D86*
X5214Y6220D02*
D03*
D87*
X4726D02*
D03*
D88*
X2650Y5875D02*
D03*
X7030Y5560D02*
D03*
X7340D02*
D03*
Y3635D02*
D03*
D89*
X5127Y2840D02*
D03*
D90*
X4873D02*
D03*
D91*
X5806Y2673D02*
D03*
D92*
Y2927D02*
D03*
X6060Y2673D02*
D03*
X6314D02*
D03*
X6060Y2927D02*
D03*
X6314D02*
D03*
M02*
