G04*
G04 #@! TF.GenerationSoftware,Altium Limited,Altium Designer,21.7.1 (17)*
G04*
G04 Layer_Color=16711935*
%FSLAX42Y42*%
%MOMM*%
G71*
G04*
G04 #@! TF.SameCoordinates,023FFD1A-8B7E-49EE-8FAD-F7FEFAD85E63*
G04*
G04*
G04 #@! TF.FilePolarity,Positive*
G04*
G01*
G75*
%ADD97C,0.10*%
D97*
X5455Y5987D02*
G03*
X5537Y6070I0J82D01*
G01*
X5537Y6370D02*
G03*
X5455Y6452I-82J0D01*
G01*
X4485D02*
G03*
X4402Y6370I-0J-82D01*
G01*
X4402Y6070D02*
G03*
X4485Y5987I82J0D01*
G01*
X5445Y6035D02*
G03*
X5490Y6080I0J45D01*
G01*
Y6360D02*
G03*
X5445Y6405I-45J0D01*
G01*
X4495D02*
G03*
X4450Y6360I0J-45D01*
G01*
Y6080D02*
G03*
X4495Y6035I45J0D01*
G01*
X5310Y5260D02*
G03*
X5310Y5260I-50J0D01*
G01*
X3735Y2425D02*
X4485D01*
X3735D02*
Y2555D01*
X4485Y2425D02*
Y2555D01*
X3735Y2985D02*
X4485D01*
Y2555D02*
Y2985D01*
X3735Y2555D02*
Y2985D01*
X5992Y3185D02*
Y3395D01*
X6128Y3185D02*
Y3395D01*
X5992Y3185D02*
X6128D01*
X5992Y3395D02*
X6128D01*
X3709Y7223D02*
Y7477D01*
X4725Y7223D02*
Y7477D01*
X3709D02*
X4725D01*
X3709Y7223D02*
X4725D01*
X4325Y7128D02*
X4535D01*
X4325Y6993D02*
X4535D01*
X4325D02*
Y7128D01*
X4535Y6993D02*
Y7128D01*
X3905Y6993D02*
X4115D01*
X3905Y7128D02*
X4115D01*
Y6993D02*
Y7128D01*
X3905Y6993D02*
Y7128D01*
X3672Y3335D02*
Y3545D01*
X3808Y3335D02*
Y3545D01*
X3672Y3335D02*
X3808D01*
X3672Y3545D02*
X3808D01*
X4470Y3195D02*
Y3505D01*
X4290Y3195D02*
Y3505D01*
Y3195D02*
X4470D01*
X4290Y3505D02*
X4470D01*
X4485Y6452D02*
X5455D01*
X4485Y5987D02*
X5455D01*
X4495Y6405D02*
X5445D01*
X4495Y6035D02*
X5445D01*
X4450Y6080D02*
Y6360D01*
X4402Y6070D02*
Y6370D01*
X5490Y6080D02*
Y6360D01*
X5537Y6070D02*
Y6370D01*
X5537Y6370D01*
X2715Y6488D02*
X2925D01*
X2715Y6353D02*
X2925D01*
X2715D02*
Y6488D01*
X2925Y6353D02*
Y6488D01*
X2715Y6678D02*
X2925D01*
X2715Y6543D02*
X2925D01*
X2715D02*
Y6678D01*
X2925Y6543D02*
Y6678D01*
X3038Y5905D02*
Y6115D01*
X2902Y5905D02*
Y6115D01*
X3038D01*
X2902Y5905D02*
X3038D01*
X3635Y5185D02*
X4035D01*
Y5585D01*
X3635D02*
X4035D01*
X3635Y5185D02*
Y5585D01*
X3658Y6308D02*
X3867D01*
X3658Y6172D02*
X3867D01*
X3658D02*
Y6308D01*
X3867Y6172D02*
Y6308D01*
X3183Y6603D02*
X3392D01*
X3183Y6738D02*
X3392D01*
Y6603D02*
Y6738D01*
X3183Y6603D02*
Y6738D01*
X2883Y3640D02*
X3017D01*
X2883Y3860D02*
X3017D01*
X2883Y3640D02*
Y3860D01*
X3017Y3640D02*
Y3860D01*
X3165Y5997D02*
X3375D01*
X3165Y5862D02*
X3375D01*
X3165D02*
Y5997D01*
X3375Y5862D02*
Y5997D01*
X6075Y4515D02*
X6285D01*
X6075Y4650D02*
X6285D01*
Y4515D02*
Y4650D01*
X6075Y4515D02*
Y4650D01*
X6518Y4770D02*
Y4980D01*
X6383Y4770D02*
Y4980D01*
X6518D01*
X6383Y4770D02*
X6518D01*
X2692Y3978D02*
Y4197D01*
X2827Y3978D02*
Y4197D01*
X2692Y3978D02*
X2827D01*
X2692Y4197D02*
X2827D01*
X2692Y3640D02*
Y3860D01*
X2827Y3640D02*
Y3860D01*
X2692Y3640D02*
X2827D01*
X2692Y3860D02*
X2827D01*
X6403Y7030D02*
X6538D01*
X6403Y7250D02*
X6538D01*
X6403Y7030D02*
Y7250D01*
X6538Y7030D02*
Y7250D01*
X5033Y7030D02*
X5167D01*
X5033Y7250D02*
X5167D01*
X5033Y7030D02*
Y7250D01*
X5167Y7030D02*
Y7250D01*
X4992Y3910D02*
X5128D01*
X4992Y4130D02*
X5128D01*
X4992Y3910D02*
Y4130D01*
X5128Y3910D02*
Y4130D01*
X4803Y3910D02*
X4938D01*
X4803Y4130D02*
X4938D01*
X4803Y3910D02*
Y4130D01*
X4938Y3910D02*
Y4130D01*
X4612Y3910D02*
X4747D01*
X4612Y4130D02*
X4747D01*
X4612Y3910D02*
Y4130D01*
X4747Y3910D02*
Y4130D01*
X3917Y5930D02*
X4053D01*
X3917Y5720D02*
X4053D01*
Y5930D01*
X3917Y5720D02*
Y5930D01*
X3392Y5285D02*
X3528D01*
X3392Y5495D02*
X3528D01*
X3392Y5285D02*
Y5495D01*
X3528Y5285D02*
Y5495D01*
X2523Y4478D02*
X2777D01*
X2523Y6002D02*
X2777D01*
X2523Y4478D02*
Y6002D01*
X2777Y4478D02*
Y6002D01*
X3255Y5612D02*
Y5747D01*
X3465Y5612D02*
Y5747D01*
X3255D02*
X3465D01*
X3255Y5612D02*
X3465D01*
X3525Y5862D02*
Y5997D01*
X3735Y5862D02*
Y5997D01*
X3525D02*
X3735D01*
X3525Y5862D02*
X3735D01*
X4333Y4260D02*
X4467D01*
X4333Y4050D02*
X4467D01*
Y4260D01*
X4333Y4050D02*
Y4260D01*
X4142D02*
X4278D01*
X4142Y4050D02*
X4278D01*
Y4260D01*
X4142Y4050D02*
Y4260D01*
X3270Y4055D02*
X4010D01*
X3270Y4745D02*
X4010D01*
Y4055D02*
Y4745D01*
X3270Y4055D02*
Y4745D01*
X5390Y2975D02*
X5525D01*
X5390Y3185D02*
X5525D01*
X5390Y2975D02*
Y3185D01*
X5525Y2975D02*
Y3185D01*
X5525Y3320D02*
Y3530D01*
X5390Y3320D02*
Y3530D01*
X5525D01*
X5390Y3320D02*
X5525D01*
X5492Y4115D02*
X5628D01*
X5492Y3905D02*
X5628D01*
Y4115D01*
X5492Y3905D02*
Y4115D01*
X6875Y4583D02*
Y4717D01*
X7085Y4583D02*
Y4717D01*
X6875D02*
X7085D01*
X6875Y4583D02*
X7085D01*
X6875Y3822D02*
Y3958D01*
X7085Y3822D02*
Y3958D01*
X6875D02*
X7085D01*
X6875Y3822D02*
X7085D01*
X6875Y4072D02*
Y4208D01*
X7085Y4072D02*
Y4208D01*
X6875D02*
X7085D01*
X6875Y4072D02*
X7085D01*
X6875Y4333D02*
Y4467D01*
X7085Y4333D02*
Y4467D01*
X6875D02*
X7085D01*
X6875Y4333D02*
X7085D01*
X6475Y5780D02*
Y5915D01*
X6685Y5780D02*
Y5915D01*
X6475D02*
X6685D01*
X6475Y5780D02*
X6685D01*
X6475Y5970D02*
Y6105D01*
X6685Y5970D02*
Y6105D01*
X6475D02*
X6685D01*
X6475Y5970D02*
X6685D01*
X6475Y5240D02*
Y5375D01*
X6685Y5240D02*
Y5375D01*
X6475D02*
X6685D01*
X6475Y5240D02*
X6685D01*
X3115Y4783D02*
Y4917D01*
X2905Y4783D02*
Y4917D01*
Y4783D02*
X3115D01*
X2905Y4917D02*
X3115D01*
X3115Y5042D02*
Y5178D01*
X2905Y5042D02*
Y5178D01*
Y5042D02*
X3115D01*
X2905Y5178D02*
X3115D01*
X4650Y5350D02*
X5350D01*
X4650Y4650D02*
X5350D01*
Y5350D01*
X4650Y4650D02*
Y5350D01*
X6982Y5080D02*
X7118D01*
X6982Y4860D02*
X7118D01*
Y5080D01*
X6982Y4860D02*
Y5080D01*
X6928Y4865D02*
Y5075D01*
X6793Y4865D02*
Y5075D01*
X6928D01*
X6793Y4865D02*
X6928D01*
X6903Y5433D02*
Y6449D01*
X7157Y5433D02*
Y6449D01*
X6903Y5433D02*
X7157D01*
X6903Y6449D02*
X7157D01*
X7213Y5433D02*
Y6449D01*
X7467Y5433D02*
Y6449D01*
X7213Y5433D02*
X7467D01*
X7213Y6449D02*
X7467D01*
X5279Y7223D02*
X6295D01*
X5279Y7477D02*
X6295D01*
Y7223D02*
Y7477D01*
X5279Y7223D02*
Y7477D01*
X7213Y5032D02*
X7467D01*
X7213Y3508D02*
X7467D01*
Y5032D01*
X7213Y3508D02*
Y5032D01*
X3325Y3240D02*
Y3540D01*
X3495Y3240D02*
Y3540D01*
X3325D02*
X3495D01*
X3325Y3240D02*
X3495D01*
X3515Y3612D02*
Y3747D01*
X3305Y3612D02*
Y3747D01*
Y3612D02*
X3515D01*
X3305Y3747D02*
X3515D01*
X3338Y3002D02*
Y3138D01*
X3558Y3002D02*
Y3138D01*
X3338D02*
X3558D01*
X3338Y3002D02*
X3558D01*
Y2812D02*
Y2948D01*
X3338Y2812D02*
Y2948D01*
Y2812D02*
X3558D01*
X3338Y2948D02*
X3558D01*
X5247Y2515D02*
Y3150D01*
X4753Y2515D02*
X5247D01*
X4753D02*
Y3150D01*
X5247D01*
X5042Y3525D02*
X5178D01*
X5042Y3315D02*
X5178D01*
Y3525D01*
X5042Y3315D02*
Y3525D01*
X4978Y5797D02*
X5112D01*
X4978Y5588D02*
X5112D01*
Y5797D01*
X4978Y5588D02*
Y5797D01*
X5167D02*
X5303D01*
X5167Y5588D02*
X5303D01*
Y5797D01*
X5167Y5588D02*
Y5797D01*
X5358D02*
X5492D01*
X5358Y5588D02*
X5492D01*
Y5797D01*
X5358Y5588D02*
Y5797D01*
X5815Y5733D02*
Y5867D01*
X5605Y5733D02*
Y5867D01*
Y5733D02*
X5815D01*
X5605Y5867D02*
X5815D01*
X6493Y3185D02*
X6628D01*
X6493Y3395D02*
X6628D01*
X6493Y3185D02*
Y3395D01*
X6628Y3185D02*
Y3395D01*
X6453Y6743D02*
Y6878D01*
X6662Y6743D02*
Y6878D01*
X6453D02*
X6662D01*
X6453Y6743D02*
X6662D01*
X5672Y6403D02*
X5808D01*
X5672Y6622D02*
X5808D01*
X5672Y6403D02*
Y6622D01*
X5808Y6403D02*
Y6622D01*
X4835Y5803D02*
Y5938D01*
X4625Y5803D02*
Y5938D01*
Y5803D02*
X4835D01*
X4625Y5938D02*
X4835D01*
X6110Y6072D02*
Y6208D01*
X5890Y6072D02*
Y6208D01*
Y6072D02*
X6110D01*
X5890Y6208D02*
X6110D01*
X4865Y6512D02*
Y6647D01*
X4655Y6512D02*
Y6647D01*
Y6512D02*
X4865D01*
X4655Y6647D02*
X4865D01*
X5075Y6512D02*
Y6647D01*
X5285Y6512D02*
Y6647D01*
X5075D02*
X5285D01*
X5075Y6512D02*
X5285D01*
X6475Y5430D02*
Y5565D01*
X6685Y5430D02*
Y5565D01*
X6475D02*
X6685D01*
X6475Y5430D02*
X6685D01*
X5679Y3054D02*
X6441D01*
Y2546D02*
Y3054D01*
X5679Y2546D02*
X6441D01*
X5679D02*
Y3054D01*
X5742Y3395D02*
X5878D01*
X5742Y3185D02*
X5878D01*
Y3395D01*
X5742Y3185D02*
Y3395D01*
X6242D02*
X6378D01*
X6242Y3185D02*
X6378D01*
Y3395D01*
X6242Y3185D02*
Y3395D01*
X6115Y6993D02*
Y7128D01*
X5905Y6993D02*
Y7128D01*
Y6993D02*
X6115D01*
X5905Y7128D02*
X6115D01*
X5465Y6993D02*
Y7128D01*
X5675Y6993D02*
Y7128D01*
X5465D02*
X5675D01*
X5465Y6993D02*
X5675D01*
X3115Y5553D02*
Y5688D01*
X2905Y5553D02*
Y5688D01*
Y5553D02*
X3115D01*
X2905Y5688D02*
X3115D01*
Y5303D02*
Y5438D01*
X2905Y5303D02*
Y5438D01*
Y5303D02*
X3115D01*
X2905Y5438D02*
X3115D01*
M02*
