G04*
G04 #@! TF.GenerationSoftware,Altium Limited,Altium Designer,21.7.1 (17)*
G04*
G04 Layer_Color=8388736*
%FSLAX42Y42*%
%MOMM*%
G71*
G04*
G04 #@! TF.SameCoordinates,023FFD1A-8B7E-49EE-8FAD-F7FEFAD85E63*
G04*
G04*
G04 #@! TF.FilePolarity,Negative*
G04*
G01*
G75*
%ADD18R,1.96X0.42*%
G04:AMPARAMS|DCode=19|XSize=1.96mm|YSize=0.42mm|CornerRadius=0.21mm|HoleSize=0mm|Usage=FLASHONLY|Rotation=0.000|XOffset=0mm|YOffset=0mm|HoleType=Round|Shape=RoundedRectangle|*
%AMROUNDEDRECTD19*
21,1,1.96,0.00,0,0,0.0*
21,1,1.53,0.42,0,0,0.0*
1,1,0.42,0.77,0.00*
1,1,0.42,-0.77,0.00*
1,1,0.42,-0.77,0.00*
1,1,0.42,0.77,0.00*
%
%ADD19ROUNDEDRECTD19*%
%ADD27R,0.30X0.45*%
%ADD28R,0.45X0.30*%
%ADD30R,0.50X0.35*%
%ADD32R,0.91X1.22*%
%ADD34R,0.65X0.85*%
%ADD36R,1.22X0.91*%
%ADD40R,1.56X1.55*%
%ADD42R,1.00X1.80*%
%ADD43R,1.35X1.46*%
%ADD44R,0.60X1.55*%
%ADD45R,1.55X1.20*%
%ADD46R,1.20X1.55*%
%ADD47R,1.60X1.45*%
%ADD48R,1.00X1.00*%
%ADD49R,1.00X0.55*%
%ADD50R,0.55X1.05*%
%ADD51R,2.90X2.80*%
%ADD52R,1.45X1.60*%
%ADD53R,1.55X1.35*%
%ADD54R,3.40X3.30*%
%ADD55R,1.40X1.30*%
%ADD56R,2.20X3.20*%
%ADD57O,0.50X1.40*%
%ADD58O,1.40X0.50*%
%ADD59R,1.20X0.80*%
%ADD60R,1.35X1.55*%
%ADD61C,5.28*%
%ADD62O,1.55X2.20*%
%ADD63O,1.25X1.45*%
%ADD64C,1.80*%
%ADD65R,1.80X1.80*%
%ADD66R,1.40X1.40*%
%ADD67C,1.40*%
%ADD68R,1.80X1.80*%
%ADD69C,1.75*%
%ADD70R,1.75X1.75*%
%ADD71R,1.85X1.85*%
%ADD72C,1.85*%
%ADD73C,0.81*%
%ADD74C,0.56*%
%ADD75C,0.60*%
%ADD76C,1.00*%
%ADD77C,0.70*%
D18*
X6012Y6587D02*
D03*
D19*
Y6522D02*
D03*
Y6457D02*
D03*
Y6392D02*
D03*
X6588D02*
D03*
Y6457D02*
D03*
Y6522D02*
D03*
Y6587D02*
D03*
D27*
X3440Y6468D02*
D03*
X3390D02*
D03*
X3340D02*
D03*
X3290D02*
D03*
Y6213D02*
D03*
X3340D02*
D03*
X3390D02*
D03*
X3440D02*
D03*
D28*
X3238Y6415D02*
D03*
Y6365D02*
D03*
Y6315D02*
D03*
Y6265D02*
D03*
X3492D02*
D03*
Y6315D02*
D03*
Y6365D02*
D03*
Y6415D02*
D03*
D30*
X6100Y4778D02*
D03*
Y4842D02*
D03*
Y4908D02*
D03*
Y4972D02*
D03*
X6260D02*
D03*
Y4908D02*
D03*
Y4842D02*
D03*
Y4778D02*
D03*
D32*
X3814Y3900D02*
D03*
X3486D02*
D03*
D34*
X5297Y4083D02*
D03*
X5383D02*
D03*
X5297Y3938D02*
D03*
X5383D02*
D03*
D36*
X4880Y3256D02*
D03*
Y3584D02*
D03*
D40*
X3980Y3332D02*
D03*
Y3508D02*
D03*
D42*
X4240Y3660D02*
D03*
X4520D02*
D03*
D43*
X5630Y5590D02*
D03*
X5785D02*
D03*
D44*
X4240Y2967D02*
D03*
X4175D02*
D03*
X4110D02*
D03*
X4045D02*
D03*
X3980D02*
D03*
D45*
X6060Y3200D02*
D03*
Y3380D02*
D03*
X5458Y2990D02*
D03*
Y3170D02*
D03*
X5110Y3510D02*
D03*
Y3330D02*
D03*
X5810Y3380D02*
D03*
Y3200D02*
D03*
X6310Y3380D02*
D03*
Y3200D02*
D03*
D46*
X4340Y7060D02*
D03*
X4520D02*
D03*
X4100Y7060D02*
D03*
X3920D02*
D03*
X2730Y6420D02*
D03*
X2910D02*
D03*
X2730Y6610D02*
D03*
X2910D02*
D03*
X3100Y5620D02*
D03*
Y5370D02*
D03*
X3100Y5110D02*
D03*
X3100Y4850D02*
D03*
X6890Y4650D02*
D03*
X7070D02*
D03*
X6890Y3890D02*
D03*
X7070D02*
D03*
X6890Y4140D02*
D03*
X7070D02*
D03*
X6890Y4400D02*
D03*
X7070D02*
D03*
X6490Y5847D02*
D03*
X6670D02*
D03*
X6490Y6038D02*
D03*
X6670D02*
D03*
X6490Y5307D02*
D03*
X6670D02*
D03*
X2920Y4850D02*
D03*
X2920Y5110D02*
D03*
X4820Y5870D02*
D03*
X4640D02*
D03*
X6490Y5497D02*
D03*
X6670D02*
D03*
X6100Y7060D02*
D03*
X5920D02*
D03*
X5480D02*
D03*
X5660D02*
D03*
X2920Y5620D02*
D03*
Y5370D02*
D03*
D47*
X3740Y3358D02*
D03*
Y3522D02*
D03*
X2970Y6092D02*
D03*
Y5928D02*
D03*
X6450Y4958D02*
D03*
Y4792D02*
D03*
X3985Y5907D02*
D03*
Y5742D02*
D03*
X3460Y5308D02*
D03*
Y5472D02*
D03*
X4400Y4238D02*
D03*
Y4072D02*
D03*
X4210Y4238D02*
D03*
Y4072D02*
D03*
X5560Y4092D02*
D03*
Y3928D02*
D03*
X5045Y5775D02*
D03*
Y5610D02*
D03*
X5235Y5775D02*
D03*
Y5610D02*
D03*
X5425Y5775D02*
D03*
Y5610D02*
D03*
X6560Y3208D02*
D03*
Y3372D02*
D03*
D48*
X4500Y3255D02*
D03*
Y3445D02*
D03*
X4260Y3350D02*
D03*
D49*
X4035Y5260D02*
D03*
Y5310D02*
D03*
Y5360D02*
D03*
Y5410D02*
D03*
Y5460D02*
D03*
Y5510D02*
D03*
X3635Y5260D02*
D03*
Y5310D02*
D03*
Y5360D02*
D03*
Y5410D02*
D03*
Y5460D02*
D03*
Y5510D02*
D03*
D50*
X3960Y5583D02*
D03*
X3910D02*
D03*
X3860D02*
D03*
X3810D02*
D03*
X3760D02*
D03*
X3710D02*
D03*
X3960Y5188D02*
D03*
X3910D02*
D03*
X3860D02*
D03*
X3810D02*
D03*
X3760D02*
D03*
X3710D02*
D03*
D51*
X3835Y5385D02*
D03*
D52*
X3680Y6240D02*
D03*
X3845D02*
D03*
X3370Y6670D02*
D03*
X3205D02*
D03*
X3188Y5930D02*
D03*
X3353D02*
D03*
X6262Y4583D02*
D03*
X6097D02*
D03*
X3278Y5680D02*
D03*
X3442D02*
D03*
X3547Y5930D02*
D03*
X3712D02*
D03*
X3492Y3680D02*
D03*
X3328D02*
D03*
X5792Y5800D02*
D03*
X5628D02*
D03*
X6475Y6810D02*
D03*
X6640D02*
D03*
X4842Y6580D02*
D03*
X4678D02*
D03*
X5097D02*
D03*
X5262D02*
D03*
D53*
X2950Y3662D02*
D03*
Y3838D02*
D03*
X2760Y4000D02*
D03*
Y4175D02*
D03*
Y3662D02*
D03*
Y3838D02*
D03*
X6470Y7053D02*
D03*
Y7228D02*
D03*
X5100Y7053D02*
D03*
Y7228D02*
D03*
X5060Y3933D02*
D03*
Y4108D02*
D03*
X4870Y3933D02*
D03*
Y4108D02*
D03*
X4680Y3933D02*
D03*
Y4108D02*
D03*
X7050Y5058D02*
D03*
Y4883D02*
D03*
X5740Y6425D02*
D03*
Y6600D02*
D03*
D54*
X3910Y4400D02*
D03*
X3370D02*
D03*
D55*
X5458Y3530D02*
D03*
Y3320D02*
D03*
X6860Y5075D02*
D03*
Y4865D02*
D03*
D56*
X6060Y3740D02*
D03*
X6560D02*
D03*
D57*
X5275Y5425D02*
D03*
X5225D02*
D03*
X5175D02*
D03*
X5125D02*
D03*
X5075D02*
D03*
X5025D02*
D03*
X4975D02*
D03*
X4925D02*
D03*
X4875D02*
D03*
X4825D02*
D03*
X4775D02*
D03*
X4725D02*
D03*
Y4575D02*
D03*
X4775D02*
D03*
X4825D02*
D03*
X4875D02*
D03*
X4925D02*
D03*
X4975D02*
D03*
X5025D02*
D03*
X5075D02*
D03*
X5125D02*
D03*
X5175D02*
D03*
X5225D02*
D03*
X5275D02*
D03*
D58*
X4575Y5275D02*
D03*
Y5225D02*
D03*
Y5175D02*
D03*
Y5125D02*
D03*
Y5075D02*
D03*
Y5025D02*
D03*
Y4975D02*
D03*
Y4925D02*
D03*
Y4875D02*
D03*
Y4825D02*
D03*
Y4775D02*
D03*
Y4725D02*
D03*
X5425D02*
D03*
Y4775D02*
D03*
Y4825D02*
D03*
Y4875D02*
D03*
Y4925D02*
D03*
Y4975D02*
D03*
Y5025D02*
D03*
Y5075D02*
D03*
Y5125D02*
D03*
Y5175D02*
D03*
Y5225D02*
D03*
Y5275D02*
D03*
D59*
X3275Y3485D02*
D03*
Y3390D02*
D03*
Y3295D02*
D03*
X3545D02*
D03*
Y3390D02*
D03*
Y3485D02*
D03*
D60*
X3360Y3070D02*
D03*
X3535D02*
D03*
Y2880D02*
D03*
X3360D02*
D03*
X6088Y6140D02*
D03*
X5912D02*
D03*
D61*
X2870Y7130D02*
D03*
X7130D02*
D03*
Y2870D02*
D03*
X2870D02*
D03*
D62*
X4461Y2700D02*
D03*
X3759D02*
D03*
D63*
X4353Y3000D02*
D03*
X3867D02*
D03*
D64*
X4344Y7350D02*
D03*
X4090D02*
D03*
X3836D02*
D03*
X2650Y5113D02*
D03*
Y5621D02*
D03*
Y5367D02*
D03*
Y4859D02*
D03*
Y4605D02*
D03*
X7030Y6322D02*
D03*
Y6068D02*
D03*
Y5814D02*
D03*
X7340Y6322D02*
D03*
Y6068D02*
D03*
Y5814D02*
D03*
X5406Y7350D02*
D03*
X5660D02*
D03*
X5914D02*
D03*
X7340Y4397D02*
D03*
Y3889D02*
D03*
Y4143D02*
D03*
Y4651D02*
D03*
Y4905D02*
D03*
D65*
X4598Y7350D02*
D03*
X6168D02*
D03*
D66*
X5214Y6220D02*
D03*
D67*
X4726D02*
D03*
D68*
X2650Y5875D02*
D03*
X7030Y5560D02*
D03*
X7340D02*
D03*
Y3635D02*
D03*
D69*
X5127Y2840D02*
D03*
D70*
X4873D02*
D03*
D71*
X5806Y2673D02*
D03*
D72*
Y2927D02*
D03*
X6060Y2673D02*
D03*
X6314D02*
D03*
X6060Y2927D02*
D03*
X6314D02*
D03*
D73*
X5710Y3930D02*
D03*
X5460Y3530D02*
D03*
X3547Y5930D02*
D03*
X5912Y6140D02*
D03*
X7210Y6420D02*
D03*
X6900D02*
D03*
X7210Y6180D02*
D03*
X6900Y5940D02*
D03*
Y6180D02*
D03*
X7210Y4760D02*
D03*
Y4530D02*
D03*
Y4270D02*
D03*
Y4010D02*
D03*
Y3800D02*
D03*
X6450Y3060D02*
D03*
X6190D02*
D03*
X5930D02*
D03*
X5680D02*
D03*
X2790Y4750D02*
D03*
Y4990D02*
D03*
Y5240D02*
D03*
Y5500D02*
D03*
Y5710D02*
D03*
X3990Y7220D02*
D03*
X4440D02*
D03*
X4210D02*
D03*
X5790D02*
D03*
X6010D02*
D03*
X5560D02*
D03*
X6640Y6810D02*
D03*
X6475D02*
D03*
X5740Y6600D02*
D03*
X6470Y7228D02*
D03*
X5100D02*
D03*
X3680Y6240D02*
D03*
X3845D02*
D03*
X2730Y6610D02*
D03*
Y6420D02*
D03*
X2910Y6610D02*
D03*
Y6420D02*
D03*
X2970Y6092D02*
D03*
Y5928D02*
D03*
X3342Y5472D02*
D03*
X2760Y4175D02*
D03*
X2950Y3838D02*
D03*
X3535Y2880D02*
D03*
X5458Y2990D02*
D03*
X6453Y4790D02*
D03*
X6450Y4958D02*
D03*
X6860Y5075D02*
D03*
X7053Y5060D02*
D03*
X6060Y3650D02*
D03*
X6060Y3740D02*
D03*
X6060Y3830D02*
D03*
X5110Y3510D02*
D03*
X6210Y6440D02*
D03*
X4890Y6920D02*
D03*
Y7080D02*
D03*
X4730Y6920D02*
D03*
Y7080D02*
D03*
X4840Y7400D02*
D03*
X7340Y3350D02*
D03*
X3535Y2640D02*
D03*
X3375D02*
D03*
X3215D02*
D03*
X4400Y4238D02*
D03*
X4210D02*
D03*
X6010Y5750D02*
D03*
Y5910D02*
D03*
X3570Y6680D02*
D03*
X3700Y6599D02*
D03*
Y6410D02*
D03*
X4220Y5470D02*
D03*
X6672Y3208D02*
D03*
X5380Y4440D02*
D03*
X7350Y5240D02*
D03*
X6860Y3350D02*
D03*
Y3510D02*
D03*
X7020D02*
D03*
X7340Y6670D02*
D03*
X7180D02*
D03*
X7020D02*
D03*
X5930Y4700D02*
D03*
X5630Y3520D02*
D03*
Y3310D02*
D03*
X6620Y2990D02*
D03*
X7020Y3350D02*
D03*
X7180D02*
D03*
X6620Y2670D02*
D03*
X5460D02*
D03*
X4149Y5260D02*
D03*
X5560Y4092D02*
D03*
Y3928D02*
D03*
X6097Y4583D02*
D03*
X6262D02*
D03*
X6780Y6640D02*
D03*
X4975Y5315D02*
D03*
X6010Y6340D02*
D03*
X6410Y7390D02*
D03*
X6570D02*
D03*
X6730D02*
D03*
X4842Y6472D02*
D03*
X4970Y6540D02*
D03*
Y6620D02*
D03*
X5097Y6472D02*
D03*
X4570Y6760D02*
D03*
X4410Y6280D02*
D03*
Y6440D02*
D03*
Y6760D02*
D03*
X5530Y6440D02*
D03*
Y5960D02*
D03*
Y6280D02*
D03*
Y6760D02*
D03*
Y6120D02*
D03*
X5370Y6760D02*
D03*
X5530Y6600D02*
D03*
X5370Y5960D02*
D03*
X5210D02*
D03*
X4410Y6120D02*
D03*
X5210Y6760D02*
D03*
X4410Y5960D02*
D03*
X5050Y6760D02*
D03*
X4890D02*
D03*
X3240Y7400D02*
D03*
X3400D02*
D03*
X3560D02*
D03*
X4410Y6600D02*
D03*
X5160Y7400D02*
D03*
X5000D02*
D03*
X3360Y6800D02*
D03*
X2670Y3270D02*
D03*
X2960Y3390D02*
D03*
X3300Y3900D02*
D03*
X3090Y4040D02*
D03*
Y4200D02*
D03*
Y4360D02*
D03*
X2930D02*
D03*
X3090Y4520D02*
D03*
X2930D02*
D03*
X3090Y4680D02*
D03*
X2930D02*
D03*
X4330Y3210D02*
D03*
X4240D02*
D03*
X4730Y5690D02*
D03*
X3400Y7080D02*
D03*
X4420Y5370D02*
D03*
X4730Y6760D02*
D03*
X4080Y6080D02*
D03*
Y6240D02*
D03*
X3120Y3390D02*
D03*
Y3300D02*
D03*
X3410Y3460D02*
D03*
Y3320D02*
D03*
X3120Y3480D02*
D03*
X3820Y3810D02*
D03*
Y3990D02*
D03*
X4110Y4070D02*
D03*
X4210Y3890D02*
D03*
X4400D02*
D03*
X3740Y3610D02*
D03*
X3900Y3900D02*
D03*
X4400Y3980D02*
D03*
X4210D02*
D03*
X3640Y4260D02*
D03*
Y4540D02*
D03*
Y4400D02*
D03*
X3790Y4520D02*
D03*
X3950Y4440D02*
D03*
X3790Y4360D02*
D03*
Y4280D02*
D03*
X4030Y4440D02*
D03*
X3870D02*
D03*
Y4280D02*
D03*
X3950D02*
D03*
X3870Y4520D02*
D03*
X4030Y4280D02*
D03*
X3950Y4520D02*
D03*
X3790Y4440D02*
D03*
X4030Y4520D02*
D03*
X3950Y4360D02*
D03*
X4030D02*
D03*
X3870D02*
D03*
X4300Y5370D02*
D03*
X4110Y5060D02*
D03*
X4088Y5742D02*
D03*
X4083Y5907D02*
D03*
X3700Y7150D02*
D03*
Y6990D02*
D03*
Y6830D02*
D03*
X3120Y6800D02*
D03*
X3210D02*
D03*
X3450D02*
D03*
X3278Y5680D02*
D03*
X3822Y5752D02*
D03*
X3620Y5750D02*
D03*
X3342Y5308D02*
D03*
X5180Y4250D02*
D03*
X3620Y5620D02*
D03*
X5070Y5130D02*
D03*
X4820Y5290D02*
D03*
X5210Y5130D02*
D03*
X5130Y4920D02*
D03*
X5260Y4970D02*
D03*
X3610Y5060D02*
D03*
X3860Y6830D02*
D03*
X4050Y6710D02*
D03*
X3400Y7240D02*
D03*
X3240D02*
D03*
X3560D02*
D03*
X3240Y6120D02*
D03*
X3340D02*
D03*
X3360Y6340D02*
D03*
X3440Y5680D02*
D03*
X3300Y4680D02*
D03*
X3470D02*
D03*
X3640D02*
D03*
X3980D02*
D03*
X3810D02*
D03*
X4230Y4450D02*
D03*
X5840Y4610D02*
D03*
X5660D02*
D03*
X6780Y6520D02*
D03*
X4970Y4920D02*
D03*
X4870Y4840D02*
D03*
X4240Y3130D02*
D03*
X4420Y5230D02*
D03*
Y5070D02*
D03*
X4780Y4750D02*
D03*
X5480Y4610D02*
D03*
X5530Y4440D02*
D03*
X5640Y4829D02*
D03*
X5800Y4900D02*
D03*
X6070Y5280D02*
D03*
Y5400D02*
D03*
X6170Y6280D02*
D03*
D74*
X3020Y6980D02*
D03*
X2660Y7130D02*
D03*
X2870Y7340D02*
D03*
Y6920D02*
D03*
X3080Y7130D02*
D03*
X3020Y7280D02*
D03*
X2720Y6980D02*
D03*
X7280D02*
D03*
X6920Y7130D02*
D03*
X7130Y7340D02*
D03*
Y6920D02*
D03*
X7340Y7130D02*
D03*
X7280Y7280D02*
D03*
X6980Y6980D02*
D03*
X7280Y2720D02*
D03*
X6920Y2870D02*
D03*
X7130Y3080D02*
D03*
Y2660D02*
D03*
X7340Y2870D02*
D03*
X7280Y3020D02*
D03*
X6980Y2720D02*
D03*
X3020D02*
D03*
X2660Y2870D02*
D03*
X2870Y3080D02*
D03*
Y2660D02*
D03*
X3080Y2870D02*
D03*
X3020Y3020D02*
D03*
X2720Y2720D02*
D03*
D75*
Y7280D02*
D03*
X6980D02*
D03*
Y3020D02*
D03*
X2720D02*
D03*
D76*
X5785Y5590D02*
D03*
X5792Y5800D02*
D03*
X5425Y5775D02*
D03*
X5235D02*
D03*
X5045D02*
D03*
D77*
X3890Y5440D02*
D03*
X3780D02*
D03*
Y5330D02*
D03*
X3890D02*
D03*
M02*
