G04*
G04 #@! TF.GenerationSoftware,Altium Limited,Altium Designer,21.7.1 (17)*
G04*
G04 Layer_Color=16711935*
%FSLAX42Y42*%
%MOMM*%
G71*
G04*
G04 #@! TF.SameCoordinates,023FFD1A-8B7E-49EE-8FAD-F7FEFAD85E63*
G04*
G04*
G04 #@! TF.FilePolarity,Negative*
G04*
G01*
G75*
%ADD61C,5.28*%
%ADD62O,1.55X2.20*%
%ADD63O,1.25X1.45*%
%ADD64C,1.80*%
%ADD65R,1.80X1.80*%
%ADD66R,1.40X1.40*%
%ADD67C,1.40*%
%ADD68R,1.80X1.80*%
%ADD69C,1.75*%
%ADD70R,1.75X1.75*%
%ADD71R,1.85X1.85*%
%ADD72C,1.85*%
%ADD73C,0.81*%
%ADD74C,0.56*%
%ADD75C,0.60*%
%ADD76C,1.00*%
%ADD77C,0.70*%
D61*
X2870Y7130D02*
D03*
X7130D02*
D03*
Y2870D02*
D03*
X2870D02*
D03*
D62*
X4461Y2700D02*
D03*
X3759D02*
D03*
D63*
X4353Y3000D02*
D03*
X3867D02*
D03*
D64*
X4344Y7350D02*
D03*
X4090D02*
D03*
X3836D02*
D03*
X2650Y5113D02*
D03*
Y5621D02*
D03*
Y5367D02*
D03*
Y4859D02*
D03*
Y4605D02*
D03*
X7030Y6322D02*
D03*
Y6068D02*
D03*
Y5814D02*
D03*
X7340Y6322D02*
D03*
Y6068D02*
D03*
Y5814D02*
D03*
X5406Y7350D02*
D03*
X5660D02*
D03*
X5914D02*
D03*
X7340Y4397D02*
D03*
Y3889D02*
D03*
Y4143D02*
D03*
Y4651D02*
D03*
Y4905D02*
D03*
D65*
X4598Y7350D02*
D03*
X6168D02*
D03*
D66*
X5214Y6220D02*
D03*
D67*
X4726D02*
D03*
D68*
X2650Y5875D02*
D03*
X7030Y5560D02*
D03*
X7340D02*
D03*
Y3635D02*
D03*
D69*
X5127Y2840D02*
D03*
D70*
X4873D02*
D03*
D71*
X5806Y2673D02*
D03*
D72*
Y2927D02*
D03*
X6060Y2673D02*
D03*
X6314D02*
D03*
X6060Y2927D02*
D03*
X6314D02*
D03*
D73*
X5710Y3930D02*
D03*
X5460Y3530D02*
D03*
X3547Y5930D02*
D03*
X5912Y6140D02*
D03*
X7210Y6420D02*
D03*
X6900D02*
D03*
X7210Y6180D02*
D03*
X6900Y5940D02*
D03*
Y6180D02*
D03*
X7210Y4760D02*
D03*
Y4530D02*
D03*
Y4270D02*
D03*
Y4010D02*
D03*
Y3800D02*
D03*
X6450Y3060D02*
D03*
X6190D02*
D03*
X5930D02*
D03*
X5680D02*
D03*
X2790Y4750D02*
D03*
Y4990D02*
D03*
Y5240D02*
D03*
Y5500D02*
D03*
Y5710D02*
D03*
X3990Y7220D02*
D03*
X4440D02*
D03*
X4210D02*
D03*
X5790D02*
D03*
X6010D02*
D03*
X5560D02*
D03*
X6640Y6810D02*
D03*
X6475D02*
D03*
X5740Y6600D02*
D03*
X6470Y7228D02*
D03*
X5100D02*
D03*
X3680Y6240D02*
D03*
X3845D02*
D03*
X2730Y6610D02*
D03*
Y6420D02*
D03*
X2910Y6610D02*
D03*
Y6420D02*
D03*
X2970Y6092D02*
D03*
Y5928D02*
D03*
X3342Y5472D02*
D03*
X2760Y4175D02*
D03*
X2950Y3838D02*
D03*
X3535Y2880D02*
D03*
X5458Y2990D02*
D03*
X6453Y4790D02*
D03*
X6450Y4958D02*
D03*
X6860Y5075D02*
D03*
X7053Y5060D02*
D03*
X6060Y3650D02*
D03*
X6060Y3740D02*
D03*
X6060Y3830D02*
D03*
X5110Y3510D02*
D03*
X6210Y6440D02*
D03*
X4890Y6920D02*
D03*
Y7080D02*
D03*
X4730Y6920D02*
D03*
Y7080D02*
D03*
X4840Y7400D02*
D03*
X7340Y3350D02*
D03*
X3535Y2640D02*
D03*
X3375D02*
D03*
X3215D02*
D03*
X4400Y4238D02*
D03*
X4210D02*
D03*
X6010Y5750D02*
D03*
Y5910D02*
D03*
X3570Y6680D02*
D03*
X3700Y6599D02*
D03*
Y6410D02*
D03*
X4220Y5470D02*
D03*
X6672Y3208D02*
D03*
X5380Y4440D02*
D03*
X7350Y5240D02*
D03*
X6860Y3350D02*
D03*
Y3510D02*
D03*
X7020D02*
D03*
X7340Y6670D02*
D03*
X7180D02*
D03*
X7020D02*
D03*
X5930Y4700D02*
D03*
X5630Y3520D02*
D03*
Y3310D02*
D03*
X6620Y2990D02*
D03*
X7020Y3350D02*
D03*
X7180D02*
D03*
X6620Y2670D02*
D03*
X5460D02*
D03*
X4149Y5260D02*
D03*
X5560Y4092D02*
D03*
Y3928D02*
D03*
X6097Y4583D02*
D03*
X6262D02*
D03*
X6780Y6640D02*
D03*
X4975Y5315D02*
D03*
X6010Y6340D02*
D03*
X6410Y7390D02*
D03*
X6570D02*
D03*
X6730D02*
D03*
X4842Y6472D02*
D03*
X4970Y6540D02*
D03*
Y6620D02*
D03*
X5097Y6472D02*
D03*
X4570Y6760D02*
D03*
X4410Y6280D02*
D03*
Y6440D02*
D03*
Y6760D02*
D03*
X5530Y6440D02*
D03*
Y5960D02*
D03*
Y6280D02*
D03*
Y6760D02*
D03*
Y6120D02*
D03*
X5370Y6760D02*
D03*
X5530Y6600D02*
D03*
X5370Y5960D02*
D03*
X5210D02*
D03*
X4410Y6120D02*
D03*
X5210Y6760D02*
D03*
X4410Y5960D02*
D03*
X5050Y6760D02*
D03*
X4890D02*
D03*
X3240Y7400D02*
D03*
X3400D02*
D03*
X3560D02*
D03*
X4410Y6600D02*
D03*
X5160Y7400D02*
D03*
X5000D02*
D03*
X3360Y6800D02*
D03*
X2670Y3270D02*
D03*
X2960Y3390D02*
D03*
X3300Y3900D02*
D03*
X3090Y4040D02*
D03*
Y4200D02*
D03*
Y4360D02*
D03*
X2930D02*
D03*
X3090Y4520D02*
D03*
X2930D02*
D03*
X3090Y4680D02*
D03*
X2930D02*
D03*
X4330Y3210D02*
D03*
X4240D02*
D03*
X4730Y5690D02*
D03*
X3400Y7080D02*
D03*
X4420Y5370D02*
D03*
X4730Y6760D02*
D03*
X4080Y6080D02*
D03*
Y6240D02*
D03*
X3120Y3390D02*
D03*
Y3300D02*
D03*
X3410Y3460D02*
D03*
Y3320D02*
D03*
X3120Y3480D02*
D03*
X3820Y3810D02*
D03*
Y3990D02*
D03*
X4110Y4070D02*
D03*
X4210Y3890D02*
D03*
X4400D02*
D03*
X3740Y3610D02*
D03*
X3900Y3900D02*
D03*
X4400Y3980D02*
D03*
X4210D02*
D03*
X3640Y4260D02*
D03*
Y4540D02*
D03*
Y4400D02*
D03*
X3790Y4520D02*
D03*
X3950Y4440D02*
D03*
X3790Y4360D02*
D03*
Y4280D02*
D03*
X4030Y4440D02*
D03*
X3870D02*
D03*
Y4280D02*
D03*
X3950D02*
D03*
X3870Y4520D02*
D03*
X4030Y4280D02*
D03*
X3950Y4520D02*
D03*
X3790Y4440D02*
D03*
X4030Y4520D02*
D03*
X3950Y4360D02*
D03*
X4030D02*
D03*
X3870D02*
D03*
X4300Y5370D02*
D03*
X4110Y5060D02*
D03*
X4088Y5742D02*
D03*
X4083Y5907D02*
D03*
X3700Y7150D02*
D03*
Y6990D02*
D03*
Y6830D02*
D03*
X3120Y6800D02*
D03*
X3210D02*
D03*
X3450D02*
D03*
X3278Y5680D02*
D03*
X3822Y5752D02*
D03*
X3620Y5750D02*
D03*
X3342Y5308D02*
D03*
X5180Y4250D02*
D03*
X3620Y5620D02*
D03*
X5070Y5130D02*
D03*
X4820Y5290D02*
D03*
X5210Y5130D02*
D03*
X5130Y4920D02*
D03*
X5260Y4970D02*
D03*
X3610Y5060D02*
D03*
X3860Y6830D02*
D03*
X4050Y6710D02*
D03*
X3400Y7240D02*
D03*
X3240D02*
D03*
X3560D02*
D03*
X3240Y6120D02*
D03*
X3340D02*
D03*
X3360Y6340D02*
D03*
X3440Y5680D02*
D03*
X3300Y4680D02*
D03*
X3470D02*
D03*
X3640D02*
D03*
X3980D02*
D03*
X3810D02*
D03*
X4230Y4450D02*
D03*
X5840Y4610D02*
D03*
X5660D02*
D03*
X6780Y6520D02*
D03*
X4970Y4920D02*
D03*
X4870Y4840D02*
D03*
X4240Y3130D02*
D03*
X4420Y5230D02*
D03*
Y5070D02*
D03*
X4780Y4750D02*
D03*
X5480Y4610D02*
D03*
X5530Y4440D02*
D03*
X5640Y4829D02*
D03*
X5800Y4900D02*
D03*
X6070Y5280D02*
D03*
Y5400D02*
D03*
X6170Y6280D02*
D03*
D74*
X3020Y6980D02*
D03*
X2660Y7130D02*
D03*
X2870Y7340D02*
D03*
Y6920D02*
D03*
X3080Y7130D02*
D03*
X3020Y7280D02*
D03*
X2720Y6980D02*
D03*
X7280D02*
D03*
X6920Y7130D02*
D03*
X7130Y7340D02*
D03*
Y6920D02*
D03*
X7340Y7130D02*
D03*
X7280Y7280D02*
D03*
X6980Y6980D02*
D03*
X7280Y2720D02*
D03*
X6920Y2870D02*
D03*
X7130Y3080D02*
D03*
Y2660D02*
D03*
X7340Y2870D02*
D03*
X7280Y3020D02*
D03*
X6980Y2720D02*
D03*
X3020D02*
D03*
X2660Y2870D02*
D03*
X2870Y3080D02*
D03*
Y2660D02*
D03*
X3080Y2870D02*
D03*
X3020Y3020D02*
D03*
X2720Y2720D02*
D03*
D75*
Y7280D02*
D03*
X6980D02*
D03*
Y3020D02*
D03*
X2720D02*
D03*
D76*
X5785Y5590D02*
D03*
X5792Y5800D02*
D03*
X5425Y5775D02*
D03*
X5235D02*
D03*
X5045D02*
D03*
D77*
X3890Y5440D02*
D03*
X3780D02*
D03*
Y5330D02*
D03*
X3890D02*
D03*
M02*
