G04*
G04 #@! TF.GenerationSoftware,Altium Limited,Altium Designer,21.7.1 (17)*
G04*
G04 Layer_Color=32768*
%FSLAX42Y42*%
%MOMM*%
G71*
G04*
G04 #@! TF.SameCoordinates,023FFD1A-8B7E-49EE-8FAD-F7FEFAD85E63*
G04*
G04*
G04 #@! TF.FilePolarity,Positive*
G04*
G01*
G75*
%ADD97C,0.10*%
%ADD99C,0.05*%
D97*
X4060Y2850D02*
X4160D01*
X4110Y2800D02*
Y2900D01*
X6010Y3290D02*
X6110D01*
X6060Y3240D02*
Y3340D01*
X4430Y7010D02*
Y7110D01*
X4380Y7060D02*
X4480D01*
X4010Y7010D02*
Y7110D01*
X3960Y7060D02*
X4060D01*
X3690Y3440D02*
X3790D01*
X3740Y3390D02*
Y3490D01*
X4330Y3350D02*
X4430D01*
X4380Y3300D02*
Y3400D01*
X4920Y6220D02*
X5020D01*
X4970Y6170D02*
Y6270D01*
X2820Y6370D02*
Y6470D01*
X2770Y6420D02*
X2870D01*
X2820Y6560D02*
Y6660D01*
X2770Y6610D02*
X2870D01*
X2920Y6010D02*
X3020D01*
X2970Y5960D02*
Y6060D01*
X3785Y5385D02*
X3885D01*
X3835Y5335D02*
Y5435D01*
X3762Y6190D02*
Y6290D01*
X3712Y6240D02*
X3812D01*
X3288Y6620D02*
Y6720D01*
X3238Y6670D02*
X3338D01*
X2950Y3700D02*
Y3800D01*
X2900Y3750D02*
X3000D01*
X3270Y5880D02*
Y5980D01*
X3220Y5930D02*
X3320D01*
X6180Y4533D02*
Y4633D01*
X6130Y4583D02*
X6230D01*
X6400Y4875D02*
X6500D01*
X6450Y4825D02*
Y4925D01*
X2710Y4088D02*
X2810D01*
X2760Y4038D02*
Y4138D01*
X2710Y3750D02*
X2810D01*
X2760Y3700D02*
Y3800D01*
X6470Y7090D02*
Y7190D01*
X6420Y7140D02*
X6520D01*
X5100Y7090D02*
Y7190D01*
X5050Y7140D02*
X5150D01*
X5060Y3970D02*
Y4070D01*
X5010Y4020D02*
X5110D01*
X4870Y3970D02*
Y4070D01*
X4820Y4020D02*
X4920D01*
X4680Y3970D02*
Y4070D01*
X4630Y4020D02*
X4730D01*
X3985Y5775D02*
Y5875D01*
X3935Y5825D02*
X4035D01*
X3460Y5340D02*
Y5440D01*
X3410Y5390D02*
X3510D01*
X3310Y5680D02*
X3410D01*
X3360Y5630D02*
Y5730D01*
X3580Y5930D02*
X3680D01*
X3630Y5880D02*
Y5980D01*
X4400Y4105D02*
Y4205D01*
X4350Y4155D02*
X4450D01*
X4210Y4105D02*
Y4205D01*
X4160Y4155D02*
X4260D01*
X3640Y4350D02*
Y4450D01*
X3590Y4400D02*
X3690D01*
X5458Y3030D02*
Y3130D01*
X5408Y3080D02*
X5508D01*
X5408Y3425D02*
X5508D01*
X5458Y3375D02*
Y3475D01*
X5542Y3253D02*
Y3597D01*
X5372Y3253D02*
Y3597D01*
X5542D01*
X5372Y3253D02*
X5542D01*
X5560Y3960D02*
Y4060D01*
X5510Y4010D02*
X5610D01*
X6930Y4650D02*
X7030D01*
X6980Y4600D02*
Y4700D01*
X6930Y3890D02*
X7030D01*
X6980Y3840D02*
Y3940D01*
X6930Y4140D02*
X7030D01*
X6980Y4090D02*
Y4190D01*
X6930Y4400D02*
X7030D01*
X6980Y4350D02*
Y4450D01*
X6530Y5847D02*
X6630D01*
X6580Y5797D02*
Y5897D01*
X6530Y6038D02*
X6630D01*
X6580Y5988D02*
Y6088D01*
X6530Y5307D02*
X6630D01*
X6580Y5257D02*
Y5357D01*
X2960Y4850D02*
X3060D01*
X3010Y4800D02*
Y4900D01*
X2960Y5110D02*
X3060D01*
X3010Y5060D02*
Y5160D01*
X5000Y4950D02*
Y5050D01*
X4950Y5000D02*
X5050D01*
X7050Y4920D02*
Y5020D01*
X7000Y4970D02*
X7100D01*
X6810D02*
X6910D01*
X6860Y4920D02*
Y5020D01*
X6945Y4797D02*
Y5142D01*
X6775Y4797D02*
Y5142D01*
X6945D01*
X6775Y4797D02*
X6945D01*
X3360Y3390D02*
X3460D01*
X3410Y3340D02*
Y3440D01*
X3360Y3680D02*
X3460D01*
X3410Y3630D02*
Y3730D01*
X3397Y3070D02*
X3497D01*
X3447Y3020D02*
Y3120D01*
X3397Y2880D02*
X3497D01*
X3447Y2830D02*
Y2930D01*
X5000Y2790D02*
Y2890D01*
X4950Y2840D02*
X5050D01*
X5110Y3370D02*
Y3470D01*
X5060Y3420D02*
X5160D01*
X5045Y5642D02*
Y5742D01*
X4995Y5692D02*
X5095D01*
X5235Y5642D02*
Y5742D01*
X5185Y5692D02*
X5285D01*
X5425Y5642D02*
Y5742D01*
X5375Y5692D02*
X5475D01*
X5660Y5800D02*
X5760D01*
X5710Y5750D02*
Y5850D01*
X6560Y3240D02*
Y3340D01*
X6510Y3290D02*
X6610D01*
X6507Y6810D02*
X6607D01*
X6557Y6760D02*
Y6860D01*
X5740Y6462D02*
Y6562D01*
X5690Y6512D02*
X5790D01*
X4680Y5870D02*
X4780D01*
X4730Y5820D02*
Y5920D01*
X5950Y6140D02*
X6050D01*
X6000Y6090D02*
Y6190D01*
X4710Y6580D02*
X4810D01*
X4760Y6530D02*
Y6630D01*
X5130Y6580D02*
X5230D01*
X5180Y6530D02*
Y6630D01*
X6530Y5497D02*
X6630D01*
X6580Y5447D02*
Y5547D01*
X5810Y3240D02*
Y3340D01*
X5760Y3290D02*
X5860D01*
X6310Y3240D02*
Y3340D01*
X6260Y3290D02*
X6360D01*
X5960Y7060D02*
X6060D01*
X6010Y7010D02*
Y7110D01*
X5520Y7060D02*
X5620D01*
X5570Y7010D02*
Y7110D01*
X2960Y5620D02*
X3060D01*
X3010Y5570D02*
Y5670D01*
X2960Y5370D02*
X3060D01*
X3010Y5320D02*
Y5420D01*
D99*
X5546Y6380D02*
G03*
X5455Y6462I-88J-5D01*
G01*
X5453Y5978D02*
G03*
X5546Y6060I5J88D01*
G01*
X4392D02*
G03*
X4485Y5978I88J5D01*
G01*
X4483Y6462D02*
G03*
X4392Y6380I-3J-88D01*
G01*
X3681Y3073D02*
X4539D01*
X3681Y2415D02*
X4539D01*
X3681D02*
Y3073D01*
X4539Y2415D02*
Y3073D01*
X5965Y3125D02*
Y3455D01*
X6155Y3125D02*
Y3455D01*
X5965Y3125D02*
X6155D01*
X5965Y3455D02*
X6155D01*
X4760Y7196D02*
Y7504D01*
X3674D02*
X4760D01*
X3674Y7196D02*
Y7504D01*
Y7196D02*
X4760D01*
X4217Y7300D02*
Y7400D01*
X4167Y7350D02*
X4267D01*
X4265Y7155D02*
X4595D01*
X4265Y6965D02*
X4595D01*
X4265D02*
Y7155D01*
X4595Y6965D02*
Y7155D01*
X3845Y6965D02*
X4175D01*
X3845Y7155D02*
X4175D01*
Y6965D02*
Y7155D01*
X3845Y6965D02*
Y7155D01*
X3645Y3270D02*
Y3610D01*
X3835Y3270D02*
Y3610D01*
X3645Y3270D02*
X3835D01*
X3645Y3610D02*
X3835D01*
X4550Y3185D02*
Y3515D01*
X4210Y3185D02*
Y3515D01*
Y3185D02*
X4550D01*
X4210Y3515D02*
X4550D01*
X5546Y6060D02*
Y6380D01*
X4392Y6060D02*
Y6380D01*
X4485Y6462D02*
X5455D01*
X4485Y5978D02*
X5455D01*
X2655Y6515D02*
X2985D01*
X2655Y6325D02*
X2985D01*
X2655D02*
Y6515D01*
X2985Y6325D02*
Y6515D01*
X2655Y6705D02*
X2985D01*
X2655Y6515D02*
X2985D01*
X2655D02*
Y6705D01*
X2985Y6515D02*
Y6705D01*
X3065Y5840D02*
Y6180D01*
X2875Y5840D02*
Y6180D01*
X3065D01*
X2875Y5840D02*
X3065D01*
X3585Y5135D02*
X4085D01*
X3585D02*
Y5635D01*
X4085D01*
Y5135D02*
Y5635D01*
X3592Y6335D02*
X3933D01*
X3592Y6145D02*
X3933D01*
X3592D02*
Y6335D01*
X3933Y6145D02*
Y6335D01*
X3117Y6575D02*
X3458D01*
X3117Y6765D02*
X3458D01*
Y6575D02*
Y6765D01*
X3117Y6575D02*
Y6765D01*
X2855Y3580D02*
X3045D01*
X2855Y3920D02*
X3045D01*
X2855Y3580D02*
Y3920D01*
X3045Y3580D02*
Y3920D01*
X3100Y6025D02*
X3440D01*
X3100Y5835D02*
X3440D01*
X3100D02*
Y6025D01*
X3440Y5835D02*
Y6025D01*
X6010Y4488D02*
X6350D01*
X6010Y4678D02*
X6350D01*
Y4488D02*
Y4678D01*
X6010Y4488D02*
Y4678D01*
X6545Y4705D02*
Y5045D01*
X6355Y4705D02*
Y5045D01*
X6545D01*
X6355Y4705D02*
X6545D01*
X2665Y3917D02*
Y4258D01*
X2855Y3917D02*
Y4258D01*
X2665Y3917D02*
X2855D01*
X2665Y4258D02*
X2855D01*
X2665Y3580D02*
Y3920D01*
X2855Y3580D02*
Y3920D01*
X2665Y3580D02*
X2855D01*
X2665Y3920D02*
X2855D01*
X6375Y6970D02*
X6565D01*
X6375Y7310D02*
X6565D01*
X6375Y6970D02*
Y7310D01*
X6565Y6970D02*
Y7310D01*
X5005Y6970D02*
X5195D01*
X5005Y7310D02*
X5195D01*
X5005Y6970D02*
Y7310D01*
X5195Y6970D02*
Y7310D01*
X4965Y3850D02*
X5155D01*
X4965Y4190D02*
X5155D01*
X4965Y3850D02*
Y4190D01*
X5155Y3850D02*
Y4190D01*
X4775Y3850D02*
X4965D01*
X4775Y4190D02*
X4965D01*
X4775Y3850D02*
Y4190D01*
X4965Y3850D02*
Y4190D01*
X4585Y3850D02*
X4775D01*
X4585Y4190D02*
X4775D01*
X4585Y3850D02*
Y4190D01*
X4775Y3850D02*
Y4190D01*
X3890Y5995D02*
X4080D01*
X3890Y5655D02*
X4080D01*
Y5995D01*
X3890Y5655D02*
Y5995D01*
X3365Y5220D02*
X3555D01*
X3365Y5560D02*
X3555D01*
X3365Y5220D02*
Y5560D01*
X3555Y5220D02*
Y5560D01*
X2650Y5190D02*
Y5290D01*
X2600Y5240D02*
X2700D01*
X2495Y6037D02*
X2804D01*
X2495Y4443D02*
Y6037D01*
Y4443D02*
X2804D01*
Y6037D01*
X3190Y5585D02*
Y5775D01*
X3530Y5585D02*
Y5775D01*
X3190D02*
X3530D01*
X3190Y5585D02*
X3530D01*
X3460Y5835D02*
Y6025D01*
X3800Y5835D02*
Y6025D01*
X3460D02*
X3800D01*
X3460Y5835D02*
X3800D01*
X4305Y4325D02*
X4495D01*
X4305Y3985D02*
X4495D01*
Y4325D01*
X4305Y3985D02*
Y4325D01*
X4115D02*
X4305D01*
X4115Y3985D02*
X4305D01*
Y4325D01*
X4115Y3985D02*
Y4325D01*
X3188Y4030D02*
X4092D01*
X3188Y4770D02*
X4092D01*
Y4030D02*
Y4770D01*
X3188Y4030D02*
Y4770D01*
X5362Y2915D02*
X5553D01*
X5362Y3245D02*
X5553D01*
X5362Y2915D02*
Y3245D01*
X5553Y2915D02*
Y3245D01*
X5465Y4180D02*
X5655D01*
X5465Y3840D02*
X5655D01*
Y4180D01*
X5465Y3840D02*
Y4180D01*
X6815Y4555D02*
Y4745D01*
X7145Y4555D02*
Y4745D01*
X6815D02*
X7145D01*
X6815Y4555D02*
X7145D01*
X6815Y3795D02*
Y3985D01*
X7145Y3795D02*
Y3985D01*
X6815D02*
X7145D01*
X6815Y3795D02*
X7145D01*
X6815Y4045D02*
Y4235D01*
X7145Y4045D02*
Y4235D01*
X6815D02*
X7145D01*
X6815Y4045D02*
X7145D01*
X6815Y4305D02*
Y4495D01*
X7145Y4305D02*
Y4495D01*
X6815D02*
X7145D01*
X6815Y4305D02*
X7145D01*
X6415Y5753D02*
Y5942D01*
X6745Y5753D02*
Y5942D01*
X6415D02*
X6745D01*
X6415Y5753D02*
X6745D01*
X6415Y5942D02*
Y6133D01*
X6745Y5942D02*
Y6133D01*
X6415D02*
X6745D01*
X6415Y5942D02*
X6745D01*
X6415Y5212D02*
Y5402D01*
X6745Y5212D02*
Y5402D01*
X6415D02*
X6745D01*
X6415Y5212D02*
X6745D01*
X3175Y4755D02*
Y4945D01*
X2845Y4755D02*
Y4945D01*
Y4755D02*
X3175D01*
X2845Y4945D02*
X3175D01*
X3175Y5015D02*
Y5205D01*
X2845Y5015D02*
Y5205D01*
Y5015D02*
X3175D01*
X2845Y5205D02*
X3175D01*
X4480Y5520D02*
X5520D01*
X4480Y4480D02*
X5520D01*
Y5520D01*
X4480Y4480D02*
Y5520D01*
X6955Y5140D02*
X7145D01*
X6955Y4800D02*
X7145D01*
Y5140D01*
X6955Y4800D02*
Y5140D01*
X7030Y5891D02*
Y5991D01*
X6980Y5941D02*
X7080D01*
X6875Y5398D02*
Y6484D01*
X7185D01*
Y5398D02*
Y6484D01*
X6875Y5398D02*
X7185D01*
X7340Y5891D02*
Y5991D01*
X7290Y5941D02*
X7390D01*
X7186Y5398D02*
Y6484D01*
X7494D01*
Y5398D02*
Y6484D01*
X7186Y5398D02*
X7494D01*
X5737Y7350D02*
X5837D01*
X5787Y7300D02*
Y7400D01*
X5244Y7196D02*
X6330D01*
X5244D02*
Y7504D01*
X6330D01*
Y7196D02*
Y7504D01*
X7340Y4220D02*
Y4320D01*
X7290Y4270D02*
X7390D01*
X7186Y3473D02*
X7494D01*
Y5067D01*
X7186D02*
X7494D01*
X7186Y3473D02*
Y5067D01*
X3200Y3215D02*
Y3565D01*
X3620Y3215D02*
Y3565D01*
X3200D02*
X3620D01*
X3200Y3215D02*
X3620D01*
X3580Y3585D02*
Y3775D01*
X3240Y3585D02*
Y3775D01*
Y3585D02*
X3580D01*
X3240Y3775D02*
X3580D01*
X3278Y2975D02*
Y3165D01*
X3617Y2975D02*
Y3165D01*
X3278D02*
X3617D01*
X3278Y2975D02*
X3617D01*
X3617Y2785D02*
Y2975D01*
X3278Y2785D02*
Y2975D01*
Y2785D02*
X3617D01*
X3278Y2975D02*
X3617D01*
X4744Y2505D02*
Y3160D01*
X5256Y2505D02*
Y3160D01*
X4744Y2505D02*
X5256D01*
X4744Y3160D02*
X5256D01*
X5015Y3585D02*
X5205D01*
X5015Y3255D02*
X5205D01*
Y3585D01*
X5015Y3255D02*
Y3585D01*
X4950Y5862D02*
X5140D01*
X4950Y5522D02*
X5140D01*
Y5862D01*
X4950Y5522D02*
Y5862D01*
X5140D02*
X5330D01*
X5140Y5522D02*
X5330D01*
Y5862D01*
X5140Y5522D02*
Y5862D01*
X5330D02*
X5520D01*
X5330Y5522D02*
X5520D01*
Y5862D01*
X5330Y5522D02*
Y5862D01*
X5880Y5705D02*
Y5895D01*
X5540Y5705D02*
Y5895D01*
Y5705D02*
X5880D01*
X5540Y5895D02*
X5880D01*
X6465Y3120D02*
X6655D01*
X6465Y3460D02*
X6655D01*
X6465Y3120D02*
Y3460D01*
X6655Y3120D02*
Y3460D01*
X6388Y6715D02*
Y6905D01*
X6728Y6715D02*
Y6905D01*
X6388D02*
X6728D01*
X6388Y6715D02*
X6728D01*
X5645Y6342D02*
X5835D01*
X5645Y6682D02*
X5835D01*
X5645Y6342D02*
Y6682D01*
X5835Y6342D02*
Y6682D01*
X4895Y5775D02*
Y5965D01*
X4565Y5775D02*
Y5965D01*
Y5775D02*
X4895D01*
X4565Y5965D02*
X4895D01*
X6170Y6045D02*
Y6235D01*
X5830Y6045D02*
Y6235D01*
Y6045D02*
X6170D01*
X5830Y6235D02*
X6170D01*
X4930Y6485D02*
Y6675D01*
X4590Y6485D02*
Y6675D01*
Y6485D02*
X4930D01*
X4590Y6675D02*
X4930D01*
X5010Y6485D02*
Y6675D01*
X5350Y6485D02*
Y6675D01*
X5010D02*
X5350D01*
X5010Y6485D02*
X5350D01*
X6415Y5402D02*
Y5592D01*
X6745Y5402D02*
Y5592D01*
X6415D02*
X6745D01*
X6415Y5402D02*
X6745D01*
X5644Y2518D02*
Y3082D01*
Y2518D02*
X6476D01*
Y3082D01*
X5644D02*
X6476D01*
X6060Y2750D02*
Y2850D01*
X6010Y2800D02*
X6110D01*
X5715Y3455D02*
X5905D01*
X5715Y3125D02*
X5905D01*
Y3455D01*
X5715Y3125D02*
Y3455D01*
X6215D02*
X6405D01*
X6215Y3125D02*
X6405D01*
Y3455D01*
X6215Y3125D02*
Y3455D01*
X6175Y6965D02*
Y7155D01*
X5845Y6965D02*
Y7155D01*
Y6965D02*
X6175D01*
X5845Y7155D02*
X6175D01*
X5405Y6965D02*
Y7155D01*
X5735Y6965D02*
Y7155D01*
X5405D02*
X5735D01*
X5405Y6965D02*
X5735D01*
X3175Y5525D02*
Y5715D01*
X2845Y5525D02*
Y5715D01*
Y5525D02*
X3175D01*
X2845Y5715D02*
X3175D01*
Y5275D02*
Y5465D01*
X2845Y5275D02*
Y5465D01*
Y5275D02*
X3175D01*
X2845Y5465D02*
X3175D01*
M02*
